<?xml version="1.0" encoding="UTF-8" standalone="no"?>
<!DOCTYPE svg PUBLIC "-//W3C//DTD SVG 1.1//EN"
 "http://www.w3.org/Graphics/SVG/1.1/DTD/svg11.dtd">
<!-- Generated by graphviz version 2.46.0 (20210118.1747)
 -->
<!-- Title: ast Pages: 1 -->
<svg width="278pt" height="368pt"
 viewBox="0.00 0.00 278.00 368.00" xmlns="http://www.w3.org/2000/svg" xmlns:xlink="http://www.w3.org/1999/xlink">
<g id="graph0" class="graph" transform="scale(1 1) rotate(0) translate(4 364)">
<title>ast</title>
<polygon fill="white" stroke="transparent" points="-4,4 -4,-364 274,-364 274,4 -4,4"/>
<!-- 1 -->
<g id="node1" class="node">
<title>1</title>
<text text-anchor="middle" x="27" y="-14.3" font-family="Consolas" font-size="14.00">a(1)</text>
</g>
<!-- 2 -->
<g id="node2" class="node">
<title>2</title>
<text text-anchor="middle" x="99" y="-14.3" font-family="Consolas" font-size="14.00">b(2)</text>
</g>
<!-- 3 -->
<g id="node3" class="node">
<title>3</title>
<text text-anchor="middle" x="135" y="-122.3" font-family="Consolas" font-size="14.00">a(3)</text>
</g>
<!-- 4 -->
<g id="node4" class="node">
<title>4</title>
<text text-anchor="middle" x="171" y="-176.3" font-family="Consolas" font-size="14.00">b(4)</text>
</g>
<!-- 5 -->
<g id="node5" class="node">
<title>5</title>
<text text-anchor="middle" x="207" y="-230.3" font-family="Consolas" font-size="14.00">b(5)</text>
</g>
<!-- 6 -->
<g id="node6" class="node">
<title>6</title>
<text text-anchor="middle" x="243" y="-284.3" font-family="Consolas" font-size="14.00">#(6)</text>
</g>
<!-- r0 -->
<g id="node7" class="node">
<title>r0</title>
<text text-anchor="middle" x="207" y="-338.3" font-family="Consolas" font-size="14.00">cat</text>
</g>
<!-- r0&#45;&#45;6 -->
<g id="edge6" class="edge">
<title>r0&#45;&#45;6</title>
<path fill="none" stroke="black" d="M218.79,-323.97C222.72,-318.29 227.11,-311.95 231.06,-306.24"/>
</g>
<!-- r1 -->
<g id="node8" class="node">
<title>r1</title>
<text text-anchor="middle" x="171" y="-284.3" font-family="Consolas" font-size="14.00">cat</text>
</g>
<!-- r0&#45;&#45;r1 -->
<g id="edge1" class="edge">
<title>r0&#45;&#45;r1</title>
<path fill="none" stroke="black" d="M195.21,-323.97C191.28,-318.29 186.89,-311.95 182.94,-306.24"/>
</g>
<!-- r1&#45;&#45;5 -->
<g id="edge7" class="edge">
<title>r1&#45;&#45;5</title>
<path fill="none" stroke="black" d="M182.79,-269.97C186.72,-264.29 191.11,-257.95 195.06,-252.24"/>
</g>
<!-- r2 -->
<g id="node9" class="node">
<title>r2</title>
<text text-anchor="middle" x="135" y="-230.3" font-family="Consolas" font-size="14.00">cat</text>
</g>
<!-- r1&#45;&#45;r2 -->
<g id="edge2" class="edge">
<title>r1&#45;&#45;r2</title>
<path fill="none" stroke="black" d="M159.21,-269.97C155.28,-264.29 150.89,-257.95 146.94,-252.24"/>
</g>
<!-- r2&#45;&#45;4 -->
<g id="edge8" class="edge">
<title>r2&#45;&#45;4</title>
<path fill="none" stroke="black" d="M146.79,-215.97C150.72,-210.29 155.11,-203.95 159.06,-198.24"/>
</g>
<!-- r3 -->
<g id="node10" class="node">
<title>r3</title>
<text text-anchor="middle" x="99" y="-176.3" font-family="Consolas" font-size="14.00">cat</text>
</g>
<!-- r2&#45;&#45;r3 -->
<g id="edge3" class="edge">
<title>r2&#45;&#45;r3</title>
<path fill="none" stroke="black" d="M123.21,-215.97C119.28,-210.29 114.89,-203.95 110.94,-198.24"/>
</g>
<!-- r3&#45;&#45;3 -->
<g id="edge9" class="edge">
<title>r3&#45;&#45;3</title>
<path fill="none" stroke="black" d="M110.79,-161.97C114.72,-156.29 119.11,-149.95 123.06,-144.24"/>
</g>
<!-- r4 -->
<g id="node11" class="node">
<title>r4</title>
<text text-anchor="middle" x="63" y="-122.3" font-family="Consolas" font-size="14.00">*</text>
</g>
<!-- r3&#45;&#45;r4 -->
<g id="edge4" class="edge">
<title>r3&#45;&#45;r4</title>
<path fill="none" stroke="black" d="M87.21,-161.97C83.28,-156.29 78.89,-149.95 74.94,-144.24"/>
</g>
<!-- r5 -->
<g id="node12" class="node">
<title>r5</title>
<text text-anchor="middle" x="63" y="-68.3" font-family="Consolas" font-size="14.00">|</text>
</g>
<!-- r4&#45;&#45;r5 -->
<g id="edge5" class="edge">
<title>r4&#45;&#45;r5</title>
<path fill="none" stroke="black" d="M63,-107.97C63,-102.29 63,-95.95 63,-90.24"/>
</g>
<!-- r5&#45;&#45;1 -->
<g id="edge10" class="edge">
<title>r5&#45;&#45;1</title>
<path fill="none" stroke="black" d="M51.21,-53.97C47.28,-48.29 42.89,-41.95 38.94,-36.24"/>
</g>
<!-- r5&#45;&#45;2 -->
<g id="edge11" class="edge">
<title>r5&#45;&#45;2</title>
<path fill="none" stroke="black" d="M74.79,-53.97C78.72,-48.29 83.11,-41.95 87.06,-36.24"/>
</g>
</g>
</svg>
