<?xml version="1.0" encoding="UTF-8" standalone="no"?>
<!DOCTYPE svg PUBLIC "-//W3C//DTD SVG 1.1//EN"
 "http://www.w3.org/Graphics/SVG/1.1/DTD/svg11.dtd">
<!-- Generated by graphviz version 2.46.0 (20210118.1747)
 -->
<!-- Title: ast Pages: 1 -->
<svg width="375pt" height="382pt"
 viewBox="0.00 0.00 375.00 382.00" xmlns="http://www.w3.org/2000/svg" xmlns:xlink="http://www.w3.org/1999/xlink">
<g id="graph0" class="graph" transform="scale(1 1) rotate(0) translate(4 378)">
<title>ast</title>
<polygon fill="white" stroke="transparent" points="-4,4 -4,-378 371,-378 371,4 -4,4"/>
<!-- 1 -->
<g id="node1" class="node">
<title>1</title>
<text text-anchor="middle" x="34.5" y="-22.8" font-family="Consolas" font-size="14.00">a(1)</text>
<text text-anchor="middle" x="34.5" y="-7.8" font-family="Consolas" font-size="14.00">{1};{1}</text>
</g>
<!-- 2 -->
<g id="node2" class="node">
<title>2</title>
<text text-anchor="middle" x="121.5" y="-22.8" font-family="Consolas" font-size="14.00">b(2)</text>
<text text-anchor="middle" x="121.5" y="-7.8" font-family="Consolas" font-size="14.00">{2};{2}</text>
</g>
<!-- 3 -->
<g id="node3" class="node">
<title>3</title>
<text text-anchor="middle" x="179.5" y="-134.8" font-family="Consolas" font-size="14.00">a(3)</text>
<text text-anchor="middle" x="179.5" y="-119.8" font-family="Consolas" font-size="14.00">{3};{3}</text>
</g>
<!-- 4 -->
<g id="node4" class="node">
<title>4</title>
<text text-anchor="middle" x="230.5" y="-190.8" font-family="Consolas" font-size="14.00">b(4)</text>
<text text-anchor="middle" x="230.5" y="-175.8" font-family="Consolas" font-size="14.00">{4};{4}</text>
</g>
<!-- 5 -->
<g id="node5" class="node">
<title>5</title>
<text text-anchor="middle" x="281.5" y="-246.8" font-family="Consolas" font-size="14.00">b(5)</text>
<text text-anchor="middle" x="281.5" y="-231.8" font-family="Consolas" font-size="14.00">{5};{5}</text>
</g>
<!-- 6 -->
<g id="node6" class="node">
<title>6</title>
<text text-anchor="middle" x="332.5" y="-302.8" font-family="Consolas" font-size="14.00">#(6)</text>
<text text-anchor="middle" x="332.5" y="-287.8" font-family="Consolas" font-size="14.00">{6};{6}</text>
</g>
<!-- r0 -->
<g id="node7" class="node">
<title>r0</title>
<text text-anchor="middle" x="281.5" y="-358.8" font-family="Consolas" font-size="14.00">cat</text>
<text text-anchor="middle" x="281.5" y="-343.8" font-family="Consolas" font-size="14.00">{1,2,3};{6}</text>
</g>
<!-- r0&#45;&#45;6 -->
<g id="edge6" class="edge">
<title>r0&#45;&#45;6</title>
<path fill="none" stroke="black" d="M298.77,-335.72C304.08,-330.09 309.94,-323.89 315.25,-318.26"/>
</g>
<!-- r1 -->
<g id="node8" class="node">
<title>r1</title>
<text text-anchor="middle" x="230.5" y="-302.8" font-family="Consolas" font-size="14.00">cat</text>
<text text-anchor="middle" x="230.5" y="-287.8" font-family="Consolas" font-size="14.00">{1,2,3};{5}</text>
</g>
<!-- r0&#45;&#45;r1 -->
<g id="edge1" class="edge">
<title>r0&#45;&#45;r1</title>
<path fill="none" stroke="black" d="M264.23,-335.72C258.92,-330.09 253.06,-323.89 247.75,-318.26"/>
</g>
<!-- r1&#45;&#45;5 -->
<g id="edge7" class="edge">
<title>r1&#45;&#45;5</title>
<path fill="none" stroke="black" d="M247.77,-279.72C253.08,-274.09 258.94,-267.89 264.25,-262.26"/>
</g>
<!-- r2 -->
<g id="node9" class="node">
<title>r2</title>
<text text-anchor="middle" x="179.5" y="-246.8" font-family="Consolas" font-size="14.00">cat</text>
<text text-anchor="middle" x="179.5" y="-231.8" font-family="Consolas" font-size="14.00">{1,2,3};{4}</text>
</g>
<!-- r1&#45;&#45;r2 -->
<g id="edge2" class="edge">
<title>r1&#45;&#45;r2</title>
<path fill="none" stroke="black" d="M213.23,-279.72C207.92,-274.09 202.06,-267.89 196.75,-262.26"/>
</g>
<!-- r2&#45;&#45;4 -->
<g id="edge8" class="edge">
<title>r2&#45;&#45;4</title>
<path fill="none" stroke="black" d="M196.77,-223.72C202.08,-218.09 207.94,-211.89 213.25,-206.26"/>
</g>
<!-- r3 -->
<g id="node10" class="node">
<title>r3</title>
<text text-anchor="middle" x="128.5" y="-190.8" font-family="Consolas" font-size="14.00">cat</text>
<text text-anchor="middle" x="128.5" y="-175.8" font-family="Consolas" font-size="14.00">{1,2,3};{3}</text>
</g>
<!-- r2&#45;&#45;r3 -->
<g id="edge3" class="edge">
<title>r2&#45;&#45;r3</title>
<path fill="none" stroke="black" d="M162.23,-223.72C156.92,-218.09 151.06,-211.89 145.75,-206.26"/>
</g>
<!-- r3&#45;&#45;3 -->
<g id="edge9" class="edge">
<title>r3&#45;&#45;3</title>
<path fill="none" stroke="black" d="M145.77,-167.72C151.08,-162.09 156.94,-155.89 162.25,-150.26"/>
</g>
<!-- r4 -->
<g id="node11" class="node">
<title>r4</title>
<text text-anchor="middle" x="77.5" y="-134.8" font-family="Consolas" font-size="14.00">*</text>
<text text-anchor="middle" x="77.5" y="-119.8" font-family="Consolas" font-size="14.00">{1,2};{1,2}</text>
</g>
<!-- r3&#45;&#45;r4 -->
<g id="edge4" class="edge">
<title>r3&#45;&#45;r4</title>
<path fill="none" stroke="black" d="M111.23,-167.72C105.92,-162.09 100.06,-155.89 94.75,-150.26"/>
</g>
<!-- r5 -->
<g id="node12" class="node">
<title>r5</title>
<text text-anchor="middle" x="77.5" y="-78.8" font-family="Consolas" font-size="14.00">|</text>
<text text-anchor="middle" x="77.5" y="-63.8" font-family="Consolas" font-size="14.00">{1,2};{1,2}</text>
</g>
<!-- r4&#45;&#45;r5 -->
<g id="edge5" class="edge">
<title>r4&#45;&#45;r5</title>
<path fill="none" stroke="black" d="M77.5,-111.72C77.5,-106.09 77.5,-99.89 77.5,-94.26"/>
</g>
<!-- r5&#45;&#45;1 -->
<g id="edge10" class="edge">
<title>r5&#45;&#45;1</title>
<path fill="none" stroke="black" d="M62.94,-55.72C58.46,-50.09 53.52,-43.89 49.04,-38.26"/>
</g>
<!-- r5&#45;&#45;2 -->
<g id="edge11" class="edge">
<title>r5&#45;&#45;2</title>
<path fill="none" stroke="black" d="M92.4,-55.72C96.98,-50.09 102.03,-43.89 106.62,-38.26"/>
</g>
</g>
</svg>
