<?xml version="1.0" encoding="UTF-8" standalone="no"?>
<!DOCTYPE svg PUBLIC "-//W3C//DTD SVG 1.1//EN"
 "http://www.w3.org/Graphics/SVG/1.1/DTD/svg11.dtd">
<!-- Generated by graphviz version 2.46.0 (20210118.1747)
 -->
<!-- Title: dag Pages: 1 -->
<svg width="210pt" height="332pt"
 viewBox="0.00 0.00 210.00 332.00" xmlns="http://www.w3.org/2000/svg" xmlns:xlink="http://www.w3.org/1999/xlink">
<g id="graph0" class="graph" transform="scale(1 1) rotate(0) translate(4 328)">
<title>dag</title>
<polygon fill="white" stroke="transparent" points="-4,4 -4,-328 206,-328 206,4 -4,4"/>
<!-- p1 -->
<g id="node1" class="node">
<title>p1</title>
<text text-anchor="middle" x="109" y="-302.3" font-family="Times New Roman,serif" font-size="14.00">+</text>
</g>
<!-- p2 -->
<g id="node2" class="node">
<title>p2</title>
<text text-anchor="middle" x="73" y="-230.3" font-family="Times New Roman,serif" font-size="14.00">+</text>
</g>
<!-- p1&#45;&gt;p2 -->
<g id="edge1" class="edge">
<title>p1&#45;&gt;p2</title>
<path fill="none" stroke="black" d="M100.1,-287.7C96,-279.73 91.05,-270.1 86.51,-261.26"/>
<polygon fill="black" stroke="black" points="89.48,-259.4 81.8,-252.1 83.26,-262.6 89.48,-259.4"/>
</g>
<!-- mp2 -->
<g id="node4" class="node">
<title>mp2</title>
<text text-anchor="middle" x="145" y="-230.3" font-family="Times New Roman,serif" font-size="14.00">*</text>
</g>
<!-- p1&#45;&gt;mp2 -->
<g id="edge2" class="edge">
<title>p1&#45;&gt;mp2</title>
<path fill="none" stroke="black" d="M117.9,-287.7C122,-279.73 126.95,-270.1 131.49,-261.26"/>
<polygon fill="black" stroke="black" points="134.74,-262.6 136.2,-252.1 128.52,-259.4 134.74,-262.6"/>
</g>
<!-- mp1 -->
<g id="node3" class="node">
<title>mp1</title>
<text text-anchor="middle" x="82" y="-158.3" font-family="Times New Roman,serif" font-size="14.00">*</text>
</g>
<!-- p2&#45;&gt;mp1 -->
<g id="edge4" class="edge">
<title>p2&#45;&gt;mp1</title>
<path fill="none" stroke="black" d="M75.22,-215.7C76.22,-207.98 77.41,-198.71 78.51,-190.11"/>
<polygon fill="black" stroke="black" points="82,-190.47 79.8,-180.1 75.05,-189.58 82,-190.47"/>
</g>
<!-- a -->
<g id="node6" class="node">
<title>a</title>
<text text-anchor="middle" x="27" y="-86.3" font-family="Times New Roman,serif" font-size="14.00">a</text>
</g>
<!-- p2&#45;&gt;a -->
<g id="edge3" class="edge">
<title>p2&#45;&gt;a</title>
<path fill="none" stroke="black" d="M62.81,-215.84C57.17,-205.71 50.42,-192.46 46,-180 38.84,-159.8 33.93,-136.03 30.9,-118.13"/>
<polygon fill="black" stroke="black" points="34.33,-117.41 29.29,-108.09 27.42,-118.52 34.33,-117.41"/>
</g>
<!-- mn -->
<g id="node5" class="node">
<title>mn</title>
<text text-anchor="middle" x="101" y="-86.3" font-family="Times New Roman,serif" font-size="14.00">&#45;</text>
</g>
<!-- mp1&#45;&gt;mn -->
<g id="edge5" class="edge">
<title>mp1&#45;&gt;mn</title>
<path fill="none" stroke="black" d="M86.7,-143.7C88.81,-135.9 91.36,-126.51 93.72,-117.83"/>
<polygon fill="black" stroke="black" points="97.12,-118.67 96.36,-108.1 90.36,-116.84 97.12,-118.67"/>
</g>
<!-- mp2&#45;&gt;mn -->
<g id="edge6" class="edge">
<title>mp2&#45;&gt;mn</title>
<path fill="none" stroke="black" d="M139.9,-215.91C134.53,-197.98 125.79,-168.97 118,-144 115.34,-135.47 112.38,-126.2 109.69,-117.82"/>
<polygon fill="black" stroke="black" points="112.98,-116.61 106.58,-108.16 106.32,-118.76 112.98,-116.61"/>
</g>
<!-- d -->
<g id="node9" class="node">
<title>d</title>
<text text-anchor="middle" x="175" y="-86.3" font-family="Times New Roman,serif" font-size="14.00">d</text>
</g>
<!-- mp2&#45;&gt;d -->
<g id="edge7" class="edge">
<title>mp2&#45;&gt;d</title>
<path fill="none" stroke="black" d="M148.62,-215.87C153.75,-191.56 163.21,-146.82 169.29,-118.01"/>
<polygon fill="black" stroke="black" points="172.73,-118.7 171.37,-108.19 165.88,-117.25 172.73,-118.7"/>
</g>
<!-- b -->
<g id="node7" class="node">
<title>b</title>
<text text-anchor="middle" x="65" y="-14.3" font-family="Times New Roman,serif" font-size="14.00">b</text>
</g>
<!-- mn&#45;&gt;b -->
<g id="edge8" class="edge">
<title>mn&#45;&gt;b</title>
<path fill="none" stroke="black" d="M92.1,-71.7C88,-63.73 83.05,-54.1 78.51,-45.26"/>
<polygon fill="black" stroke="black" points="81.48,-43.4 73.8,-36.1 75.26,-46.6 81.48,-43.4"/>
</g>
<!-- c -->
<g id="node8" class="node">
<title>c</title>
<text text-anchor="middle" x="137" y="-14.3" font-family="Times New Roman,serif" font-size="14.00">c</text>
</g>
<!-- mn&#45;&gt;c -->
<g id="edge9" class="edge">
<title>mn&#45;&gt;c</title>
<path fill="none" stroke="black" d="M109.9,-71.7C114,-63.73 118.95,-54.1 123.49,-45.26"/>
<polygon fill="black" stroke="black" points="126.74,-46.6 128.2,-36.1 120.52,-43.4 126.74,-46.6"/>
</g>
</g>
</svg>
