<?xml version="1.0" encoding="UTF-8" standalone="no"?>
<!DOCTYPE svg PUBLIC "-//W3C//DTD SVG 1.1//EN"
 "http://www.w3.org/Graphics/SVG/1.1/DTD/svg11.dtd">
<!-- Generated by graphviz version 2.46.0 (20210118.1747)
 -->
<!-- Title: dag Pages: 1 -->
<svg width="208pt" height="332pt"
 viewBox="0.00 0.00 208.00 332.00" xmlns="http://www.w3.org/2000/svg" xmlns:xlink="http://www.w3.org/1999/xlink">
<g id="graph0" class="graph" transform="scale(1 1) rotate(0) translate(4 328)">
<title>dag</title>
<polygon fill="white" stroke="transparent" points="-4,4 -4,-328 204,-328 204,4 -4,4"/>
<!-- p1 -->
<g id="node1" class="node">
<title>p1</title>
<text text-anchor="middle" x="90" y="-302.3" font-family="Times New Roman,serif" font-size="14.00">+</text>
</g>
<!-- p2 -->
<g id="node2" class="node">
<title>p2</title>
<text text-anchor="middle" x="54" y="-230.3" font-family="Times New Roman,serif" font-size="14.00">+</text>
</g>
<!-- p1&#45;&gt;p2 -->
<g id="edge1" class="edge">
<title>p1&#45;&gt;p2</title>
<path fill="none" stroke="black" d="M81.1,-287.7C77,-279.73 72.05,-270.1 67.51,-261.26"/>
<polygon fill="black" stroke="black" points="70.48,-259.4 62.8,-252.1 64.26,-262.6 70.48,-259.4"/>
</g>
<!-- mp2 -->
<g id="node4" class="node">
<title>mp2</title>
<text text-anchor="middle" x="126" y="-230.3" font-family="Times New Roman,serif" font-size="14.00">*</text>
</g>
<!-- p1&#45;&gt;mp2 -->
<g id="edge2" class="edge">
<title>p1&#45;&gt;mp2</title>
<path fill="none" stroke="black" d="M98.9,-287.7C103,-279.73 107.95,-270.1 112.49,-261.26"/>
<polygon fill="black" stroke="black" points="115.74,-262.6 117.2,-252.1 109.52,-259.4 115.74,-262.6"/>
</g>
<!-- mp1 -->
<g id="node3" class="node">
<title>mp1</title>
<text text-anchor="middle" x="63" y="-158.3" font-family="Times New Roman,serif" font-size="14.00">*</text>
</g>
<!-- p2&#45;&gt;mp1 -->
<g id="edge4" class="edge">
<title>p2&#45;&gt;mp1</title>
<path fill="none" stroke="black" d="M56.22,-215.7C57.22,-207.98 58.41,-198.71 59.51,-190.11"/>
<polygon fill="black" stroke="black" points="63,-190.47 60.8,-180.1 56.05,-189.58 63,-190.47"/>
</g>
<!-- a -->
<g id="node6" class="node">
<title>a</title>
<text text-anchor="middle" x="27" y="-86.3" font-family="Times New Roman,serif" font-size="14.00">a</text>
</g>
<!-- p2&#45;&gt;a -->
<g id="edge3" class="edge">
<title>p2&#45;&gt;a</title>
<path fill="none" stroke="black" d="M42.53,-215.67C36.63,-205.69 30.04,-192.65 27,-180 22.11,-159.62 22.4,-135.86 23.76,-118.01"/>
<polygon fill="black" stroke="black" points="27.25,-118.28 24.67,-108.01 20.27,-117.65 27.25,-118.28"/>
</g>
<!-- mn -->
<g id="node5" class="node">
<title>mn</title>
<text text-anchor="middle" x="108" y="-86.3" font-family="Times New Roman,serif" font-size="14.00">&#45;</text>
</g>
<!-- mp1&#45;&gt;mn -->
<g id="edge6" class="edge">
<title>mp1&#45;&gt;mn</title>
<path fill="none" stroke="black" d="M74.12,-143.7C79.36,-135.56 85.7,-125.69 91.48,-116.7"/>
<polygon fill="black" stroke="black" points="94.54,-118.41 97,-108.1 88.65,-114.62 94.54,-118.41"/>
</g>
<!-- mp1&#45;&gt;a -->
<g id="edge5" class="edge">
<title>mp1&#45;&gt;a</title>
<path fill="none" stroke="black" d="M54.1,-143.7C50,-135.73 45.05,-126.1 40.51,-117.26"/>
<polygon fill="black" stroke="black" points="43.48,-115.4 35.8,-108.1 37.26,-118.6 43.48,-115.4"/>
</g>
<!-- mp2&#45;&gt;mn -->
<g id="edge7" class="edge">
<title>mp2&#45;&gt;mn</title>
<path fill="none" stroke="black" d="M123.83,-215.87C120.76,-191.67 115.13,-147.21 111.47,-118.39"/>
<polygon fill="black" stroke="black" points="114.91,-117.67 110.18,-108.19 107.96,-118.55 114.91,-117.67"/>
</g>
<!-- d -->
<g id="node9" class="node">
<title>d</title>
<text text-anchor="middle" x="173" y="-158.3" font-family="Times New Roman,serif" font-size="14.00">d</text>
</g>
<!-- mp2&#45;&gt;d -->
<g id="edge8" class="edge">
<title>mp2&#45;&gt;d</title>
<path fill="none" stroke="black" d="M137.62,-215.7C143.14,-207.47 149.85,-197.48 155.93,-188.42"/>
<polygon fill="black" stroke="black" points="158.85,-190.36 161.52,-180.1 153.04,-186.46 158.85,-190.36"/>
</g>
<!-- b -->
<g id="node7" class="node">
<title>b</title>
<text text-anchor="middle" x="72" y="-14.3" font-family="Times New Roman,serif" font-size="14.00">b</text>
</g>
<!-- mn&#45;&gt;b -->
<g id="edge9" class="edge">
<title>mn&#45;&gt;b</title>
<path fill="none" stroke="black" d="M99.1,-71.7C95,-63.73 90.05,-54.1 85.51,-45.26"/>
<polygon fill="black" stroke="black" points="88.48,-43.4 80.8,-36.1 82.26,-46.6 88.48,-43.4"/>
</g>
<!-- c -->
<g id="node8" class="node">
<title>c</title>
<text text-anchor="middle" x="144" y="-14.3" font-family="Times New Roman,serif" font-size="14.00">c</text>
</g>
<!-- mn&#45;&gt;c -->
<g id="edge10" class="edge">
<title>mn&#45;&gt;c</title>
<path fill="none" stroke="black" d="M116.9,-71.7C121,-63.73 125.95,-54.1 130.49,-45.26"/>
<polygon fill="black" stroke="black" points="133.74,-46.6 135.2,-36.1 127.52,-43.4 133.74,-46.6"/>
</g>
</g>
</svg>
