<?xml version="1.0" encoding="UTF-8" standalone="no"?>
<!DOCTYPE svg PUBLIC "-//W3C//DTD SVG 1.1//EN"
 "http://www.w3.org/Graphics/SVG/1.1/DTD/svg11.dtd">
<!-- Generated by graphviz version 2.46.0 (20210118.1747)
 -->
<!-- Title: automaton Pages: 1 -->
<svg width="974pt" height="562pt"
 viewBox="0.00 0.00 974.00 561.50" xmlns="http://www.w3.org/2000/svg" xmlns:xlink="http://www.w3.org/1999/xlink">
<g id="graph0" class="graph" transform="scale(1 1) rotate(0) translate(4 557.5)">
<title>automaton</title>
<polygon fill="white" stroke="transparent" points="-4,4 -4,-557.5 970,-557.5 970,4 -4,4"/>
<!-- I0 -->
<g id="node1" class="node">
<title>I0</title>
<polygon fill="none" stroke="black" points="91,-337.5 0,-337.5 0,-177.5 91,-177.5 91,-337.5"/>
<text text-anchor="start" x="30.5" y="-320.3" font-family="Consolas" font-size="14.00">I0</text>
<text text-anchor="start" x="10.5" y="-301.3" font-family="Consolas" font-size="14.00">E&#39;</text>
<text text-anchor="start" x="34.5" y="-301.3" font-family="Consolas" font-size="14.00">=</text>
<text text-anchor="start" x="58" y="-301.3" font-family="Consolas" font-size="14.00">.E</text>
<text text-anchor="start" x="14.5" y="-282.3" font-family="Consolas" font-size="14.00">E</text>
<text text-anchor="start" x="34.5" y="-282.3" font-family="Consolas" font-size="14.00">=</text>
<text text-anchor="start" x="50.5" y="-282.3" font-family="Consolas" font-size="14.00">.E+T</text>
<text text-anchor="start" x="14.5" y="-263.3" font-family="Consolas" font-size="14.00">E</text>
<text text-anchor="start" x="34.5" y="-263.3" font-family="Consolas" font-size="14.00">=</text>
<text text-anchor="start" x="58" y="-263.3" font-family="Consolas" font-size="14.00">.T</text>
<text text-anchor="start" x="14.5" y="-244.3" font-family="Consolas" font-size="14.00">T</text>
<text text-anchor="start" x="34.5" y="-244.3" font-family="Consolas" font-size="14.00">=</text>
<text text-anchor="start" x="50.5" y="-244.3" font-family="Consolas" font-size="14.00">.T*F</text>
<text text-anchor="start" x="14.5" y="-225.3" font-family="Consolas" font-size="14.00">T</text>
<text text-anchor="start" x="34.5" y="-225.3" font-family="Consolas" font-size="14.00">=</text>
<text text-anchor="start" x="58" y="-225.3" font-family="Consolas" font-size="14.00">.F</text>
<text text-anchor="start" x="14.5" y="-206.3" font-family="Consolas" font-size="14.00">F</text>
<text text-anchor="start" x="34.5" y="-206.3" font-family="Consolas" font-size="14.00">=</text>
<text text-anchor="start" x="50.5" y="-206.3" font-family="Consolas" font-size="14.00">.(E)</text>
<text text-anchor="start" x="14.5" y="-187.3" font-family="Consolas" font-size="14.00">F</text>
<text text-anchor="start" x="34.5" y="-187.3" font-family="Consolas" font-size="14.00">=</text>
<text text-anchor="start" x="54" y="-188.3" font-family="Consolas" font-size="14.00">.</text>
<text text-anchor="start" x="62" y="-188.3" font-family="Consolas" font-weight="bold" font-size="14.00">id</text>
<polygon fill="black" stroke="black" points="8.5,-295.5 8.5,-295.5 28.5,-295.5 28.5,-295.5 8.5,-295.5"/>
<polygon fill="black" stroke="black" points="28.5,-295.5 28.5,-295.5 48.5,-295.5 48.5,-295.5 28.5,-295.5"/>
<polygon fill="black" stroke="black" points="48.5,-295.5 48.5,-295.5 83.5,-295.5 83.5,-295.5 48.5,-295.5"/>
</g>
<!-- I1 -->
<g id="node3" class="node">
<title>I1</title>
<polygon fill="none" stroke="black" points="226,-384 135,-384 135,-319 226,-319 226,-384"/>
<text text-anchor="start" x="165.5" y="-366.3" font-family="Consolas" font-size="14.00">I1</text>
<text text-anchor="start" x="145.5" y="-347.3" font-family="Consolas" font-size="14.00">E&#39;</text>
<text text-anchor="start" x="169.5" y="-347.3" font-family="Consolas" font-size="14.00">=</text>
<text text-anchor="start" x="193" y="-347.3" font-family="Consolas" font-size="14.00">E.</text>
<text text-anchor="start" x="149.5" y="-328.3" font-family="Consolas" font-size="14.00">E</text>
<text text-anchor="start" x="169.5" y="-328.3" font-family="Consolas" font-size="14.00">=</text>
<text text-anchor="start" x="185.5" y="-328.3" font-family="Consolas" font-size="14.00">E.+T</text>
</g>
<!-- I0&#45;&gt;I1 -->
<g id="edge1" class="edge">
<title>I0&#45;&gt;I1</title>
<path fill="none" stroke="black" d="M91.16,-289.06C102.45,-297.05 114.69,-305.7 126.36,-313.94"/>
<polygon fill="black" stroke="black" points="124.55,-316.95 134.73,-319.86 128.59,-311.23 124.55,-316.95"/>
<text text-anchor="middle" x="113" y="-310.3" font-family="Consolas" font-size="14.00">E</text>
</g>
<!-- I2 -->
<g id="node4" class="node">
<title>I2</title>
<polygon fill="none" stroke="black" points="682,-65 599,-65 599,0 682,0 682,-65"/>
<text text-anchor="start" x="621.5" y="-47.3" font-family="Consolas" font-size="14.00">I2</text>
<text text-anchor="start" x="609.5" y="-28.3" font-family="Consolas" font-size="14.00">E</text>
<text text-anchor="start" x="625.5" y="-28.3" font-family="Consolas" font-size="14.00">=</text>
<text text-anchor="start" x="649" y="-28.3" font-family="Consolas" font-size="14.00">T.</text>
<text text-anchor="start" x="609.5" y="-9.3" font-family="Consolas" font-size="14.00">T</text>
<text text-anchor="start" x="625.5" y="-9.3" font-family="Consolas" font-size="14.00">=</text>
<text text-anchor="start" x="641.5" y="-9.3" font-family="Consolas" font-size="14.00">T.*F</text>
</g>
<!-- I0&#45;&gt;I2 -->
<g id="edge2" class="edge">
<title>I0&#45;&gt;I2</title>
<path fill="none" stroke="black" d="M57.48,-177.25C72.03,-107.82 105.19,-18.5 179.5,-18.5 179.5,-18.5 179.5,-18.5 439.5,-18.5 490.41,-18.5 548.44,-23.07 588.82,-26.99"/>
<polygon fill="black" stroke="black" points="588.66,-30.49 598.95,-27.99 589.35,-23.52 588.66,-30.49"/>
<text text-anchor="middle" x="311.5" y="-22.3" font-family="Consolas" font-size="14.00">T</text>
</g>
<!-- I3 -->
<g id="node5" class="node">
<title>I3</title>
<polygon fill="none" stroke="black" points="674.5,-353.5 606.5,-353.5 606.5,-307.5 674.5,-307.5 674.5,-353.5"/>
<text text-anchor="start" x="628.5" y="-336.3" font-family="Consolas" font-size="14.00">I3</text>
<text text-anchor="start" x="616.5" y="-317.3" font-family="Consolas" font-size="14.00">T</text>
<text text-anchor="start" x="632.5" y="-317.3" font-family="Consolas" font-size="14.00">=</text>
<text text-anchor="start" x="648.5" y="-317.3" font-family="Consolas" font-size="14.00">F.</text>
</g>
<!-- I0&#45;&gt;I3 -->
<g id="edge3" class="edge">
<title>I0&#45;&gt;I3</title>
<path fill="none" stroke="black" d="M91.11,-253.36C151.4,-249 261.86,-245.35 353,-266.5 373.93,-271.36 376.5,-280.09 397,-286.5 465.06,-307.78 547.27,-320 596.37,-325.94"/>
<polygon fill="black" stroke="black" points="595.98,-329.42 606.32,-327.11 596.8,-322.47 595.98,-329.42"/>
<text text-anchor="middle" x="311.5" y="-270.3" font-family="Consolas" font-size="14.00">F</text>
</g>
<!-- I4 -->
<g id="node6" class="node">
<title>I4</title>
<polygon fill="none" stroke="black" points="480,-244.5 397,-244.5 397,-84.5 480,-84.5 480,-244.5"/>
<text text-anchor="start" x="419.5" y="-227.3" font-family="Consolas" font-size="14.00">I4</text>
<text text-anchor="start" x="407.5" y="-208.3" font-family="Consolas" font-size="14.00">T</text>
<text text-anchor="start" x="423.5" y="-208.3" font-family="Consolas" font-size="14.00">=</text>
<text text-anchor="start" x="447" y="-208.3" font-family="Consolas" font-size="14.00">F.</text>
<text text-anchor="start" x="407.5" y="-189.3" font-family="Consolas" font-size="14.00">E</text>
<text text-anchor="start" x="423.5" y="-189.3" font-family="Consolas" font-size="14.00">=</text>
<text text-anchor="start" x="439.5" y="-189.3" font-family="Consolas" font-size="14.00">.E+T</text>
<text text-anchor="start" x="407.5" y="-170.3" font-family="Consolas" font-size="14.00">E</text>
<text text-anchor="start" x="423.5" y="-170.3" font-family="Consolas" font-size="14.00">=</text>
<text text-anchor="start" x="447" y="-170.3" font-family="Consolas" font-size="14.00">.T</text>
<text text-anchor="start" x="407.5" y="-151.3" font-family="Consolas" font-size="14.00">T</text>
<text text-anchor="start" x="423.5" y="-151.3" font-family="Consolas" font-size="14.00">=</text>
<text text-anchor="start" x="439.5" y="-151.3" font-family="Consolas" font-size="14.00">.T*F</text>
<text text-anchor="start" x="407.5" y="-132.3" font-family="Consolas" font-size="14.00">T</text>
<text text-anchor="start" x="423.5" y="-132.3" font-family="Consolas" font-size="14.00">=</text>
<text text-anchor="start" x="447" y="-132.3" font-family="Consolas" font-size="14.00">.F</text>
<text text-anchor="start" x="407.5" y="-113.3" font-family="Consolas" font-size="14.00">F</text>
<text text-anchor="start" x="423.5" y="-113.3" font-family="Consolas" font-size="14.00">=</text>
<text text-anchor="start" x="439.5" y="-113.3" font-family="Consolas" font-size="14.00">.(E)</text>
<text text-anchor="start" x="407.5" y="-94.3" font-family="Consolas" font-size="14.00">F</text>
<text text-anchor="start" x="423.5" y="-94.3" font-family="Consolas" font-size="14.00">=</text>
<text text-anchor="start" x="443" y="-95.3" font-family="Consolas" font-size="14.00">.</text>
<text text-anchor="start" x="451" y="-95.3" font-family="Consolas" font-weight="bold" font-size="14.00">id</text>
<polygon fill="black" stroke="black" points="405.5,-202.5 405.5,-202.5 417.5,-202.5 417.5,-202.5 405.5,-202.5"/>
<polygon fill="black" stroke="black" points="417.5,-202.5 417.5,-202.5 437.5,-202.5 437.5,-202.5 417.5,-202.5"/>
<polygon fill="black" stroke="black" points="437.5,-202.5 437.5,-202.5 472.5,-202.5 472.5,-202.5 437.5,-202.5"/>
</g>
<!-- I0&#45;&gt;I4 -->
<g id="edge4" class="edge">
<title>I0&#45;&gt;I4</title>
<path fill="none" stroke="black" d="M91.35,-246.83C164.78,-229.37 310.16,-194.79 387.06,-176.5"/>
<polygon fill="black" stroke="black" points="388.08,-179.85 396.99,-174.13 386.46,-173.04 388.08,-179.85"/>
<text text-anchor="middle" x="248" y="-213.3" font-family="Consolas" font-size="14.00">(</text>
</g>
<!-- I5 -->
<g id="node7" class="node">
<title>I5</title>
<polygon fill="none" stroke="black" points="959,-317.5 883,-317.5 883,-271.5 959,-271.5 959,-317.5"/>
<text text-anchor="start" x="905" y="-300.3" font-family="Consolas" font-size="14.00">I5</text>
<text text-anchor="start" x="893" y="-281.3" font-family="Consolas" font-size="14.00">F</text>
<text text-anchor="start" x="909" y="-281.3" font-family="Consolas" font-size="14.00">=</text>
<text text-anchor="start" x="925" y="-282.3" font-family="Consolas" font-weight="bold" font-size="14.00">id</text>
<text text-anchor="start" x="941" y="-282.3" font-family="Consolas" font-size="14.00">.</text>
</g>
<!-- I0&#45;&gt;I5 -->
<g id="edge5" class="edge">
<title>I0&#45;&gt;I5</title>
<path fill="none" stroke="black" d="M51.08,-337.65C60.67,-420.7 90.04,-538.5 179.5,-538.5 179.5,-538.5 179.5,-538.5 780,-538.5 875.96,-538.5 907.09,-394.76 916.38,-327.93"/>
<polygon fill="black" stroke="black" points="919.86,-328.26 917.69,-317.9 912.92,-327.36 919.86,-328.26"/>
<text text-anchor="start" x="430.5" y="-543.3" font-family="Consolas" font-weight="bold" font-size="14.00">id</text>
</g>
<!-- accept -->
<g id="node2" class="node">
<title>accept</title>
<ellipse fill="none" stroke="black" cx="311.5" cy="-470.5" rx="40.09" ry="40.09"/>
<text text-anchor="middle" x="311.5" y="-466.8" font-family="Consolas" font-size="14.00">accept</text>
</g>
<!-- I1&#45;&gt;accept -->
<g id="edge6" class="edge">
<title>I1&#45;&gt;accept</title>
<path fill="none" stroke="black" d="M216.75,-384.02C234.5,-400.4 256.01,-420.23 273.94,-436.78"/>
<polygon fill="black" stroke="black" points="271.67,-439.44 281.39,-443.65 276.41,-434.29 271.67,-439.44"/>
<text text-anchor="middle" x="248" y="-418.3" font-family="Consolas" font-size="14.00">$</text>
</g>
<!-- I6 -->
<g id="node8" class="node">
<title>I6</title>
<polygon fill="none" stroke="black" points="353,-412.5 270,-412.5 270,-290.5 353,-290.5 353,-412.5"/>
<text text-anchor="start" x="292.5" y="-395.3" font-family="Consolas" font-size="14.00">I6</text>
<text text-anchor="start" x="280.5" y="-376.3" font-family="Consolas" font-size="14.00">E</text>
<text text-anchor="start" x="296.5" y="-376.3" font-family="Consolas" font-size="14.00">=</text>
<text text-anchor="start" x="312.5" y="-376.3" font-family="Consolas" font-size="14.00">E+.T</text>
<text text-anchor="start" x="280.5" y="-357.3" font-family="Consolas" font-size="14.00">T</text>
<text text-anchor="start" x="296.5" y="-357.3" font-family="Consolas" font-size="14.00">=</text>
<text text-anchor="start" x="312.5" y="-357.3" font-family="Consolas" font-size="14.00">.T*F</text>
<text text-anchor="start" x="280.5" y="-338.3" font-family="Consolas" font-size="14.00">T</text>
<text text-anchor="start" x="296.5" y="-338.3" font-family="Consolas" font-size="14.00">=</text>
<text text-anchor="start" x="320" y="-338.3" font-family="Consolas" font-size="14.00">.F</text>
<text text-anchor="start" x="280.5" y="-319.3" font-family="Consolas" font-size="14.00">F</text>
<text text-anchor="start" x="296.5" y="-319.3" font-family="Consolas" font-size="14.00">=</text>
<text text-anchor="start" x="312.5" y="-319.3" font-family="Consolas" font-size="14.00">.(E)</text>
<text text-anchor="start" x="280.5" y="-300.3" font-family="Consolas" font-size="14.00">F</text>
<text text-anchor="start" x="296.5" y="-300.3" font-family="Consolas" font-size="14.00">=</text>
<text text-anchor="start" x="316" y="-301.3" font-family="Consolas" font-size="14.00">.</text>
<text text-anchor="start" x="324" y="-301.3" font-family="Consolas" font-weight="bold" font-size="14.00">id</text>
<polygon fill="black" stroke="black" points="278.5,-370.5 278.5,-370.5 290.5,-370.5 290.5,-370.5 278.5,-370.5"/>
<polygon fill="black" stroke="black" points="290.5,-370.5 290.5,-370.5 310.5,-370.5 310.5,-370.5 290.5,-370.5"/>
<polygon fill="black" stroke="black" points="310.5,-370.5 310.5,-370.5 345.5,-370.5 345.5,-370.5 310.5,-370.5"/>
</g>
<!-- I1&#45;&gt;I6 -->
<g id="edge7" class="edge">
<title>I1&#45;&gt;I6</title>
<path fill="none" stroke="black" d="M226.26,-351.5C236.95,-351.5 248.45,-351.5 259.41,-351.5"/>
<polygon fill="black" stroke="black" points="259.71,-355 269.71,-351.5 259.71,-348 259.71,-355"/>
<text text-anchor="middle" x="248" y="-355.3" font-family="Consolas" font-size="14.00">+</text>
</g>
<!-- I7 -->
<g id="node9" class="node">
<title>I7</title>
<polygon fill="none" stroke="black" points="820.5,-155.5 737.5,-155.5 737.5,-71.5 820.5,-71.5 820.5,-155.5"/>
<text text-anchor="start" x="760" y="-138.3" font-family="Consolas" font-size="14.00">I7</text>
<text text-anchor="start" x="748" y="-119.3" font-family="Consolas" font-size="14.00">T</text>
<text text-anchor="start" x="764" y="-119.3" font-family="Consolas" font-size="14.00">=</text>
<text text-anchor="start" x="780" y="-119.3" font-family="Consolas" font-size="14.00">T*.F</text>
<text text-anchor="start" x="748" y="-100.3" font-family="Consolas" font-size="14.00">F</text>
<text text-anchor="start" x="764" y="-100.3" font-family="Consolas" font-size="14.00">=</text>
<text text-anchor="start" x="780" y="-100.3" font-family="Consolas" font-size="14.00">.(E)</text>
<text text-anchor="start" x="748" y="-81.3" font-family="Consolas" font-size="14.00">F</text>
<text text-anchor="start" x="764" y="-81.3" font-family="Consolas" font-size="14.00">=</text>
<text text-anchor="start" x="783.5" y="-82.3" font-family="Consolas" font-size="14.00">.</text>
<text text-anchor="start" x="791.5" y="-82.3" font-family="Consolas" font-weight="bold" font-size="14.00">id</text>
<polygon fill="black" stroke="black" points="746,-113.5 746,-113.5 758,-113.5 758,-113.5 746,-113.5"/>
<polygon fill="black" stroke="black" points="758,-113.5 758,-113.5 778,-113.5 778,-113.5 758,-113.5"/>
<polygon fill="black" stroke="black" points="778,-113.5 778,-113.5 813,-113.5 813,-113.5 778,-113.5"/>
</g>
<!-- I2&#45;&gt;I7 -->
<g id="edge8" class="edge">
<title>I2&#45;&gt;I7</title>
<path fill="none" stroke="black" d="M682.09,-53.42C693.2,-59.39 705.16,-66.03 716,-72.5 720.14,-74.98 724.4,-77.6 728.65,-80.29"/>
<polygon fill="black" stroke="black" points="727.01,-83.39 737.32,-85.84 730.78,-77.5 727.01,-83.39"/>
<text text-anchor="middle" x="708" y="-76.3" font-family="Consolas" font-size="14.00">*</text>
</g>
<!-- I4&#45;&gt;I2 -->
<g id="edge10" class="edge">
<title>I4&#45;&gt;I2</title>
<path fill="none" stroke="black" d="M480.3,-133.33C486.06,-129.71 492.06,-126.3 498,-123.5 532.62,-107.17 548.7,-121.04 581,-100.5 591.37,-93.91 590.99,-88.82 599,-79.5 600.88,-77.32 602.8,-75.08 604.75,-72.82"/>
<polygon fill="black" stroke="black" points="607.51,-74.97 611.38,-65.11 602.21,-70.4 607.51,-74.97"/>
<text text-anchor="middle" x="539.5" y="-127.3" font-family="Consolas" font-size="14.00">T</text>
</g>
<!-- I4&#45;&gt;I3 -->
<g id="edge11" class="edge">
<title>I4&#45;&gt;I3</title>
<path fill="none" stroke="black" d="M480.15,-234.89C485.6,-241.05 491.56,-246.75 498,-251.5 529,-274.37 548.96,-255.1 581,-276.5 591.51,-283.52 589.99,-289.64 599,-298.5 599.77,-299.25 600.55,-300.01 601.35,-300.76"/>
<polygon fill="black" stroke="black" points="599.02,-303.37 608.81,-307.43 603.69,-298.15 599.02,-303.37"/>
<text text-anchor="middle" x="539.5" y="-280.3" font-family="Consolas" font-size="14.00">F</text>
</g>
<!-- I4&#45;&gt;I4 -->
<g id="edge12" class="edge">
<title>I4&#45;&gt;I4</title>
<path fill="none" stroke="black" d="M428.25,-244.86C430,-255.47 433.41,-262.5 438.5,-262.5 441.76,-262.5 444.33,-259.61 446.22,-254.75"/>
<polygon fill="black" stroke="black" points="449.66,-255.42 448.75,-244.86 442.88,-253.68 449.66,-255.42"/>
<text text-anchor="middle" x="438.5" y="-266.3" font-family="Consolas" font-size="14.00">(</text>
</g>
<!-- I4&#45;&gt;I5 -->
<g id="edge13" class="edge">
<title>I4&#45;&gt;I5</title>
<path fill="none" stroke="black" d="M480.19,-164.64C552.26,-166.21 705.86,-175.6 824,-224.5 847.14,-234.08 869.92,-250.31 887.48,-264.74"/>
<polygon fill="black" stroke="black" points="885.26,-267.45 895.17,-271.21 889.77,-262.09 885.26,-267.45"/>
<text text-anchor="start" x="700" y="-195.3" font-family="Consolas" font-weight="bold" font-size="14.00">id</text>
</g>
<!-- I8 -->
<g id="node10" class="node">
<title>I8</title>
<polygon fill="none" stroke="black" points="682,-289 599,-289 599,-224 682,-224 682,-289"/>
<text text-anchor="start" x="621.5" y="-271.3" font-family="Consolas" font-size="14.00">I8</text>
<text text-anchor="start" x="609.5" y="-252.3" font-family="Consolas" font-size="14.00">E</text>
<text text-anchor="start" x="625.5" y="-252.3" font-family="Consolas" font-size="14.00">=</text>
<text text-anchor="start" x="641.5" y="-252.3" font-family="Consolas" font-size="14.00">E.+T</text>
<text text-anchor="start" x="609.5" y="-233.3" font-family="Consolas" font-size="14.00">F</text>
<text text-anchor="start" x="625.5" y="-233.3" font-family="Consolas" font-size="14.00">=</text>
<text text-anchor="start" x="641.5" y="-233.3" font-family="Consolas" font-size="14.00">(E.)</text>
</g>
<!-- I4&#45;&gt;I8 -->
<g id="edge9" class="edge">
<title>I4&#45;&gt;I8</title>
<path fill="none" stroke="black" d="M480.18,-198.54C485.96,-202.55 491.99,-206.33 498,-209.5 532.32,-227.59 544.2,-224.23 581,-236.5 583.72,-237.41 586.51,-238.34 589.33,-239.29"/>
<polygon fill="black" stroke="black" points="588.34,-242.65 598.93,-242.54 590.58,-236.02 588.34,-242.65"/>
<text text-anchor="middle" x="539.5" y="-240.3" font-family="Consolas" font-size="14.00">E</text>
</g>
<!-- I6&#45;&gt;I3 -->
<g id="edge14" class="edge">
<title>I6&#45;&gt;I3</title>
<path fill="none" stroke="black" d="M353.25,-348.88C415.21,-344.9 532.57,-337.37 596.07,-333.29"/>
<polygon fill="black" stroke="black" points="596.4,-336.77 606.16,-332.64 595.95,-329.79 596.4,-336.77"/>
<text text-anchor="middle" x="438.5" y="-349.3" font-family="Consolas" font-size="14.00">F</text>
</g>
<!-- I6&#45;&gt;I4 -->
<g id="edge15" class="edge">
<title>I6&#45;&gt;I4</title>
<path fill="none" stroke="black" d="M353.08,-290.79C365.26,-272.57 378.71,-252.45 391.23,-233.72"/>
<polygon fill="black" stroke="black" points="394.26,-235.49 396.91,-225.23 388.44,-231.6 394.26,-235.49"/>
<text text-anchor="middle" x="375" y="-267.3" font-family="Consolas" font-size="14.00">(</text>
</g>
<!-- I6&#45;&gt;I5 -->
<g id="edge16" class="edge">
<title>I6&#45;&gt;I5</title>
<path fill="none" stroke="black" d="M353.25,-373.13C377.12,-383.83 408.24,-394.5 437.5,-394.5 437.5,-394.5 437.5,-394.5 780,-394.5 828.05,-394.5 871,-355.01 896.28,-325.66"/>
<polygon fill="black" stroke="black" points="899.21,-327.61 902.93,-317.69 893.84,-323.13 899.21,-327.61"/>
<text text-anchor="start" x="632.5" y="-399.3" font-family="Consolas" font-weight="bold" font-size="14.00">id</text>
</g>
<!-- I9 -->
<g id="node11" class="node">
<title>I9</title>
<polygon fill="none" stroke="black" points="581,-99 498,-99 498,-34 581,-34 581,-99"/>
<text text-anchor="start" x="520.5" y="-81.3" font-family="Consolas" font-size="14.00">I9</text>
<text text-anchor="start" x="508.5" y="-62.3" font-family="Consolas" font-size="14.00">E</text>
<text text-anchor="start" x="524.5" y="-62.3" font-family="Consolas" font-size="14.00">=</text>
<text text-anchor="start" x="540.5" y="-62.3" font-family="Consolas" font-size="14.00">E+T.</text>
<text text-anchor="start" x="508.5" y="-43.3" font-family="Consolas" font-size="14.00">T</text>
<text text-anchor="start" x="524.5" y="-43.3" font-family="Consolas" font-size="14.00">=</text>
<text text-anchor="start" x="540.5" y="-43.3" font-family="Consolas" font-size="14.00">T.*F</text>
</g>
<!-- I6&#45;&gt;I9 -->
<g id="edge17" class="edge">
<title>I6&#45;&gt;I9</title>
<path fill="none" stroke="black" d="M347.29,-290.34C349.37,-285.72 351.3,-281.08 353,-276.5 384.81,-190.76 327.61,-135.07 397,-75.5 421.48,-54.49 457.97,-52.63 487.77,-55.82"/>
<polygon fill="black" stroke="black" points="487.63,-59.33 498,-57.14 488.53,-52.39 487.63,-59.33"/>
<text text-anchor="middle" x="375" y="-109.3" font-family="Consolas" font-size="14.00">T</text>
</g>
<!-- I7&#45;&gt;I4 -->
<g id="edge19" class="edge">
<title>I7&#45;&gt;I4</title>
<path fill="none" stroke="black" d="M737.29,-119.63C675.39,-128.96 557.71,-146.69 490.3,-156.85"/>
<polygon fill="black" stroke="black" points="489.7,-153.4 480.33,-158.35 490.74,-160.32 489.7,-153.4"/>
<text text-anchor="middle" x="640.5" y="-143.3" font-family="Consolas" font-size="14.00">(</text>
</g>
<!-- I7&#45;&gt;I5 -->
<g id="edge18" class="edge">
<title>I7&#45;&gt;I5</title>
<path fill="none" stroke="black" d="M820.88,-135.53C833.91,-143.96 847.62,-154.48 858,-166.5 882.3,-194.62 899.46,-233.92 909.47,-261.54"/>
<polygon fill="black" stroke="black" points="906.23,-262.86 912.84,-271.14 912.83,-260.54 906.23,-262.86"/>
<text text-anchor="start" x="842" y="-171.3" font-family="Consolas" font-weight="bold" font-size="14.00">id</text>
</g>
<!-- I10 -->
<g id="node12" class="node">
<title>I10</title>
<polygon fill="none" stroke="black" points="966,-136.5 876,-136.5 876,-90.5 966,-90.5 966,-136.5"/>
<text text-anchor="start" x="898" y="-119.3" font-family="Consolas" font-size="14.00">I10</text>
<text text-anchor="start" x="886" y="-100.3" font-family="Consolas" font-size="14.00">T</text>
<text text-anchor="start" x="905.5" y="-100.3" font-family="Consolas" font-size="14.00">=</text>
<text text-anchor="start" x="925" y="-100.3" font-family="Consolas" font-size="14.00">T*F.</text>
</g>
<!-- I7&#45;&gt;I10 -->
<g id="edge20" class="edge">
<title>I7&#45;&gt;I10</title>
<path fill="none" stroke="black" d="M820.87,-113.5C834.9,-113.5 850.84,-113.5 865.76,-113.5"/>
<polygon fill="black" stroke="black" points="865.9,-117 875.9,-113.5 865.9,-110 865.9,-117"/>
<text text-anchor="middle" x="850" y="-117.3" font-family="Consolas" font-size="14.00">F</text>
</g>
<!-- I11 -->
<g id="node13" class="node">
<title>I11</title>
<polygon fill="none" stroke="black" points="824,-279.5 734,-279.5 734,-233.5 824,-233.5 824,-279.5"/>
<text text-anchor="start" x="756" y="-262.3" font-family="Consolas" font-size="14.00">I11</text>
<text text-anchor="start" x="744" y="-243.3" font-family="Consolas" font-size="14.00">F</text>
<text text-anchor="start" x="763.5" y="-243.3" font-family="Consolas" font-size="14.00">=</text>
<text text-anchor="start" x="783" y="-243.3" font-family="Consolas" font-size="14.00">(E).</text>
</g>
<!-- I8&#45;&gt;I11 -->
<g id="edge21" class="edge">
<title>I8&#45;&gt;I11</title>
<path fill="none" stroke="black" d="M682.08,-256.5C694.99,-256.5 709.47,-256.5 723.2,-256.5"/>
<polygon fill="black" stroke="black" points="723.52,-260 733.52,-256.5 723.52,-253 723.52,-260"/>
<text text-anchor="middle" x="708" y="-260.3" font-family="Consolas" font-size="14.00">)</text>
</g>
<!-- I9&#45;&gt;I7 -->
<g id="edge22" class="edge">
<title>I9&#45;&gt;I7</title>
<path fill="none" stroke="black" d="M581.06,-74.53C621.5,-82.53 683.71,-94.84 727.37,-103.48"/>
<polygon fill="black" stroke="black" points="726.72,-106.92 737.21,-105.43 728.08,-100.05 726.72,-106.92"/>
<text text-anchor="middle" x="640.5" y="-97.3" font-family="Consolas" font-size="14.00">*</text>
</g>
</g>
</svg>
