<?xml version="1.0" encoding="UTF-8" standalone="no"?>
<!DOCTYPE svg PUBLIC "-//W3C//DTD SVG 1.1//EN"
 "http://www.w3.org/Graphics/SVG/1.1/DTD/svg11.dtd">
<!-- Generated by graphviz version 2.46.0 (20210118.1747)
 -->
<!-- Title: automaton Pages: 1 -->
<svg width="589pt" height="375pt"
 viewBox="0.00 0.00 589.00 375.00" xmlns="http://www.w3.org/2000/svg" xmlns:xlink="http://www.w3.org/1999/xlink">
<g id="graph0" class="graph" transform="scale(1 1) rotate(0) translate(4 371)">
<title>automaton</title>
<polygon fill="white" stroke="transparent" points="-4,4 -4,-371 585,-371 585,4 -4,4"/>
<!-- I0 -->
<g id="node1" class="node">
<title>I0</title>
<polygon fill="none" stroke="black" points="122,-188.5 0,-188.5 0,-85.5 122,-85.5 122,-188.5"/>
<text text-anchor="start" x="30" y="-170.8" font-family="Consolas" font-size="14.00">I0</text>
<text text-anchor="start" x="10" y="-151.8" font-family="Consolas" font-size="14.00">S&#39;</text>
<text text-anchor="start" x="34" y="-151.8" font-family="Consolas" font-size="14.00">=</text>
<text text-anchor="start" x="53.5" y="-151.8" font-family="Consolas" font-size="14.00">.S</text>
<text text-anchor="start" x="77" y="-151.8" font-family="Consolas" font-size="14.00">,</text>
<text text-anchor="start" x="96.5" y="-151.8" font-family="Consolas" font-size="14.00">$</text>
<text text-anchor="start" x="14" y="-132.8" font-family="Consolas" font-size="14.00">S</text>
<text text-anchor="start" x="34" y="-132.8" font-family="Consolas" font-size="14.00">=</text>
<text text-anchor="start" x="50" y="-132.8" font-family="Consolas" font-size="14.00">.CC</text>
<text text-anchor="start" x="77" y="-132.8" font-family="Consolas" font-size="14.00">,</text>
<text text-anchor="start" x="96.5" y="-132.8" font-family="Consolas" font-size="14.00">$</text>
<text text-anchor="start" x="14" y="-113.8" font-family="Consolas" font-size="14.00">C</text>
<text text-anchor="start" x="34" y="-113.8" font-family="Consolas" font-size="14.00">=</text>
<text text-anchor="start" x="50" y="-113.8" font-family="Consolas" font-size="14.00">.cC</text>
<text text-anchor="start" x="77" y="-113.8" font-family="Consolas" font-size="14.00">,</text>
<text text-anchor="start" x="89" y="-113.8" font-family="Consolas" font-size="14.00">c/d</text>
<text text-anchor="start" x="14" y="-94.8" font-family="Consolas" font-size="14.00">C</text>
<text text-anchor="start" x="34" y="-94.8" font-family="Consolas" font-size="14.00">=</text>
<text text-anchor="start" x="53.5" y="-94.8" font-family="Consolas" font-size="14.00">.d</text>
<text text-anchor="start" x="77" y="-94.8" font-family="Consolas" font-size="14.00">,</text>
<text text-anchor="start" x="89" y="-94.8" font-family="Consolas" font-size="14.00">c/d</text>
</g>
<!-- I1 -->
<g id="node2" class="node">
<title>I1</title>
<polygon fill="none" stroke="black" points="273,-334 173,-334 173,-288 273,-288 273,-334"/>
<text text-anchor="start" x="203" y="-316.8" font-family="Consolas" font-size="14.00">I1</text>
<text text-anchor="start" x="183" y="-297.8" font-family="Consolas" font-size="14.00">S&#39;</text>
<text text-anchor="start" x="207" y="-297.8" font-family="Consolas" font-size="14.00">=</text>
<text text-anchor="start" x="223" y="-297.8" font-family="Consolas" font-size="14.00">S.</text>
<text text-anchor="start" x="243" y="-297.8" font-family="Consolas" font-size="14.00">,</text>
<text text-anchor="start" x="255" y="-297.8" font-family="Consolas" font-size="14.00">$</text>
</g>
<!-- I0&#45;&gt;I1 -->
<g id="edge1" class="edge">
<title>I0&#45;&gt;I1</title>
<path fill="none" stroke="black" d="M92.34,-188.8C111.03,-217.73 136.94,-253.05 166,-279 166.99,-279.88 168,-280.75 169.04,-281.6"/>
<polygon fill="black" stroke="black" points="167.28,-284.66 177.38,-287.87 171.49,-279.06 167.28,-284.66"/>
<text text-anchor="middle" x="144" y="-261.8" font-family="Consolas" font-size="14.00">S</text>
</g>
<!-- I2 -->
<g id="node3" class="node">
<title>I2</title>
<polygon fill="none" stroke="black" points="272.5,-270 173.5,-270 173.5,-186 272.5,-186 272.5,-270"/>
<text text-anchor="start" x="196" y="-252.8" font-family="Consolas" font-size="14.00">I2</text>
<text text-anchor="start" x="184" y="-233.8" font-family="Consolas" font-size="14.00">S</text>
<text text-anchor="start" x="200" y="-233.8" font-family="Consolas" font-size="14.00">=</text>
<text text-anchor="start" x="216" y="-233.8" font-family="Consolas" font-size="14.00">C.C</text>
<text text-anchor="start" x="243" y="-233.8" font-family="Consolas" font-size="14.00">,</text>
<text text-anchor="start" x="255" y="-233.8" font-family="Consolas" font-size="14.00">$</text>
<text text-anchor="start" x="184" y="-214.8" font-family="Consolas" font-size="14.00">C</text>
<text text-anchor="start" x="200" y="-214.8" font-family="Consolas" font-size="14.00">=</text>
<text text-anchor="start" x="216" y="-214.8" font-family="Consolas" font-size="14.00">.cC</text>
<text text-anchor="start" x="243" y="-214.8" font-family="Consolas" font-size="14.00">,</text>
<text text-anchor="start" x="255" y="-214.8" font-family="Consolas" font-size="14.00">$</text>
<text text-anchor="start" x="184" y="-195.8" font-family="Consolas" font-size="14.00">C</text>
<text text-anchor="start" x="200" y="-195.8" font-family="Consolas" font-size="14.00">=</text>
<text text-anchor="start" x="219.5" y="-195.8" font-family="Consolas" font-size="14.00">.d</text>
<text text-anchor="start" x="243" y="-195.8" font-family="Consolas" font-size="14.00">,</text>
<text text-anchor="start" x="255" y="-195.8" font-family="Consolas" font-size="14.00">$</text>
</g>
<!-- I0&#45;&gt;I2 -->
<g id="edge2" class="edge">
<title>I0&#45;&gt;I2</title>
<path fill="none" stroke="black" d="M122.03,-171.14C135.93,-179.05 150.68,-187.44 164.46,-195.28"/>
<polygon fill="black" stroke="black" points="162.94,-198.43 173.36,-200.34 166.4,-192.35 162.94,-198.43"/>
<text text-anchor="middle" x="144" y="-188.8" font-family="Consolas" font-size="14.00">C</text>
</g>
<!-- I3 -->
<g id="node4" class="node">
<title>I3</title>
<polygon fill="none" stroke="black" points="280,-135 166,-135 166,-51 280,-51 280,-135"/>
<text text-anchor="start" x="188" y="-117.8" font-family="Consolas" font-size="14.00">I3</text>
<text text-anchor="start" x="176" y="-98.8" font-family="Consolas" font-size="14.00">C</text>
<text text-anchor="start" x="192" y="-98.8" font-family="Consolas" font-size="14.00">=</text>
<text text-anchor="start" x="208" y="-98.8" font-family="Consolas" font-size="14.00">c.C</text>
<text text-anchor="start" x="235" y="-98.8" font-family="Consolas" font-size="14.00">,</text>
<text text-anchor="start" x="247" y="-98.8" font-family="Consolas" font-size="14.00">c/d</text>
<text text-anchor="start" x="176" y="-79.8" font-family="Consolas" font-size="14.00">C</text>
<text text-anchor="start" x="192" y="-79.8" font-family="Consolas" font-size="14.00">=</text>
<text text-anchor="start" x="208" y="-79.8" font-family="Consolas" font-size="14.00">.cC</text>
<text text-anchor="start" x="235" y="-79.8" font-family="Consolas" font-size="14.00">,</text>
<text text-anchor="start" x="247" y="-79.8" font-family="Consolas" font-size="14.00">c/d</text>
<text text-anchor="start" x="176" y="-60.8" font-family="Consolas" font-size="14.00">C</text>
<text text-anchor="start" x="192" y="-60.8" font-family="Consolas" font-size="14.00">=</text>
<text text-anchor="start" x="211.5" y="-60.8" font-family="Consolas" font-size="14.00">.d</text>
<text text-anchor="start" x="235" y="-60.8" font-family="Consolas" font-size="14.00">,</text>
<text text-anchor="start" x="247" y="-60.8" font-family="Consolas" font-size="14.00">c/d</text>
</g>
<!-- I0&#45;&gt;I3 -->
<g id="edge3" class="edge">
<title>I0&#45;&gt;I3</title>
<path fill="none" stroke="black" d="M122.03,-120.49C133.14,-117.44 144.8,-114.23 156.08,-111.13"/>
<polygon fill="black" stroke="black" points="157.15,-114.46 165.86,-108.44 155.29,-107.71 157.15,-114.46"/>
<text text-anchor="middle" x="144" y="-118.8" font-family="Consolas" font-size="14.00">c</text>
</g>
<!-- I4 -->
<g id="node5" class="node">
<title>I4</title>
<polygon fill="none" stroke="black" points="434.5,-46 327.5,-46 327.5,0 434.5,0 434.5,-46"/>
<text text-anchor="start" x="350" y="-28.8" font-family="Consolas" font-size="14.00">I4</text>
<text text-anchor="start" x="338" y="-9.8" font-family="Consolas" font-size="14.00">C</text>
<text text-anchor="start" x="354" y="-9.8" font-family="Consolas" font-size="14.00">=</text>
<text text-anchor="start" x="370" y="-9.8" font-family="Consolas" font-size="14.00">d.</text>
<text text-anchor="start" x="390" y="-9.8" font-family="Consolas" font-size="14.00">,</text>
<text text-anchor="start" x="402" y="-9.8" font-family="Consolas" font-size="14.00">c/d</text>
</g>
<!-- I0&#45;&gt;I4 -->
<g id="edge4" class="edge">
<title>I0&#45;&gt;I4</title>
<path fill="none" stroke="black" d="M96.27,-85.34C114.15,-63.06 138.11,-39.32 166,-27 213.61,-5.96 273.2,-6.75 317.4,-11.78"/>
<polygon fill="black" stroke="black" points="317.08,-15.27 327.43,-13.02 317.94,-8.32 317.08,-15.27"/>
<text text-anchor="middle" x="223" y="-30.8" font-family="Consolas" font-size="14.00">d</text>
</g>
<!-- I5 -->
<g id="node6" class="node">
<title>I5</title>
<polygon fill="none" stroke="black" points="430.5,-367 331.5,-367 331.5,-321 430.5,-321 430.5,-367"/>
<text text-anchor="start" x="354" y="-349.8" font-family="Consolas" font-size="14.00">I5</text>
<text text-anchor="start" x="342" y="-330.8" font-family="Consolas" font-size="14.00">S</text>
<text text-anchor="start" x="358" y="-330.8" font-family="Consolas" font-size="14.00">=</text>
<text text-anchor="start" x="374" y="-330.8" font-family="Consolas" font-size="14.00">CC.</text>
<text text-anchor="start" x="401" y="-330.8" font-family="Consolas" font-size="14.00">,</text>
<text text-anchor="start" x="413" y="-330.8" font-family="Consolas" font-size="14.00">$</text>
</g>
<!-- I2&#45;&gt;I5 -->
<g id="edge5" class="edge">
<title>I2&#45;&gt;I5</title>
<path fill="none" stroke="black" d="M270.68,-270.19C287.04,-284.16 305.87,-299.36 324,-312 325.62,-313.13 327.28,-314.25 328.97,-315.37"/>
<polygon fill="black" stroke="black" points="327.29,-318.45 337.6,-320.86 331.04,-312.54 327.29,-318.45"/>
<text text-anchor="middle" x="302" y="-300.8" font-family="Consolas" font-size="14.00">C</text>
</g>
<!-- I6 -->
<g id="node7" class="node">
<title>I6</title>
<polygon fill="none" stroke="black" points="430.5,-270 331.5,-270 331.5,-186 430.5,-186 430.5,-270"/>
<text text-anchor="start" x="354" y="-252.8" font-family="Consolas" font-size="14.00">I6</text>
<text text-anchor="start" x="342" y="-233.8" font-family="Consolas" font-size="14.00">C</text>
<text text-anchor="start" x="358" y="-233.8" font-family="Consolas" font-size="14.00">=</text>
<text text-anchor="start" x="374" y="-233.8" font-family="Consolas" font-size="14.00">c.C</text>
<text text-anchor="start" x="401" y="-233.8" font-family="Consolas" font-size="14.00">,</text>
<text text-anchor="start" x="413" y="-233.8" font-family="Consolas" font-size="14.00">$</text>
<text text-anchor="start" x="342" y="-214.8" font-family="Consolas" font-size="14.00">C</text>
<text text-anchor="start" x="358" y="-214.8" font-family="Consolas" font-size="14.00">=</text>
<text text-anchor="start" x="374" y="-214.8" font-family="Consolas" font-size="14.00">.cC</text>
<text text-anchor="start" x="401" y="-214.8" font-family="Consolas" font-size="14.00">,</text>
<text text-anchor="start" x="413" y="-214.8" font-family="Consolas" font-size="14.00">$</text>
<text text-anchor="start" x="342" y="-195.8" font-family="Consolas" font-size="14.00">C</text>
<text text-anchor="start" x="358" y="-195.8" font-family="Consolas" font-size="14.00">=</text>
<text text-anchor="start" x="377.5" y="-195.8" font-family="Consolas" font-size="14.00">.d</text>
<text text-anchor="start" x="401" y="-195.8" font-family="Consolas" font-size="14.00">,</text>
<text text-anchor="start" x="413" y="-195.8" font-family="Consolas" font-size="14.00">$</text>
</g>
<!-- I2&#45;&gt;I6 -->
<g id="edge6" class="edge">
<title>I2&#45;&gt;I6</title>
<path fill="none" stroke="black" d="M272.5,-228C287.84,-228 304.96,-228 320.94,-228"/>
<polygon fill="black" stroke="black" points="321.26,-231.5 331.26,-228 321.26,-224.5 321.26,-231.5"/>
<text text-anchor="middle" x="302" y="-231.8" font-family="Consolas" font-size="14.00">c</text>
</g>
<!-- I7 -->
<g id="node8" class="node">
<title>I7</title>
<polygon fill="none" stroke="black" points="577.5,-181 485.5,-181 485.5,-135 577.5,-135 577.5,-181"/>
<text text-anchor="start" x="507.5" y="-163.8" font-family="Consolas" font-size="14.00">I7</text>
<text text-anchor="start" x="495.5" y="-144.8" font-family="Consolas" font-size="14.00">C</text>
<text text-anchor="start" x="511.5" y="-144.8" font-family="Consolas" font-size="14.00">=</text>
<text text-anchor="start" x="527.5" y="-144.8" font-family="Consolas" font-size="14.00">d.</text>
<text text-anchor="start" x="547.5" y="-144.8" font-family="Consolas" font-size="14.00">,</text>
<text text-anchor="start" x="559.5" y="-144.8" font-family="Consolas" font-size="14.00">$</text>
</g>
<!-- I2&#45;&gt;I7 -->
<g id="edge7" class="edge">
<title>I2&#45;&gt;I7</title>
<path fill="none" stroke="black" d="M272.55,-188.09C288.06,-177.58 305.92,-167.62 324,-162 373.51,-146.61 432.96,-147.33 475.33,-150.87"/>
<polygon fill="black" stroke="black" points="475.17,-154.37 485.45,-151.79 475.81,-147.4 475.17,-154.37"/>
<text text-anchor="middle" x="381" y="-165.8" font-family="Consolas" font-size="14.00">d</text>
</g>
<!-- I3&#45;&gt;I3 -->
<g id="edge10" class="edge">
<title>I3&#45;&gt;I3</title>
<path fill="none" stroke="black" d="M208.6,-135.06C209.67,-145.34 214.47,-153 223,-153 228.47,-153 232.4,-149.86 234.8,-144.89"/>
<polygon fill="black" stroke="black" points="238.23,-145.62 237.4,-135.06 231.46,-143.83 238.23,-145.62"/>
<text text-anchor="middle" x="223" y="-156.8" font-family="Consolas" font-size="14.00">c</text>
</g>
<!-- I3&#45;&gt;I4 -->
<g id="edge11" class="edge">
<title>I3&#45;&gt;I4</title>
<path fill="none" stroke="black" d="M280.32,-67.73C293.03,-62.02 306.58,-55.95 319.45,-50.17"/>
<polygon fill="black" stroke="black" points="321,-53.31 328.69,-46.02 318.13,-46.92 321,-53.31"/>
<text text-anchor="middle" x="302" y="-61.8" font-family="Consolas" font-size="14.00">d</text>
</g>
<!-- I8 -->
<g id="node9" class="node">
<title>I8</title>
<polygon fill="none" stroke="black" points="438,-116 324,-116 324,-70 438,-70 438,-116"/>
<text text-anchor="start" x="346" y="-98.8" font-family="Consolas" font-size="14.00">I8</text>
<text text-anchor="start" x="334" y="-79.8" font-family="Consolas" font-size="14.00">C</text>
<text text-anchor="start" x="350" y="-79.8" font-family="Consolas" font-size="14.00">=</text>
<text text-anchor="start" x="366" y="-79.8" font-family="Consolas" font-size="14.00">cC.</text>
<text text-anchor="start" x="393" y="-79.8" font-family="Consolas" font-size="14.00">,</text>
<text text-anchor="start" x="405" y="-79.8" font-family="Consolas" font-size="14.00">c/d</text>
</g>
<!-- I3&#45;&gt;I8 -->
<g id="edge8" class="edge">
<title>I3&#45;&gt;I8</title>
<path fill="none" stroke="black" d="M280.32,-93C291.14,-93 302.57,-93 313.68,-93"/>
<polygon fill="black" stroke="black" points="313.76,-96.5 323.76,-93 313.76,-89.5 313.76,-96.5"/>
<text text-anchor="middle" x="302" y="-96.8" font-family="Consolas" font-size="14.00">C</text>
</g>
<!-- I6&#45;&gt;I6 -->
<g id="edge12" class="edge">
<title>I6&#45;&gt;I6</title>
<path fill="none" stroke="black" d="M366.6,-270.06C367.67,-280.34 372.47,-288 381,-288 386.47,-288 390.4,-284.86 392.8,-279.89"/>
<polygon fill="black" stroke="black" points="396.23,-280.62 395.4,-270.06 389.46,-278.83 396.23,-280.62"/>
<text text-anchor="middle" x="381" y="-291.8" font-family="Consolas" font-size="14.00">c</text>
</g>
<!-- I6&#45;&gt;I7 -->
<g id="edge13" class="edge">
<title>I6&#45;&gt;I7</title>
<path fill="none" stroke="black" d="M430.62,-205.08C445.19,-198.21 461.27,-190.64 476.18,-183.61"/>
<polygon fill="black" stroke="black" points="477.74,-186.74 485.29,-179.31 474.75,-180.41 477.74,-186.74"/>
<text text-anchor="middle" x="460" y="-196.8" font-family="Consolas" font-size="14.00">d</text>
</g>
<!-- I9 -->
<g id="node10" class="node">
<title>I9</title>
<polygon fill="none" stroke="black" points="581,-251 482,-251 482,-205 581,-205 581,-251"/>
<text text-anchor="start" x="504.5" y="-233.8" font-family="Consolas" font-size="14.00">I9</text>
<text text-anchor="start" x="492.5" y="-214.8" font-family="Consolas" font-size="14.00">C</text>
<text text-anchor="start" x="508.5" y="-214.8" font-family="Consolas" font-size="14.00">=</text>
<text text-anchor="start" x="524.5" y="-214.8" font-family="Consolas" font-size="14.00">cC.</text>
<text text-anchor="start" x="551.5" y="-214.8" font-family="Consolas" font-size="14.00">,</text>
<text text-anchor="start" x="563.5" y="-214.8" font-family="Consolas" font-size="14.00">$</text>
</g>
<!-- I6&#45;&gt;I9 -->
<g id="edge9" class="edge">
<title>I6&#45;&gt;I9</title>
<path fill="none" stroke="black" d="M430.62,-228C443.7,-228 457.99,-228 471.56,-228"/>
<polygon fill="black" stroke="black" points="471.77,-231.5 481.77,-228 471.77,-224.5 471.77,-231.5"/>
<text text-anchor="middle" x="460" y="-231.8" font-family="Consolas" font-size="14.00">C</text>
</g>
</g>
</svg>
