<?xml version="1.0" encoding="UTF-8" standalone="no"?>
<!DOCTYPE svg PUBLIC "-//W3C//DTD SVG 1.1//EN"
 "http://www.w3.org/Graphics/SVG/1.1/DTD/svg11.dtd">
<!-- Generated by graphviz version 2.46.0 (20210118.1747)
 -->
<!-- Title: transition_diagram Pages: 1 -->
<svg width="828pt" height="348pt"
 viewBox="0.00 0.00 828.00 348.00" xmlns="http://www.w3.org/2000/svg" xmlns:xlink="http://www.w3.org/1999/xlink">
<g id="graph0" class="graph" transform="scale(1 1) rotate(0) translate(4 344)">
<title>transition_diagram</title>
<polygon fill="white" stroke="transparent" points="-4,4 -4,-344 824,-344 824,4 -4,4"/>
<!-- s -->
<g id="node1" class="node">
<title>s</title>
</g>
<!-- 0 -->
<g id="node2" class="node">
<title>0</title>
<ellipse fill="none" stroke="black" cx="254" cy="-318" rx="18" ry="18"/>
<text text-anchor="middle" x="254" y="-314.3" font-family="Consolas" font-size="14.00">0</text>
</g>
<!-- s&#45;&gt;0 -->
<g id="edge1" class="edge">
<title>s:e&#45;&gt;0:w</title>
<path fill="none" stroke="black" d="M54,-318C131.41,-318 153.26,-318 225.9,-318"/>
<polygon fill="black" stroke="black" points="226,-321.5 236,-318 226,-314.5 226,-321.5"/>
<text text-anchor="middle" x="145" y="-321.8" font-family="Consolas" font-size="14.00">START</text>
</g>
<!-- 1 -->
<g id="node3" class="node">
<title>1</title>
<ellipse fill="none" stroke="black" cx="442" cy="-318" rx="18" ry="18"/>
<text text-anchor="middle" x="442" y="-314.3" font-family="Consolas" font-size="14.00">1</text>
</g>
<!-- 0&#45;&gt;1 -->
<g id="edge2" class="edge">
<title>0:e&#45;&gt;1:w</title>
<path fill="none" stroke="black" d="M272,-318C335.99,-318 354.52,-318 413.72,-318"/>
<polygon fill="black" stroke="black" points="414,-321.5 424,-318 414,-314.5 414,-321.5"/>
<text text-anchor="middle" x="348" y="-321.8" font-family="Consolas" font-size="14.00">&lt;</text>
</g>
<!-- 6 -->
<g id="node4" class="node">
<title>6</title>
<ellipse fill="none" stroke="black" cx="442" cy="-132" rx="18" ry="18"/>
<text text-anchor="middle" x="442" y="-128.3" font-family="Consolas" font-size="14.00">6</text>
</g>
<!-- 0&#45;&gt;6 -->
<g id="edge6" class="edge">
<title>0:s&#45;&gt;6:w</title>
<path fill="none" stroke="black" d="M254,-299C254,-249.25 357.3,-145.59 413.72,-133.22"/>
<polygon fill="black" stroke="black" points="414.48,-136.65 424,-132 413.66,-129.7 414.48,-136.65"/>
<text text-anchor="middle" x="348" y="-174.8" font-family="Consolas" font-size="14.00">&gt;</text>
</g>
<!-- 5 -->
<g id="node8" class="node">
<title>5</title>
<ellipse fill="none" stroke="black" cx="554" cy="-37" rx="18" ry="18"/>
<ellipse fill="none" stroke="black" cx="554" cy="-37" rx="22" ry="22"/>
<text text-anchor="middle" x="554" y="-33.3" font-family="Consolas" font-size="14.00">5</text>
<text text-anchor="middle" x="468" y="-3.8" font-family="Consolas" font-size="14.00">return(relop, EQ)</text>
</g>
<!-- 0&#45;&gt;5 -->
<g id="edge5" class="edge">
<title>0:s&#45;&gt;5:w</title>
<path fill="none" stroke="black" d="M254,-299C254,-132.7 357.83,-40.82 521.63,-37.12"/>
<polygon fill="black" stroke="black" points="522.04,-40.61 532,-37 521.96,-33.61 522.04,-40.61"/>
<text text-anchor="middle" x="348" y="-92.8" font-family="Consolas" font-size="14.00">=</text>
</g>
<!-- 2 -->
<g id="node5" class="node">
<title>2</title>
<ellipse fill="none" stroke="black" cx="670" cy="-318" rx="18" ry="18"/>
<ellipse fill="none" stroke="black" cx="670" cy="-318" rx="22" ry="22"/>
<text text-anchor="middle" x="670" y="-314.3" font-family="Consolas" font-size="14.00">2</text>
<text text-anchor="middle" x="584" y="-284.8" font-family="Consolas" font-size="14.00">return(relop, LE)</text>
</g>
<!-- 1&#45;&gt;2 -->
<g id="edge3" class="edge">
<title>1:e&#45;&gt;2:w</title>
<path fill="none" stroke="black" d="M460,-318C539.97,-318 562.53,-318 637.57,-318"/>
<polygon fill="black" stroke="black" points="638,-321.5 648,-318 638,-314.5 638,-321.5"/>
<text text-anchor="middle" x="554" y="-321.8" font-family="Consolas" font-size="14.00">=</text>
</g>
<!-- 3 -->
<g id="node6" class="node">
<title>3</title>
<ellipse fill="none" stroke="black" cx="670" cy="-256" rx="18" ry="18"/>
<ellipse fill="none" stroke="black" cx="670" cy="-256" rx="22" ry="22"/>
<text text-anchor="middle" x="670" y="-252.3" font-family="Consolas" font-size="14.00">3</text>
<text text-anchor="middle" x="584" y="-222.8" font-family="Consolas" font-size="14.00">return(relop, NE)</text>
</g>
<!-- 1&#45;&gt;3 -->
<g id="edge7" class="edge">
<title>1:s&#45;&gt;3:w</title>
<path fill="none" stroke="black" d="M442,-299C442,-208.85 546.49,-252.54 637.79,-255.81"/>
<polygon fill="black" stroke="black" points="637.94,-259.31 648,-256 638.07,-252.32 637.94,-259.31"/>
<text text-anchor="middle" x="554" y="-252.8" font-family="Consolas" font-size="14.00">&gt;</text>
</g>
<!-- 4 -->
<g id="node7" class="node">
<title>4</title>
<ellipse fill="none" stroke="black" cx="670" cy="-194" rx="18" ry="18"/>
<ellipse fill="none" stroke="black" cx="670" cy="-194" rx="22" ry="22"/>
<text text-anchor="middle" x="670" y="-190.3" font-family="Consolas" font-size="14.00">4</text>
<text text-anchor="middle" x="756" y="-160.8" font-family="Consolas" font-size="14.00">*</text>
<text text-anchor="middle" x="756" y="-145.8" font-family="Consolas" font-size="14.00">return(relop, LT)</text>
</g>
<!-- 1&#45;&gt;4 -->
<g id="edge8" class="edge">
<title>1:s&#45;&gt;4:w</title>
<path fill="none" stroke="black" d="M442,-299C442,-199.65 538.5,-194.26 637.77,-194.01"/>
<polygon fill="black" stroke="black" points="638,-197.51 648,-194 638,-190.51 638,-197.51"/>
<text text-anchor="middle" x="554" y="-203.8" font-family="Consolas" font-size="14.00">other</text>
</g>
<!-- 7 -->
<g id="node9" class="node">
<title>7</title>
<ellipse fill="none" stroke="black" cx="670" cy="-132" rx="18" ry="18"/>
<ellipse fill="none" stroke="black" cx="670" cy="-132" rx="22" ry="22"/>
<text text-anchor="middle" x="670" y="-128.3" font-family="Consolas" font-size="14.00">7</text>
<text text-anchor="middle" x="584" y="-98.8" font-family="Consolas" font-size="14.00">return(relop, GE)</text>
</g>
<!-- 6&#45;&gt;7 -->
<g id="edge4" class="edge">
<title>6:e&#45;&gt;7:w</title>
<path fill="none" stroke="black" d="M460,-132C539.97,-132 562.53,-132 637.57,-132"/>
<polygon fill="black" stroke="black" points="638,-135.5 648,-132 638,-128.5 638,-135.5"/>
<text text-anchor="middle" x="554" y="-135.8" font-family="Consolas" font-size="14.00">=</text>
</g>
<!-- 8 -->
<g id="node10" class="node">
<title>8</title>
<ellipse fill="none" stroke="black" cx="670" cy="-70" rx="18" ry="18"/>
<ellipse fill="none" stroke="black" cx="670" cy="-70" rx="22" ry="22"/>
<text text-anchor="middle" x="670" y="-66.3" font-family="Consolas" font-size="14.00">8</text>
<text text-anchor="middle" x="756" y="-36.8" font-family="Consolas" font-size="14.00">return(relop, GT)</text>
</g>
<!-- 6&#45;&gt;8 -->
<g id="edge9" class="edge">
<title>6:s&#45;&gt;8:w</title>
<path fill="none" stroke="black" d="M442,-113C442,-69.16 581.95,-69.73 637.98,-69.97"/>
<polygon fill="black" stroke="black" points="637.99,-73.47 648,-70 638.01,-66.47 637.99,-73.47"/>
<text text-anchor="middle" x="554" y="-76.8" font-family="Consolas" font-size="14.00">other</text>
</g>
</g>
</svg>
