<?xml version="1.0" encoding="UTF-8" standalone="no"?>
<!DOCTYPE svg PUBLIC "-//W3C//DTD SVG 1.1//EN"
 "http://www.w3.org/Graphics/SVG/1.1/DTD/svg11.dtd">
<!-- Generated by graphviz version 2.46.0 (20210118.1747)
 -->
<!-- Title: transition_diagram Pages: 1 -->
<svg width="852pt" height="114pt"
 viewBox="0.00 0.00 852.00 114.00" xmlns="http://www.w3.org/2000/svg" xmlns:xlink="http://www.w3.org/1999/xlink">
<g id="graph0" class="graph" transform="scale(1 1) rotate(0) translate(4 110)">
<title>transition_diagram</title>
<polygon fill="white" stroke="transparent" points="-4,4 -4,-110 848,-110 848,4 -4,4"/>
<!-- s -->
<g id="node1" class="node">
<title>s</title>
</g>
<!-- 0 -->
<g id="node2" class="node">
<title>0</title>
<ellipse fill="none" stroke="black" cx="254" cy="-22" rx="18" ry="18"/>
<text text-anchor="middle" x="254" y="-18.3" font-family="Consolas" font-size="14.00">0</text>
</g>
<!-- s&#45;&gt;0 -->
<g id="edge1" class="edge">
<title>s:e&#45;&gt;0:w</title>
<path fill="none" stroke="black" d="M54,-22C131.41,-22 153.26,-22 225.9,-22"/>
<polygon fill="black" stroke="black" points="226,-25.5 236,-22 226,-18.5 226,-25.5"/>
<text text-anchor="middle" x="145" y="-25.8" font-family="Consolas" font-size="14.00">START</text>
</g>
<!-- 0&#45;&gt;0 -->
<g id="edge5" class="edge">
<title>0:e&#45;&gt;0:w</title>
<path fill="none" stroke="black" d="M272,-22C283.75,-34 283.75,-58 254,-58 230.29,-58 225.48,-42.76 230.45,-30.5"/>
<polygon fill="black" stroke="black" points="233.46,-32.29 236,-22 227.6,-28.45 233.46,-32.29"/>
<text text-anchor="middle" x="254" y="-61.8" font-family="Consolas" font-size="14.00">a</text>
</g>
<!-- 0&#45;&gt;0 -->
<g id="edge6" class="edge">
<title>0:e&#45;&gt;0:w</title>
<path fill="none" stroke="black" d="M272,-22C295.5,-40 295.5,-76 254,-76 217.36,-76 213.07,-47.94 228.74,-28.98"/>
<polygon fill="black" stroke="black" points="231.22,-31.45 236,-22 226.37,-26.41 231.22,-31.45"/>
<text text-anchor="middle" x="254" y="-79.8" font-family="Consolas" font-size="14.00">b</text>
</g>
<!-- 1 -->
<g id="node3" class="node">
<title>1</title>
<ellipse fill="none" stroke="black" cx="442" cy="-22" rx="18" ry="18"/>
<text text-anchor="middle" x="442" y="-18.3" font-family="Consolas" font-size="14.00">1</text>
</g>
<!-- 0&#45;&gt;1 -->
<g id="edge2" class="edge">
<title>0:e&#45;&gt;1:w</title>
<path fill="none" stroke="black" d="M272,-22C335.99,-22 354.52,-22 413.72,-22"/>
<polygon fill="black" stroke="black" points="414,-25.5 424,-22 414,-18.5 414,-25.5"/>
<text text-anchor="middle" x="348" y="-25.8" font-family="Consolas" font-size="14.00">a</text>
</g>
<!-- 2 -->
<g id="node4" class="node">
<title>2</title>
<ellipse fill="none" stroke="black" cx="630" cy="-22" rx="18" ry="18"/>
<text text-anchor="middle" x="630" y="-18.3" font-family="Consolas" font-size="14.00">2</text>
</g>
<!-- 1&#45;&gt;2 -->
<g id="edge3" class="edge">
<title>1:e&#45;&gt;2:w</title>
<path fill="none" stroke="black" d="M460,-22C523.99,-22 542.52,-22 601.72,-22"/>
<polygon fill="black" stroke="black" points="602,-25.5 612,-22 602,-18.5 602,-25.5"/>
<text text-anchor="middle" x="536" y="-25.8" font-family="Consolas" font-size="14.00">b</text>
</g>
<!-- 3 -->
<g id="node5" class="node">
<title>3</title>
<ellipse fill="none" stroke="black" cx="822" cy="-22" rx="18" ry="18"/>
<ellipse fill="none" stroke="black" cx="822" cy="-22" rx="22" ry="22"/>
<text text-anchor="middle" x="822" y="-18.3" font-family="Consolas" font-size="14.00">3</text>
</g>
<!-- 2&#45;&gt;3 -->
<g id="edge4" class="edge">
<title>2:e&#45;&gt;3:w</title>
<path fill="none" stroke="black" d="M648,-22C711.99,-22 730.52,-22 789.72,-22"/>
<polygon fill="black" stroke="black" points="790,-25.5 800,-22 790,-18.5 790,-25.5"/>
<text text-anchor="middle" x="724" y="-25.8" font-family="Consolas" font-size="14.00">b</text>
</g>
</g>
</svg>
