<?xml version="1.0" encoding="UTF-8" standalone="no"?>
<!DOCTYPE svg PUBLIC "-//W3C//DTD SVG 1.1//EN"
 "http://www.w3.org/Graphics/SVG/1.1/DTD/svg11.dtd">
<!-- Generated by graphviz version 2.46.0 (20210118.1747)
 -->
<!-- Title: transition_diagram Pages: 1 -->
<svg width="988pt" height="142pt"
 viewBox="0.00 0.00 987.60 142.13" xmlns="http://www.w3.org/2000/svg" xmlns:xlink="http://www.w3.org/1999/xlink">
<g id="graph0" class="graph" transform="scale(1 1) rotate(0) translate(4 138.13)">
<title>transition_diagram</title>
<polygon fill="white" stroke="transparent" points="-4,4 -4,-138.13 983.6,-138.13 983.6,4 -4,4"/>
<!-- s -->
<g id="node1" class="node">
<title>s</title>
</g>
<!-- 0 -->
<g id="node2" class="node">
<title>0</title>
<ellipse fill="none" stroke="black" cx="164" cy="-89.13" rx="18" ry="18"/>
<text text-anchor="middle" x="164" y="-85.43" font-family="Consolas" font-size="14.00">0</text>
</g>
<!-- s&#45;&gt;0 -->
<g id="edge1" class="edge">
<title>s&#45;&gt;0</title>
<path fill="none" stroke="black" d="M54.03,-89.13C77.42,-89.13 111.65,-89.13 135.48,-89.13"/>
<polygon fill="black" stroke="black" points="135.63,-92.63 145.63,-89.13 135.63,-85.63 135.63,-92.63"/>
<text text-anchor="middle" x="100" y="-92.93" font-family="Consolas" font-size="14.00">START</text>
</g>
<!-- 1 -->
<g id="node3" class="node">
<title>1</title>
<ellipse fill="none" stroke="black" cx="262" cy="-89.13" rx="18" ry="18"/>
<text text-anchor="middle" x="262" y="-85.43" font-family="Consolas" font-size="14.00">1</text>
</g>
<!-- 0&#45;&gt;1 -->
<g id="edge2" class="edge">
<title>0&#45;&gt;1</title>
<path fill="none" stroke="black" d="M182.16,-89.13C196.5,-89.13 217.19,-89.13 233.78,-89.13"/>
<polygon fill="black" stroke="black" points="233.99,-92.63 243.99,-89.13 233.99,-85.63 233.99,-92.63"/>
<text text-anchor="middle" x="213" y="-92.93" font-family="Consolas" font-size="14.00">ε</text>
</g>
<!-- 7 -->
<g id="node9" class="node">
<title>7</title>
<ellipse fill="none" stroke="black" cx="654" cy="-89.13" rx="18" ry="18"/>
<text text-anchor="middle" x="654" y="-85.43" font-family="Consolas" font-size="14.00">7</text>
</g>
<!-- 0&#45;&gt;7 -->
<g id="edge14" class="edge">
<title>0&#45;&gt;7</title>
<path fill="none" stroke="black" d="M180.16,-81.18C217.23,-62.27 315.99,-15.26 405,-2.13 491.63,10.65 587.75,-44.63 630.45,-73.1"/>
<polygon fill="black" stroke="black" points="628.72,-76.16 638.96,-78.9 632.66,-70.38 628.72,-76.16"/>
<text text-anchor="middle" x="409" y="-5.93" font-family="Consolas" font-size="14.00">ε</text>
</g>
<!-- 2 -->
<g id="node4" class="node">
<title>2</title>
<ellipse fill="none" stroke="black" cx="360" cy="-116.13" rx="18" ry="18"/>
<text text-anchor="middle" x="360" y="-112.43" font-family="Consolas" font-size="14.00">2</text>
</g>
<!-- 1&#45;&gt;2 -->
<g id="edge3" class="edge">
<title>1&#45;&gt;2</title>
<path fill="none" stroke="black" d="M279.72,-93.83C294.31,-97.94 315.74,-103.96 332.63,-108.72"/>
<polygon fill="black" stroke="black" points="331.9,-112.14 342.47,-111.48 333.79,-105.41 331.9,-112.14"/>
<text text-anchor="middle" x="311" y="-106.93" font-family="Consolas" font-size="14.00">ε</text>
</g>
<!-- 4 -->
<g id="node6" class="node">
<title>4</title>
<ellipse fill="none" stroke="black" cx="360" cy="-62.13" rx="18" ry="18"/>
<text text-anchor="middle" x="360" y="-58.43" font-family="Consolas" font-size="14.00">4</text>
</g>
<!-- 1&#45;&gt;4 -->
<g id="edge4" class="edge">
<title>1&#45;&gt;4</title>
<path fill="none" stroke="black" d="M279.72,-84.43C294.31,-80.32 315.74,-74.3 332.63,-69.55"/>
<polygon fill="black" stroke="black" points="333.79,-72.86 342.47,-66.78 331.9,-66.12 333.79,-72.86"/>
<text text-anchor="middle" x="311" y="-79.93" font-family="Consolas" font-size="14.00">ε</text>
</g>
<!-- 3 -->
<g id="node5" class="node">
<title>3</title>
<ellipse fill="none" stroke="black" cx="458" cy="-116.13" rx="18" ry="18"/>
<text text-anchor="middle" x="458" y="-112.43" font-family="Consolas" font-size="14.00">3</text>
</g>
<!-- 2&#45;&gt;3 -->
<g id="edge5" class="edge">
<title>2&#45;&gt;3</title>
<path fill="none" stroke="black" d="M378.16,-116.13C392.5,-116.13 413.19,-116.13 429.78,-116.13"/>
<polygon fill="black" stroke="black" points="429.99,-119.63 439.99,-116.13 429.99,-112.63 429.99,-119.63"/>
<text text-anchor="middle" x="409" y="-119.93" font-family="Consolas" font-size="14.00">a</text>
</g>
<!-- 6 -->
<g id="node8" class="node">
<title>6</title>
<ellipse fill="none" stroke="black" cx="556" cy="-89.13" rx="18" ry="18"/>
<text text-anchor="middle" x="556" y="-85.43" font-family="Consolas" font-size="14.00">6</text>
</g>
<!-- 3&#45;&gt;6 -->
<g id="edge7" class="edge">
<title>3&#45;&gt;6</title>
<path fill="none" stroke="black" d="M475.72,-111.43C490.31,-107.32 511.74,-101.3 528.63,-96.55"/>
<polygon fill="black" stroke="black" points="529.79,-99.86 538.47,-93.78 527.9,-93.12 529.79,-99.86"/>
<text text-anchor="middle" x="507" y="-106.93" font-family="Consolas" font-size="14.00">ε</text>
</g>
<!-- 5 -->
<g id="node7" class="node">
<title>5</title>
<ellipse fill="none" stroke="black" cx="458" cy="-62.13" rx="18" ry="18"/>
<text text-anchor="middle" x="458" y="-58.43" font-family="Consolas" font-size="14.00">5</text>
</g>
<!-- 4&#45;&gt;5 -->
<g id="edge6" class="edge">
<title>4&#45;&gt;5</title>
<path fill="none" stroke="black" d="M378.16,-62.13C392.5,-62.13 413.19,-62.13 429.78,-62.13"/>
<polygon fill="black" stroke="black" points="429.99,-65.63 439.99,-62.13 429.99,-58.63 429.99,-65.63"/>
<text text-anchor="middle" x="409" y="-65.93" font-family="Consolas" font-size="14.00">b</text>
</g>
<!-- 5&#45;&gt;6 -->
<g id="edge8" class="edge">
<title>5&#45;&gt;6</title>
<path fill="none" stroke="black" d="M475.72,-66.83C490.31,-70.94 511.74,-76.96 528.63,-81.72"/>
<polygon fill="black" stroke="black" points="527.9,-85.14 538.47,-84.48 529.79,-78.41 527.9,-85.14"/>
<text text-anchor="middle" x="507" y="-79.93" font-family="Consolas" font-size="14.00">ε</text>
</g>
<!-- 6&#45;&gt;1 -->
<g id="edge13" class="edge">
<title>6&#45;&gt;1</title>
<path fill="none" stroke="black" d="M542.61,-77.06C528.05,-63.81 502.51,-43.32 476,-35.13 419.1,-17.54 398.9,-17.54 342,-35.13 319.64,-42.04 297.96,-57.71 282.98,-70.39"/>
<polygon fill="black" stroke="black" points="280.6,-67.83 275.39,-77.06 285.22,-73.09 280.6,-67.83"/>
<text text-anchor="middle" x="409" y="-24.93" font-family="Consolas" font-size="14.00">ε</text>
</g>
<!-- 6&#45;&gt;7 -->
<g id="edge9" class="edge">
<title>6&#45;&gt;7</title>
<path fill="none" stroke="black" d="M574.16,-89.13C588.5,-89.13 609.19,-89.13 625.78,-89.13"/>
<polygon fill="black" stroke="black" points="625.99,-92.63 635.99,-89.13 625.99,-85.63 625.99,-92.63"/>
<text text-anchor="middle" x="605" y="-92.93" font-family="Consolas" font-size="14.00">ε</text>
</g>
<!-- 8 -->
<g id="node10" class="node">
<title>8</title>
<ellipse fill="none" stroke="black" cx="752" cy="-89.13" rx="18" ry="18"/>
<text text-anchor="middle" x="752" y="-85.43" font-family="Consolas" font-size="14.00">8</text>
</g>
<!-- 7&#45;&gt;8 -->
<g id="edge10" class="edge">
<title>7&#45;&gt;8</title>
<path fill="none" stroke="black" d="M672.16,-89.13C686.5,-89.13 707.19,-89.13 723.78,-89.13"/>
<polygon fill="black" stroke="black" points="723.99,-92.63 733.99,-89.13 723.99,-85.63 723.99,-92.63"/>
<text text-anchor="middle" x="703" y="-92.93" font-family="Consolas" font-size="14.00">a</text>
</g>
<!-- 9 -->
<g id="node11" class="node">
<title>9</title>
<ellipse fill="none" stroke="black" cx="850" cy="-89.13" rx="18" ry="18"/>
<text text-anchor="middle" x="850" y="-85.43" font-family="Consolas" font-size="14.00">9</text>
</g>
<!-- 8&#45;&gt;9 -->
<g id="edge11" class="edge">
<title>8&#45;&gt;9</title>
<path fill="none" stroke="black" d="M770.16,-89.13C784.5,-89.13 805.19,-89.13 821.78,-89.13"/>
<polygon fill="black" stroke="black" points="821.99,-92.63 831.99,-89.13 821.99,-85.63 821.99,-92.63"/>
<text text-anchor="middle" x="801" y="-92.93" font-family="Consolas" font-size="14.00">b</text>
</g>
<!-- 10 -->
<g id="node12" class="node">
<title>10</title>
<ellipse fill="none" stroke="black" cx="954.8" cy="-89.13" rx="20.63" ry="20.63"/>
<ellipse fill="none" stroke="black" cx="954.8" cy="-89.13" rx="24.6" ry="24.6"/>
<text text-anchor="middle" x="954.8" y="-85.43" font-family="Consolas" font-size="14.00">10</text>
</g>
<!-- 9&#45;&gt;10 -->
<g id="edge12" class="edge">
<title>9&#45;&gt;10</title>
<path fill="none" stroke="black" d="M868.44,-89.13C882.38,-89.13 902.37,-89.13 919.5,-89.13"/>
<polygon fill="black" stroke="black" points="919.71,-92.63 929.71,-89.13 919.71,-85.63 919.71,-92.63"/>
<text text-anchor="middle" x="899" y="-92.93" font-family="Consolas" font-size="14.00">b</text>
</g>
</g>
</svg>
