<?xml version="1.0" encoding="UTF-8" standalone="no"?>
<!DOCTYPE svg PUBLIC "-//W3C//DTD SVG 1.1//EN"
 "http://www.w3.org/Graphics/SVG/1.1/DTD/svg11.dtd">
<!-- Generated by graphviz version 2.46.0 (20210118.1747)
 -->
<!-- Title: transition_diagram Pages: 1 -->
<svg width="598pt" height="201pt"
 viewBox="0.00 0.00 598.00 201.00" xmlns="http://www.w3.org/2000/svg" xmlns:xlink="http://www.w3.org/1999/xlink">
<g id="graph0" class="graph" transform="scale(1 1) rotate(0) translate(4 197)">
<title>transition_diagram</title>
<polygon fill="white" stroke="transparent" points="-4,4 -4,-197 594,-197 594,4 -4,4"/>
<!-- s -->
<g id="node1" class="node">
<title>s</title>
</g>
<!-- 0 -->
<g id="node2" class="node">
<title>0</title>
<ellipse fill="none" stroke="black" cx="164" cy="-113" rx="18" ry="18"/>
<text text-anchor="middle" x="164" y="-109.3" font-family="Consolas" font-size="14.00">0</text>
</g>
<!-- s&#45;&gt;0 -->
<g id="edge1" class="edge">
<title>s&#45;&gt;0</title>
<path fill="none" stroke="black" d="M54.03,-113C77.42,-113 111.65,-113 135.48,-113"/>
<polygon fill="black" stroke="black" points="135.63,-116.5 145.63,-113 135.63,-109.5 135.63,-116.5"/>
<text text-anchor="middle" x="100" y="-116.8" font-family="Consolas" font-size="14.00">START</text>
</g>
<!-- 1 -->
<g id="node3" class="node">
<title>1</title>
<ellipse fill="none" stroke="black" cx="262" cy="-169" rx="18" ry="18"/>
<text text-anchor="middle" x="262" y="-165.3" font-family="Consolas" font-size="14.00">1</text>
</g>
<!-- 0&#45;&gt;1 -->
<g id="edge2" class="edge">
<title>0&#45;&gt;1</title>
<path fill="none" stroke="black" d="M180,-121.75C195.36,-130.71 219.45,-144.76 237.37,-155.22"/>
<polygon fill="black" stroke="black" points="235.7,-158.3 246.11,-160.31 239.23,-152.25 235.7,-158.3"/>
<text text-anchor="middle" x="213" y="-145.8" font-family="Consolas" font-size="14.00">ε</text>
</g>
<!-- 3 -->
<g id="node4" class="node">
<title>3</title>
<ellipse fill="none" stroke="black" cx="262" cy="-113" rx="18" ry="18"/>
<text text-anchor="middle" x="262" y="-109.3" font-family="Consolas" font-size="14.00">3</text>
</g>
<!-- 0&#45;&gt;3 -->
<g id="edge3" class="edge">
<title>0&#45;&gt;3</title>
<path fill="none" stroke="black" d="M182.16,-113C196.5,-113 217.19,-113 233.78,-113"/>
<polygon fill="black" stroke="black" points="233.99,-116.5 243.99,-113 233.99,-109.5 233.99,-116.5"/>
<text text-anchor="middle" x="213" y="-116.8" font-family="Consolas" font-size="14.00">ε</text>
</g>
<!-- 7 -->
<g id="node7" class="node">
<title>7</title>
<ellipse fill="none" stroke="black" cx="262" cy="-25" rx="18" ry="18"/>
<text text-anchor="middle" x="262" y="-21.3" font-family="Consolas" font-size="14.00">7</text>
</g>
<!-- 0&#45;&gt;7 -->
<g id="edge4" class="edge">
<title>0&#45;&gt;7</title>
<path fill="none" stroke="black" d="M177.95,-101.13C194.07,-86.35 221.79,-60.94 240.74,-43.58"/>
<polygon fill="black" stroke="black" points="243.25,-46.02 248.26,-36.68 238.52,-40.86 243.25,-46.02"/>
<text text-anchor="middle" x="213" y="-75.8" font-family="Consolas" font-size="14.00">ε</text>
</g>
<!-- 2 -->
<g id="node8" class="node">
<title>2</title>
<ellipse fill="none" stroke="black" cx="364" cy="-171" rx="18" ry="18"/>
<ellipse fill="none" stroke="black" cx="364" cy="-171" rx="22" ry="22"/>
<text text-anchor="middle" x="364" y="-167.3" font-family="Consolas" font-size="14.00">2</text>
</g>
<!-- 1&#45;&gt;2 -->
<g id="edge5" class="edge">
<title>1&#45;&gt;2</title>
<path fill="none" stroke="black" d="M280.42,-169.35C294.6,-169.63 314.97,-170.04 331.93,-170.38"/>
<polygon fill="black" stroke="black" points="331.9,-173.88 341.97,-170.58 332.04,-166.88 331.9,-173.88"/>
<text text-anchor="middle" x="311" y="-173.8" font-family="Consolas" font-size="14.00">a</text>
</g>
<!-- 4 -->
<g id="node5" class="node">
<title>4</title>
<ellipse fill="none" stroke="black" cx="364" cy="-113" rx="18" ry="18"/>
<text text-anchor="middle" x="364" y="-109.3" font-family="Consolas" font-size="14.00">4</text>
</g>
<!-- 3&#45;&gt;4 -->
<g id="edge6" class="edge">
<title>3&#45;&gt;4</title>
<path fill="none" stroke="black" d="M280.42,-113C295.62,-113 317.93,-113 335.54,-113"/>
<polygon fill="black" stroke="black" points="335.78,-116.5 345.78,-113 335.78,-109.5 335.78,-116.5"/>
<text text-anchor="middle" x="311" y="-116.8" font-family="Consolas" font-size="14.00">a</text>
</g>
<!-- 5 -->
<g id="node6" class="node">
<title>5</title>
<ellipse fill="none" stroke="black" cx="466" cy="-113" rx="18" ry="18"/>
<text text-anchor="middle" x="466" y="-109.3" font-family="Consolas" font-size="14.00">5</text>
</g>
<!-- 4&#45;&gt;5 -->
<g id="edge7" class="edge">
<title>4&#45;&gt;5</title>
<path fill="none" stroke="black" d="M382.42,-113C397.62,-113 419.93,-113 437.54,-113"/>
<polygon fill="black" stroke="black" points="437.78,-116.5 447.78,-113 437.78,-109.5 437.78,-116.5"/>
<text text-anchor="middle" x="417" y="-116.8" font-family="Consolas" font-size="14.00">b</text>
</g>
<!-- 6 -->
<g id="node9" class="node">
<title>6</title>
<ellipse fill="none" stroke="black" cx="568" cy="-113" rx="18" ry="18"/>
<ellipse fill="none" stroke="black" cx="568" cy="-113" rx="22" ry="22"/>
<text text-anchor="middle" x="568" y="-109.3" font-family="Consolas" font-size="14.00">6</text>
</g>
<!-- 5&#45;&gt;6 -->
<g id="edge8" class="edge">
<title>5&#45;&gt;6</title>
<path fill="none" stroke="black" d="M484.42,-113C498.6,-113 518.97,-113 535.93,-113"/>
<polygon fill="black" stroke="black" points="535.97,-116.5 545.97,-113 535.97,-109.5 535.97,-116.5"/>
<text text-anchor="middle" x="515" y="-116.8" font-family="Consolas" font-size="14.00">b</text>
</g>
<!-- 7&#45;&gt;7 -->
<g id="edge10" class="edge">
<title>7&#45;&gt;7</title>
<path fill="none" stroke="black" d="M253.64,-41.29C251.62,-51.39 254.41,-61 262,-61 266.86,-61 269.76,-57.06 270.68,-51.57"/>
<polygon fill="black" stroke="black" points="274.17,-51.18 270.36,-41.29 267.17,-51.39 274.17,-51.18"/>
<text text-anchor="middle" x="262" y="-64.8" font-family="Consolas" font-size="14.00">a</text>
</g>
<!-- 8 -->
<g id="node10" class="node">
<title>8</title>
<ellipse fill="none" stroke="black" cx="364" cy="-22" rx="18" ry="18"/>
<ellipse fill="none" stroke="black" cx="364" cy="-22" rx="22" ry="22"/>
<text text-anchor="middle" x="364" y="-18.3" font-family="Consolas" font-size="14.00">8</text>
</g>
<!-- 7&#45;&gt;8 -->
<g id="edge9" class="edge">
<title>7&#45;&gt;8</title>
<path fill="none" stroke="black" d="M280.42,-24.48C294.6,-24.05 314.97,-23.44 331.93,-22.93"/>
<polygon fill="black" stroke="black" points="332.08,-26.43 341.97,-22.63 331.87,-19.43 332.08,-26.43"/>
<text text-anchor="middle" x="311" y="-27.8" font-family="Consolas" font-size="14.00">b</text>
</g>
<!-- 8&#45;&gt;8 -->
<g id="edge11" class="edge">
<title>8&#45;&gt;8</title>
<path fill="none" stroke="black" d="M354.59,-42.17C353.15,-52.6 356.28,-62 364,-62 369.07,-62 372.16,-57.95 373.28,-52.22"/>
<polygon fill="black" stroke="black" points="376.78,-52.21 373.41,-42.17 369.78,-52.12 376.78,-52.21"/>
<text text-anchor="middle" x="364" y="-65.8" font-family="Consolas" font-size="14.00">b</text>
</g>
</g>
</svg>
