<?xml version="1.0" encoding="UTF-8"?>
<!-- Generator: Adobe Illustrator 14.0.0, SVG Export Plug-In . SVG Version: 6.00 Build 43363)  -->
<!DOCTYPE svg PUBLIC "-//W3C//DTD SVG 1.0//EN" "http://www.w3.org/TR/2001/REC-SVG-20010904/DTD/svg10.dtd">
<svg version="1.0" id="Layer_1" xmlns="http://www.w3.org/2000/svg" xmlns:xlink="http://www.w3.org/1999/xlink" x="0px" y="0px" width="297.112px" height="250px" viewBox="0 0 297.112 250" enable-background="new 0 0 297.112 250" xml:space="preserve">
<rect x="120.671" fill="#CCECF4" width="70" height="250"/>
<g>
	<g>
		<line fill="none" stroke="#000000" stroke-miterlimit="3" x1="182.671" y1="235" x2="161.671" y2="235"/>
		<polygon points="180.986,237.438 190.201,234.97 180.986,232.501   "/>
	</g>
</g>
<g>
	<g>
		<line fill="none" stroke="#000000" stroke-miterlimit="3" x1="128.671" y1="235" x2="149.671" y2="235"/>
		<polygon points="130.355,232.562 121.141,235.03 130.355,237.499   "/>
	</g>
</g>
<g id="Red_Arrows">
	<polyline fill="none" stroke="#FC4127" stroke-width="3" stroke-miterlimit="3" points="120.671,85 190.671,105 120.856,125.053    190.856,145.053 120.671,165  "/>
	
		<line fill="none" stroke="#FC4127" stroke-width="3" stroke-miterlimit="3" stroke-dasharray="4" x1="190.671" y1="185" x2="120.671" y2="165"/>
	<g>
		<g>
			<line fill="none" stroke="#FC4127" stroke-width="3" stroke-miterlimit="3" x1="120.671" y1="125" x2="60.671" y2="155"/>
			<polygon fill="#FC4127" points="61.698,147.75 44.063,163.387 67.154,158.662    "/>
		</g>
	</g>
	<g>
		<g>
			<line fill="none" stroke="#FC4127" stroke-width="3" stroke-miterlimit="3" x1="120.671" y1="165" x2="60.671" y2="195"/>
			<polygon fill="#FC4127" points="61.698,187.75 44.063,203.387 67.154,198.662    "/>
		</g>
	</g>
	<g>
		<g>
			<line fill="none" stroke="#FC4127" stroke-width="3" stroke-miterlimit="3" x1="190.671" y1="105" x2="250.671" y2="135"/>
			<polygon fill="#FC4127" points="244.255,138.528 267.345,143.254 249.711,127.616    "/>
		</g>
	</g>
	<g>
		<g>
			<line fill="none" stroke="#FC4127" stroke-width="3" stroke-miterlimit="3" x1="190.671" y1="145" x2="250.671" y2="175"/>
			<polygon fill="#FC4127" points="244.255,178.528 267.345,183.254 249.711,167.616    "/>
		</g>
	</g>
	<g>
		<g>
			<line fill="none" stroke="#FC4127" stroke-width="3" stroke-miterlimit="3" x1="0.671" y1="25" x2="30.671" y2="40"/>
			<polygon fill="#FC4127" points="24.254,43.528 47.344,48.254 29.71,32.616    "/>
		</g>
	</g>
	<line fill="none" stroke="#FC4127" stroke-width="3" stroke-miterlimit="3" x1="30.671" y1="40" x2="120.671" y2="85"/>
</g>
<line id="Dashed_Line" fill="none" stroke="#000000" stroke-width="2" stroke-miterlimit="3" stroke-dasharray="8,3" x1="71.671" y1="85" x2="180.671" y2="85"/>
<g id="Text">
	<g>
		<path d="M21.498,158.236h5.347c1.006,0,1.772,0.024,2.3,0.073s0.918,0.132,1.172,0.249c0.742,0.313,1.313,0.803,1.714,1.473    c0.4,0.668,0.601,1.457,0.601,2.365c0,1.65-0.552,2.99-1.655,4.021c-1.104,1.029-2.593,1.579-4.468,1.647l3.354,6.46    c0.371,0.674,0.771,1.294,1.201,1.86s0.894,1.064,1.392,1.494h-3.604l-5.186-10.195l-1.23,6.914    c-0.049,0.225-0.083,0.425-0.103,0.601s-0.029,0.352-0.029,0.527c0,0.254,0.073,0.557,0.22,0.908s0.376,0.767,0.688,1.245h-4.98    c0.508-0.518,0.898-1.042,1.172-1.575c0.273-0.531,0.483-1.228,0.63-2.087l2.241-12.715c0.039-0.176,0.07-0.358,0.096-0.55    c0.023-0.189,0.036-0.378,0.036-0.563c0-0.244-0.068-0.527-0.205-0.85S21.83,158.783,21.498,158.236z M25.16,159.276l-1.436,8.101    h1.348c1.494,0,2.683-0.459,3.567-1.377c0.883-0.918,1.325-2.158,1.325-3.721c0-1.084-0.257-1.855-0.769-2.314    c-0.514-0.459-1.409-0.688-2.688-0.688H25.16z"/>
		<path d="M39.782,170.205v9.359c0,0.518,0.053,0.943,0.158,1.276s0.269,0.677,0.491,1.029h-2.87    c0.239-0.388,0.413-0.767,0.521-1.14c0.107-0.373,0.162-0.839,0.162-1.396v-0.214v-6.849h-2.588    c0.41-0.137,0.954-0.376,1.631-0.718C37.966,171.212,38.797,170.763,39.782,170.205z"/>
	</g>
	<g>
		<path d="M21.498,198.236h5.347c1.006,0,1.772,0.024,2.3,0.073s0.918,0.132,1.172,0.249c0.742,0.313,1.313,0.803,1.714,1.473    c0.4,0.668,0.601,1.457,0.601,2.365c0,1.65-0.552,2.99-1.655,4.021c-1.104,1.029-2.593,1.579-4.468,1.647l3.354,6.46    c0.371,0.674,0.771,1.294,1.201,1.86s0.894,1.064,1.392,1.494h-3.604l-5.186-10.195l-1.23,6.914    c-0.049,0.225-0.083,0.425-0.103,0.601s-0.029,0.352-0.029,0.527c0,0.254,0.073,0.557,0.22,0.908s0.376,0.767,0.688,1.245h-4.98    c0.508-0.518,0.898-1.042,1.172-1.575c0.273-0.531,0.483-1.228,0.63-2.087l2.241-12.715c0.039-0.176,0.07-0.358,0.096-0.55    c0.023-0.189,0.036-0.378,0.036-0.563c0-0.244-0.068-0.527-0.205-0.85S21.83,198.783,21.498,198.236z M25.16,199.276l-1.436,8.101    h1.348c1.494,0,2.683-0.459,3.567-1.377c0.883-0.918,1.325-2.158,1.325-3.721c0-1.084-0.257-1.855-0.769-2.314    c-0.514-0.459-1.409-0.688-2.688-0.688H25.16z"/>
		<path d="M36.793,220.572h3.536c0.29,0,0.604-0.098,0.943-0.291s0.688-0.48,1.046-0.862l-0.35,2.451h-7.328    c2.039-2.095,3.464-3.769,4.274-5.021c0.812-1.253,1.217-2.36,1.217-3.322c0-0.78-0.178-1.395-0.533-1.845    c-0.355-0.449-0.841-0.674-1.456-0.674c-0.217,0-0.416,0.037-0.598,0.11c-0.183,0.074-0.385,0.202-0.606,0.384l-1.631,1.307v-2.1    c0.568-0.137,1.111-0.241,1.626-0.313c0.516-0.07,1.007-0.106,1.474-0.106c1.116,0,1.988,0.265,2.617,0.794    s0.944,1.262,0.944,2.195c0,0.842-0.378,1.805-1.132,2.887C40.082,217.247,38.734,218.716,36.793,220.572z"/>
	</g>
	<g>
		<path d="M273.975,138.236h14.971l-0.63,3.56c-0.127-0.107-0.303-0.264-0.527-0.469c-1.426-1.289-2.524-1.934-3.296-1.934h-2.007    l-2.666,15.22c-0.039,0.195-0.068,0.386-0.088,0.571s-0.029,0.366-0.029,0.542c0,0.254,0.073,0.557,0.22,0.908    s0.371,0.767,0.674,1.245h-4.98c0.918-0.908,1.519-2.119,1.802-3.633v-0.029l2.607-14.824h-1.802c-0.527,0-1.131,0.163-1.81,0.491    c-0.679,0.326-1.691,0.964-3.039,1.911L273.975,138.236z"/>
		<path d="M293.094,150.205v9.359c0,0.518,0.053,0.943,0.158,1.276s0.269,0.677,0.491,1.029h-2.87    c0.239-0.388,0.413-0.767,0.521-1.14c0.107-0.373,0.162-0.839,0.162-1.396v-0.214v-6.849h-2.588    c0.41-0.137,0.954-0.376,1.631-0.718C291.277,151.212,292.108,150.763,293.094,150.205z"/>
	</g>
	<g>
		<path d="M273.975,178.236h14.971l-0.63,3.56c-0.127-0.107-0.303-0.264-0.527-0.469c-1.426-1.289-2.524-1.934-3.296-1.934h-2.007    l-2.666,15.22c-0.039,0.195-0.068,0.386-0.088,0.571s-0.029,0.366-0.029,0.542c0,0.254,0.073,0.557,0.22,0.908    s0.371,0.767,0.674,1.245h-4.98c0.918-0.908,1.519-2.119,1.802-3.633v-0.029l2.607-14.824h-1.802c-0.527,0-1.131,0.163-1.81,0.491    c-0.679,0.326-1.691,0.964-3.039,1.911L273.975,178.236z"/>
		<path d="M290.104,200.572h3.536c0.29,0,0.604-0.098,0.943-0.291s0.688-0.48,1.046-0.862l-0.35,2.451h-7.328    c2.039-2.095,3.464-3.769,4.274-5.021c0.812-1.253,1.218-2.36,1.218-3.322c0-0.78-0.179-1.395-0.534-1.845    c-0.355-0.449-0.841-0.674-1.456-0.674c-0.217,0-0.416,0.037-0.598,0.11c-0.183,0.074-0.385,0.202-0.606,0.384l-1.631,1.307v-2.1    c0.568-0.137,1.111-0.241,1.626-0.313c0.516-0.07,1.007-0.106,1.474-0.106c1.116,0,1.988,0.265,2.617,0.794    s0.944,1.262,0.944,2.195c0,0.842-0.378,1.805-1.132,2.887C293.394,197.247,292.046,198.716,290.104,200.572z"/>
	</g>
	<g>
		<path d="M155.081,10.739l-0.688,3.516c1.055-1.162,2.064-2.039,3.031-2.629s1.875-0.886,2.725-0.886    c0.566,0,1.008,0.154,1.326,0.461c0.316,0.308,0.477,0.735,0.477,1.282c0,0.166-0.02,0.4-0.059,0.703s-0.088,0.625-0.146,0.967    l-1.51,7.866c-0.029,0.186-0.051,0.33-0.064,0.432c-0.016,0.103-0.023,0.168-0.023,0.198c0,0.176,0.064,0.295,0.191,0.359    s0.381,0.095,0.762,0.095h0.658c-0.498,0.605-1.043,1.086-1.633,1.443c-0.592,0.356-1.125,0.535-1.604,0.535    c-0.293,0-0.52-0.071-0.682-0.212c-0.16-0.142-0.242-0.339-0.242-0.593c0-0.117,0.016-0.298,0.045-0.542s0.072-0.513,0.131-0.806    l1.656-8.335c0.039-0.186,0.068-0.359,0.088-0.52s0.029-0.32,0.029-0.476c0-0.273-0.072-0.471-0.213-0.593    c-0.143-0.122-0.359-0.183-0.652-0.183c-0.527,0-1.152,0.142-1.875,0.425s-1.547,0.708-2.475,1.274l-1.861,10.356h-2.256    l1.803-10.21c0.02-0.186,0.033-0.33,0.043-0.432s0.016-0.193,0.016-0.271c0-0.166-0.021-0.342-0.066-0.527    c-0.043-0.186-0.105-0.356-0.184-0.513l-0.527-1.04L155.081,10.739z"/>
	</g>
	<g>
		<path d="M145.063,60.796c0-4.283,1.657-7.559,4.727-7.559c3.111,0,4.525,3.044,4.525,7.559c0,4.724-1.454,7.811-4.605,7.811    C146.841,68.606,145.063,65.982,145.063,60.796z M152.558,59.998c0-2.981-0.908-5.396-2.868-5.396    c-1.798,0-2.868,2.541-2.868,5.396H152.558z M146.821,61.363c0,3.737,1.211,5.879,2.949,5.879c1.898,0,2.809-2.436,2.809-5.879    H146.821z"/>
	</g>
</g>
<g>
	<path d="M157.884,227.736l-2.285,12.539c0,0.02-0.008,0.055-0.02,0.107c-0.014,0.053-0.02,0.084-0.02,0.098   c0,0.104,0.031,0.176,0.092,0.215c0.063,0.039,0.191,0.059,0.387,0.059h0.547c-0.43,0.449-0.818,0.777-1.168,0.986   c-0.348,0.209-0.678,0.313-0.99,0.313c-0.189,0-0.334-0.043-0.436-0.127c-0.1-0.084-0.15-0.209-0.15-0.371   c0-0.045,0.004-0.107,0.014-0.186s0.025-0.182,0.045-0.313l1.963-10.684c0.02-0.131,0.033-0.249,0.043-0.356   s0.016-0.206,0.016-0.298c0-0.131-0.018-0.259-0.049-0.386c-0.033-0.127-0.082-0.253-0.146-0.376l-0.361-0.664L157.884,227.736z"/>
</g>
<g id="Mirror">
	<line fill="none" stroke="#000000" stroke-width="2" x1="120.671" y1="0" x2="120.671" y2="250"/>
	<line fill="none" stroke="#000000" stroke-width="2" x1="190.671" y1="0" x2="190.671" y2="250"/>
</g>
<g>
	<g>
		<path fill="none" stroke="#000000" stroke-miterlimit="3" d="M155.434,80.613c-0.418-3.831-1.377-7.498-2.798-10.925"/>
		<polygon points="154.207,79.949 155.832,84.134 156.517,79.697   "/>
	</g>
</g>
<path fill="none" stroke="#000000" stroke-miterlimit="3" d="M155.434,80.613"/>
<g>
	<g>
		<path fill="none" stroke="#000000" stroke-miterlimit="3" d="M149.008,107.113c1.598-2.403,2.942-4.99,3.995-7.72"/>
		<polygon points="153.789,100.545 154.265,96.081 151.62,99.709   "/>
	</g>
</g>
</svg>