<svg width="87.98mm" height="38.181mm" version="1.1" viewBox="0 0 87.98 38.181" xmlns="http://www.w3.org/2000/svg"><g transform="translate(-6.6444 -10.179)"><rect x="13.077" y="18.782" width="22.117" height=".70213" fill="#00f" fill-rule="evenodd"/><path transform="rotate(60.855)" x="38.815502" y="-25.095604" width="22.11702" height="0.70212764" d="m38.816-25.096h22.117v0.70213h-22.117z" fill="#ed0000" fill-rule="evenodd"/><path d="m17.904 44.146 16.676-19.747" fill="none" stroke="#000" stroke-width=".26458px"/><text x="20.94346" y="45.506313" font-family="'Times New Roman'" font-size="3.5278px" stroke-width=".26458" style="line-height:1.25" xml:space="preserve"><tspan x="20.94346" y="45.506313" font-size="3.5278px" stroke-width=".26458">分光镜</tspan></text><text x="7.5478396" y="37.083252" font-family="'Times New Roman'" font-size="3.5278px" stroke-width=".26458" style="line-height:1.25" xml:space="preserve"><tspan x="7.5478396" y="37.083252">光源</tspan><tspan x="7.5478396" y="41.492977"/></text><text x="51.300076" y="45.513203" font-family="'Times New Roman'" font-size="3.5278px" stroke-width=".26458" style="line-height:1.25" xml:space="preserve"><tspan x="51.300076" y="45.513203">镜1</tspan><tspan x="51.300076" y="49.922928"/></text><text x="6.4928207" y="20.063492" font-family="'Times New Roman'" font-size="3.5278px" stroke-width=".26458" style="line-height:1.25" xml:space="preserve"><tspan x="6.4928207" y="20.063492">镜2</tspan><tspan x="6.4928207" y="24.473217"/></text><circle cx="15.74" cy="34.467" r=".20945" fill="#000006" fill-rule="evenodd"/><rect x="71.485" y="18.556" width="22.117" height=".70213" fill="#00f" fill-rule="evenodd"/><path class="UnoptimicedTransforms" transform="rotate(60.855)" x="67.064804" y="-76.218628" width="22.11702" height="0.70212764" d="m61.424-74.09-16.603 14.612 0.46387 0.52707 16.603-14.612z" fill="#ed0000" fill-rule="evenodd"/><path d="m76.313 43.92 16.676-19.747" fill="none" stroke="#000" stroke-dasharray="0.264583, 0.264583" stroke-width=".26458px"/><text x="70.912956" y="48.001194" font-family="'Times New Roman'" font-size="3.5278px" stroke-width=".26458" style="line-height:1.25" xml:space="preserve"><tspan x="70.912956" y="48.001194" font-size="3.5278px" stroke-width=".26458">分光镜</tspan></text><text x="86.932251" y="47.966743" font-family="'Times New Roman'" font-size="3.5278px" stroke-width=".26458" style="line-height:1.25" xml:space="preserve"><tspan x="86.932251" y="47.966743">光源</tspan><tspan x="86.932251" y="52.376469"/></text><text x="89.763367" y="13.086452" font-family="'Times New Roman'" font-size="3.5278px" stroke-width=".26458" style="line-height:1.25" xml:space="preserve"><tspan x="89.763367" y="13.086452">镜1</tspan><tspan x="89.763367" y="17.496176"/></text><text x="64.901161" y="19.837629" font-family="'Times New Roman'" font-size="3.5278px" stroke-width=".26458" style="line-height:1.25" xml:space="preserve"><tspan x="64.901161" y="19.837629">镜2</tspan><tspan x="64.901161" y="24.247355"/></text><path class="UnoptimicedTransforms" d="m86.183 44.226c-0.11404 0.01937-0.19079 0.12753-0.17141 0.24157 0.01937 0.11404 0.12753 0.19079 0.24157 0.17141 0.11404-0.01937 0.19079-0.12753 0.17141-0.24157-0.01937-0.11404-0.12753-0.19079-0.24157-0.17141z" fill="#000006" fill-rule="evenodd"/></g></svg>
