<svg width="122.15mm" height="98.815mm" version="1.1" viewBox="0 0 122.15 98.815" xmlns="http://www.w3.org/2000/svg" xmlns:osb="http://www.openswatchbook.org/uri/2009/osb"><defs><marker id="a" overflow="visible" orient="auto"><path transform="matrix(-.8 0 0 -.8 -10 0)" d="m0 0 5-5-17.5 5 17.5 5z" fill="#ffae00" fill-rule="evenodd" stroke="#ffae00" stroke-width="1pt"/></marker><marker id="b" overflow="visible" orient="auto"><path transform="matrix(-.8 0 0 -.8 -10 0)" d="m0 0 5-5-17.5 5 17.5 5z" fill="#e400ff" fill-rule="evenodd" stroke="#e400ff" stroke-width="1pt"/></marker><marker id="f" overflow="visible" orient="auto"><path transform="matrix(-.8 0 0 -.8 -10 0)" d="m0 0 5-5-17.5 5 17.5 5z" fill="#e400ff" fill-rule="evenodd" stroke="#e400ff" stroke-width="1pt"/></marker><marker id="c" overflow="visible" orient="auto"><path transform="matrix(1.1,0,0,1.1,1.1,0)" d="m8.7186 4.0337-10.926-4.0177 10.926-4.0177c-1.7455 2.3721-1.7354 5.6175-6e-7 8.0354z" fill="#f00" fill-rule="evenodd" stroke="#f00" stroke-linejoin="round" stroke-width=".625"/></marker><marker id="d" overflow="visible" orient="auto"><path transform="matrix(-1.1,0,0,-1.1,-1.1,0)" d="m8.7186 4.0337-10.926-4.0177 10.926-4.0177c-1.7455 2.3721-1.7354 5.6175-6e-7 8.0354z" fill="#f00" fill-rule="evenodd" stroke="#f00" stroke-linejoin="round" stroke-width=".625"/></marker><marker id="e" overflow="visible" orient="auto"><path transform="matrix(-.8 0 0 -.8 -10 0)" d="m0 0 5-5-17.5 5 17.5 5z" fill="#e400ff" fill-rule="evenodd" stroke="#e400ff" stroke-width="1pt"/></marker></defs><g transform="translate(-26.719 -39.181)"><g fill="none"><path d="m61.506 57.465 60.516-7.4048" stroke="#000" stroke-width=".465"/><path d="m61.398 129.62 60.691 4.613" stroke="#000" stroke-width=".465"/><g stroke="#f00" stroke-linejoin="bevel"><ellipse cx="61.606" cy="93.544" rx="8.9535" ry="36.081" marker-end="url(#c)" stroke-width=".665"/><path d="m122.09 134.23c6.067-7e-5 10.985-18.873 10.985-42.155-1e-5 -23.281-4.9183-42.154-10.985-42.155" marker-mid="url(#d)" stroke-width=".79618"/><path transform="scale(.26458)" d="m461.44 188.67c-0.0599-5e-4 -0.11979-5e-4 -0.17969 0-22.86 0.37986-41.34 71.601-41.34 159.32 3e-5 87.992 18.589 159.32 41.52 159.32" stroke-dasharray="3.0085, 3.0085" stroke-width="3.0085"/></g><g stroke="#e400ff"><path d="m60.403 95.014h-18.976" marker-end="url(#f)" stroke-width=".26458px"/><path d="m121.86 92.876h-18.976" marker-end="url(#e)" stroke-width=".26458px"/><path d="m90.97 53.86-2.2369-14.17" marker-end="url(#b)" stroke-width=".265"/></g></g><g font-family="sans-serif" font-size="4.2333px"><text transform="translate(15.308 .75595)" style="line-height:1.25;shape-inside:url(#rect5852);white-space:pre" xml:space="preserve"><tspan x="102.24219" y="103.64735"><tspan>Σ(</tspan><tspan>t</tspan><tspan>)</tspan></tspan></text><text transform="translate(-48.381 1.1339)" style="line-height:1.25;shape-inside:url(#rect5860);white-space:pre" xml:space="preserve"><tspan x="102.24219" y="103.64735"><tspan>Σ(</tspan><tspan>t+dt</tspan><tspan>)</tspan></tspan></text><text style="line-height:1.25;shape-inside:url(#rect5864);white-space:pre" xml:space="preserve"/><text transform="translate(-8.2718 -54.84)" style="line-height:1.25;shape-inside:url(#rect5852-9);white-space:pre" xml:space="preserve"><tspan x="102.24219" y="103.64735"><tspan>Σ(</tspan><tspan>侧面</tspan><tspan>)</tspan></tspan></text></g><path d="m148.77 137.94c-13.544-25.752-44.991-31.49-56.337-31.825-14.131-0.41692-54.664 7.3656-65.634 18.623" fill="none" marker-mid="url(#a)" stroke="#ffae00" stroke-width=".2254"/><text x="137.01639" y="130.02382" font-family="sans-serif" font-size="4.2333px" stroke-width=".26458" style="line-height:1.25" xml:space="preserve"><tspan x="137.01639" y="130.02382" stroke-width=".26458">B</tspan></text></g></svg>
