<svg width="50.793mm" height="42.329mm" version="1.1" viewBox="0 0 50.793 42.329" xmlns="http://www.w3.org/2000/svg"><defs><marker id="a" overflow="visible" orient="auto"><path transform="matrix(-.4 0 0 -.4 -4 0)" d="m0 0 5-5-17.5 5 17.5 5z" fill-rule="evenodd" stroke="#000" stroke-width="1pt"/></marker><marker id="b" overflow="visible" orient="auto"><path transform="matrix(-.4 0 0 -.4 -4 0)" d="m0 0 5-5-17.5 5 17.5 5z" fill-rule="evenodd" stroke="#000" stroke-width="1pt"/></marker><marker id="c" overflow="visible" orient="auto"><path transform="matrix(-.4 0 0 -.4 -4 0)" d="m0 0 5-5-17.5 5 17.5 5z" fill-rule="evenodd" stroke="#000" stroke-width="1pt"/></marker><marker id="d" overflow="visible" orient="auto"><path transform="matrix(-.4 0 0 -.4 -4 0)" d="m0 0 5-5-17.5 5 17.5 5z" fill-rule="evenodd" stroke="#000" stroke-width="1pt"/></marker><marker id="e" overflow="visible" orient="auto"><path transform="matrix(-.4 0 0 -.4 -4 0)" d="m0 0 5-5-17.5 5 17.5 5z" fill-rule="evenodd" stroke="#000" stroke-width="1pt"/></marker></defs><g transform="translate(-3.5146 2.0068)"><path d="m9.2604 10.583v5.2917" fill="none" stroke="#000" stroke-width=".2"/><path d="m7.9375 15.875v5.2917h2.6458v-5.2917z" fill="none" stroke="#000" stroke-width=".2"/><circle cx="9.2604" cy="7.9375" r="2.6458" fill="none" stroke="#000" stroke-linejoin="bevel" stroke-width=".2"/><path d="m6.6146 7.9375h5.2917" fill="none" stroke="#000" stroke-width=".2"/><path d="m9.2604 5.2917v-3.9688" fill="none" stroke="#000" stroke-width=".2"/><path d="m9.2604 21.167 1e-7 5.2917" fill="none" stroke="#000" stroke-width=".2"/><path d="m9.2604 26.458a.66146.66146 0 01.66146.66146.66146.66146 0 01-.66146.66146" fill="none" stroke="#000" stroke-linejoin="bevel" stroke-width=".2"/><path d="m9.2604 27.781a.66146.66146 0 01.66146.66146.66146.66146 0 01-.66146.66146" fill="none" stroke="#000" stroke-linejoin="bevel" stroke-width=".2"/><path d="m9.2604 29.104a.66146.66146 0 01.66146.66146.66146.66146 0 01-.66146.66146" fill="none" stroke="#000" stroke-linejoin="bevel" stroke-width=".2"/><path d="m9.2604 30.427a.66146.66146 0 01.66146.66146.66146.66146 0 01-.66146.66146" fill="none" stroke="#000" stroke-linejoin="bevel" stroke-width=".2"/><path d="m9.2604 31.75v3.9688" fill="none" stroke="#000" stroke-width=".2"/><path d="m14.552 10.583v-6.6146" fill="none" marker-end="url(#c)" stroke="#000" stroke-width=".2"/><path d="m14.552 14.552v7.9375" fill="none" marker-end="url(#d)" stroke="#000" stroke-width=".2"/><path d="m14.552 25.135v7.9375" fill="none" marker-end="url(#e)" stroke="#000" stroke-width=".2"/><path d="m9.2604 25.135v-2.6458" fill="none" marker-end="url(#b)" stroke="#000" stroke-width=".2"/><text x="3.96875" y="22.489584" font-family="sans-serif" font-size="4.2333px" stroke-width=".26458" style="line-height:1.25" xml:space="preserve"><tspan x="3.96875" y="22.489584" stroke-width=".26458"/></text><text x="6.7885108" y="24.774467" font-family="sans-serif" font-size="2.8222px" stroke-width=".26458" style="line-height:1.25" xml:space="preserve"><tspan x="6.7885108" y="24.774467" font-size="2.8222px" stroke-width=".26458">i</tspan></text><text x="15.794751" y="8.1379519" font-family="sans-serif" font-size="2.8222px" stroke-width=".26458" style="line-height:1.25" xml:space="preserve"><tspan x="15.794751" y="8.1379519" font-size="2.8222px" stroke-width=".26458">e</tspan></text><text x="15.460665" y="19.43009" font-family="sans-serif" font-size="2.8222px" stroke-width=".26458" style="line-height:1.25" xml:space="preserve"><tspan x="15.460665" y="19.43009" font-size="2.8222px" stroke-width=".26458">u<tspan font-size="1.4111px">R</tspan></tspan></text><text x="15.607731" y="29.892544" font-family="sans-serif" font-size="2.8222px" stroke-width=".26458" style="line-height:1.25" xml:space="preserve"><tspan x="15.607731" y="29.892544" font-size="2.8222px" stroke-width=".26458">u<tspan font-size="1.4111px">L</tspan></tspan></text><path d="m23.813 17.198h5.2917" fill="none" stroke="#000" stroke-width=".21603px"/><path d="m29.104 18.521h-5.2917" fill="none" stroke="#000" stroke-width=".21603px"/><path d="m48.948 6.6146-11.906 5.2917v15.875l11.906-3.9688" fill="none" stroke="#000" stroke-width=".26458px"/><path d="m44.979 25.135-3.9688 1.3229" fill="none" marker-start="url(#a)" stroke="#000" stroke-width=".26458px"/><text x="10.690105" y="37.322369" font-family="sans-serif" font-size="2.8222px" stroke-width=".26458" style="line-height:1.25" xml:space="preserve"><tspan x="10.690105" y="37.322369" font-size="2.8222px" stroke-width=".26458">A</tspan></text><text x="49.283688" y="26.725267" font-family="sans-serif" font-size="2.8222px" stroke-width=".26458" style="line-height:1.25" xml:space="preserve"><tspan x="49.283688" y="26.725267" font-size="2.8222px" stroke-width=".26458">A</tspan></text><text x="49.484138" y="7.3482256" font-family="sans-serif" font-size="2.8222px" stroke-width=".26458" style="line-height:1.25" xml:space="preserve"><tspan x="49.484138" y="7.3482256" font-size="2.8222px" stroke-width=".26458">B</tspan></text><text x="10.623285" y="3.0450509" font-family="sans-serif" font-size="2.8222px" stroke-width=".26458" style="line-height:1.25" xml:space="preserve"><tspan x="10.623285" y="3.0450509" font-size="2.8222px" stroke-width=".26458">B</tspan></text></g></svg>
