<?xml version="1.0" encoding="UTF-8" standalone="no"?>
<svg
   xmlns:dc="http://purl.org/dc/elements/1.1/"
   xmlns:cc="http://creativecommons.org/ns#"
   xmlns:rdf="http://www.w3.org/1999/02/22-rdf-syntax-ns#"
   xmlns:svg="http://www.w3.org/2000/svg"
   xmlns="http://www.w3.org/2000/svg"
   width="38.448997mm"
   height="61.36916mm"
   viewBox="0 0 38.448997 61.36916"
   version="1.1"
   id="svg8">
  <defs
     id="defs2">
    <marker
       id="a"
       overflow="visible"
       orient="auto">
      <path
         transform="matrix(-0.4,0,0,-0.4,-4,0)"
         d="M 0,0 5,-5 -12.5,0 5,5 Z"
         fill-rule="evenodd"
         stroke="#000000"
         stroke-width="1pt"
         id="path833" />
    </marker>
    <marker
       id="c"
       overflow="visible"
       orient="auto">
      <path
         transform="matrix(-0.4,0,0,-0.4,-4,0)"
         d="M 0,0 5,-5 -12.5,0 5,5 Z"
         fill="#ff0000"
         fill-rule="evenodd"
         stroke="#ff0000"
         stroke-width="1pt"
         id="path836" />
    </marker>
    <marker
       id="b"
       overflow="visible"
       orient="auto">
      <path
         transform="matrix(0.4,0,0,0.4,4,0)"
         d="M 0,0 5,-5 -12.5,0 5,5 Z"
         fill="#001dff"
         fill-rule="evenodd"
         stroke="#001dff"
         stroke-width="1pt"
         id="path839" />
    </marker>
  </defs>
  <metadata
     id="metadata5">
    <rdf:RDF>
      <cc:Work
         rdf:about="">
        <dc:format>image/svg+xml</dc:format>
        <dc:type
           rdf:resource="http://purl.org/dc/dcmitype/StillImage" />
        <dc:title></dc:title>
      </cc:Work>
    </rdf:RDF>
  </metadata>
  <g
     id="layer1"
     transform="translate(-23.108835,-25.255896)">
    <g
       transform="translate(19.654415,23.333476)"
       id="g870">
      <path
         d="m 22.364,23.654 a 6.7102,30.41 0 0 1 0.29765,8.9535 6.7102,30.41 0 0 1 -0.30166,9.0098 h 11.45 v -17.963 z"
         fill="#94dd1d"
         id="path844" />
      <path
         d="m 28.331,32.206 9.4881,9.4881"
         fill="none"
         marker-end="url(#c)"
         stroke="#ff0000"
         stroke-width="0.265"
         id="path846" />
      <g
         font-family="sans-serif"
         font-size="4.2333px"
         id="g864">
        <text
           style="line-height:1.25;white-space:pre;shape-inside:url(#rect2120);"
           xml:space="preserve"
           id="text848" />
        <g
           stroke-width="0.26458"
           id="g862">
          <text
             x="17.372517"
             y="35.012306"
             fill="#001dff"
             style="line-height:1.25"
             xml:space="preserve"
             id="text852"><tspan
               x="17.372517"
               y="35.012306"
               fill="#001dff"
               stroke-width="0.26458"
               id="tspan850">dl</tspan></text>
          <text
             x="26.192413"
             y="46.103989"
             style="line-height:1.25"
             xml:space="preserve"
             id="text856"><tspan
               x="26.192413"
               y="46.103989"
               stroke-width="0.26458"
               id="tspan854">du</tspan></text>
          <text
             x="36.615925"
             y="38.486809"
             fill="#ff0000"
             style="line-height:1.25"
             xml:space="preserve"
             id="text860"><tspan
               x="36.615925"
               y="38.486809"
               fill="#ff0000"
               stroke-width="0.26458"
               id="tspan858">dS</tspan></text>
        </g>
      </g>
      <path
         d="M 22.788,32.607 A 9.5295,30.41 0 0 1 13.2585,63.017 9.5295,30.41 0 0 1 3.729,32.607 9.5295,30.41 0 0 1 13.2585,2.197 9.5295,30.41 0 0 1 22.788,32.607 Z"
         fill="none"
         marker-start="url(#b)"
         stroke="#001dff"
         stroke-linejoin="bevel"
         stroke-width="0.54916"
         id="path866" />
      <path
         d="M 22.36,41.617 H 33.409"
         fill="none"
         marker-end="url(#a)"
         stroke="#000000"
         stroke-width="0.26458px"
         id="path868" />
    </g>
  </g>
</svg>
