<svg xmlns="http://www.w3.org/2000/svg" xmlns:xlink="http://www.w3.org/1999/xlink" width="385.923" height="362.541" viewBox="0 0 102.109 95.922"><defs><path id="c" d="M43.654 15.069h8.85v5.621h-8.85z"/><path id="d" d="M43.654 15.069h8.85v5.621h-8.85z"/><marker style="overflow:visible" id="e" refX="0" refY="0" orient="auto"><path transform="scale(-.6)" d="M8.719 4.034-2.207.016 8.719-4.002c-1.746 2.372-1.736 5.618 0 8.036z" style="fill:#0041e9;fill-opacity:1;fill-rule:evenodd;stroke:#0041e9;stroke-width:.625;stroke-linejoin:round;stroke-opacity:1"/></marker></defs><path style="fill:#c7c7c7;fill-opacity:1;fill-rule:evenodd;stroke:none;stroke-width:.264999" d="M17.76 7.104h52.602v85.922H17.76z" transform="translate(-12.76 -2.104)"/><path style="fill:#8a8a8a;fill-opacity:1;stroke:none;stroke-width:.264583px;stroke-linecap:butt;stroke-linejoin:miter;stroke-opacity:1" d="M19.844 47.625h48.948V33.073H31.75v5.292h-6.615V19.844h6.615v5.291h37.042V9.26H19.844zM19.844 91.281h48.948V76.73H31.75v5.292h-6.615V63.5h6.615v5.292h37.042V52.917H19.844z" transform="translate(-12.76 -2.104)"/><g transform="translate(-12.76 -2.104)"><path id="a" style="fill:none;stroke:#000;stroke-width:.264583px;stroke-linecap:butt;stroke-linejoin:miter;stroke-opacity:1" d="m32.29 73.036 2.889-2.889m-2.842.047 2.795 2.795m.587-1.397a1.984 1.984 0 0 1-1.985 1.984 1.984 1.984 0 0 1-1.984-1.984 1.984 1.984 0 0 1 1.984-1.985 1.984 1.984 0 0 1 1.985 1.985z"/><use xlink:href="#a" transform="rotate(90 35.957 73.814)" width="100%" height="100%"/><use xlink:href="#a" transform="translate(8.89)" width="100%" height="100%"/><use xlink:href="#a" transform="rotate(90 40.402 78.259)" width="100%" height="100%"/><use xlink:href="#a" transform="translate(17.78)" width="100%" height="100%"/><use xlink:href="#a" transform="rotate(90 44.847 82.704)" width="100%" height="100%"/><use xlink:href="#a" transform="translate(26.67)" width="100%" height="100%"/><use xlink:href="#a" transform="rotate(90 49.292 87.149)" width="100%" height="100%"/><g id="b"><path style="fill:none;stroke:#000;stroke-width:.264583px;stroke-linecap:butt;stroke-linejoin:miter;stroke-opacity:1" d="M35.719 30.21a1.984 1.984 0 0 1-1.985 1.985 1.984 1.984 0 0 1-1.984-1.985 1.984 1.984 0 0 1 1.984-1.984 1.984 1.984 0 0 1 1.985 1.984z"/><circle style="fill:#000;fill-opacity:1;fill-rule:evenodd;stroke:none;stroke-width:.264999" cx="33.734" cy="30.21" r=".299"/></g><use xlink:href="#b" width="100%" height="100%"/><use xlink:href="#b" transform="rotate(90 35.957 32.433)" width="100%" height="100%"/><use xlink:href="#b" transform="translate(8.89)" width="100%" height="100%"/><use xlink:href="#b" transform="rotate(90 40.402 36.878)" width="100%" height="100%"/><use xlink:href="#b" transform="translate(17.78)" width="100%" height="100%"/><use xlink:href="#b" transform="rotate(90 44.847 41.323)" width="100%" height="100%"/><use xlink:href="#b" transform="translate(26.67)" width="100%" height="100%"/><use xlink:href="#b" transform="rotate(90 49.292 45.768)" width="100%" height="100%"/><text xml:space="preserve" style="font-style:normal;font-variant:normal;font-weight:400;font-stretch:normal;font-size:4.93889px;line-height:1.25;font-family:'Times New Roman';-inkscape-font-specification:'Times New Roman, ';white-space:pre;shape-inside:url(#c);fill:#d20000;fill-opacity:1"><tspan x="43.654" y="19.454"><tspan style="font-style:normal;font-variant:normal;font-weight:400;font-stretch:normal;font-size:4.93889px;font-family:'Times New Roman';-inkscape-font-specification:'Times New Roman, ';fill:#d20000;fill-opacity:1">S</tspan></tspan></text><text xml:space="preserve" style="font-style:normal;font-variant:normal;font-weight:400;font-stretch:normal;font-size:4.93889px;line-height:1.25;font-family:'Times New Roman';-inkscape-font-specification:'Times New Roman, ';white-space:pre;shape-inside:url(#d);fill:#1a00d2;fill-opacity:1" transform="translate(0 21.408)"><tspan x="43.654" y="19.454"><tspan style="font-style:normal;font-variant:normal;font-weight:400;font-stretch:normal;font-size:4.93889px;font-family:'Times New Roman';-inkscape-font-specification:'Times New Roman, ';fill:#1a00d2;fill-opacity:1">N</tspan></tspan></text><path style="fill:none;stroke:#0041e9;stroke-width:.265;stroke-linecap:butt;stroke-linejoin:miter;stroke-miterlimit:4;stroke-dasharray:none;stroke-opacity:1;marker-end:url(#e)" d="M27.781 38.365V19.844"/><path style="fill:none;stroke:#000;stroke-width:.264583px;stroke-linecap:butt;stroke-linejoin:miter;stroke-opacity:1" d="M68.792 38.365h22.462M91.254 50.27V38.366l18.52-18.521"/><g transform="matrix(1 0 0 -1 0 70.021)"><path style="fill:none;stroke:#000;stroke-width:.264583px;stroke-linecap:butt;stroke-linejoin:miter;stroke-opacity:1" d="M68.792 7.844h22.462M91.254 19.75V7.844l18.52-18.52"/><path style="fill:none;stroke:#000;stroke-width:.264583px;stroke-linecap:butt;stroke-linejoin:miter;stroke-opacity:1" d="m70.362 22.396 1.418-5.292 1.417 5.292" id="f"/><use xlink:href="#f" width="100%" height="100%"/><use xlink:href="#f" transform="translate(2.937)" width="100%" height="100%"/><use xlink:href="#f" transform="translate(5.874)" width="100%" height="100%"/><use xlink:href="#f" transform="translate(8.81)" width="100%" height="100%"/><use xlink:href="#f" transform="translate(11.747)" width="100%" height="100%"/><use xlink:href="#f" transform="translate(14.684)" width="100%" height="100%"/><use xlink:href="#f" transform="translate(17.62)" width="100%" height="100%"/></g></g></svg>