<svg width="169.58mm" height="61.92mm" version="1.1" viewBox="0 0 169.58 61.92" xmlns="http://www.w3.org/2000/svg"><defs><marker id="a" overflow="visible" orient="auto"><path transform="matrix(-.4 0 0 -.4 -4 0)" d="m0 0 5-5-17.5 5 17.5 5z" fill-rule="evenodd" stroke="#000" stroke-width="1pt"/></marker><marker id="b" overflow="visible" orient="auto"><path transform="matrix(-.4 0 0 -.4 -4 0)" d="m0 0 5-5-17.5 5 17.5 5z" fill-rule="evenodd" stroke="#000" stroke-width="1pt"/></marker><marker id="c" overflow="visible" orient="auto"><path transform="matrix(-.4 0 0 -.4 -4 0)" d="m0 0 5-5-17.5 5 17.5 5z" fill-rule="evenodd" stroke="#000" stroke-width="1pt"/></marker><marker id="d" overflow="visible" orient="auto"><path transform="matrix(.4 0 0 .4 4 0)" d="m0 0 5-5-17.5 5 17.5 5z" fill="#be001e" fill-rule="evenodd" stroke="#be001e" stroke-width="1pt"/></marker><marker id="e" overflow="visible" orient="auto"><path transform="matrix(.4 0 0 .4 4 0)" d="m0 0 5-5-17.5 5 17.5 5z" fill="#be001e" fill-rule="evenodd" stroke="#be001e" stroke-width="1pt"/></marker><marker id="f" overflow="visible" orient="auto"><path transform="matrix(-.4 0 0 -.4 -4 0)" d="m0 0 5-5-17.5 5 17.5 5z" fill="#1600ff" fill-rule="evenodd" stroke="#1600ff" stroke-width="1pt"/></marker><marker id="g" overflow="visible" orient="auto"><path transform="matrix(-.4 0 0 -.4 -4 0)" d="m0 0 5-5-17.5 5 17.5 5z" fill-rule="evenodd" stroke="#000" stroke-width="1pt"/></marker><marker id="h" overflow="visible" orient="auto"><path transform="matrix(-.4 0 0 -.4 -4 0)" d="m0 0 5-5-17.5 5 17.5 5z" fill-rule="evenodd" stroke="#000" stroke-width="1pt"/></marker><marker id="i" overflow="visible" orient="auto"><path transform="matrix(-.4 0 0 -.4 -4 0)" d="m0 0 5-5-17.5 5 17.5 5z" fill-rule="evenodd" stroke="#000" stroke-width="1pt"/></marker><marker id="j" overflow="visible" orient="auto"><path transform="matrix(-.4 0 0 -.4 -4 0)" d="m0 0 5-5-17.5 5 17.5 5z" fill-rule="evenodd" stroke="#000" stroke-width="1pt"/></marker><marker id="m" overflow="visible" orient="auto"><path transform="matrix(-.4 0 0 -.4 -4 0)" d="m0 0 5-5-17.5 5 17.5 5z" fill-rule="evenodd" stroke="#000" stroke-width="1pt"/></marker><marker id="k" overflow="visible" orient="auto"><path transform="matrix(.4 0 0 .4 4 0)" d="m0 0 5-5-17.5 5 17.5 5z" fill="#be001e" fill-rule="evenodd" stroke="#be001e" stroke-width="1pt"/></marker><marker id="l" overflow="visible" orient="auto"><path transform="matrix(.4 0 0 .4 4 0)" d="m0 0 5-5-17.5 5 17.5 5z" fill="#be001e" fill-rule="evenodd" stroke="#be001e" stroke-width="1pt"/></marker></defs><g transform="translate(-6.0793 1.8817)"><path d="m33.787 7.643h-21.125" fill="none" stroke="#000" stroke-width=".28004px"/><path d="m56.735 46.594h26.608" fill="none" stroke="#000" stroke-width=".27991px" style="paint-order:normal"/><circle cx="45.545" cy="27.118" r="24" fill="#6b6b6b" fill-rule="evenodd"/><path d="m34.217 17.866-7.26-5.9295" fill="none" marker-end="url(#i)" stroke="#000" stroke-width=".26458px"/><path d="m32.208 21.113-8.5473-3.8484" fill="none" stroke="#000" stroke-width=".26458px"/><path d="m31.108 24.77-9.2521-1.5051" fill="none" stroke="#000" stroke-width=".26458px"/><path d="m30.992 28.586-9.3264.94078" fill="none" stroke="#000" stroke-width=".26458px"/><path d="m31.868 32.303-8.7651 3.3226" fill="none" stroke="#000" stroke-width=".26458px"/><path d="m33.676 35.666-7.6065 5.4779" fill="none" stroke="#000" stroke-width=".26458px"/><path d="m36.293 38.446-5.9295 7.26" fill="none" marker-end="url(#h)" stroke="#000" stroke-width=".26458px"/><path d="m56.873 36.37 7.26 5.9295" fill="none" marker-end="url(#j)" stroke="#000" stroke-width=".26458px"/><path d="m58.881 33.123 8.5473 3.8484" fill="none" stroke="#000" stroke-width=".26458px"/><path d="m59.981 29.467 9.2521 1.5051" fill="none" stroke="#000" stroke-width=".26458px"/><path d="m60.097 25.65 9.3264-.94078" fill="none" stroke="#000" stroke-width=".26458px"/><path d="m59.221 21.934 8.7651-3.3226" fill="none" stroke="#000" stroke-width=".26458px"/><path d="m57.413 18.571 7.6065-5.4779" fill="none" stroke="#000" stroke-width=".26458px"/><path d="m54.797 15.79 5.9295-7.26" fill="none" marker-end="url(#m)" stroke="#000" stroke-width=".265"/><path d="m45.545 27.118v24" fill="none" stroke="#1600ff" stroke-width=".26458px"/><path d="m45.545 46.491h5.2932" fill="none" marker-end="url(#f)" stroke="#1600ff" stroke-width=".26458px"/><text transform="translate(1.0394 -3.7798)" font-family="'Times New Roman'" font-size="4.2333px" style="line-height:1.25;shape-inside:url(#rect3244);white-space:pre" xml:space="preserve"><tspan x="43.5625" y="58.753685"><tspan font-family="'Times New Roman'">S</tspan></tspan></text><text transform="translate(-32.506 -30.333)" font-family="'Times New Roman'" font-size="4.2333px" style="line-height:1.25;shape-inside:url(#rect3252);white-space:pre" xml:space="preserve"><tspan x="43.5625" y="58.753685"><tspan style="shape-inside:url(#rect3252)">U</tspan><tspan font-size="2.1167px">1</tspan></tspan></text><text transform="translate(30.333 -30.049)" font-family="'Times New Roman'" font-size="4.2333px" style="line-height:1.25;shape-inside:url(#rect3261);white-space:pre" xml:space="preserve"><tspan x="43.5625" y="58.753685"><tspan style="shape-inside:url(#rect3261)">U</tspan><tspan font-size="2.1167px">2</tspan></tspan></text><text transform="translate(20.845 -52.366)" font-family="'Times New Roman'" font-size="4.2333px" style="line-height:1.25;shape-inside:url(#rect3269);white-space:pre" xml:space="preserve"><tspan x="43.5625" y="58.753685"><tspan font-size="4.2333px">I</tspan><tspan font-size="2.1167px">2</tspan></tspan></text><text transform="translate(-18.778 -52.366)" font-family="'Times New Roman'" font-size="4.2333px" style="line-height:1.25;shape-inside:url(#rect3289);white-space:pre" xml:space="preserve"><tspan x="43.5625" y="58.753685"><tspan font-size="4.2333px">I</tspan><tspan font-size="2.1167px">1</tspan></tspan></text><circle cx="129.65" cy="27.462" r="4.4768" fill="none" stroke="#000" stroke-linejoin="bevel" stroke-width=".265" style="paint-order:normal"/><circle cx="150.81" cy="27.462" r="4.4768" fill="none" stroke="#000" stroke-linejoin="bevel" stroke-width=".265" style="paint-order:normal"/><path d="m109.8 9.2604h19.844v13.725" fill="none" stroke="#000" stroke-width=".26458px"/><path d="m109.8 46.302h19.844v-14.363" fill="none" stroke="#000" stroke-width=".26458px"/><path d="m170.66 46.302h-19.844v-14.363" fill="none" stroke="#000" stroke-width=".26458px"/><path d="m170.66 9.2604h-19.844v13.725" fill="none" stroke="#000" stroke-width=".26458px"/><text transform="translate(116.93 -30.049)" font-family="'Times New Roman'" font-size="4.2333px" style="line-height:1.25;shape-inside:url(#rect3339);white-space:pre" xml:space="preserve"><tspan x="43.5625" y="58.753685"><tspan style="shape-inside:url(#rect3339)">U</tspan><tspan font-size="2.1167px">2</tspan></tspan></text><text transform="translate(70.927 -30.333)" font-family="'Times New Roman'" font-size="4.2333px" style="line-height:1.25;shape-inside:url(#rect3557);white-space:pre" xml:space="preserve"><tspan x="43.5625" y="58.753685"><tspan style="shape-inside:url(#rect3557)">U</tspan><tspan font-size="2.1167px">1</tspan></tspan></text><circle cx="45.545" cy="27.118" r="14.626" fill="#fff" fill-rule="evenodd"/><path d="m60.726 8.5302h22.617" fill="none" stroke="#000" stroke-width=".26458px"/><path d="m30.363 45.706h-17.701" fill="none" stroke="#000" stroke-width=".26458px"/><path d="m15.686 12.368v30.126" fill="none" marker-start="url(#l)" stroke="#be001e" stroke-width=".235"/><path d="m73.327 12.368v30.126" fill="none" marker-start="url(#k)" stroke="#be001e" stroke-width=".235"/><path d="m159.92 12.368v30.126" fill="none" marker-start="url(#e)" stroke="#be001e" stroke-width=".235"/><path d="m119.12 12.368v30.126" fill="none" marker-start="url(#d)" stroke="#be001e" stroke-width=".235"/><path d="m129.65 24.99v5.4374" fill="none" marker-end="url(#g)" stroke="#000" stroke-width=".265"/><path d="m150.81 30.181v-5.4374" fill="none" marker-end="url(#c)" stroke="#000" stroke-width=".265"/><path d="m113.86 9.2604h5.8671" fill="none" marker-end="url(#b)" stroke="#000" stroke-width=".26458px"/><path d="m156.35 9.2604 4.3817-2e-7" fill="none" marker-end="url(#a)" stroke="#000" stroke-width=".26458px"/></g></svg>
