<?xml version="1.0" encoding="UTF-8" standalone="no"?>
<!-- Created with Inkscape (http://www.inkscape.org/) -->
<svg xmlns:ns0="http://www.iki.fi/pav/software/textext/" xmlns:dc="http://purl.org/dc/elements/1.1/" xmlns:cc="http://creativecommons.org/ns#" xmlns:rdf="http://www.w3.org/1999/02/22-rdf-syntax-ns#" xmlns:svg="http://www.w3.org/2000/svg" xmlns="http://www.w3.org/2000/svg" xmlns:xlink="http://www.w3.org/1999/xlink" xmlns:sodipodi="http://sodipodi.sourceforge.net/DTD/sodipodi-0.dtd" xmlns:inkscape="http://www.inkscape.org/namespaces/inkscape" width="387.44214" height="342.37827" id="svg2797" sodipodi:version="0.32" inkscape:version="0.46" sodipodi:docname="Cauchy tetrahedron.svg" inkscape:output_extension="org.inkscape.output.svg.inkscape" version="1.0">
  <sodipodi:namedview id="base" pagecolor="#ffffff" bordercolor="#666666" borderopacity="1.0" gridtolerance="10000" guidetolerance="10" objecttolerance="10" inkscape:pageopacity="0.0" inkscape:pageshadow="2" inkscape:zoom="1.773168" inkscape:cx="195.59347" inkscape:cy="98.432497" inkscape:document-units="px" inkscape:current-layer="layer1" showgrid="false" inkscape:window-width="1680" inkscape:window-height="960" inkscape:window-x="-4" inkscape:window-y="-4"/>
  <defs id="defs2799">
    <linearGradient id="linearGradient3230">
      <stop style="stop-color:#7fddff;stop-opacity:0.44736841;" offset="0" id="stop3232"/>
      <stop style="stop-color:#17a1dc;stop-opacity:0.78039217;" offset="1" id="stop3234"/>
    </linearGradient>
    <marker inkscape:stockid="Arrow2Mend" orient="auto" refY="0" refX="0" id="Arrow2Mend" style="overflow:visible">
      <path id="path3621" style="font-size:12px;fill-rule:evenodd;stroke-width:0.625;stroke-linejoin:round" d="M 8.7185878,4.0337352 L -2.2072895,0.016013256 L 8.7185884,-4.0017078 C 6.97309,-1.6296469 6.9831476,1.6157441 8.7185878,4.0337352 z" transform="scale(-0.6,-0.6)"/>
    </marker>
    <marker inkscape:stockid="Arrow2Mstart" orient="auto" refY="0" refX="0" id="Arrow2Mstart" style="overflow:visible">
      <path id="path3618" style="font-size:12px;fill-rule:evenodd;stroke-width:0.625;stroke-linejoin:round" d="M 8.7185878,4.0337352 L -2.2072895,0.016013256 L 8.7185884,-4.0017078 C 6.97309,-1.6296469 6.9831476,1.6157441 8.7185878,4.0337352 z" transform="scale(0.6,0.6)"/>
    </marker>
    <inkscape:perspective sodipodi:type="inkscape:persp3d" inkscape:vp_x="0 : 526.18109 : 1" inkscape:vp_y="0 : 1000 : 0" inkscape:vp_z="744.09448 : 526.18109 : 1" inkscape:persp3d-origin="372.04724 : 350.78739 : 1" id="perspective2805"/>
    <marker inkscape:stockid="Arrow2Mendd" orient="auto" refY="0" refX="0" id="Arrow2Mendd" style="overflow:visible">
      <path id="path5415" style="font-size:12px;fill:#2374c1;fill-rule:evenodd;stroke:#2374c1;stroke-width:0.625;stroke-linejoin:round" d="M 8.7185878,4.0337352 L -2.2072895,0.016013256 L 8.7185884,-4.0017078 C 6.97309,-1.6296469 6.9831476,1.6157441 8.7185878,4.0337352 z" transform="scale(-0.6,-0.6)"/>
    </marker>
    <marker inkscape:stockid="Arrow2MendC" orient="auto" refY="0" refX="0" id="Arrow2MendC" style="overflow:visible">
      <path id="path9148" style="font-size:12px;fill:#f1172a;fill-rule:evenodd;stroke:#f1172a;stroke-width:0.625;stroke-linejoin:round" d="M 8.7185878,4.0337352 L -2.2072895,0.016013256 L 8.7185884,-4.0017078 C 6.97309,-1.6296469 6.9831476,1.6157441 8.7185878,4.0337352 z" transform="scale(-0.6,-0.6)"/>
    </marker>
    <linearGradient inkscape:collect="always" xlink:href="#linearGradient3230" id="linearGradient2709" gradientUnits="userSpaceOnUse" x1="75.306618" y1="999.04333" x2="240.93103" y2="836.4494"/>
  </defs>
  <metadata id="metadata2802">
    <rdf:RDF>
      <cc:Work rdf:about="">
        <dc:format>image/svg+xml</dc:format>
        <dc:type rdf:resource="http://purl.org/dc/dcmitype/StillImage"/>
      </cc:Work>
    </rdf:RDF>
  </metadata>
  <g inkscape:label="Layer 1" inkscape:groupmode="layer" id="layer1" transform="translate(-23.732832,-697.92263)">
    <path style="fill:none;fill-rule:evenodd;stroke:#000000;stroke-width:1px;stroke-linecap:butt;stroke-linejoin:miter;stroke-opacity:1" d="M 264.74412,885.73452 C 264.74412,885.73452 270.44894,868.74854 286.94022,875.08623 C 303.4315,881.42391 309.0056,859.41012 309.0056,859.41012" id="path3161" inkscape:transform-center-x="-22.876865" inkscape:transform-center-y="3.8414541e-05"/>
    <path style="fill:none;fill-rule:evenodd;stroke:#000000;stroke-width:1px;stroke-linecap:butt;stroke-linejoin:miter;stroke-opacity:1" d="M 86.826931,905.91413 C 86.826931,905.91413 98.425111,903.13056 100.74474,914.72874 C 103.06438,926.32692 117.44612,921.68765 117.44612,921.68765" id="path3163"/>
    <path style="fill:none;fill-rule:evenodd;stroke:#000000;stroke-width:0.99999994px;stroke-linecap:butt;stroke-linejoin:miter;stroke-opacity:1" d="M 120.29656,1008.1533 C 120.29656,1008.1533 123.29265,979.24285 143.80415,979.8521 C 156.74794,980.23657 158.55195,956.1992 158.55195,956.1992" id="path3157" sodipodi:nodetypes="csc"/>
    <g transform="matrix(2.7198481,0,0,-3.1806825,-927.89077,3009.8484)" xml:space="preserve" style="font-style:normal;font-variant:normal;font-weight:normal;font-stretch:normal;letter-spacing:normal;word-spacing:normal;text-anchor:start;fill:none;fill-opacity:1;fill-rule:evenodd;stroke:#000000;stroke-linecap:butt;stroke-linejoin:miter;stroke-miterlimit:10.43299961;stroke-dasharray:none;stroke-dashoffset:0;stroke-opacity:1" ns0:text="\\begin{displaymath}\nO\n\\end{displaymath}" ns0:preamble="" id="g2782">
<path d="M 398.72,661.58 L 398.72,661.72 L 398.71,661.87 L 398.69,662.01 L 398.67,662.15 L 398.65,662.29 L 398.61,662.42 L 398.58,662.55 L 398.53,662.67 L 398.49,662.79 L 398.43,662.91 L 398.37,663.02 L 398.31,663.13 L 398.24,663.23 L 398.17,663.33 L 398.09,663.43 L 398.01,663.52 L 397.92,663.6 L 397.83,663.68 L 397.74,663.76 L 397.64,663.83 L 397.54,663.9 L 397.43,663.96 L 397.32,664.01 L 397.2,664.06 L 397.09,664.11 L 396.97,664.15 L 396.84,664.18 L 396.72,664.21 L 396.59,664.23 L 396.46,664.24 L 396.32,664.25 L 396.18,664.26 L 396.12,664.01 C 396.94,664.01 397.84,663.45 397.84,661.97 C 397.84,661.25 397.57,659.69 396.58,658.47 C 396.1,657.86 395.29,657.27 394.45,657.27 L 394.45,657.27 C 393.46,657.27 392.77,658.08 392.77,659.39 C 392.77,659.83 392.9,661.29 393.67,662.45 C 394.36,663.49 395.33,664.01 396.12,664.01 L 396.18,664.26 C 394.03,664.26 391.84,661.99 391.84,659.67 C 391.84,658.02 392.95,657.01 394.39,657.01 C 396.5,657.01 398.72,659.2 398.72,661.58 z" style="fill:#000000;stroke-width:0" id="path2784"/>
</g>    <path id="path11318" d="M 160.87748,916.15445 L 405.87747,916.15445" style="fill:none;fill-rule:evenodd;stroke:#000000;stroke-width:4;stroke-linecap:butt;stroke-linejoin:miter;marker-end:url(#Arrow2Mend);stroke-miterlimit:4;stroke-dasharray:none;stroke-opacity:1"/>
    <rect style="opacity:1;fill:#ffffff;fill-opacity:1;fill-rule:nonzero;stroke:none;stroke-width:1.67299998;stroke-linecap:round;stroke-linejoin:round;marker:none;marker-start:none;marker-mid:none;marker-end:none;stroke-miterlimit:4;stroke-dasharray:6.69199991, 6.69199991;stroke-dashoffset:0;stroke-opacity:1;visibility:visible;display:inline;overflow:visible;enable-background:accumulate" id="rect7781" width="18.093161" height="22.036543" x="183.55574" y="909.00946"/>
    <path style="fill:#0169c9;fill-rule:evenodd;stroke:#2374c1;stroke-width:3;stroke-linecap:butt;stroke-linejoin:miter;marker-start:none;marker-end:url(#Arrow2Mendd);stroke-miterlimit:4;stroke-dasharray:none;stroke-opacity:1" d="M 216.40353,870.01882 L 323.73763,800.24632" id="path3589"/>
    <path style="fill:none;fill-rule:evenodd;stroke:#2374c1;stroke-width:3;stroke-linecap:butt;stroke-linejoin:miter;marker-end:url(#Arrow2Mendd);stroke-miterlimit:4;stroke-dasharray:none;stroke-opacity:1" d="M 182.52837,937.53102 L 215.31627,1017.0483" id="path3587"/>
    <path style="fill:#0169c9;fill-rule:evenodd;stroke:#2374c1;stroke-width:3;stroke-linecap:butt;stroke-linejoin:miter;marker-start:none;marker-end:url(#Arrow2Mendd);stroke-miterlimit:4;stroke-dasharray:none;stroke-opacity:1" d="M 133.18151,891.66893 L 56.676736,838.76844" id="path3585"/>
    <path id="path4431" d="M 186.6095,888.55413 L 200.8322,900.49103" style="fill:none;fill-rule:evenodd;stroke:#000000;stroke-width:1.06670237;stroke-linecap:butt;stroke-linejoin:miter;marker-end:none;stroke-miterlimit:4;stroke-dasharray:none;stroke-opacity:1"/>
    <path style="fill:none;fill-rule:evenodd;stroke:#000000;stroke-width:4;stroke-linecap:butt;stroke-linejoin:miter;marker-end:url(#Arrow2Mend);stroke-miterlimit:4;stroke-dasharray:none;stroke-opacity:1" d="M 162.12761,915.51485 L 27.642167,1036.7257" id="path2809"/>
    <g id="g5573" ns0:preamble="" ns0:text="\\begin{displaymath}\nh\n\\end{displaymath}" style="font-style:normal;font-variant:normal;font-weight:normal;font-stretch:normal;letter-spacing:normal;word-spacing:normal;text-anchor:start;fill:none;fill-opacity:1;fill-rule:evenodd;stroke:#000000;stroke-linecap:butt;stroke-linejoin:miter;stroke-miterlimit:10.43299961;stroke-dasharray:none;stroke-dashoffset:0;stroke-opacity:1" xml:space="preserve" transform="matrix(2.3949721,0,0,-2.8007615,-753.87239,2770.1677)">
<path id="path5575" style="fill:#000000;stroke-width:0" d="M 395.27,664.04 L 395.27,664.04 L 395.27,664.04 L 395.27,664.04 L 395.27,664.04 L 395.27,664.04 L 395.27,664.05 L 395.27,664.05 L 395.27,664.05 L 395.27,664.06 L 395.27,664.06 L 395.27,664.07 L 395.27,664.07 L 395.27,664.08 L 395.27,664.08 L 395.26,664.09 L 395.26,664.09 L 395.26,664.1 L 395.25,664.1 L 395.25,664.11 L 395.25,664.11 L 395.24,664.11 L 395.24,664.12 L 395.24,664.12 L 395.23,664.12 L 395.23,664.12 L 395.23,664.13 L 395.23,664.13 L 395.22,664.13 L 395.22,664.13 L 395.22,664.13 L 395.21,664.13 L 395.21,664.14 L 395.2,664.14 L 395.2,664.14 L 395.2,664.14 L 395.19,664.14 L 395.19,664.14 L 395.18,664.14 L 395.18,664.14 L 395.17,664.15 L 395.17,664.15 L 395.16,664.15 L 395.16,664.15 L 395.15,664.15 L 395.14,664.15 C 394.92,664.15 394.19,664.07 393.93,664.05 C 393.85,664.04 393.74,664.03 393.74,663.85 C 393.74,663.73 393.83,663.73 393.98,663.73 C 394.46,663.73 394.48,663.66 394.48,663.56 L 394.45,663.36 L 393,657.62 C 392.96,657.48 392.96,657.46 392.96,657.4 C 392.96,657.17 393.16,657.12 393.25,657.12 C 393.41,657.12 393.57,657.24 393.62,657.38 L 393.81,658.14 C 393.88,658.44 393.96,658.74 394.03,659.04 C 394.09,659.26 394.15,659.47 394.2,659.7 C 394.22,659.76 394.3,660.09 394.31,660.15 C 394.34,660.24 394.65,660.8 394.98,661.07 C 395.2,661.23 395.51,661.42 395.94,661.42 C 396.37,661.42 396.48,661.08 396.48,660.72 C 396.48,660.18 396.1,659.1 395.86,658.49 C 395.78,658.26 395.73,658.14 395.73,657.94 C 395.73,657.47 396.08,657.12 396.55,657.12 C 397.49,657.12 397.86,658.58 397.86,658.66 C 397.86,658.76 397.77,658.76 397.73,658.76 C 397.64,658.76 397.64,658.73 397.59,658.58 C 397.44,658.05 397.12,657.34 396.57,657.34 C 396.4,657.34 396.33,657.44 396.33,657.67 C 396.33,657.92 396.42,658.16 396.51,658.38 C 396.67,658.81 397.12,659.99 397.12,660.57 C 397.12,661.22 396.72,661.64 395.97,661.64 C 395.34,661.64 394.87,661.33 394.5,660.87 L 395.27,664.04 z"/>
</g>    <path style="fill:none;fill-rule:evenodd;stroke:#000000;stroke-width:4;stroke-linecap:butt;stroke-linejoin:miter;marker-end:url(#Arrow2Mend);stroke-miterlimit:4;stroke-dasharray:none;stroke-opacity:1" d="M 161.06736,916.14534 L 161.06736,705.72814" id="path10783"/>
    <path id="path6178" d="M 161.94589,918.20414 L 176.16859,930.14104" style="fill:none;fill-rule:evenodd;stroke:#000000;stroke-width:1.06670237;stroke-linecap:butt;stroke-linejoin:miter;marker-end:none;stroke-miterlimit:4;stroke-dasharray:none;stroke-opacity:1"/>
    <path id="path4433" d="M 161.09152,916.74151 L 186.35845,886.50584" style="fill:none;fill-rule:evenodd;stroke:#000000;stroke-width:3;stroke-linecap:butt;stroke-linejoin:miter;marker-end:none;stroke-miterlimit:4;stroke-dasharray:6,3;stroke-opacity:1;stroke-dashoffset:0"/>
    <path id="path6180" d="M 195.98779,898.20614 L 172.92822,925.5068" style="fill:none;fill-rule:evenodd;stroke:#000000;stroke-width:1.06670237;stroke-linecap:butt;stroke-linejoin:miter;marker-start:url(#Arrow2Mstart);marker-mid:none;marker-end:url(#Arrow2Mend);stroke-miterlimit:4;stroke-dasharray:none;stroke-opacity:1"/>
    <path style="opacity:1;fill:url(#linearGradient2709);fill-opacity:1;fill-rule:evenodd;stroke:#000000;stroke-width:4;stroke-linecap:butt;stroke-linejoin:miter;stroke-miterlimit:4;stroke-dasharray:none;stroke-opacity:1" d="M 71.245707,997.04336 L 329.84476,916.23116 L 162.15944,765.71843 L 71.245707,997.04336 z" id="path2811"/>
    <path id="path5444" d="M 185.91715,886.94767 L 217.96023,772.78331" style="fill:none;fill-rule:evenodd;stroke:#f1172a;stroke-width:4;stroke-linecap:butt;stroke-linejoin:miter;marker-start:none;marker-end:url(#Arrow2MendC);stroke-miterlimit:4;stroke-dasharray:none;stroke-opacity:1"/>
    <g transform="matrix(2.7198481,0,0,-3.1806825,-1037.7203,3098.1375)" xml:space="preserve" style="font-style:normal;font-variant:normal;font-weight:normal;font-stretch:normal;letter-spacing:normal;word-spacing:normal;text-anchor:start;fill:none;fill-opacity:1;fill-rule:evenodd;stroke:#000000;stroke-linecap:butt;stroke-linejoin:miter;stroke-miterlimit:10.43299961;stroke-dasharray:none;stroke-dashoffset:0;stroke-opacity:1" ns0:text="\\begin{displaymath}\nx_1\n\\end{displaymath}" ns0:preamble="" id="g3374">
<path d="M 393.53,660.24 L 393.54,660.27 L 393.54,660.3 L 393.55,660.33 L 393.56,660.37 L 393.57,660.4 L 393.58,660.45 L 393.6,660.49 L 393.61,660.53 L 393.63,660.58 L 393.64,660.63 L 393.66,660.68 L 393.68,660.73 L 393.71,660.78 L 393.73,660.83 L 393.76,660.88 L 393.78,660.93 L 393.81,660.97 L 393.84,661.02 L 393.88,661.07 L 393.91,661.11 L 393.95,661.16 L 393.99,661.2 L 394.03,661.23 L 394.08,661.27 L 394.12,661.3 L 394.17,661.33 L 394.2,661.34 L 394.22,661.36 L 394.25,661.37 L 394.28,661.38 L 394.3,661.39 L 394.33,661.39 L 394.36,661.4 L 394.39,661.41 L 394.42,661.41 L 394.45,661.41 L 394.48,661.42 L 394.52,661.42 C 394.57,661.42 394.8,661.42 395.01,661.29 C 394.74,661.24 394.54,660.99 394.54,660.75 C 394.54,660.59 394.65,660.4 394.92,660.4 C 395.13,660.4 395.45,660.58 395.45,660.98 C 395.45,661.5 394.86,661.64 394.53,661.64 C 393.95,661.64 393.6,661.11 393.48,660.88 C 393.23,661.54 392.69,661.64 392.4,661.64 C 391.37,661.64 390.8,660.35 390.8,660.1 C 390.8,660 390.9,660 390.92,660 C 391,660 391.03,660.02 391.05,660.11 C 391.39,661.17 392.05,661.42 392.38,661.42 C 392.57,661.42 392.92,661.33 392.92,660.75 C 392.92,660.44 392.75,659.77 392.38,658.38 C 392.23,657.76 391.88,657.34 391.44,657.34 C 391.38,657.34 391.15,657.34 390.94,657.47 C 391.19,657.52 391.41,657.73 391.41,658.01 C 391.41,658.28 391.19,658.36 391.04,658.36 C 390.74,658.36 390.49,658.1 390.49,657.78 C 390.49,657.32 390.99,657.12 391.43,657.12 C 392.08,657.12 392.44,657.82 392.47,657.88 C 392.59,657.51 392.95,657.12 393.55,657.12 C 394.58,657.12 395.14,658.41 395.14,658.66 C 395.14,658.76 395.05,658.76 395.02,658.76 C 394.93,658.76 394.92,658.72 394.89,658.65 C 394.57,657.58 393.89,657.34 393.57,657.34 C 393.18,657.34 393.02,657.66 393.02,658 C 393.02,658.22 393.08,658.44 393.19,658.88 L 393.53,660.24 z" style="fill:#000000;stroke-width:0" id="path3376"/>
<path d="M 398.24,660.17 L 398.24,660.18 L 398.24,660.19 L 398.24,660.2 L 398.24,660.21 L 398.24,660.22 L 398.24,660.22 L 398.24,660.23 L 398.24,660.24 L 398.24,660.24 L 398.24,660.25 L 398.24,660.26 L 398.24,660.26 L 398.24,660.27 L 398.24,660.27 L 398.23,660.28 L 398.23,660.29 L 398.23,660.29 L 398.23,660.3 L 398.23,660.3 L 398.23,660.31 L 398.22,660.32 L 398.22,660.33 L 398.22,660.33 L 398.21,660.34 L 398.21,660.34 L 398.2,660.35 L 398.2,660.35 L 398.19,660.36 L 398.18,660.36 L 398.17,660.36 L 398.16,660.36 L 398.16,660.37 L 398.15,660.37 L 398.14,660.37 L 398.14,660.37 L 398.13,660.37 L 398.13,660.37 L 398.12,660.37 L 398.12,660.37 L 398.11,660.37 L 398.1,660.37 L 398.09,660.37 L 398.09,660.37 L 398.08,660.37 L 398.07,660.37 L 398.06,660.37 L 398.06,660.37 L 398.05,660.37 L 398.04,660.37 L 398.03,660.37 C 397.58,659.93 396.95,659.92 396.66,659.92 L 396.66,659.67 C 396.83,659.67 397.29,659.67 397.67,659.87 L 397.67,656.31 C 397.67,656.08 397.67,655.99 396.98,655.99 L 396.71,655.99 L 396.71,655.74 C 396.84,655.75 397.7,655.77 397.95,655.77 C 398.17,655.77 399.05,655.75 399.2,655.74 L 399.2,655.99 L 398.94,655.99 C 398.24,655.99 398.24,656.08 398.24,656.31 L 398.24,660.17 z" style="fill:#000000;stroke-width:0" id="path3378"/>
</g>    <g transform="matrix(2.7198481,0,0,-3.1806825,-935.35721,2802.3894)" xml:space="preserve" style="font-style:normal;font-variant:normal;font-weight:normal;font-stretch:normal;letter-spacing:normal;word-spacing:normal;text-anchor:start;fill:none;fill-opacity:1;fill-rule:evenodd;stroke:#000000;stroke-linecap:butt;stroke-linejoin:miter;stroke-miterlimit:10.43299961;stroke-dasharray:none;stroke-dashoffset:0;stroke-opacity:1" ns0:text="\\begin{displaymath}\nx_3\n\\end{displaymath}" ns0:preamble="" id="g3611">
<path d="M 393.53,660.24 L 393.54,660.27 L 393.54,660.3 L 393.55,660.33 L 393.56,660.37 L 393.57,660.4 L 393.58,660.45 L 393.6,660.49 L 393.61,660.53 L 393.63,660.58 L 393.64,660.63 L 393.66,660.68 L 393.68,660.73 L 393.71,660.78 L 393.73,660.83 L 393.76,660.88 L 393.78,660.93 L 393.81,660.97 L 393.84,661.02 L 393.88,661.07 L 393.91,661.11 L 393.95,661.16 L 393.99,661.2 L 394.03,661.23 L 394.08,661.27 L 394.12,661.3 L 394.17,661.33 L 394.2,661.34 L 394.22,661.36 L 394.25,661.37 L 394.28,661.38 L 394.3,661.39 L 394.33,661.39 L 394.36,661.4 L 394.39,661.41 L 394.42,661.41 L 394.45,661.41 L 394.48,661.42 L 394.52,661.42 C 394.57,661.42 394.8,661.42 395.01,661.29 C 394.74,661.24 394.54,660.99 394.54,660.75 C 394.54,660.59 394.65,660.4 394.92,660.4 C 395.13,660.4 395.45,660.58 395.45,660.98 C 395.45,661.5 394.86,661.64 394.53,661.64 C 393.95,661.64 393.6,661.11 393.48,660.88 C 393.23,661.54 392.69,661.64 392.4,661.64 C 391.37,661.64 390.8,660.35 390.8,660.1 C 390.8,660 390.9,660 390.92,660 C 391,660 391.03,660.02 391.05,660.11 C 391.39,661.17 392.05,661.42 392.38,661.42 C 392.57,661.42 392.92,661.33 392.92,660.75 C 392.92,660.44 392.75,659.77 392.38,658.38 C 392.23,657.76 391.88,657.34 391.44,657.34 C 391.38,657.34 391.15,657.34 390.94,657.47 C 391.19,657.52 391.41,657.73 391.41,658.01 C 391.41,658.28 391.19,658.36 391.04,658.36 C 390.74,658.36 390.49,658.1 390.49,657.78 C 390.49,657.32 390.99,657.12 391.43,657.12 C 392.08,657.12 392.44,657.82 392.47,657.88 C 392.59,657.51 392.95,657.12 393.55,657.12 C 394.58,657.12 395.14,658.41 395.14,658.66 C 395.14,658.76 395.05,658.76 395.02,658.76 C 394.93,658.76 394.92,658.72 394.89,658.65 C 394.57,657.58 393.89,657.34 393.57,657.34 C 393.18,657.34 393.02,657.66 393.02,658 C 393.02,658.22 393.08,658.44 393.19,658.88 L 393.53,660.24 z" style="fill:#000000;stroke-width:0" id="path3613"/>
<path d="M 397.81,658.07 L 397.86,658.07 L 397.91,658.06 L 397.95,658.06 L 398,658.05 L 398.05,658.04 L 398.09,658.03 L 398.14,658.02 L 398.18,658 L 398.22,657.98 L 398.26,657.96 L 398.3,657.94 L 398.34,657.91 L 398.38,657.88 L 398.41,657.85 L 398.45,657.82 L 398.48,657.79 L 398.51,657.75 L 398.54,657.71 L 398.56,657.67 L 398.59,657.63 L 398.61,657.58 L 398.63,657.54 L 398.65,657.49 L 398.67,657.44 L 398.69,657.38 L 398.7,657.33 L 398.71,657.27 L 398.72,657.21 L 398.73,657.15 L 398.74,657.08 L 398.74,657.01 L 398.74,656.95 C 398.74,656.08 398.24,655.82 397.83,655.82 C 397.55,655.82 396.94,655.9 396.65,656.31 C 396.98,656.33 397.05,656.56 397.05,656.7 C 397.05,656.93 396.89,657.09 396.67,657.09 C 396.47,657.09 396.28,656.97 396.28,656.68 C 396.28,656.03 397,655.6 397.85,655.6 C 398.82,655.6 399.49,656.25 399.49,656.95 C 399.49,657.49 399.04,658.03 398.27,658.2 C 399.01,658.46 399.27,658.98 399.27,659.41 C 399.27,659.96 398.64,660.37 397.86,660.37 C 397.09,660.37 396.49,659.99 396.49,659.44 C 396.49,659.2 396.65,659.07 396.86,659.07 C 397.07,659.07 397.21,659.23 397.21,659.42 C 397.21,659.62 397.07,659.77 396.86,659.78 C 397.1,660.09 397.58,660.17 397.84,660.17 C 398.15,660.17 398.59,660.02 398.59,659.41 C 398.59,659.11 398.5,658.79 398.32,658.58 C 398.08,658.31 397.89,658.3 397.54,658.28 C 397.37,658.27 397.35,658.27 397.32,658.26 C 397.3,658.26 397.25,658.24 397.25,658.17 C 397.25,658.07 397.31,658.07 397.43,658.07 L 397.81,658.07 z" style="fill:#000000;stroke-width:0" id="path3615"/>
</g>    <g id="g3946" ns0:preamble="" ns0:text="\\begin{displaymath}\nx_2\n\\end{displaymath}" style="font-style:normal;font-variant:normal;font-weight:normal;font-stretch:normal;letter-spacing:normal;word-spacing:normal;text-anchor:start;fill:none;fill-opacity:1;fill-rule:evenodd;stroke:#000000;stroke-linecap:butt;stroke-linejoin:miter;stroke-miterlimit:10.43299961;stroke-dasharray:none;stroke-dashoffset:0;stroke-opacity:1" xml:space="preserve" transform="matrix(2.7198481,0,0,-3.1806825,-679.38352,2993.3511)">
<path id="path3948" style="fill:#000000;stroke-width:0" d="M 393.53,660.24 L 393.54,660.27 L 393.54,660.3 L 393.55,660.33 L 393.56,660.37 L 393.57,660.4 L 393.58,660.45 L 393.6,660.49 L 393.61,660.53 L 393.63,660.58 L 393.64,660.63 L 393.66,660.68 L 393.68,660.73 L 393.71,660.78 L 393.73,660.83 L 393.76,660.88 L 393.78,660.93 L 393.81,660.97 L 393.84,661.02 L 393.88,661.07 L 393.91,661.11 L 393.95,661.16 L 393.99,661.2 L 394.03,661.23 L 394.08,661.27 L 394.12,661.3 L 394.17,661.33 L 394.2,661.34 L 394.22,661.36 L 394.25,661.37 L 394.28,661.38 L 394.3,661.39 L 394.33,661.39 L 394.36,661.4 L 394.39,661.41 L 394.42,661.41 L 394.45,661.41 L 394.48,661.42 L 394.52,661.42 C 394.57,661.42 394.8,661.42 395.01,661.29 C 394.74,661.24 394.54,660.99 394.54,660.75 C 394.54,660.59 394.65,660.4 394.92,660.4 C 395.13,660.4 395.45,660.58 395.45,660.98 C 395.45,661.5 394.86,661.64 394.53,661.64 C 393.95,661.64 393.6,661.11 393.48,660.88 C 393.23,661.54 392.69,661.64 392.4,661.64 C 391.37,661.64 390.8,660.35 390.8,660.1 C 390.8,660 390.9,660 390.92,660 C 391,660 391.03,660.02 391.05,660.11 C 391.39,661.17 392.05,661.42 392.38,661.42 C 392.57,661.42 392.92,661.33 392.92,660.75 C 392.92,660.44 392.75,659.77 392.38,658.38 C 392.23,657.76 391.88,657.34 391.44,657.34 C 391.38,657.34 391.15,657.34 390.94,657.47 C 391.19,657.52 391.41,657.73 391.41,658.01 C 391.41,658.28 391.19,658.36 391.04,658.36 C 390.74,658.36 390.49,658.1 390.49,657.78 C 390.49,657.32 390.99,657.12 391.43,657.12 C 392.08,657.12 392.44,657.82 392.47,657.88 C 392.59,657.51 392.95,657.12 393.55,657.12 C 394.58,657.12 395.14,658.41 395.14,658.66 C 395.14,658.76 395.05,658.76 395.02,658.76 C 394.93,658.76 394.92,658.72 394.89,658.65 C 394.57,657.58 393.89,657.34 393.57,657.34 C 393.18,657.34 393.02,657.66 393.02,658 C 393.02,658.22 393.08,658.44 393.19,658.88 L 393.53,660.24 z"/>
<path id="path3950" style="fill:#000000;stroke-width:0" d="M 399.42,657.01 L 399.19,657.01 C 399.17,656.86 399.1,656.44 399.01,656.38 C 398.95,656.33 398.41,656.33 398.32,656.33 L 397.03,656.33 C 397.76,656.98 398.01,657.18 398.43,657.5 C 398.94,657.92 399.42,658.35 399.42,659.01 C 399.42,659.85 398.68,660.37 397.79,660.37 C 396.93,660.37 396.34,659.76 396.34,659.12 C 396.34,658.77 396.64,658.73 396.71,658.73 C 396.88,658.73 397.08,658.85 397.08,659.1 C 397.08,659.23 397.03,659.47 396.67,659.47 C 396.89,659.97 397.36,660.12 397.69,660.12 C 398.39,660.12 398.75,659.58 398.75,659.01 C 398.75,658.4 398.32,657.92 398.09,657.67 L 396.41,656.01 C 396.34,655.95 396.34,655.93 396.34,655.74 L 399.21,655.74 L 399.42,657.01 z"/>
</g>    <g id="g5453" ns0:preamble="" ns0:text="\\begin{displaymath}\n-\\mathbf{T}^{(\\mathbf{e}_1)}\n\\end{displaymath}" style="font-style:normal;font-variant:normal;font-weight:normal;font-stretch:normal;letter-spacing:normal;word-spacing:normal;text-anchor:start;fill:none;fill-opacity:1;fill-rule:evenodd;stroke:#000000;stroke-linecap:butt;stroke-linejoin:miter;stroke-miterlimit:10.43299961;stroke-dasharray:none;stroke-dashoffset:0;stroke-opacity:1" xml:space="preserve" transform="matrix(2.3949721,0,0,-2.8007615,-633.95146,2630.5676)">
<path id="path5455" style="fill:#000000;stroke-width:0" d="M 386.64,659.52 L 386.67,659.52 L 386.69,659.52 L 386.72,659.53 L 386.74,659.53 L 386.75,659.53 L 386.76,659.53 L 386.78,659.53 L 386.79,659.53 L 386.81,659.53 L 386.82,659.54 L 386.83,659.54 L 386.84,659.54 L 386.86,659.55 L 386.87,659.55 L 386.88,659.56 L 386.89,659.57 L 386.9,659.57 L 386.91,659.58 L 386.92,659.59 L 386.93,659.6 L 386.93,659.6 L 386.94,659.61 L 386.94,659.61 L 386.94,659.62 L 386.95,659.62 L 386.95,659.63 L 386.95,659.64 L 386.96,659.64 L 386.96,659.65 L 386.96,659.66 L 386.96,659.66 L 386.96,659.67 L 386.97,659.68 L 386.97,659.69 L 386.97,659.7 L 386.97,659.7 L 386.97,659.71 L 386.97,659.72 C 386.97,659.92 386.78,659.92 386.64,659.92 L 381.21,659.92 C 381.07,659.92 380.88,659.92 380.88,659.72 C 380.88,659.52 381.07,659.52 381.21,659.52 L 386.64,659.52 z"/>
<path id="path5457" style="fill:#000000;stroke-width:0" d="M 395.14,663.96 L 388.43,663.96 L 388.22,661.56 L 388.69,661.56 C 388.78,662.68 388.88,663.49 390.31,663.49 L 391.08,663.49 L 391.08,657.7 L 389.56,657.7 L 389.56,657.23 C 390.09,657.26 391.2,657.26 391.79,657.26 C 392.38,657.26 393.48,657.26 394.02,657.23 L 394.02,657.7 L 392.49,657.7 L 392.49,663.49 L 393.25,663.49 C 394.68,663.49 394.78,662.69 394.88,661.56 L 395.34,661.56 L 395.14,663.96 z"/>
<path id="path5459" style="fill:#000000;stroke-width:0" d="M 398.25,666.58 L 398.13,666.49 L 398.01,666.4 L 397.9,666.3 L 397.8,666.21 L 397.7,666.11 L 397.6,666 L 397.52,665.9 L 397.43,665.79 L 397.35,665.68 L 397.28,665.57 L 397.21,665.46 L 397.14,665.35 L 397.08,665.24 L 397.02,665.12 L 396.97,665.01 L 396.92,664.89 L 396.87,664.77 L 396.83,664.66 L 396.79,664.54 L 396.76,664.42 L 396.73,664.31 L 396.7,664.19 L 396.67,664.08 L 396.65,663.96 L 396.63,663.85 L 396.62,663.74 L 396.6,663.63 L 396.59,663.52 L 396.59,663.41 L 396.58,663.3 L 396.58,663.2 L 396.58,663.1 C 396.58,662.12 396.87,660.59 398.25,659.61 C 398.31,659.61 398.39,659.61 398.39,659.7 C 398.39,659.74 398.37,659.75 398.32,659.8 C 397.39,660.64 397.05,661.82 397.05,663.09 C 397.05,664.98 397.77,665.9 398.34,666.41 C 398.37,666.44 398.39,666.46 398.39,666.5 C 398.39,666.58 398.31,666.58 398.25,666.58 z"/>
<path id="path5461" style="fill:#000000;stroke-width:0" d="M 402.49,662.8 L 402.5,662.8 L 402.51,662.8 L 402.53,662.8 L 402.54,662.8 L 402.55,662.8 L 402.56,662.8 L 402.57,662.8 L 402.59,662.8 L 402.6,662.81 L 402.61,662.81 L 402.62,662.81 L 402.63,662.81 L 402.64,662.82 L 402.65,662.82 L 402.65,662.82 L 402.66,662.83 L 402.67,662.83 L 402.68,662.84 L 402.68,662.84 L 402.69,662.85 L 402.7,662.86 L 402.7,662.86 L 402.7,662.87 L 402.71,662.87 L 402.71,662.88 L 402.71,662.88 L 402.71,662.89 L 402.71,662.89 L 402.72,662.9 L 402.72,662.91 L 402.72,662.91 L 402.72,662.92 L 402.72,662.93 L 402.72,662.93 L 402.73,662.94 L 402.73,662.95 L 402.73,662.96 L 402.73,662.96 L 402.73,662.97 L 402.73,662.98 L 402.73,662.99 L 402.73,663 L 402.73,663.01 C 402.73,663.21 402.68,663.73 402.35,664.08 C 401.97,664.45 401.45,664.51 401.07,664.51 C 399.78,664.51 399.17,663.74 399.17,662.92 C 399.17,662.09 399.81,661.31 401.19,661.31 C 401.44,661.31 401.84,661.34 402.19,661.52 C 402.61,661.74 402.73,662.08 402.73,662.15 C 402.73,662.3 402.58,662.3 402.51,662.3 C 402.38,662.3 402.35,662.29 402.29,662.18 C 402.04,661.66 401.4,661.66 401.29,661.66 C 400.18,661.66 400.15,662.48 400.14,662.8 L 400.14,663.09 C 400.14,663.36 400.18,664.19 401.08,664.19 C 401.98,664.19 402.03,663.39 402.04,663.09 L 400.14,663.09 L 400.14,662.8 L 402.49,662.8 z"/>
<path id="path5463" style="fill:#000000;stroke-width:0" d="M 405,663.52 L 405,663.53 L 405,663.53 L 405,663.54 L 405,663.55 L 405,663.55 L 405,663.56 L 405,663.56 L 405,663.57 L 405,663.58 L 405,663.58 L 405,663.59 L 405,663.59 L 405,663.59 L 405,663.6 L 405,663.6 L 405,663.61 L 405,663.61 L 405,663.61 L 404.99,663.62 L 404.99,663.63 L 404.99,663.63 L 404.99,663.64 L 404.98,663.64 L 404.98,663.65 L 404.97,663.65 L 404.97,663.65 L 404.96,663.66 L 404.96,663.66 L 404.95,663.66 L 404.95,663.66 L 404.94,663.67 L 404.93,663.67 L 404.93,663.67 L 404.92,663.67 L 404.92,663.67 L 404.91,663.67 L 404.91,663.67 L 404.9,663.67 L 404.9,663.67 L 404.89,663.67 L 404.88,663.67 L 404.88,663.67 L 404.87,663.67 L 404.87,663.67 L 404.86,663.67 L 404.85,663.67 L 404.85,663.67 L 404.84,663.67 L 404.83,663.67 L 404.82,663.67 C 404.47,663.35 403.92,663.35 403.82,663.35 L 403.73,663.35 L 403.73,663.13 L 403.82,663.13 C 403.93,663.13 404.26,663.15 404.54,663.27 L 404.54,660.78 C 404.54,660.63 404.54,660.57 404.02,660.57 L 403.77,660.57 L 403.77,660.35 C 404.04,660.37 404.48,660.37 404.77,660.37 C 405.06,660.37 405.51,660.37 405.78,660.35 L 405.78,660.57 L 405.53,660.57 C 405,660.57 405,660.63 405,660.78 L 405,663.52 z"/>
<path id="path5465" style="fill:#000000;stroke-width:0" d="M 407.53,666.58 L 407.53,666.58 L 407.52,666.58 L 407.52,666.58 L 407.51,666.58 L 407.51,666.58 L 407.5,666.58 L 407.5,666.58 L 407.49,666.58 L 407.49,666.58 L 407.48,666.58 L 407.47,666.58 L 407.47,666.58 L 407.46,666.57 L 407.46,666.57 L 407.45,666.57 L 407.45,666.57 L 407.44,666.57 L 407.44,666.57 L 407.43,666.56 L 407.43,666.56 L 407.42,666.56 L 407.42,666.55 L 407.42,666.55 L 407.42,666.55 L 407.41,666.54 L 407.41,666.54 L 407.41,666.54 L 407.41,666.54 L 407.41,666.54 L 407.41,666.53 L 407.41,666.53 L 407.4,666.53 L 407.4,666.52 L 407.4,666.52 L 407.4,666.52 L 407.4,666.51 L 407.4,666.51 L 407.4,666.51 L 407.4,666.5 L 407.4,666.5 L 407.4,666.5 C 407.4,666.46 407.42,666.44 407.46,666.39 C 408.06,665.84 408.73,664.9 408.73,663.1 C 408.73,661.64 408.28,660.54 407.53,659.86 C 407.41,659.74 407.4,659.73 407.4,659.7 C 407.4,659.66 407.42,659.61 407.49,659.61 C 407.57,659.61 408.24,660.07 408.7,660.95 C 409,661.52 409.21,662.28 409.21,663.09 C 409.21,664.08 408.91,665.6 407.53,666.58 z"/>
</g>    <g transform="matrix(2.3949721,0,0,-2.8007615,-687.79345,2865.8285)" xml:space="preserve" style="font-style:normal;font-variant:normal;font-weight:normal;font-stretch:normal;letter-spacing:normal;word-spacing:normal;text-anchor:start;fill:none;fill-opacity:1;fill-rule:evenodd;stroke:#000000;stroke-linecap:butt;stroke-linejoin:miter;stroke-miterlimit:10.43299961;stroke-dasharray:none;stroke-dashoffset:0;stroke-opacity:1" ns0:text="\\begin{displaymath}\n-\\mathbf{T}^{(\\mathbf{e}_3)}\n\\end{displaymath}" ns0:preamble="" id="g5767">
<path d="M 386.64,659.52 L 386.67,659.52 L 386.69,659.52 L 386.72,659.53 L 386.74,659.53 L 386.75,659.53 L 386.76,659.53 L 386.78,659.53 L 386.79,659.53 L 386.81,659.53 L 386.82,659.54 L 386.83,659.54 L 386.84,659.54 L 386.86,659.55 L 386.87,659.55 L 386.88,659.56 L 386.89,659.57 L 386.9,659.57 L 386.91,659.58 L 386.92,659.59 L 386.93,659.6 L 386.93,659.6 L 386.94,659.61 L 386.94,659.61 L 386.94,659.62 L 386.95,659.62 L 386.95,659.63 L 386.95,659.64 L 386.96,659.64 L 386.96,659.65 L 386.96,659.66 L 386.96,659.66 L 386.96,659.67 L 386.97,659.68 L 386.97,659.69 L 386.97,659.7 L 386.97,659.7 L 386.97,659.71 L 386.97,659.72 C 386.97,659.92 386.78,659.92 386.64,659.92 L 381.21,659.92 C 381.07,659.92 380.88,659.92 380.88,659.72 C 380.88,659.52 381.07,659.52 381.21,659.52 L 386.64,659.52 z" style="fill:#000000;stroke-width:0" id="path5769"/>
<path d="M 395.14,663.96 L 388.43,663.96 L 388.22,661.56 L 388.69,661.56 C 388.78,662.68 388.88,663.49 390.31,663.49 L 391.08,663.49 L 391.08,657.7 L 389.56,657.7 L 389.56,657.23 C 390.09,657.26 391.2,657.26 391.79,657.26 C 392.38,657.26 393.48,657.26 394.02,657.23 L 394.02,657.7 L 392.49,657.7 L 392.49,663.49 L 393.25,663.49 C 394.68,663.49 394.78,662.69 394.88,661.56 L 395.34,661.56 L 395.14,663.96 z" style="fill:#000000;stroke-width:0" id="path5771"/>
<path d="M 398.25,666.58 L 398.13,666.49 L 398.01,666.4 L 397.9,666.3 L 397.8,666.21 L 397.7,666.11 L 397.6,666 L 397.52,665.9 L 397.43,665.79 L 397.35,665.68 L 397.28,665.57 L 397.21,665.46 L 397.14,665.35 L 397.08,665.24 L 397.02,665.12 L 396.97,665.01 L 396.92,664.89 L 396.87,664.77 L 396.83,664.66 L 396.79,664.54 L 396.76,664.42 L 396.73,664.31 L 396.7,664.19 L 396.67,664.08 L 396.65,663.96 L 396.63,663.85 L 396.62,663.74 L 396.6,663.63 L 396.59,663.52 L 396.59,663.41 L 396.58,663.3 L 396.58,663.2 L 396.58,663.1 C 396.58,662.12 396.87,660.59 398.25,659.61 C 398.31,659.61 398.39,659.61 398.39,659.7 C 398.39,659.74 398.37,659.75 398.32,659.8 C 397.39,660.64 397.05,661.82 397.05,663.09 C 397.05,664.98 397.77,665.9 398.34,666.41 C 398.37,666.44 398.39,666.46 398.39,666.5 C 398.39,666.58 398.31,666.58 398.25,666.58 z" style="fill:#000000;stroke-width:0" id="path5773"/>
<path d="M 402.49,662.8 L 402.5,662.8 L 402.51,662.8 L 402.53,662.8 L 402.54,662.8 L 402.55,662.8 L 402.56,662.8 L 402.57,662.8 L 402.59,662.8 L 402.6,662.81 L 402.61,662.81 L 402.62,662.81 L 402.63,662.81 L 402.64,662.82 L 402.65,662.82 L 402.65,662.82 L 402.66,662.83 L 402.67,662.83 L 402.68,662.84 L 402.68,662.84 L 402.69,662.85 L 402.7,662.86 L 402.7,662.86 L 402.7,662.87 L 402.71,662.87 L 402.71,662.88 L 402.71,662.88 L 402.71,662.89 L 402.71,662.89 L 402.72,662.9 L 402.72,662.91 L 402.72,662.91 L 402.72,662.92 L 402.72,662.93 L 402.72,662.93 L 402.73,662.94 L 402.73,662.95 L 402.73,662.96 L 402.73,662.96 L 402.73,662.97 L 402.73,662.98 L 402.73,662.99 L 402.73,663 L 402.73,663.01 C 402.73,663.21 402.68,663.73 402.35,664.08 C 401.97,664.45 401.45,664.51 401.07,664.51 C 399.78,664.51 399.17,663.74 399.17,662.92 C 399.17,662.09 399.81,661.31 401.19,661.31 C 401.44,661.31 401.84,661.34 402.19,661.52 C 402.61,661.74 402.73,662.08 402.73,662.15 C 402.73,662.3 402.58,662.3 402.51,662.3 C 402.38,662.3 402.35,662.29 402.29,662.18 C 402.04,661.66 401.4,661.66 401.29,661.66 C 400.18,661.66 400.15,662.48 400.14,662.8 L 400.14,663.09 C 400.14,663.36 400.18,664.19 401.08,664.19 C 401.98,664.19 402.03,663.39 402.04,663.09 L 400.14,663.09 L 400.14,662.8 L 402.49,662.8 z" style="fill:#000000;stroke-width:0" id="path5775"/>
<path d="M 404.66,662 L 404.71,662 L 404.75,662 L 404.79,661.99 L 404.83,661.99 L 404.87,661.98 L 404.9,661.97 L 404.94,661.96 L 404.98,661.95 L 405.01,661.94 L 405.04,661.92 L 405.08,661.9 L 405.11,661.89 L 405.14,661.87 L 405.16,661.84 L 405.19,661.82 L 405.22,661.8 L 405.24,661.77 L 405.26,661.74 L 405.29,661.72 L 405.31,661.69 L 405.32,661.66 L 405.34,661.62 L 405.36,661.59 L 405.37,661.55 L 405.38,661.52 L 405.39,661.48 L 405.4,661.44 L 405.41,661.4 L 405.42,661.36 L 405.42,661.31 L 405.43,661.27 L 405.43,661.22 C 405.43,660.72 405.11,660.45 404.67,660.45 C 404.61,660.45 404.02,660.45 403.77,660.71 C 403.97,660.74 404.03,660.89 404.03,661.01 C 404.03,661.19 403.89,661.31 403.73,661.31 C 403.57,661.31 403.42,661.21 403.42,661 C 403.42,660.48 404.01,660.24 404.68,660.24 C 405.5,660.24 406.01,660.74 406.01,661.22 C 406.01,661.63 405.64,661.98 405.08,662.11 C 405.67,662.3 405.83,662.68 405.83,662.96 C 405.83,663.37 405.33,663.67 404.7,663.67 C 404.09,663.67 403.59,663.41 403.59,662.96 C 403.59,662.73 403.78,662.67 403.88,662.67 C 404.02,662.67 404.16,662.77 404.16,662.95 C 404.16,663.07 404.1,663.21 403.92,663.24 C 404.14,663.47 404.58,663.48 404.68,663.48 C 405.05,663.48 405.31,663.3 405.31,662.96 C 405.31,662.67 405.12,662.22 404.59,662.19 C 404.45,662.18 404.43,662.18 404.3,662.17 C 404.25,662.17 404.2,662.16 404.2,662.09 C 404.2,662 404.24,662 404.33,662 L 404.66,662 z" style="fill:#000000;stroke-width:0" id="path5777"/>
<path d="M 407.53,666.58 L 407.53,666.58 L 407.52,666.58 L 407.52,666.58 L 407.51,666.58 L 407.51,666.58 L 407.5,666.58 L 407.5,666.58 L 407.49,666.58 L 407.49,666.58 L 407.48,666.58 L 407.47,666.58 L 407.47,666.58 L 407.46,666.57 L 407.46,666.57 L 407.45,666.57 L 407.45,666.57 L 407.44,666.57 L 407.44,666.57 L 407.43,666.56 L 407.43,666.56 L 407.42,666.56 L 407.42,666.55 L 407.42,666.55 L 407.42,666.55 L 407.41,666.54 L 407.41,666.54 L 407.41,666.54 L 407.41,666.54 L 407.41,666.54 L 407.41,666.53 L 407.41,666.53 L 407.4,666.53 L 407.4,666.52 L 407.4,666.52 L 407.4,666.52 L 407.4,666.51 L 407.4,666.51 L 407.4,666.51 L 407.4,666.5 L 407.4,666.5 L 407.4,666.5 C 407.4,666.46 407.42,666.44 407.46,666.39 C 408.06,665.84 408.73,664.9 408.73,663.1 C 408.73,661.64 408.28,660.54 407.53,659.86 C 407.41,659.74 407.4,659.73 407.4,659.7 C 407.4,659.66 407.42,659.61 407.49,659.61 C 407.57,659.61 408.24,660.07 408.7,660.95 C 409,661.52 409.21,662.28 409.21,663.09 C 409.21,664.08 408.91,665.6 407.53,666.58 z" style="fill:#000000;stroke-width:0" id="path5779"/>
</g>    <g id="g6095" ns0:preamble="" ns0:text="\\begin{displaymath}\n-\\mathbf{T}^{(\\mathbf{e}_2)}\n\\end{displaymath}" style="font-style:normal;font-variant:normal;font-weight:normal;font-stretch:normal;letter-spacing:normal;word-spacing:normal;text-anchor:start;fill:none;fill-opacity:1;fill-rule:evenodd;stroke:#000000;stroke-linecap:butt;stroke-linejoin:miter;stroke-miterlimit:10.43299961;stroke-dasharray:none;stroke-dashoffset:0;stroke-opacity:1" xml:space="preserve" transform="matrix(2.3949721,0,0,-2.8007615,-879.96375,2671.9448)">
<path id="path6097" style="fill:#000000;stroke-width:0" d="M 386.64,659.52 L 386.67,659.52 L 386.69,659.52 L 386.72,659.53 L 386.74,659.53 L 386.75,659.53 L 386.76,659.53 L 386.78,659.53 L 386.79,659.53 L 386.81,659.53 L 386.82,659.54 L 386.83,659.54 L 386.84,659.54 L 386.86,659.55 L 386.87,659.55 L 386.88,659.56 L 386.89,659.57 L 386.9,659.57 L 386.91,659.58 L 386.92,659.59 L 386.93,659.6 L 386.93,659.6 L 386.94,659.61 L 386.94,659.61 L 386.94,659.62 L 386.95,659.62 L 386.95,659.63 L 386.95,659.64 L 386.96,659.64 L 386.96,659.65 L 386.96,659.66 L 386.96,659.66 L 386.96,659.67 L 386.97,659.68 L 386.97,659.69 L 386.97,659.7 L 386.97,659.7 L 386.97,659.71 L 386.97,659.72 C 386.97,659.92 386.78,659.92 386.64,659.92 L 381.21,659.92 C 381.07,659.92 380.88,659.92 380.88,659.72 C 380.88,659.52 381.07,659.52 381.21,659.52 L 386.64,659.52 z"/>
<path id="path6099" style="fill:#000000;stroke-width:0" d="M 395.14,663.96 L 388.43,663.96 L 388.22,661.56 L 388.69,661.56 C 388.78,662.68 388.88,663.49 390.31,663.49 L 391.08,663.49 L 391.08,657.7 L 389.56,657.7 L 389.56,657.23 C 390.09,657.26 391.2,657.26 391.79,657.26 C 392.38,657.26 393.48,657.26 394.02,657.23 L 394.02,657.7 L 392.49,657.7 L 392.49,663.49 L 393.25,663.49 C 394.68,663.49 394.78,662.69 394.88,661.56 L 395.34,661.56 L 395.14,663.96 z"/>
<path id="path6101" style="fill:#000000;stroke-width:0" d="M 398.25,666.58 L 398.13,666.49 L 398.01,666.4 L 397.9,666.3 L 397.8,666.21 L 397.7,666.11 L 397.6,666 L 397.52,665.9 L 397.43,665.79 L 397.35,665.68 L 397.28,665.57 L 397.21,665.46 L 397.14,665.35 L 397.08,665.24 L 397.02,665.12 L 396.97,665.01 L 396.92,664.89 L 396.87,664.77 L 396.83,664.66 L 396.79,664.54 L 396.76,664.42 L 396.73,664.31 L 396.7,664.19 L 396.67,664.08 L 396.65,663.96 L 396.63,663.85 L 396.62,663.74 L 396.6,663.63 L 396.59,663.52 L 396.59,663.41 L 396.58,663.3 L 396.58,663.2 L 396.58,663.1 C 396.58,662.12 396.87,660.59 398.25,659.61 C 398.31,659.61 398.39,659.61 398.39,659.7 C 398.39,659.74 398.37,659.75 398.32,659.8 C 397.39,660.64 397.05,661.82 397.05,663.09 C 397.05,664.98 397.77,665.9 398.34,666.41 C 398.37,666.44 398.39,666.46 398.39,666.5 C 398.39,666.58 398.31,666.58 398.25,666.58 z"/>
<path id="path6103" style="fill:#000000;stroke-width:0" d="M 402.49,662.8 L 402.5,662.8 L 402.51,662.8 L 402.53,662.8 L 402.54,662.8 L 402.55,662.8 L 402.56,662.8 L 402.57,662.8 L 402.59,662.8 L 402.6,662.81 L 402.61,662.81 L 402.62,662.81 L 402.63,662.81 L 402.64,662.82 L 402.65,662.82 L 402.65,662.82 L 402.66,662.83 L 402.67,662.83 L 402.68,662.84 L 402.68,662.84 L 402.69,662.85 L 402.7,662.86 L 402.7,662.86 L 402.7,662.87 L 402.71,662.87 L 402.71,662.88 L 402.71,662.88 L 402.71,662.89 L 402.71,662.89 L 402.72,662.9 L 402.72,662.91 L 402.72,662.91 L 402.72,662.92 L 402.72,662.93 L 402.72,662.93 L 402.73,662.94 L 402.73,662.95 L 402.73,662.96 L 402.73,662.96 L 402.73,662.97 L 402.73,662.98 L 402.73,662.99 L 402.73,663 L 402.73,663.01 C 402.73,663.21 402.68,663.73 402.35,664.08 C 401.97,664.45 401.45,664.51 401.07,664.51 C 399.78,664.51 399.17,663.74 399.17,662.92 C 399.17,662.09 399.81,661.31 401.19,661.31 C 401.44,661.31 401.84,661.34 402.19,661.52 C 402.61,661.74 402.73,662.08 402.73,662.15 C 402.73,662.3 402.58,662.3 402.51,662.3 C 402.38,662.3 402.35,662.29 402.29,662.18 C 402.04,661.66 401.4,661.66 401.29,661.66 C 400.18,661.66 400.15,662.48 400.14,662.8 L 400.14,663.09 C 400.14,663.36 400.18,664.19 401.08,664.19 C 401.98,664.19 402.03,663.39 402.04,663.09 L 400.14,663.09 L 400.14,662.8 L 402.49,662.8 z"/>
<path id="path6105" style="fill:#000000;stroke-width:0" d="M 405.95,661.31 L 405.74,661.31 C 405.73,661.22 405.68,660.91 405.6,660.86 C 405.56,660.83 405.14,660.83 405.07,660.83 L 404.09,660.83 C 404.42,661.08 404.79,661.35 405.09,661.55 C 405.54,661.86 405.95,662.15 405.95,662.68 C 405.95,663.32 405.35,663.67 404.64,663.67 C 403.97,663.67 403.47,663.28 403.47,662.79 C 403.47,662.53 403.69,662.49 403.76,662.49 C 403.9,662.49 404.06,662.58 404.06,662.78 C 404.06,662.96 403.93,663.06 403.77,663.08 C 403.91,663.3 404.2,663.45 404.53,663.45 C 405.02,663.45 405.42,663.16 405.42,662.67 C 405.42,662.26 405.13,661.94 404.75,661.61 L 403.53,660.58 C 403.48,660.54 403.48,660.54 403.47,660.5 L 403.47,660.35 L 405.79,660.35 L 405.95,661.31 z"/>
<path id="path6107" style="fill:#000000;stroke-width:0" d="M 407.53,666.58 L 407.53,666.58 L 407.52,666.58 L 407.52,666.58 L 407.51,666.58 L 407.51,666.58 L 407.5,666.58 L 407.5,666.58 L 407.49,666.58 L 407.49,666.58 L 407.48,666.58 L 407.47,666.58 L 407.47,666.58 L 407.46,666.57 L 407.46,666.57 L 407.45,666.57 L 407.45,666.57 L 407.44,666.57 L 407.44,666.57 L 407.43,666.56 L 407.43,666.56 L 407.42,666.56 L 407.42,666.55 L 407.42,666.55 L 407.42,666.55 L 407.41,666.54 L 407.41,666.54 L 407.41,666.54 L 407.41,666.54 L 407.41,666.54 L 407.41,666.53 L 407.41,666.53 L 407.4,666.53 L 407.4,666.52 L 407.4,666.52 L 407.4,666.52 L 407.4,666.51 L 407.4,666.51 L 407.4,666.51 L 407.4,666.5 L 407.4,666.5 L 407.4,666.5 C 407.4,666.46 407.42,666.44 407.46,666.39 C 408.06,665.84 408.73,664.9 408.73,663.1 C 408.73,661.64 408.28,660.54 407.53,659.86 C 407.41,659.74 407.4,659.73 407.4,659.7 C 407.4,659.66 407.42,659.61 407.49,659.61 C 407.57,659.61 408.24,660.07 408.7,660.95 C 409,661.52 409.21,662.28 409.21,663.09 C 409.21,664.08 408.91,665.6 407.53,666.58 z"/>
</g>    <g transform="matrix(2.3949721,0,0,-2.8007615,-717.72391,2600.2097)" xml:space="preserve" style="font-style:normal;font-variant:normal;font-weight:normal;font-stretch:normal;letter-spacing:normal;word-spacing:normal;text-anchor:start;fill:none;fill-opacity:1;fill-rule:evenodd;stroke:#000000;stroke-linecap:butt;stroke-linejoin:miter;stroke-miterlimit:10.43299961;stroke-dasharray:none;stroke-dashoffset:0;stroke-opacity:1" ns0:text="\\begin{displaymath}\n\\mathbf{T}^{(\\mathbf n)}\n\\end{displaymath}" ns0:preamble="" id="g2501">
<path d="M 392.77,663.96 L 386.06,663.96 L 385.85,661.56 L 386.32,661.56 C 386.41,662.68 386.51,663.49 387.94,663.49 L 388.71,663.49 L 388.71,657.7 L 387.19,657.7 L 387.19,657.23 C 387.72,657.26 388.83,657.26 389.42,657.26 C 390.01,657.26 391.11,657.26 391.65,657.23 L 391.65,657.7 L 390.13,657.7 L 390.13,663.49 L 390.88,663.49 C 392.31,663.49 392.41,662.69 392.51,661.56 L 392.97,661.56 L 392.77,663.96 z" style="fill:#000000;stroke-width:0" id="path2503"/>
<path d="M 395.88,666.58 L 395.76,666.49 L 395.64,666.4 L 395.53,666.3 L 395.43,666.21 L 395.33,666.11 L 395.23,666 L 395.15,665.9 L 395.06,665.79 L 394.98,665.68 L 394.91,665.57 L 394.84,665.46 L 394.77,665.35 L 394.71,665.24 L 394.65,665.12 L 394.6,665.01 L 394.55,664.89 L 394.5,664.77 L 394.46,664.66 L 394.42,664.54 L 394.39,664.42 L 394.36,664.31 L 394.33,664.19 L 394.3,664.08 L 394.28,663.96 L 394.26,663.85 L 394.25,663.74 L 394.23,663.63 L 394.22,663.52 L 394.22,663.41 L 394.21,663.3 L 394.21,663.2 L 394.21,663.1 C 394.21,662.12 394.5,660.59 395.88,659.61 C 395.94,659.61 396.02,659.61 396.02,659.7 C 396.02,659.74 396,659.75 395.95,659.8 C 395.02,660.64 394.68,661.82 394.68,663.09 C 394.68,664.98 395.4,665.9 395.97,666.41 C 396,666.44 396.02,666.46 396.02,666.5 C 396.02,666.58 395.94,666.58 395.88,666.58 z" style="fill:#000000;stroke-width:0" id="path2505"/>
<path d="M 400.79,663.45 L 400.78,663.49 L 400.78,663.53 L 400.78,663.57 L 400.78,663.6 L 400.78,663.64 L 400.77,663.67 L 400.76,663.74 L 400.75,663.8 L 400.73,663.86 L 400.71,663.92 L 400.69,663.97 L 400.66,664.02 L 400.64,664.07 L 400.61,664.11 L 400.58,664.15 L 400.54,664.19 L 400.51,664.23 L 400.47,664.26 L 400.43,664.29 L 400.39,664.32 L 400.34,664.34 L 400.3,664.37 L 400.25,664.39 L 400.2,664.4 L 400.15,664.42 L 400.1,664.43 L 400.05,664.45 L 400,664.46 L 399.94,664.47 L 399.89,664.47 L 399.83,664.48 L 399.77,664.48 L 399.71,664.49 L 399.65,664.49 L 399.59,664.49 C 398.75,664.49 398.36,663.99 398.23,663.76 L 398.23,664.49 L 396.96,664.43 L 396.96,664.04 C 397.38,664.04 397.43,664.04 397.43,663.77 L 397.43,661.74 L 396.96,661.74 L 396.96,661.35 C 396.97,661.35 397.54,661.38 397.87,661.38 C 398.21,661.38 398.78,661.35 398.78,661.35 L 398.78,661.74 L 398.32,661.74 L 398.32,663.09 C 398.32,663.9 399.04,664.17 399.46,664.17 C 399.77,664.17 399.9,664.01 399.9,663.51 L 399.9,661.74 L 399.43,661.74 L 399.43,661.35 C 399.44,661.35 400,661.38 400.34,661.38 C 400.68,661.38 401.25,661.35 401.25,661.35 L 401.25,661.74 L 400.79,661.74 L 400.79,663.45 z" style="fill:#000000;stroke-width:0" id="path2507"/>
<path d="M 402.15,666.58 L 402.15,666.58 L 402.15,666.58 L 402.14,666.58 L 402.14,666.58 L 402.13,666.58 L 402.12,666.58 L 402.12,666.58 L 402.11,666.58 L 402.11,666.58 L 402.1,666.58 L 402.1,666.58 L 402.09,666.58 L 402.09,666.57 L 402.08,666.57 L 402.08,666.57 L 402.07,666.57 L 402.07,666.57 L 402.06,666.57 L 402.06,666.56 L 402.05,666.56 L 402.05,666.56 L 402.04,666.55 L 402.04,666.55 L 402.04,666.55 L 402.04,666.54 L 402.04,666.54 L 402.03,666.54 L 402.03,666.54 L 402.03,666.54 L 402.03,666.53 L 402.03,666.53 L 402.03,666.53 L 402.03,666.52 L 402.03,666.52 L 402.03,666.52 L 402.02,666.51 L 402.02,666.51 L 402.02,666.51 L 402.02,666.5 L 402.02,666.5 L 402.02,666.5 C 402.02,666.46 402.04,666.44 402.08,666.39 C 402.68,665.84 403.36,664.9 403.36,663.1 C 403.36,661.64 402.9,660.54 402.15,659.86 C 402.03,659.74 402.02,659.73 402.02,659.7 C 402.02,659.66 402.04,659.61 402.11,659.61 C 402.2,659.61 402.86,660.07 403.32,660.95 C 403.63,661.52 403.83,662.28 403.83,663.09 C 403.83,664.08 403.54,665.6 402.15,666.58 z" style="fill:#000000;stroke-width:0" id="path2509"/>
</g>    <g transform="matrix(2.3949721,0,0,-2.8007615,-713.89667,2741.8128)" xml:space="preserve" style="font-style:normal;font-variant:normal;font-weight:normal;font-stretch:normal;letter-spacing:normal;word-spacing:normal;text-anchor:start;fill:none;fill-opacity:1;fill-rule:evenodd;stroke:#000000;stroke-linecap:butt;stroke-linejoin:miter;stroke-miterlimit:10.43299961;stroke-dasharray:none;stroke-dashoffset:0;stroke-opacity:1" ns0:text="\\begin{displaymath}\ndA\n\\end{displaymath}" ns0:preamble="" id="g2529">
<path d="M 394.1,664.04 L 394.1,664.04 L 394.1,664.04 L 394.1,664.04 L 394.1,664.04 L 394.1,664.04 L 394.1,664.05 L 394.1,664.05 L 394.1,664.05 L 394.1,664.06 L 394.1,664.06 L 394.09,664.07 L 394.09,664.07 L 394.09,664.08 L 394.09,664.08 L 394.09,664.09 L 394.08,664.09 L 394.08,664.1 L 394.08,664.1 L 394.08,664.11 L 394.07,664.11 L 394.07,664.11 L 394.06,664.12 L 394.06,664.12 L 394.06,664.12 L 394.06,664.12 L 394.05,664.13 L 394.05,664.13 L 394.05,664.13 L 394.04,664.13 L 394.04,664.13 L 394.04,664.13 L 394.03,664.14 L 394.03,664.14 L 394.02,664.14 L 394.02,664.14 L 394.02,664.14 L 394.01,664.14 L 394.01,664.14 L 394,664.14 L 394,664.15 L 393.99,664.15 L 393.99,664.15 L 393.98,664.15 L 393.97,664.15 L 393.97,664.15 C 393.82,664.15 392.87,664.06 392.7,664.04 C 392.62,664.03 392.56,663.98 392.56,663.85 C 392.56,663.73 392.65,663.73 392.8,663.73 C 393.28,663.73 393.3,663.66 393.3,663.56 L 393.27,663.36 L 392.67,661 C 392.49,661.37 392.2,661.64 391.76,661.64 L 391.77,661.42 C 392.42,661.42 392.55,660.6 392.55,660.54 C 392.55,660.48 392.53,660.42 392.52,660.37 L 392.03,658.42 C 391.98,658.24 391.98,658.22 391.83,658.05 C 391.39,657.5 390.98,657.34 390.7,657.34 C 390.2,657.34 390.06,657.89 390.06,658.28 C 390.06,658.78 390.38,660 390.61,660.46 C 390.92,661.05 391.37,661.42 391.77,661.42 L 391.76,661.64 C 390.59,661.64 389.36,660.17 389.36,658.72 C 389.36,657.78 389.9,657.12 390.68,657.12 C 390.88,657.12 391.38,657.16 391.98,657.87 C 392.06,657.45 392.4,657.12 392.88,657.12 C 393.23,657.12 393.46,657.35 393.62,657.67 C 393.79,658.03 393.92,658.64 393.92,658.66 C 393.92,658.76 393.83,658.76 393.8,658.76 C 393.7,658.76 393.69,658.72 393.66,658.58 C 393.49,657.93 393.31,657.34 392.9,657.34 C 392.63,657.34 392.6,657.6 392.6,657.8 C 392.6,658.04 392.62,658.11 392.66,658.28 L 394.1,664.04 z" style="fill:#000000;stroke-width:0" id="path2531"/>
<path d="M 395.93,658.38 L 395.89,658.32 L 395.86,658.26 L 395.82,658.2 L 395.78,658.15 L 395.74,658.1 L 395.71,658.06 L 395.67,658.01 L 395.63,657.97 L 395.6,657.93 L 395.56,657.89 L 395.52,657.86 L 395.48,657.83 L 395.45,657.8 L 395.41,657.77 L 395.37,657.74 L 395.33,657.72 L 395.3,657.7 L 395.26,657.68 L 395.22,657.66 L 395.18,657.64 L 395.14,657.63 L 395.1,657.61 L 395.06,657.6 L 395.03,657.59 L 394.99,657.58 L 394.95,657.57 L 394.91,657.56 L 394.87,657.56 L 394.79,657.55 L 394.7,657.54 C 394.59,657.53 394.5,657.53 394.5,657.34 C 394.5,657.28 394.55,657.23 394.63,657.23 C 394.89,657.23 395.2,657.26 395.48,657.26 C 395.81,657.26 396.16,657.23 396.48,657.23 C 396.54,657.23 396.67,657.23 396.67,657.42 C 396.67,657.53 396.58,657.54 396.51,657.54 C 396.28,657.56 396.04,657.64 396.04,657.89 C 396.04,658.01 396.1,658.12 396.18,658.26 C 396.25,658.38 396.26,658.38 396.94,659.53 L 399.44,659.53 L 399.41,659.84 L 397.13,659.84 L 399.09,663.13 L 399.41,659.84 L 399.44,659.53 C 399.46,659.33 399.6,657.97 399.6,657.87 C 399.6,657.57 399.08,657.54 398.88,657.54 C 398.74,657.54 398.64,657.54 398.64,657.34 C 398.64,657.23 398.76,657.23 398.78,657.23 C 399.19,657.23 399.62,657.26 400.02,657.26 C 400.27,657.26 400.9,657.23 401.15,657.23 C 401.21,657.23 401.33,657.23 401.33,657.43 C 401.33,657.54 401.23,657.54 401.1,657.54 C 400.48,657.54 400.48,657.61 400.45,657.9 L 399.85,664.13 C 399.83,664.33 399.83,664.37 399.66,664.37 C 399.5,664.37 399.46,664.3 399.4,664.2 L 395.93,658.38 z" style="fill:#000000;stroke-width:0" id="path2533"/>
</g>    <g id="g2709" ns0:preamble="" ns0:text="\\begin{displaymath}\ndA_1\n\\end{displaymath}" style="font-style:normal;font-variant:normal;font-weight:normal;font-stretch:normal;letter-spacing:normal;word-spacing:normal;text-anchor:start;fill:none;fill-opacity:1;fill-rule:evenodd;stroke:#000000;stroke-linecap:butt;stroke-linejoin:miter;stroke-miterlimit:10.43299961;stroke-dasharray:none;stroke-dashoffset:0;stroke-opacity:1" xml:space="preserve" transform="matrix(2.3949721,0,0,-2.8007615,-627.57943,2696.244)">
<path id="path2711" style="fill:#000000;stroke-width:0" d="M 391.86,664.04 L 391.86,664.04 L 391.86,664.04 L 391.86,664.04 L 391.86,664.04 L 391.86,664.04 L 391.86,664.05 L 391.86,664.05 L 391.86,664.05 L 391.86,664.06 L 391.86,664.06 L 391.86,664.07 L 391.86,664.07 L 391.86,664.08 L 391.85,664.08 L 391.85,664.09 L 391.85,664.09 L 391.85,664.1 L 391.84,664.1 L 391.84,664.11 L 391.84,664.11 L 391.83,664.11 L 391.83,664.12 L 391.83,664.12 L 391.82,664.12 L 391.82,664.12 L 391.82,664.13 L 391.82,664.13 L 391.81,664.13 L 391.81,664.13 L 391.81,664.13 L 391.8,664.13 L 391.8,664.14 L 391.79,664.14 L 391.79,664.14 L 391.79,664.14 L 391.78,664.14 L 391.78,664.14 L 391.77,664.14 L 391.77,664.14 L 391.76,664.15 L 391.76,664.15 L 391.75,664.15 L 391.75,664.15 L 391.74,664.15 L 391.73,664.15 C 391.58,664.15 390.64,664.06 390.47,664.04 C 390.39,664.03 390.33,663.98 390.33,663.85 C 390.33,663.73 390.42,663.73 390.57,663.73 C 391.05,663.73 391.07,663.66 391.07,663.56 L 391.04,663.36 L 390.44,661 C 390.26,661.37 389.97,661.64 389.52,661.64 L 389.53,661.42 C 390.18,661.42 390.32,660.6 390.32,660.54 C 390.32,660.48 390.3,660.42 390.29,660.37 L 389.79,658.42 C 389.74,658.24 389.74,658.22 389.59,658.05 C 389.15,657.5 388.74,657.34 388.47,657.34 C 387.97,657.34 387.83,657.89 387.83,658.28 C 387.83,658.78 388.15,660 388.38,660.46 C 388.68,661.05 389.13,661.42 389.53,661.42 L 389.52,661.64 C 388.36,661.64 387.12,660.17 387.12,658.72 C 387.12,657.78 387.67,657.12 388.45,657.12 C 388.64,657.12 389.14,657.16 389.74,657.87 C 389.82,657.45 390.17,657.12 390.65,657.12 C 391,657.12 391.23,657.35 391.39,657.67 C 391.55,658.03 391.68,658.64 391.68,658.66 C 391.68,658.76 391.59,658.76 391.56,658.76 C 391.46,658.76 391.45,658.72 391.42,658.58 C 391.26,657.93 391.08,657.34 390.67,657.34 C 390.4,657.34 390.37,657.6 390.37,657.8 C 390.37,658.04 390.39,658.11 390.43,658.28 L 391.86,664.04 z"/>
<path id="path2713" style="fill:#000000;stroke-width:0" d="M 393.7,658.38 L 393.66,658.32 L 393.62,658.26 L 393.58,658.2 L 393.55,658.15 L 393.51,658.1 L 393.47,658.06 L 393.44,658.01 L 393.4,657.97 L 393.36,657.93 L 393.32,657.89 L 393.29,657.86 L 393.25,657.83 L 393.21,657.8 L 393.17,657.77 L 393.14,657.74 L 393.1,657.72 L 393.06,657.7 L 393.02,657.68 L 392.98,657.66 L 392.95,657.64 L 392.91,657.63 L 392.87,657.61 L 392.83,657.6 L 392.79,657.59 L 392.75,657.58 L 392.71,657.57 L 392.67,657.56 L 392.63,657.56 L 392.55,657.55 L 392.47,657.54 C 392.35,657.53 392.26,657.53 392.26,657.34 C 392.26,657.28 392.31,657.23 392.39,657.23 C 392.66,657.23 392.97,657.26 393.25,657.26 C 393.58,657.26 393.92,657.23 394.24,657.23 C 394.3,657.23 394.43,657.23 394.43,657.42 C 394.43,657.53 394.34,657.54 394.27,657.54 C 394.04,657.56 393.8,657.64 393.8,657.89 C 393.8,658.01 393.86,658.12 393.95,658.26 C 394.02,658.38 394.02,658.38 394.7,659.53 L 397.2,659.53 L 397.17,659.84 L 394.89,659.84 L 396.85,663.13 L 397.17,659.84 L 397.2,659.53 C 397.22,659.33 397.36,657.97 397.36,657.87 C 397.36,657.57 396.84,657.54 396.64,657.54 C 396.51,657.54 396.41,657.54 396.41,657.34 C 396.41,657.23 396.52,657.23 396.55,657.23 C 396.95,657.23 397.38,657.26 397.79,657.26 C 398.04,657.26 398.67,657.23 398.92,657.23 C 398.98,657.23 399.1,657.23 399.1,657.43 C 399.1,657.54 399,657.54 398.87,657.54 C 398.25,657.54 398.25,657.61 398.22,657.9 L 397.61,664.13 C 397.59,664.33 397.59,664.37 397.42,664.37 C 397.26,664.37 397.22,664.3 397.16,664.2 L 393.7,658.38 z"/>
<path id="path2715" style="fill:#000000;stroke-width:0" d="M 401.72,660.17 L 401.72,660.18 L 401.72,660.19 L 401.72,660.2 L 401.72,660.21 L 401.72,660.22 L 401.72,660.22 L 401.72,660.23 L 401.72,660.24 L 401.72,660.24 L 401.72,660.25 L 401.72,660.26 L 401.72,660.26 L 401.72,660.27 L 401.72,660.27 L 401.71,660.28 L 401.71,660.29 L 401.71,660.29 L 401.71,660.3 L 401.71,660.3 L 401.71,660.31 L 401.7,660.32 L 401.7,660.33 L 401.7,660.33 L 401.69,660.34 L 401.69,660.34 L 401.68,660.35 L 401.68,660.35 L 401.67,660.36 L 401.66,660.36 L 401.65,660.36 L 401.64,660.36 L 401.64,660.37 L 401.63,660.37 L 401.62,660.37 L 401.62,660.37 L 401.61,660.37 L 401.61,660.37 L 401.6,660.37 L 401.6,660.37 L 401.59,660.37 L 401.58,660.37 L 401.57,660.37 L 401.57,660.37 L 401.56,660.37 L 401.55,660.37 L 401.54,660.37 L 401.54,660.37 L 401.53,660.37 L 401.52,660.37 L 401.51,660.37 C 401.06,659.93 400.43,659.92 400.14,659.92 L 400.14,659.67 C 400.31,659.67 400.77,659.67 401.15,659.87 L 401.15,656.31 C 401.15,656.08 401.15,655.99 400.46,655.99 L 400.19,655.99 L 400.19,655.74 C 400.32,655.75 401.17,655.77 401.43,655.77 C 401.65,655.77 402.53,655.75 402.68,655.74 L 402.68,655.99 L 402.42,655.99 C 401.72,655.99 401.72,656.08 401.72,656.31 L 401.72,660.17 z"/>
</g>    <g transform="matrix(2.3949721,0,0,-2.8007615,-881.02524,2751.7633)" xml:space="preserve" style="font-style:normal;font-variant:normal;font-weight:normal;font-stretch:normal;letter-spacing:normal;word-spacing:normal;text-anchor:start;fill:none;fill-opacity:1;fill-rule:evenodd;stroke:#000000;stroke-linecap:butt;stroke-linejoin:miter;stroke-miterlimit:10.43299961;stroke-dasharray:none;stroke-dashoffset:0;stroke-opacity:1" ns0:text="\\begin{displaymath}\ndA_2\n\\end{displaymath}" ns0:preamble="" id="g2884">
<path d="M 391.86,664.04 L 391.86,664.04 L 391.86,664.04 L 391.86,664.04 L 391.86,664.04 L 391.86,664.04 L 391.86,664.05 L 391.86,664.05 L 391.86,664.05 L 391.86,664.06 L 391.86,664.06 L 391.86,664.07 L 391.86,664.07 L 391.86,664.08 L 391.85,664.08 L 391.85,664.09 L 391.85,664.09 L 391.85,664.1 L 391.84,664.1 L 391.84,664.11 L 391.84,664.11 L 391.83,664.11 L 391.83,664.12 L 391.83,664.12 L 391.82,664.12 L 391.82,664.12 L 391.82,664.13 L 391.82,664.13 L 391.81,664.13 L 391.81,664.13 L 391.81,664.13 L 391.8,664.13 L 391.8,664.14 L 391.79,664.14 L 391.79,664.14 L 391.79,664.14 L 391.78,664.14 L 391.78,664.14 L 391.77,664.14 L 391.77,664.14 L 391.76,664.15 L 391.76,664.15 L 391.75,664.15 L 391.75,664.15 L 391.74,664.15 L 391.73,664.15 C 391.58,664.15 390.64,664.06 390.47,664.04 C 390.39,664.03 390.33,663.98 390.33,663.85 C 390.33,663.73 390.42,663.73 390.57,663.73 C 391.05,663.73 391.07,663.66 391.07,663.56 L 391.04,663.36 L 390.44,661 C 390.26,661.37 389.97,661.64 389.52,661.64 L 389.53,661.42 C 390.18,661.42 390.32,660.6 390.32,660.54 C 390.32,660.48 390.3,660.42 390.29,660.37 L 389.79,658.42 C 389.74,658.24 389.74,658.22 389.59,658.05 C 389.15,657.5 388.74,657.34 388.47,657.34 C 387.97,657.34 387.83,657.89 387.83,658.28 C 387.83,658.78 388.15,660 388.38,660.46 C 388.68,661.05 389.13,661.42 389.53,661.42 L 389.52,661.64 C 388.36,661.64 387.12,660.17 387.12,658.72 C 387.12,657.78 387.67,657.12 388.45,657.12 C 388.64,657.12 389.14,657.16 389.74,657.87 C 389.82,657.45 390.17,657.12 390.65,657.12 C 391,657.12 391.23,657.35 391.39,657.67 C 391.55,658.03 391.68,658.64 391.68,658.66 C 391.68,658.76 391.59,658.76 391.56,658.76 C 391.46,658.76 391.45,658.72 391.42,658.58 C 391.26,657.93 391.08,657.34 390.67,657.34 C 390.4,657.34 390.37,657.6 390.37,657.8 C 390.37,658.04 390.39,658.11 390.43,658.28 L 391.86,664.04 z" style="fill:#000000;stroke-width:0" id="path2886"/>
<path d="M 393.7,658.38 L 393.66,658.32 L 393.62,658.26 L 393.58,658.2 L 393.55,658.15 L 393.51,658.1 L 393.47,658.06 L 393.44,658.01 L 393.4,657.97 L 393.36,657.93 L 393.32,657.89 L 393.29,657.86 L 393.25,657.83 L 393.21,657.8 L 393.17,657.77 L 393.14,657.74 L 393.1,657.72 L 393.06,657.7 L 393.02,657.68 L 392.98,657.66 L 392.95,657.64 L 392.91,657.63 L 392.87,657.61 L 392.83,657.6 L 392.79,657.59 L 392.75,657.58 L 392.71,657.57 L 392.67,657.56 L 392.63,657.56 L 392.55,657.55 L 392.47,657.54 C 392.35,657.53 392.26,657.53 392.26,657.34 C 392.26,657.28 392.31,657.23 392.39,657.23 C 392.66,657.23 392.97,657.26 393.25,657.26 C 393.58,657.26 393.92,657.23 394.24,657.23 C 394.3,657.23 394.43,657.23 394.43,657.42 C 394.43,657.53 394.34,657.54 394.27,657.54 C 394.04,657.56 393.8,657.64 393.8,657.89 C 393.8,658.01 393.86,658.12 393.95,658.26 C 394.02,658.38 394.02,658.38 394.7,659.53 L 397.2,659.53 L 397.17,659.84 L 394.89,659.84 L 396.85,663.13 L 397.17,659.84 L 397.2,659.53 C 397.22,659.33 397.36,657.97 397.36,657.87 C 397.36,657.57 396.84,657.54 396.64,657.54 C 396.51,657.54 396.41,657.54 396.41,657.34 C 396.41,657.23 396.52,657.23 396.55,657.23 C 396.95,657.23 397.38,657.26 397.79,657.26 C 398.04,657.26 398.67,657.23 398.92,657.23 C 398.98,657.23 399.1,657.23 399.1,657.43 C 399.1,657.54 399,657.54 398.87,657.54 C 398.25,657.54 398.25,657.61 398.22,657.9 L 397.61,664.13 C 397.59,664.33 397.59,664.37 397.42,664.37 C 397.26,664.37 397.22,664.3 397.16,664.2 L 393.7,658.38 z" style="fill:#000000;stroke-width:0" id="path2888"/>
<path d="M 402.9,657.01 L 402.67,657.01 C 402.65,656.86 402.58,656.44 402.49,656.38 C 402.43,656.33 401.89,656.33 401.8,656.33 L 400.51,656.33 C 401.24,656.98 401.49,657.18 401.91,657.5 C 402.42,657.92 402.9,658.35 402.9,659.01 C 402.9,659.85 402.17,660.37 401.27,660.37 C 400.41,660.37 399.82,659.76 399.82,659.12 C 399.82,658.77 400.12,658.73 400.19,658.73 C 400.36,658.73 400.56,658.85 400.56,659.1 C 400.56,659.23 400.51,659.47 400.15,659.47 C 400.37,659.97 400.84,660.12 401.17,660.12 C 401.86,660.12 402.23,659.58 402.23,659.01 C 402.23,658.4 401.8,657.92 401.57,657.67 L 399.89,656.01 C 399.82,655.95 399.82,655.93 399.82,655.74 L 402.7,655.74 L 402.9,657.01 z" style="fill:#000000;stroke-width:0" id="path2890"/>
</g>    <g id="g3061" ns0:preamble="" ns0:text="\\begin{displaymath}\ndA_3\n\\end{displaymath}" style="font-style:normal;font-variant:normal;font-weight:normal;font-stretch:normal;letter-spacing:normal;word-spacing:normal;text-anchor:start;fill:none;fill-opacity:1;fill-rule:evenodd;stroke:#000000;stroke-linecap:butt;stroke-linejoin:miter;stroke-miterlimit:10.43299961;stroke-dasharray:none;stroke-dashoffset:0;stroke-opacity:1" xml:space="preserve" transform="matrix(2.3949721,0,0,-2.8007615,-821.0843,2868.9813)">
<path id="path3063" style="fill:#000000;stroke-width:0" d="M 391.86,664.04 L 391.86,664.04 L 391.86,664.04 L 391.86,664.04 L 391.86,664.04 L 391.86,664.04 L 391.86,664.05 L 391.86,664.05 L 391.86,664.05 L 391.86,664.06 L 391.86,664.06 L 391.86,664.07 L 391.86,664.07 L 391.86,664.08 L 391.85,664.08 L 391.85,664.09 L 391.85,664.09 L 391.85,664.1 L 391.84,664.1 L 391.84,664.11 L 391.84,664.11 L 391.83,664.11 L 391.83,664.12 L 391.83,664.12 L 391.82,664.12 L 391.82,664.12 L 391.82,664.13 L 391.82,664.13 L 391.81,664.13 L 391.81,664.13 L 391.81,664.13 L 391.8,664.13 L 391.8,664.14 L 391.79,664.14 L 391.79,664.14 L 391.79,664.14 L 391.78,664.14 L 391.78,664.14 L 391.77,664.14 L 391.77,664.14 L 391.76,664.15 L 391.76,664.15 L 391.75,664.15 L 391.75,664.15 L 391.74,664.15 L 391.73,664.15 C 391.58,664.15 390.64,664.06 390.47,664.04 C 390.39,664.03 390.33,663.98 390.33,663.85 C 390.33,663.73 390.42,663.73 390.57,663.73 C 391.05,663.73 391.07,663.66 391.07,663.56 L 391.04,663.36 L 390.44,661 C 390.26,661.37 389.97,661.64 389.52,661.64 L 389.53,661.42 C 390.18,661.42 390.32,660.6 390.32,660.54 C 390.32,660.48 390.3,660.42 390.29,660.37 L 389.79,658.42 C 389.74,658.24 389.74,658.22 389.59,658.05 C 389.15,657.5 388.74,657.34 388.47,657.34 C 387.97,657.34 387.83,657.89 387.83,658.28 C 387.83,658.78 388.15,660 388.38,660.46 C 388.68,661.05 389.13,661.42 389.53,661.42 L 389.52,661.64 C 388.36,661.64 387.12,660.17 387.12,658.72 C 387.12,657.78 387.67,657.12 388.45,657.12 C 388.64,657.12 389.14,657.16 389.74,657.87 C 389.82,657.45 390.17,657.12 390.65,657.12 C 391,657.12 391.23,657.35 391.39,657.67 C 391.55,658.03 391.68,658.64 391.68,658.66 C 391.68,658.76 391.59,658.76 391.56,658.76 C 391.46,658.76 391.45,658.72 391.42,658.58 C 391.26,657.93 391.08,657.34 390.67,657.34 C 390.4,657.34 390.37,657.6 390.37,657.8 C 390.37,658.04 390.39,658.11 390.43,658.28 L 391.86,664.04 z"/>
<path id="path3065" style="fill:#000000;stroke-width:0" d="M 393.7,658.38 L 393.66,658.32 L 393.62,658.26 L 393.58,658.2 L 393.55,658.15 L 393.51,658.1 L 393.47,658.06 L 393.44,658.01 L 393.4,657.97 L 393.36,657.93 L 393.32,657.89 L 393.29,657.86 L 393.25,657.83 L 393.21,657.8 L 393.17,657.77 L 393.14,657.74 L 393.1,657.72 L 393.06,657.7 L 393.02,657.68 L 392.98,657.66 L 392.95,657.64 L 392.91,657.63 L 392.87,657.61 L 392.83,657.6 L 392.79,657.59 L 392.75,657.58 L 392.71,657.57 L 392.67,657.56 L 392.63,657.56 L 392.55,657.55 L 392.47,657.54 C 392.35,657.53 392.26,657.53 392.26,657.34 C 392.26,657.28 392.31,657.23 392.39,657.23 C 392.66,657.23 392.97,657.26 393.25,657.26 C 393.58,657.26 393.92,657.23 394.24,657.23 C 394.3,657.23 394.43,657.23 394.43,657.42 C 394.43,657.53 394.34,657.54 394.27,657.54 C 394.04,657.56 393.8,657.64 393.8,657.89 C 393.8,658.01 393.86,658.12 393.95,658.26 C 394.02,658.38 394.02,658.38 394.7,659.53 L 397.2,659.53 L 397.17,659.84 L 394.89,659.84 L 396.85,663.13 L 397.17,659.84 L 397.2,659.53 C 397.22,659.33 397.36,657.97 397.36,657.87 C 397.36,657.57 396.84,657.54 396.64,657.54 C 396.51,657.54 396.41,657.54 396.41,657.34 C 396.41,657.23 396.52,657.23 396.55,657.23 C 396.95,657.23 397.38,657.26 397.79,657.26 C 398.04,657.26 398.67,657.23 398.92,657.23 C 398.98,657.23 399.1,657.23 399.1,657.43 C 399.1,657.54 399,657.54 398.87,657.54 C 398.25,657.54 398.25,657.61 398.22,657.9 L 397.61,664.13 C 397.59,664.33 397.59,664.37 397.42,664.37 C 397.26,664.37 397.22,664.3 397.16,664.2 L 393.7,658.38 z"/>
<path id="path3067" style="fill:#000000;stroke-width:0" d="M 401.29,658.07 L 401.34,658.07 L 401.39,658.06 L 401.43,658.06 L 401.48,658.05 L 401.53,658.04 L 401.57,658.03 L 401.62,658.02 L 401.66,658 L 401.7,657.98 L 401.74,657.96 L 401.78,657.94 L 401.82,657.91 L 401.86,657.88 L 401.89,657.85 L 401.93,657.82 L 401.96,657.79 L 401.99,657.75 L 402.02,657.71 L 402.04,657.67 L 402.07,657.63 L 402.09,657.58 L 402.11,657.54 L 402.13,657.49 L 402.15,657.44 L 402.17,657.38 L 402.18,657.33 L 402.19,657.27 L 402.2,657.21 L 402.21,657.15 L 402.22,657.08 L 402.22,657.01 L 402.22,656.95 C 402.22,656.08 401.72,655.82 401.31,655.82 C 401.04,655.82 400.42,655.9 400.13,656.31 C 400.46,656.33 400.53,656.56 400.53,656.7 C 400.53,656.93 400.37,657.09 400.15,657.09 C 399.95,657.09 399.76,656.97 399.76,656.68 C 399.76,656.03 400.48,655.6 401.33,655.6 C 402.3,655.6 402.97,656.25 402.97,656.95 C 402.97,657.49 402.52,658.03 401.75,658.2 C 402.49,658.46 402.75,658.98 402.75,659.41 C 402.75,659.96 402.12,660.37 401.34,660.37 C 400.57,660.37 399.98,659.99 399.98,659.44 C 399.98,659.2 400.13,659.07 400.34,659.07 C 400.55,659.07 400.69,659.23 400.69,659.42 C 400.69,659.62 400.55,659.77 400.34,659.78 C 400.58,660.09 401.06,660.17 401.32,660.17 C 401.64,660.17 402.07,660.02 402.07,659.41 C 402.07,659.11 401.98,658.79 401.8,658.58 C 401.57,658.31 401.37,658.3 401.02,658.28 C 400.85,658.27 400.83,658.27 400.8,658.26 C 400.78,658.26 400.73,658.24 400.73,658.17 C 400.73,658.07 400.79,658.07 400.91,658.07 L 401.29,658.07 z"/>
</g>    <path id="path5446" d="M 185.72485,887.19817 L 219.29627,847.19817" style="fill:none;fill-rule:evenodd;stroke:#000000;stroke-width:3;stroke-linecap:butt;stroke-linejoin:miter;marker-end:url(#Arrow2Mend);stroke-miterlimit:4;stroke-dasharray:none;stroke-opacity:1"/>
    <g id="g2643" ns0:preamble="" ns0:text="\\begin{displaymath}\n\\mathbf n\n\\end{displaymath}" style="font-style:normal;font-variant:normal;font-weight:normal;font-stretch:normal;letter-spacing:normal;word-spacing:normal;text-anchor:start;fill:none;fill-opacity:1;fill-rule:evenodd;stroke:#000000;stroke-linecap:butt;stroke-linejoin:miter;stroke-miterlimit:10.43299961;stroke-dasharray:none;stroke-dashoffset:0;stroke-opacity:1" xml:space="preserve" transform="matrix(2.3949721,0,0,-2.8007615,-725.10606,2683.5334)">
<path id="path2645" style="fill:#000000;stroke-width:0" d="M 392.56,657.7 L 392.56,657.23 C 392.83,657.24 393.43,657.26 393.81,657.26 C 394.2,657.26 394.79,657.24 395.07,657.23 L 395.07,657.7 L 394.38,657.7 L 394.38,659.78 C 394.38,660.87 395.24,661.36 395.86,661.36 C 396.2,661.36 396.41,661.15 396.41,660.39 L 396.41,657.7 L 395.72,657.7 L 395.72,657.23 C 396,657.24 396.6,657.26 396.98,657.26 C 397.37,657.26 397.96,657.24 398.23,657.23 L 398.23,657.7 L 397.55,657.7 L 397.55,660.28 C 397.55,661.33 397.01,661.72 396.01,661.72 C 395.06,661.72 394.53,661.15 394.27,660.64 L 394.27,661.72 L 392.56,661.64 L 392.56,661.17 C 393.17,661.17 393.24,661.17 393.24,660.78 L 393.24,657.7 L 392.56,657.7 z"/>
</g>    <g id="g2576" ns0:preamble="" ns0:text="\\begin{displaymath}\ndm=\\rho dV\n\\end{displaymath}" style="font-style:normal;font-variant:normal;font-weight:normal;font-stretch:normal;letter-spacing:normal;word-spacing:normal;text-anchor:start;fill:#000000;fill-opacity:1;fill-rule:evenodd;stroke:none;stroke-width:1.00002646;stroke-linecap:butt;stroke-linejoin:miter;stroke-miterlimit:10.43299961;stroke-dasharray:none;stroke-dashoffset:0;stroke-opacity:1" xml:space="preserve" transform="matrix(2.3949721,3.6203355e-8,-3.292933e-8,-2.8007615,-624.31807,2820.3788)">
<path id="path2578" style="fill:#000000;stroke-width:0" d="M 377.64,664.04 L 377.64,664.04 L 377.64,664.04 L 377.64,664.04 L 377.64,664.04 L 377.64,664.04 L 377.64,664.05 L 377.64,664.05 L 377.64,664.05 L 377.64,664.06 L 377.64,664.06 L 377.64,664.07 L 377.64,664.07 L 377.64,664.08 L 377.63,664.08 L 377.63,664.09 L 377.63,664.09 L 377.63,664.1 L 377.62,664.1 L 377.62,664.11 L 377.62,664.11 L 377.61,664.11 L 377.61,664.12 L 377.61,664.12 L 377.6,664.12 L 377.6,664.12 L 377.6,664.13 L 377.6,664.13 L 377.59,664.13 L 377.59,664.13 L 377.59,664.13 L 377.58,664.13 L 377.58,664.14 L 377.57,664.14 L 377.57,664.14 L 377.57,664.14 L 377.56,664.14 L 377.56,664.14 L 377.55,664.14 L 377.55,664.14 L 377.54,664.15 L 377.54,664.15 L 377.53,664.15 L 377.53,664.15 L 377.52,664.15 L 377.51,664.15 C 377.36,664.15 376.42,664.06 376.25,664.04 C 376.17,664.03 376.11,663.98 376.11,663.85 C 376.11,663.73 376.2,663.73 376.35,663.73 C 376.83,663.73 376.85,663.66 376.85,663.56 L 376.82,663.36 L 376.22,661 C 376.04,661.37 375.75,661.64 375.3,661.64 L 375.31,661.42 C 375.96,661.42 376.1,660.6 376.1,660.54 C 376.1,660.48 376.08,660.42 376.07,660.37 L 375.57,658.42 C 375.52,658.24 375.52,658.22 375.37,658.05 C 374.93,657.5 374.52,657.34 374.25,657.34 C 373.75,657.34 373.61,657.89 373.61,658.28 C 373.61,658.78 373.93,660 374.16,660.46 C 374.46,661.05 374.91,661.42 375.31,661.42 L 375.3,661.64 C 374.14,661.64 372.9,660.17 372.9,658.72 C 372.9,657.78 373.45,657.12 374.23,657.12 C 374.42,657.12 374.92,657.16 375.52,657.87 C 375.6,657.45 375.95,657.12 376.43,657.12 C 376.78,657.12 377.01,657.35 377.17,657.67 C 377.33,658.03 377.46,658.64 377.46,658.66 C 377.46,658.76 377.37,658.76 377.34,658.76 C 377.24,658.76 377.23,658.72 377.2,658.58 C 377.04,657.93 376.86,657.34 376.45,657.34 C 376.18,657.34 376.15,657.6 376.15,657.8 C 376.15,658.04 376.17,658.11 376.21,658.28 L 377.64,664.04 z"/>
<path id="path2580" style="fill:#000000;stroke-width:0" d="M 378.56,657.82 L 378.56,657.81 L 378.56,657.79 L 378.55,657.78 L 378.55,657.76 L 378.54,657.73 L 378.54,657.7 L 378.53,657.66 L 378.52,657.63 L 378.51,657.6 L 378.51,657.57 L 378.5,657.55 L 378.5,657.54 L 378.5,657.52 L 378.49,657.51 L 378.49,657.5 L 378.49,657.48 L 378.48,657.47 L 378.48,657.46 L 378.48,657.45 L 378.48,657.44 L 378.48,657.43 L 378.47,657.42 L 378.47,657.41 L 378.47,657.4 L 378.47,657.4 L 378.47,657.39 C 378.47,657.21 378.61,657.12 378.76,657.12 C 378.88,657.12 379.06,657.2 379.13,657.4 C 379.14,657.42 379.26,657.89 379.32,658.14 C 379.39,658.44 379.47,658.74 379.54,659.04 C 379.6,659.26 379.66,659.47 379.71,659.7 C 379.75,659.87 379.83,660.16 379.84,660.2 C 379.99,660.51 380.51,661.42 381.46,661.42 C 381.91,661.42 382,661.05 382,660.72 C 382,660.47 381.93,660.19 381.85,659.89 C 381.73,659.38 381.68,659.18 381.57,658.74 C 381.47,658.37 381.46,658.31 381.37,657.98 C 381.33,657.78 381.24,657.44 381.24,657.39 C 381.24,657.21 381.38,657.12 381.53,657.12 C 381.84,657.12 381.9,657.37 381.98,657.69 C 382.12,658.25 382.49,659.7 382.58,660.09 C 382.61,660.22 383.14,661.42 384.22,661.42 C 384.65,661.42 384.76,661.08 384.76,660.72 C 384.76,660.15 384.34,659.02 384.14,658.49 C 384.05,658.25 384.01,658.14 384.01,657.94 C 384.01,657.47 384.36,657.12 384.83,657.12 C 385.77,657.12 386.13,658.58 386.13,658.66 C 386.13,658.76 386.04,658.76 386.01,658.76 C 385.91,658.76 385.91,658.73 385.86,658.58 C 385.71,658.05 385.4,657.34 384.85,657.34 C 384.68,657.34 384.61,657.44 384.61,657.67 C 384.61,657.92 384.7,658.16 384.79,658.38 C 384.98,658.9 385.4,660 385.4,660.57 C 385.4,661.22 385,661.64 384.25,661.64 C 383.5,661.64 382.99,661.2 382.63,660.67 C 382.62,660.8 382.59,661.14 382.31,661.38 C 382.06,661.59 381.74,661.64 381.49,661.64 C 380.59,661.64 380.11,661 379.94,660.77 C 379.89,661.34 379.47,661.64 379.02,661.64 C 378.56,661.64 378.37,661.25 378.28,661.07 C 378.1,660.72 377.97,660.13 377.97,660.1 C 377.97,660 378.07,660 378.09,660 C 378.19,660 378.2,660.01 378.26,660.23 C 378.43,660.94 378.63,661.42 378.99,661.42 C 379.15,661.42 379.3,661.34 379.3,660.96 C 379.3,660.75 379.27,660.64 379.14,660.12 L 378.56,657.82 z"/>
<path id="path2582" style="fill:#000000;stroke-width:0" d="M 396.04,660.49 L 396.07,660.49 L 396.1,660.49 L 396.13,660.49 L 396.14,660.49 L 396.16,660.49 L 396.17,660.49 L 396.19,660.5 L 396.2,660.5 L 396.21,660.5 L 396.23,660.5 L 396.24,660.51 L 396.25,660.51 L 396.27,660.51 L 396.28,660.52 L 396.29,660.53 L 396.3,660.53 L 396.31,660.54 L 396.32,660.55 L 396.33,660.55 L 396.34,660.56 L 396.35,660.57 L 396.35,660.58 L 396.36,660.59 L 396.36,660.59 L 396.36,660.6 L 396.37,660.6 L 396.37,660.61 L 396.37,660.62 L 396.37,660.62 L 396.37,660.63 L 396.38,660.64 L 396.38,660.65 L 396.38,660.65 L 396.38,660.66 L 396.38,660.67 L 396.38,660.68 L 396.38,660.69 C 396.38,660.89 396.19,660.89 396.05,660.89 L 390.08,660.89 C 389.95,660.89 389.76,660.89 389.76,660.69 C 389.76,660.49 389.95,660.49 390.09,660.49 L 396.04,660.49 z"/>
<path id="path2584" style="fill:#000000;stroke-width:0" d="M 396.05,658.56 L 396.07,658.56 L 396.08,658.56 L 396.11,658.56 L 396.13,658.56 L 396.15,658.56 L 396.16,658.56 L 396.18,658.56 L 396.19,658.56 L 396.2,658.57 L 396.22,658.57 L 396.23,658.57 L 396.24,658.57 L 396.26,658.58 L 396.27,658.58 L 396.28,658.59 L 396.29,658.59 L 396.3,658.6 L 396.31,658.61 L 396.32,658.61 L 396.33,658.62 L 396.34,658.63 L 396.35,658.64 L 396.35,658.64 L 396.35,658.65 L 396.36,658.65 L 396.36,658.66 L 396.36,658.66 L 396.37,658.67 L 396.37,658.68 L 396.37,658.68 L 396.37,658.69 L 396.37,658.7 L 396.38,658.71 L 396.38,658.71 L 396.38,658.72 L 396.38,658.73 L 396.38,658.74 L 396.38,658.75 L 396.38,658.76 C 396.38,658.96 396.19,658.96 396.04,658.96 L 390.09,658.96 C 389.95,658.96 389.76,658.96 389.76,658.76 C 389.76,658.56 389.95,658.56 390.08,658.56 L 396.05,658.56 z"/>
<path id="path2586" style="fill:#000000;stroke-width:0" d="M 400.04,655.51 L 400.04,655.5 L 400.04,655.5 L 400.04,655.49 L 400.04,655.49 L 400.03,655.48 L 400.03,655.48 L 400.03,655.47 L 400.03,655.47 L 400.03,655.46 L 400.03,655.46 L 400.03,655.46 L 400.03,655.45 L 400.03,655.45 L 400.03,655.44 L 400.02,655.44 L 400.02,655.43 L 400.02,655.42 L 400.02,655.42 L 400.02,655.41 L 400.02,655.41 L 400.02,655.4 L 400.02,655.4 L 400.01,655.39 L 400.01,655.39 L 400.01,655.38 L 400.01,655.38 L 400.01,655.38 L 400.01,655.37 L 400.01,655.37 L 400.01,655.37 L 400.01,655.37 L 400.01,655.36 L 400.01,655.36 L 400.01,655.36 L 400.01,655.35 L 400.01,655.35 C 400.01,655.2 400.12,655.08 400.29,655.08 C 400.5,655.08 400.62,655.26 400.64,655.29 C 400.69,655.38 401.01,656.71 401.28,657.79 C 401.48,657.39 401.8,657.12 402.26,657.12 L 402.25,657.34 C 401.56,657.34 401.4,658.14 401.4,658.23 C 401.4,658.27 401.45,658.47 401.48,658.6 C 401.76,659.71 401.85,660.07 402.07,660.47 C 402.5,661.2 403,661.42 403.31,661.42 C 403.68,661.42 404,661.13 404,660.44 C 404,659.89 403.71,658.78 403.44,658.29 C 403.11,657.66 402.63,657.34 402.25,657.34 L 402.25,657.34 L 402.26,657.12 C 403.43,657.12 404.71,658.53 404.71,660.01 C 404.71,661.07 404.06,661.64 403.33,661.64 C 402.36,661.64 401.32,660.64 401.02,659.42 L 400.04,655.51 z"/>
<path id="path2588" style="fill:#000000;stroke-width:0" d="M 410.01,664.04 L 410.01,664.04 L 410.01,664.04 L 410.01,664.04 L 410.01,664.04 L 410.01,664.04 L 410.01,664.05 L 410.01,664.05 L 410,664.05 L 410,664.06 L 410,664.06 L 410,664.07 L 410,664.07 L 410,664.08 L 410,664.08 L 410,664.09 L 409.99,664.09 L 409.99,664.1 L 409.99,664.1 L 409.98,664.11 L 409.98,664.11 L 409.97,664.11 L 409.97,664.12 L 409.97,664.12 L 409.97,664.12 L 409.96,664.12 L 409.96,664.13 L 409.96,664.13 L 409.95,664.13 L 409.95,664.13 L 409.95,664.13 L 409.94,664.13 L 409.94,664.14 L 409.94,664.14 L 409.93,664.14 L 409.93,664.14 L 409.92,664.14 L 409.92,664.14 L 409.91,664.14 L 409.91,664.14 L 409.9,664.15 L 409.9,664.15 L 409.89,664.15 L 409.89,664.15 L 409.88,664.15 L 409.88,664.15 C 409.73,664.15 408.78,664.06 408.61,664.04 C 408.53,664.03 408.47,663.98 408.47,663.85 C 408.47,663.73 408.56,663.73 408.71,663.73 C 409.19,663.73 409.21,663.66 409.21,663.56 L 409.18,663.36 L 408.58,661 C 408.4,661.37 408.11,661.64 407.67,661.64 L 407.67,661.42 C 408.32,661.42 408.46,660.6 408.46,660.54 C 408.46,660.48 408.44,660.42 408.43,660.37 L 407.93,658.42 C 407.88,658.24 407.88,658.22 407.73,658.05 C 407.3,657.5 406.89,657.34 406.61,657.34 C 406.11,657.34 405.97,657.89 405.97,658.28 C 405.97,658.78 406.29,660 406.52,660.46 C 406.83,661.05 407.28,661.42 407.67,661.42 L 407.67,661.64 C 406.5,661.64 405.26,660.17 405.26,658.72 C 405.26,657.78 405.81,657.12 406.59,657.12 C 406.79,657.12 407.29,657.16 407.88,657.87 C 407.96,657.45 408.31,657.12 408.79,657.12 C 409.14,657.12 409.37,657.35 409.53,657.67 C 409.7,658.03 409.83,658.64 409.83,658.66 C 409.83,658.76 409.74,658.76 409.71,658.76 C 409.61,658.76 409.6,658.72 409.57,658.58 C 409.4,657.93 409.22,657.34 408.81,657.34 C 408.54,657.34 408.51,657.6 408.51,657.8 C 408.51,658.04 408.53,658.11 408.57,658.28 L 410.01,664.04 z"/>
<path id="path2590" style="fill:#000000;stroke-width:0" d="M 416.3,662.9 L 416.35,662.97 L 416.39,663.04 L 416.44,663.1 L 416.48,663.16 L 416.53,663.21 L 416.57,663.26 L 416.61,663.31 L 416.66,663.36 L 416.7,663.4 L 416.74,663.43 L 416.78,663.47 L 416.82,663.5 L 416.87,663.53 L 416.91,663.55 L 416.95,663.58 L 416.99,663.6 L 417.03,663.62 L 417.07,663.63 L 417.1,663.65 L 417.14,663.66 L 417.18,663.67 L 417.22,663.68 L 417.26,663.69 L 417.29,663.7 L 417.33,663.71 L 417.37,663.71 L 417.44,663.72 L 417.51,663.72 L 417.58,663.73 C 417.7,663.74 417.71,663.91 417.71,663.92 C 417.71,664 417.66,664.04 417.58,664.04 C 417.32,664.04 417.03,664.01 416.76,664.01 C 416.43,664.01 416.1,664.04 415.78,664.04 C 415.72,664.04 415.59,664.04 415.59,663.85 C 415.59,663.74 415.68,663.73 415.75,663.73 C 416.02,663.71 416.2,663.61 416.2,663.4 C 416.2,663.25 416.05,663.03 416.05,663.02 L 413,658.16 L 412.32,663.43 C 412.32,663.6 412.55,663.73 413.01,663.73 C 413.15,663.73 413.26,663.73 413.26,663.93 C 413.26,664.02 413.18,664.04 413.12,664.04 C 412.72,664.04 412.29,664.01 411.88,664.01 C 411.7,664.01 411.51,664.02 411.33,664.02 C 411.15,664.02 410.96,664.04 410.8,664.04 C 410.73,664.04 410.61,664.04 410.61,663.85 C 410.61,663.73 410.7,663.73 410.85,663.73 C 411.41,663.73 411.42,663.64 411.45,663.39 L 412.24,657.24 C 412.27,657.04 412.31,657.01 412.44,657.01 C 412.6,657.01 412.64,657.06 412.72,657.19 L 416.3,662.9 z"/>
</g>    <path style="fill:none;fill-rule:evenodd;stroke:#000000;stroke-width:0.99999988px;stroke-linecap:butt;stroke-linejoin:miter;stroke-opacity:1" d="M 252.84904,908.00826 C 252.84904,908.00826 272.73483,891.31616 281.46299,927.52687 C 290.04096,963.1145 288.40423,957.5749 288.40423,957.5749" id="path9067" inkscape:transform-center-x="-8.980015" inkscape:transform-center-y="36.736252" sodipodi:nodetypes="csc"/>
  </g>
</svg>