<?xml version="1.0" encoding="UTF-8" standalone="no"?>
<!-- Created with Inkscape (http://www.inkscape.org/) -->

<svg
   version="1.2"
   width="675"
   height="600"
   viewBox="11 24 450 400"
   inkscape:version="1.3.2 (091e20e, 2023-11-25, custom)"
   sodipodi:docname="Pure_iron_phase_diagram_(EN).svg"
   id="svg2"
   xmlns:inkscape="http://www.inkscape.org/namespaces/inkscape"
   xmlns:sodipodi="http://sodipodi.sourceforge.net/DTD/sodipodi-0.dtd"
   xmlns="http://www.w3.org/2000/svg"
   xmlns:svg="http://www.w3.org/2000/svg"
   xmlns:rdf="http://www.w3.org/1999/02/22-rdf-syntax-ns#"
   xmlns:cc="http://creativecommons.org/ns#"
   xmlns:dc="http://purl.org/dc/elements/1.1/">
  <defs
     id="defs103" />
  <sodipodi:namedview
     pagecolor="#ffffff"
     bordercolor="#666666"
     borderopacity="1"
     objecttolerance="10"
     gridtolerance="10"
     guidetolerance="10"
     inkscape:pageopacity="0"
     inkscape:pageshadow="2"
     inkscape:window-width="1507"
     inkscape:window-height="1246"
     id="namedview101"
     showgrid="false"
     inkscape:zoom="0.78666667"
     inkscape:cx="245.97458"
     inkscape:cy="339.40678"
     inkscape:window-x="1015"
     inkscape:window-y="177"
     inkscape:window-maximized="0"
     inkscape:current-layer="svg2"
     inkscape:showpageshadow="2"
     inkscape:pagecheckerboard="0"
     inkscape:deskcolor="#d1d1d1" />
  <metadata
     id="metadata99">
    <rdf:RDF>
      <cc:Work
         rdf:about="">
        <dc:format>image/svg+xml</dc:format>
        <dc:type
           rdf:resource="http://purl.org/dc/dcmitype/StillImage" />
        <dc:title />
      </cc:Work>
    </rdf:RDF>
  </metadata>
  <path
     d="m 73.279841,216.43189 0,-128.840884 110.890269,0 110.89027,0 -0.63616,3.131692 c -8.15761,40.158312 -17.82893,67.239212 -34.16767,95.673652 -11.5179,20.04471 -22.46599,34.98166 -57.53431,78.49658 -0.64066,0.79497 -3.08029,3.83258 -5.4214,6.75023 -4.09001,5.09729 -4.78041,5.51052 -17.64521,10.5615 -23.77219,9.33343 -49.32359,23.02532 -63.0139,33.76642 -1.85493,1.45534 -8.12898,5.10396 -13.94233,8.10805 -11.186294,5.78061 -18.607095,10.84212 -25.32427,17.27294 l -4.095289,3.92071 0,-128.84089 z"
     id="path3632"
     style="fill:#d5e5ff;fill-opacity:1;fill-rule:nonzero;stroke:none" />
  <path
     d="m 215.37468,251.16167 c 34.24847,-42.16584 49.61177,-66.30563 61.91191,-97.17907 7.25611,-18.21289 13.66766,-38.15197 17.44218,-57.478317 l 1.40581,-8.913277 48.52981,0 47.5662,0 0,88.169164 0,88.89187 -188.03938,0.2409 10.94257,-13.49037 0.2409,-0.2409 z"
     id="path3634"
     style="fill:#87cdde;fill-opacity:1;fill-rule:nonzero;stroke:none" />
  <path
     d="m 195.77933,276.5328 7.90871,-11.15807 188.20187,-0.18545 0.34068,5.64051 -0.7227,6.0437 c -196.08869,0.65812 -2.27776,1.09585 -195.72856,-0.34069 z"
     id="path3636"
     style="fill:#ffdd55;fill-opacity:1;fill-rule:nonzero;stroke:none" />
  <path
     d="m 114.81012,319.23336 c 1.30131,-2.13004 23.37466,-16.33529 34.52701,-22.07751 11.31713,-5.82706 29.60757,-13.49565 39.37312,-16.9411 2.78239,-0.98167 6.74519,-2.84325 6.74519,-3.25356 0,-0.41029 42.75963,-0.0233 97.08243,-0.0233 l 98.76874,0 0,20.95824 0,22.88544 c -276.29494,-0.60876 -0.65879,-0.0354 -276.49649,-1.54821 z"
     id="path3638"
     style="fill:#ffb380;fill-opacity:1;fill-rule:nonzero;stroke:none" />
  <path
     d="m 72.83766,365.93834 0,-17.95888 c 11.873239,-13.82327 25.796328,-21.497 40.21643,-27.67968 l 139.60806,0 139.60806,0 0,31.79872 0,31.79872 -159.71628,0 -159.71627,0 0,-17.95888 z"
     id="path3640"
     style="fill:#d35f5f;fill-opacity:1;fill-rule:nonzero;stroke:none" />
  <path
     d="m 72.214939,348.12436 c 13.056769,-14.47336 22.612419,-19.34618 40.702351,-27.88865 27.70402,-22.68493 61.23655,-35.2014 80.65097,-42.20985 42.65776,-55.0431 85.45683,-93.51353 102.50964,-190.698071"
     id="path2818"
     style="fill:none;stroke:#000000;stroke-width:1px;stroke-linecap:butt;stroke-linejoin:miter;stroke-opacity:1" />
  <path
     d="m 72.224899,384.30424 c 344.404081,0 344.404081,0 344.404081,0"
     id="path2820"
     style="fill:none;stroke:#000000;stroke-width:1px;stroke-linecap:butt;stroke-linejoin:miter;stroke-opacity:1" />
  <path
     d="m 112.83083,320.23571 c 281.32067,0 281.32067,0 281.32067,0"
     id="path2820-1"
     style="fill:none;stroke:#000000;stroke-width:1px;stroke-linecap:butt;stroke-linejoin:miter;stroke-opacity:1" />
  <path
     d="m 193.83797,277.54042 c 200.17451,0 200.17451,0 200.17451,0"
     id="path2820-4"
     style="fill:none;stroke:#000000;stroke-width:1px;stroke-linecap:butt;stroke-linejoin:miter;stroke-opacity:1" />
  <path
     d="m 203.13644,264.87148 c 191.15915,0 191.15915,0 191.15915,0"
     id="path2820-9"
     style="fill:none;stroke:#000000;stroke-width:1px;stroke-linecap:butt;stroke-linejoin:miter;stroke-opacity:1" />
  <path
     d="m 72.214939,384.32273 c 0,-325.189021 0,-325.189021 0,-325.189021"
     id="path2820-48"
     style="fill:none;stroke:#000000;stroke-width:1px;stroke-linecap:butt;stroke-linejoin:miter;stroke-opacity:1" />
  <path
     d="m -260.09415,43.937651 8.30834,14.390456 -16.61667,0 8.30833,-14.390456 z"
     transform="matrix(0.454725,0,0,1.03704,190.276,3.56681)"
     id="path2884"
     style="fill:#000000;fill-opacity:1;fill-rule:nonzero;stroke:none" />
  <path
     d="m -260.09415,43.937651 8.30834,14.390456 -16.61667,0 8.30833,-14.390456 z"
     transform="matrix(0,0.454725,-1.03704,0,471.471,502.642)"
     id="path2884-8"
     style="fill:#000000;fill-opacity:1;fill-rule:nonzero;stroke:none" />
  <text
     x="28.497601"
     y="51.610401"
     id="text2908"
     xml:space="preserve"
     style="font-style:normal;font-variant:normal;font-weight:normal;font-stretch:normal;font-size:12px;line-height:0%;font-family:'Bitstream Vera Sans';text-align:start;text-anchor:start;fill:#000000;fill-opacity:1;stroke:none"><tspan
       x="28.497601"
       y="51.610401"
       id="tspan2910">T (°C)</tspan></text>
  <text
     x="402.99899"
     y="404.64801"
     id="text2908-2"
     xml:space="preserve"
     style="font-style:normal;font-variant:normal;font-weight:normal;font-stretch:normal;font-size:12px;line-height:0%;font-family:'Bitstream Vera Sans';text-align:start;text-anchor:start;fill:#000000;fill-opacity:1;stroke:none"><tspan
       x="402.99899"
       y="404.64801"
       id="tspan2910-4">P (bar)</tspan></text>
  <path
     d="m 64.494547,314.95949 c 7.149563,0 7.149563,0 7.149563,0"
     id="path2820-9-5"
     style="fill:none;stroke:#000000;stroke-width:1px;stroke-linecap:butt;stroke-linejoin:miter;stroke-opacity:1" />
  <path
     d="m 64.494547,268.69825 c 7.149563,0 7.149563,0 7.149563,0"
     id="path2820-9-5-1"
     style="fill:none;stroke:#000000;stroke-width:1px;stroke-linecap:butt;stroke-linejoin:miter;stroke-opacity:1" />
  <path
     d="m 64.494547,222.437 c 7.149563,0 7.149563,0 7.149563,0"
     id="path2820-9-5-11"
     style="fill:none;stroke:#000000;stroke-width:1px;stroke-linecap:butt;stroke-linejoin:miter;stroke-opacity:1" />
  <path
     d="m 64.494547,176.17576 c 7.149563,0 7.149563,0 7.149563,0"
     id="path2820-9-5-2"
     style="fill:none;stroke:#000000;stroke-width:1px;stroke-linecap:butt;stroke-linejoin:miter;stroke-opacity:1" />
  <path
     d="m 64.494547,129.91451 c 7.149563,0 7.149563,0 7.149563,0"
     id="path2820-9-5-14"
     style="fill:none;stroke:#000000;stroke-width:1px;stroke-linecap:butt;stroke-linejoin:miter;stroke-opacity:1" />
  <path
     d="m 87.666753,391.27088 c 0,-7.14957 0,-7.14957 0,-7.14957"
     id="path2820-9-5-3"
     style="fill:none;stroke:#000000;stroke-width:1px;stroke-linecap:butt;stroke-linejoin:miter;stroke-opacity:1" />
  <path
     d="m 349.97084,391.27088 c 0,-7.14957 0,-7.14957 0,-7.14957"
     id="path2820-9-5-3-8"
     style="fill:none;stroke:#000000;stroke-width:1px;stroke-linecap:butt;stroke-linejoin:miter;stroke-opacity:1" />
  <path
     d="m 284.39482,391.27088 c 0,-7.14957 0,-7.14957 0,-7.14957"
     id="path2820-9-5-3-7"
     style="fill:none;stroke:#000000;stroke-width:1px;stroke-linecap:butt;stroke-linejoin:miter;stroke-opacity:1" />
  <path
     d="m 317.18282,391.27088 c 0,-7.14957 0,-7.14957 0,-7.14957"
     id="path2820-9-5-3-1"
     style="fill:none;stroke:#000000;stroke-width:1px;stroke-linecap:butt;stroke-linejoin:miter;stroke-opacity:1" />
  <path
     d="m 251.60681,391.27088 c 0,-7.14957 0,-7.14957 0,-7.14957"
     id="path2820-9-5-3-9"
     style="fill:none;stroke:#000000;stroke-width:1px;stroke-linecap:butt;stroke-linejoin:miter;stroke-opacity:1" />
  <path
     d="m 218.81879,391.27088 c 0,-7.14957 0,-7.14957 0,-7.14957"
     id="path2820-9-5-3-79"
     style="fill:none;stroke:#000000;stroke-width:1px;stroke-linecap:butt;stroke-linejoin:miter;stroke-opacity:1" />
  <path
     d="m 186.03079,391.27088 c 0,-7.14957 0,-7.14957 0,-7.14957"
     id="path2820-9-5-3-3"
     style="fill:none;stroke:#000000;stroke-width:1px;stroke-linecap:butt;stroke-linejoin:miter;stroke-opacity:1" />
  <path
     d="m 153.24278,391.27088 c 0,-7.14957 0,-7.14957 0,-7.14957"
     id="path2820-9-5-3-2"
     style="fill:none;stroke:#000000;stroke-width:1px;stroke-linecap:butt;stroke-linejoin:miter;stroke-opacity:1" />
  <path
     d="m 120.45477,391.27088 c 0,-7.14957 0,-7.14957 0,-7.14957"
     id="path2820-9-5-3-34"
     style="fill:none;stroke:#000000;stroke-width:1px;stroke-linecap:butt;stroke-linejoin:miter;stroke-opacity:1" />
  <text
     x="27.594"
     y="318.72101"
     id="text2908-7"
     xml:space="preserve"
     style="font-style:normal;font-variant:normal;font-weight:normal;font-stretch:normal;font-size:12px;line-height:0%;font-family:'Bitstream Vera Sans';text-align:start;text-anchor:start;fill:#000000;fill-opacity:1;stroke:none"><tspan
       x="27.594"
       y="318.72101"
       id="tspan2910-42">1000</tspan></text>
  <text
     x="28.033501"
     y="226.313"
     id="text2908-7-1"
     xml:space="preserve"
     style="font-style:normal;font-variant:normal;font-weight:normal;font-stretch:normal;font-size:12px;line-height:0%;font-family:'Bitstream Vera Sans';text-align:start;text-anchor:start;fill:#000000;fill-opacity:1;stroke:none"><tspan
       x="28.033501"
       y="226.313"
       id="tspan2910-42-9">2000</tspan></text>
  <text
     x="27.594"
     y="272.517"
     id="text2908-7-6"
     xml:space="preserve"
     style="font-style:normal;font-variant:normal;font-weight:normal;font-stretch:normal;font-size:12px;line-height:0%;font-family:'Bitstream Vera Sans';text-align:start;text-anchor:start;fill:#000000;fill-opacity:1;stroke:none"><tspan
       x="27.594"
       y="272.517"
       id="tspan2910-42-5">1500</tspan></text>
  <text
     x="28.033501"
     y="180.11"
     id="text2908-7-2"
     xml:space="preserve"
     style="font-style:normal;font-variant:normal;font-weight:normal;font-stretch:normal;font-size:12px;line-height:0%;font-family:'Bitstream Vera Sans';text-align:start;text-anchor:start;fill:#000000;fill-opacity:1;stroke:none"><tspan
       x="28.033501"
       y="180.11"
       id="tspan2910-42-8">2500</tspan></text>
  <text
     x="27.998301"
     y="133.90601"
     id="text2908-7-0"
     xml:space="preserve"
     style="font-style:normal;font-variant:normal;font-weight:normal;font-stretch:normal;font-size:12px;line-height:0%;font-family:'Bitstream Vera Sans';text-align:start;text-anchor:start;fill:#000000;fill-opacity:1;stroke:none"><tspan
       x="27.998301"
       y="133.90601"
       id="tspan2910-42-2">3000</tspan></text>
  <text
     x="339.53299"
     y="404.97198"
     id="text2908-7-0-4"
     xml:space="preserve"
     style="font-style:normal;font-variant:normal;font-weight:normal;font-stretch:normal;font-size:12px;line-height:0%;font-family:'Bitstream Vera Sans';text-align:start;text-anchor:start;fill:#000000;fill-opacity:1;stroke:none"><tspan
       x="339.53299"
       y="404.97198"
       id="tspan2910-42-2-8">100</tspan></text>
  <text
     x="310.73499"
     y="404.97198"
     id="text2908-7-0-5"
     xml:space="preserve"
     style="font-style:normal;font-variant:normal;font-weight:normal;font-stretch:normal;font-size:12px;line-height:0%;font-family:'Bitstream Vera Sans';text-align:start;text-anchor:start;fill:#000000;fill-opacity:1;stroke:none"><tspan
       x="310.73499"
       y="404.97198"
       id="tspan2910-42-2-0">10</tspan></text>
  <text
     x="282.09201"
     y="405.142"
     id="text2908-7-0-0"
     xml:space="preserve"
     style="font-style:normal;font-variant:normal;font-weight:normal;font-stretch:normal;font-size:12px;line-height:0%;font-family:'Bitstream Vera Sans';text-align:start;text-anchor:start;fill:#000000;fill-opacity:1;stroke:none"><tspan
       x="282.09201"
       y="405.142"
       id="tspan2910-42-2-06">1</tspan></text>
  <text
     x="212.88"
     y="404.97198"
     id="text2908-7-0-3-3"
     xml:space="preserve"
     style="font-style:normal;font-variant:normal;font-weight:normal;font-stretch:normal;font-size:12px;line-height:0%;font-family:'Bitstream Vera Sans';text-align:start;text-anchor:start;fill:#000000;fill-opacity:1;stroke:none"><tspan
       x="212.88"
       y="404.97198"
       id="tspan2910-42-2-89-4">10</tspan></text>
  <text
     x="180.26199"
     y="404.97198"
     id="text2908-7-0-3-3-4"
     xml:space="preserve"
     style="font-style:normal;font-variant:normal;font-weight:normal;font-stretch:normal;font-size:12px;line-height:0%;font-family:'Bitstream Vera Sans';text-align:start;text-anchor:start;fill:#000000;fill-opacity:1;stroke:none"><tspan
       x="180.26199"
       y="404.97198"
       id="tspan2910-42-2-89-4-6">10</tspan></text>
  <text
     x="147.64301"
     y="404.97198"
     id="text2908-7-0-3-3-6"
     xml:space="preserve"
     style="font-style:normal;font-variant:normal;font-weight:normal;font-stretch:normal;font-size:12px;line-height:0%;font-family:'Bitstream Vera Sans';text-align:start;text-anchor:start;fill:#000000;fill-opacity:1;stroke:none"><tspan
       x="147.64301"
       y="404.97198"
       id="tspan2910-42-2-89-4-61">10</tspan></text>
  <text
     x="115.025"
     y="404.97198"
     id="text2908-7-0-3-3-49"
     xml:space="preserve"
     style="font-style:normal;font-variant:normal;font-weight:normal;font-stretch:normal;font-size:12px;line-height:0%;font-family:'Bitstream Vera Sans';text-align:start;text-anchor:start;fill:#000000;fill-opacity:1;stroke:none"><tspan
       x="115.025"
       y="404.97198"
       id="tspan2910-42-2-89-4-63">10</tspan></text>
  <text
     x="82.406403"
     y="404.97198"
     id="text2908-7-0-3-3-8"
     xml:space="preserve"
     style="font-style:normal;font-variant:normal;font-weight:normal;font-stretch:normal;font-size:12px;line-height:0%;font-family:'Bitstream Vera Sans';text-align:start;text-anchor:start;fill:#000000;fill-opacity:1;stroke:none"><tspan
       x="82.406403"
       y="404.97198"
       id="tspan2910-42-2-89-4-8">10</tspan></text>
  <text
     x="97.8582"
     y="397.19901"
     id="text2908-7-0-3-3-8-2"
     xml:space="preserve"
     style="font-style:normal;font-variant:normal;font-weight:normal;font-stretch:normal;font-size:6px;line-height:0%;font-family:'Bitstream Vera Sans';text-align:start;text-anchor:start;fill:#000000;fill-opacity:1;stroke:none"><tspan
       x="97.8582"
       y="397.19901"
       id="tspan2910-42-2-89-4-8-9">-12</tspan></text>
  <text
     x="129.759"
     y="397.19901"
     id="text2908-7-0-3-3-8-2-1"
     xml:space="preserve"
     style="font-style:normal;font-variant:normal;font-weight:normal;font-stretch:normal;font-size:6px;line-height:0%;font-family:'Bitstream Vera Sans';text-align:start;text-anchor:start;fill:#000000;fill-opacity:1;stroke:none"><tspan
       x="129.759"
       y="397.19901"
       id="tspan2910-42-2-89-4-8-9-3">-10</tspan></text>
  <text
     x="163.677"
     y="397.19901"
     id="text2908-7-0-3-3-8-2-9"
     xml:space="preserve"
     style="font-style:normal;font-variant:normal;font-weight:normal;font-stretch:normal;font-size:6px;line-height:0%;font-family:'Bitstream Vera Sans';text-align:start;text-anchor:start;fill:#000000;fill-opacity:1;stroke:none"><tspan
       x="163.677"
       y="397.19901"
       id="tspan2910-42-2-89-4-8-9-8">-8</tspan></text>
  <text
     x="195.662"
     y="397.19901"
     id="text2908-7-0-3-3-8-2-0"
     xml:space="preserve"
     style="font-style:normal;font-variant:normal;font-weight:normal;font-stretch:normal;font-size:6px;line-height:0%;font-family:'Bitstream Vera Sans';text-align:start;text-anchor:start;fill:#000000;fill-opacity:1;stroke:none"><tspan
       x="195.662"
       y="397.19901"
       id="tspan2910-42-2-89-4-8-9-7">-6</tspan></text>
  <text
     x="227.644"
     y="397.12"
     id="text2908-7-0-3-3-8-2-3"
     xml:space="preserve"
     style="font-style:normal;font-variant:normal;font-weight:normal;font-stretch:normal;font-size:6px;line-height:0%;font-family:'Bitstream Vera Sans';text-align:start;text-anchor:start;fill:#000000;fill-opacity:1;stroke:none"><tspan
       x="227.644"
       y="397.12"
       id="tspan2910-42-2-89-4-8-9-6">-4</tspan></text>
  <text
     x="244.243"
     y="404.617"
     id="text2908-7-0-3-3-1"
     xml:space="preserve"
     style="font-style:normal;font-variant:normal;font-weight:normal;font-stretch:normal;font-size:12px;line-height:0%;font-family:'Bitstream Vera Sans';text-align:start;text-anchor:start;fill:#000000;fill-opacity:1;stroke:none"><tspan
       x="244.243"
       y="404.617"
       id="tspan2910-42-2-89-4-5">10</tspan></text>
  <text
     x="259.754"
     y="397.12"
     id="text2908-7-0-3-3-8-2-3-4"
     xml:space="preserve"
     style="font-style:normal;font-variant:normal;font-weight:normal;font-stretch:normal;font-size:6px;line-height:0%;font-family:'Bitstream Vera Sans';text-align:start;text-anchor:start;fill:#000000;fill-opacity:1;stroke:none"><tspan
       x="259.754"
       y="397.12"
       id="tspan2910-42-2-89-4-8-9-6-2">-2</tspan></text>
  <text
     x="308.186"
     y="190.53"
     id="text2908-2-0-1"
     xml:space="preserve"
     style="font-style:normal;font-variant:normal;font-weight:normal;font-stretch:normal;font-size:19.5556px;line-height:0%;font-family:'Source Han Serif CN VF';text-align:start;text-anchor:start;fill:#000000;fill-opacity:1;stroke:none;-inkscape-font-specification:'Source Han Serif CN VF, Normal';font-variant-ligatures:normal;font-variant-caps:normal;font-variant-numeric:normal;font-variant-east-asian:normal"><tspan
       sodipodi:role="line"
       id="tspan2">液态</tspan></text>
  <text
     x="137.479"
     y="190.345"
     id="text2908-2-0-1-7"
     xml:space="preserve"
     style="font-style:normal;font-variant:normal;font-weight:normal;font-stretch:normal;font-size:19.5556px;line-height:0%;font-family:'Source Han Serif CN VF';text-align:start;text-anchor:start;fill:#000000;fill-opacity:1;stroke:none;-inkscape-font-specification:'Source Han Serif CN VF, Normal';font-variant-ligatures:normal;font-variant-caps:normal;font-variant-numeric:normal;font-variant-east-asian:normal"><tspan
       sodipodi:role="line"
       id="tspan5">气态</tspan></text>
  <text
     x="352.84399"
     y="318.647"
     id="text2908-7-00"
     xml:space="preserve"
     style="font-style:normal;font-variant:normal;font-weight:normal;font-stretch:normal;font-size:10px;line-height:0%;font-family:'Bitstream Vera Sans';text-align:start;text-anchor:start;fill:#000000;fill-opacity:1;stroke:none"><tspan
       x="352.84399"
       y="318.647"
       id="tspan3667">910 °C</tspan></text>
  <text
     x="349.42599"
     y="276.46899"
     id="text2908-7-00-4"
     xml:space="preserve"
     style="font-style:normal;font-variant:normal;font-weight:normal;font-stretch:normal;font-size:10px;line-height:0%;font-family:'Bitstream Vera Sans';text-align:start;text-anchor:start;fill:#000000;fill-opacity:1;stroke:none"><tspan
       x="349.42599"
       y="276.46899"
       id="tspan3667-6">1394 °C</tspan></text>
  <text
     x="349.42599"
     y="262.59399"
     id="text2908-7-00-4-0"
     xml:space="preserve"
     style="font-style:normal;font-variant:normal;font-weight:normal;font-stretch:normal;font-size:10px;line-height:0%;font-family:'Bitstream Vera Sans';text-align:start;text-anchor:start;fill:#000000;fill-opacity:1;stroke:none"><tspan
       x="349.42599"
       y="262.59399"
       id="tspan3667-6-7">1538 °C</tspan></text>
  <g
     id="g2907"
     transform="translate(-36,0)">
    <text
       style="font-style:normal;font-variant:normal;font-weight:normal;font-stretch:normal;font-size:12px;line-height:0%;font-family:'Source Han Serif CN VF';text-align:start;text-anchor:start;fill:#000000;fill-opacity:1;stroke:none;-inkscape-font-specification:'Source Han Serif CN VF, Normal';font-variant-ligatures:normal;font-variant-caps:normal;font-variant-numeric:normal;font-variant-east-asian:normal"
       xml:space="preserve"
       id="text2908-2-0"
       y="354.15302"
       x="251.495"><tspan
         sodipodi:role="line"
         id="tspan6">-Fe (体心立方)</tspan></text>
    <g
       style="font-size:20px;font-style:normal;font-variant:normal;font-weight:normal;font-stretch:normal;text-align:start;line-height:125%;text-anchor:start;fill:#000000;fill-opacity:1;stroke:none;font-family:GreekC"
       id="flowRoot3719"
       transform="matrix(0.655795,0,0,0.655795,-122.051,203.717)">
      <path
         id="path2987"
         d="m 566.31641,229.7256 -0.74219,0 -1.47461,-0.74219 -0.74219,-1.45508 -0.40039,-1.60156 -0.72266,0.9375 -2.11914,2.13867 -1.45507,0.72266 -1.50391,0 -2.1582,-0.72266 -0.74219,-1.49414 0,-2.16797 0.72266,-2.13867 0.69335,-1.43555 1.46485,-1.44531 2.1582,-0.71289 1.48438,0 1.45507,0.73242 0.72266,1.46485 0.78125,2.40234 1.03516,-2.40234 0.68359,-2.09961 0.32227,0.11718 -0.72266,2.09961 -1.16211,2.74414 0.64453,2.75391 0.51758,1.36719 0.63477,0.61523 0.625,0 z m -3.45704,-4.19922 -0.20507,-0.82031 -0.69336,-2.63672 -0.6836,-1.50391 -0.625,-0.64453 -1.29882,0 -1.3379,0.83984 -1.37695,1.20118 -0.68359,1.36718 -0.6836,2.06055 0,2.03125 0.66407,1.32813 1.31836,0.65429 1.31836,0 1.34765,-0.67383 L 562,226.66896 z" />
    </g>
  </g>
  <g
     id="g2913"
     transform="translate(-44,0)">
    <text
       style="font-style:normal;font-variant:normal;font-weight:normal;font-stretch:normal;font-size:12px;line-height:0%;font-family:'Source Han Serif CN VF';text-align:start;text-anchor:start;fill:#000000;fill-opacity:1;stroke:none;-inkscape-font-specification:'Source Han Serif CN VF, Normal';font-variant-ligatures:normal;font-variant-caps:normal;font-variant-numeric:normal;font-variant-east-asian:normal"
       xml:space="preserve"
       id="text2908-2-0-2"
       y="303.65201"
       x="284.479"><tspan
         sodipodi:role="line"
         id="tspan4">-Fe (面心立方)</tspan></text>
    <g
       style="font-size:20px;font-style:normal;font-variant:normal;font-weight:normal;font-stretch:normal;text-align:start;line-height:125%;text-anchor:start;fill:#000000;fill-opacity:1;stroke:none;font-family:GreekC"
       id="flowRoot3719-1"
       transform="matrix(0.655795,0,0,0.655795,-87.0509,151.06)">
      <path
         id="path2990"
         d="m 565.07617,219.82325 -0.72265,2.09961 -0.69336,1.42579 -4.19922,5.57617 -2.10938,5.5957 -0.69336,0.0195 -0.2832,-0.16601 2.7832,-5.54688 0.69336,-2.7832 0,-2.75391 -0.65429,-2.00195 -1.31836,-0.66406 -2.72461,0 -1.31836,0.66406 -0.70313,0.69336 -0.23437,-0.23438 1.41601,-1.42578 1.46485,-0.71289 1.47461,0 1.46484,0.71289 0.74219,0.76172 0.71289,2.1582 0,2.8418 -0.45899,1.82617 2.95899,-4.72656 0.70312,-1.37695 0.6836,-2.09961 0.69336,0 z m -5.5957,9.10157 -0.0195,0.0195 0,-0.0195 z" />
    </g>
  </g>
  <g
     id="g2919"
     transform="translate(4,0)">
    <text
       style="font-style:normal;font-variant:normal;font-weight:normal;font-stretch:normal;font-size:12px;line-height:0%;font-family:'Source Han Serif CN VF';text-align:start;text-anchor:start;fill:#000000;fill-opacity:1;stroke:none;-inkscape-font-specification:'Source Han Serif CN VF, Normal';font-variant-ligatures:normal;font-variant-caps:normal;font-variant-numeric:normal;font-variant-east-asian:normal"
       xml:space="preserve"
       id="text2908-2-0-7"
       y="274.93701"
       x="251.008"><tspan
         sodipodi:role="line"
         id="tspan3">-Fe (体心立方)</tspan></text>
    <g
       style="font-size:20px;font-style:normal;font-variant:normal;font-weight:normal;font-stretch:normal;text-align:start;line-height:125%;text-anchor:start;fill:#000000;fill-opacity:1;stroke:none;font-family:GreekC"
       id="flowRoot3719-3"
       transform="matrix(0.655795,0,0,0.655795,-120.149,125.509)">
      <path
         id="path2993"
         d="m 563.64062,216.14161 -0.24414,0.24414 -0.68359,-0.68359 -1.33789,-0.67383 -1.29883,0 -0.5957,0.59571 0,1.29882 0.67383,1.36719 2.09961,2.79297 0.72265,1.44531 0,2.15821 -0.72265,2.1582 -1.43555,2.1582 -2.1582,0.72266 -1.48438,0 -1.48437,-0.74219 -0.71289,-0.72266 -0.72266,-1.45507 0,-2.15821 0.72266,-2.1582 1.43554,-2.16797 2.15821,-0.71289 1.48437,0 0.82031,0.41992 -1.69922,-2.28515 -0.72265,-1.43555 0,-1.50391 0.80078,-0.80078 1.50391,0 1.45507,0.72266 z m -1.67968,8.50586 0,-2.74414 -0.66407,-1.31836 -1.31835,-0.66406 -1.31836,0 -0.0391,0.0293 -1.30859,0.63476 -1.35742,2.06055 -0.6836,2.04102 0,2.73437 0.66407,1.32813 1.31836,0.65429 1.31836,0 0.0488,-0.0195 1.29883,-0.63476 1.35742,-2.06055 z m -3.28125,-4.72656 -0.0586,0.0293 0.0391,-0.0293 z m -0.0586,9.46289 -0.0488,0.0195 -0.0195,0 z" />
    </g>
  </g>
</svg>
