<svg width="691" height="232" xmlns="http://www.w3.org/2000/svg" xmlns:xlink="http://www.w3.org/1999/xlink" overflow="hidden"><defs><clipPath id="clip0"><rect x="380" y="129" width="691" height="232"/></clipPath></defs><g clip-path="url(#clip0)" transform="translate(-380 -129)"><rect x="444.5" y="189.5" width="113" height="60" stroke="#000000" stroke-width="1.33333" stroke-miterlimit="8" fill="none"/><text font-family="Times New Roman,Times New Roman_MSFontService,sans-serif" font-weight="400" font-size="24" transform="translate(492.505 228)">C</text><path d="M0.00861305-0.333222 51.1305 0.988165 51.1133 1.65461-0.00861305 0.333222ZM49.8924-2.71173 57.7864 1.49365 49.6857 5.2856Z" transform="matrix(1 0 0 -1 386.5 220.994)"/><rect x="602.5" y="189.5" width="114" height="60" stroke="#000000" stroke-width="1.33333" stroke-miterlimit="8" fill="none"/><text font-family="Times New Roman,Times New Roman_MSFontService,sans-serif" font-weight="400" font-size="24" transform="translate(646.284 228)">G</text><text font-family="Times New Roman,Times New Roman_MSFontService,sans-serif" font-weight="400" font-size="16" transform="translate(663.618 228)">1</text><path d="M557.5 219.167 595.571 219.167 595.571 219.833 557.5 219.833ZM594.238 215.5 602.238 219.5 594.238 223.5Z"/><path d="M777.14 198.287 818.86 240.713M818.86 198.287 777.14 240.713" stroke="#000000" stroke-width="1.33333" stroke-miterlimit="8" fill="none" fill-rule="evenodd"/><path d="M768.5 219.5C768.5 202.932 781.708 189.5 798 189.5 814.292 189.5 827.5 202.932 827.5 219.5 827.5 236.069 814.292 249.5 798 249.5 781.708 249.5 768.5 236.069 768.5 219.5Z" stroke="#000000" stroke-width="1.33333" stroke-miterlimit="8" fill="none" fill-rule="evenodd"/><path d="M716.5 219.167 762.027 219.167 762.027 219.833 716.5 219.833ZM760.694 215.5 768.694 219.5 760.694 223.5Z"/><path d="M797.833 130.5 797.833 183.484 797.167 183.484 797.167 130.5ZM801.5 182.151 797.5 190.151 793.5 182.151Z"/><path d="M827.5 219.167 869.3 219.167 869.3 219.833 827.5 219.833ZM867.967 215.5 875.966 219.5 867.966 223.5Z"/><rect x="875.5" y="189.5" width="114" height="60" stroke="#000000" stroke-width="1.33333" stroke-miterlimit="8" fill="none"/><text font-family="Times New Roman,Times New Roman_MSFontService,sans-serif" font-weight="400" font-size="24" transform="translate(919.372 228)">G</text><text font-family="Times New Roman,Times New Roman_MSFontService,sans-serif" font-weight="400" font-size="16" transform="translate(936.706 228)">2</text><rect x="602.5" y="300.5" width="114" height="60" stroke="#000000" stroke-width="1.33333" stroke-miterlimit="8" fill="none"/><text font-family="Times New Roman,Times New Roman_MSFontService,sans-serif" font-weight="400" font-size="24" transform="translate(650.951 339)">R</text><path d="M1070.68 330.834 893.254 330.834 893.254 330.5 893.588 330.833 723.167 330.833 723.167 330.167 893.921 330.167 893.921 330.5 893.588 330.167 1070.68 330.167ZM724.5 334.5 716.5 330.5 724.5 326.5Z"/><text font-family="Times New Roman,Times New Roman_MSFontService,sans-serif" font-weight="400" font-size="24" transform="translate(810.221 163)">P(t)</text><path d="M0 0 0.000104987 111.146" stroke="#000000" stroke-width="0.666667" stroke-miterlimit="8" fill="none" fill-rule="evenodd" transform="matrix(1 0 0 -1 1070.5 330.646)"/><text font-family="Times New Roman,Times New Roman_MSFontService,sans-serif" font-weight="400" font-size="24" transform="translate(395.23 202)">-</text><text font-family="Times New Roman,Times New Roman_MSFontService,sans-serif" font-weight="400" font-size="24" transform="translate(403.23 202)">ε</text><text font-family="Times New Roman,Times New Roman_MSFontService,sans-serif" font-weight="400" font-size="24" transform="translate(413.23 202)">(t)</text><path d="M0 0 216.233 0.000104987" stroke="#000000" stroke-width="0.666667" stroke-miterlimit="8" fill="none" fill-rule="evenodd" transform="matrix(-1 0 0 1 602.733 330.5)"/><path d="M0 0 0.000104987 110.889" stroke="#000000" stroke-width="0.666667" stroke-miterlimit="8" fill="none" fill-rule="evenodd" transform="matrix(1 0 0 -1 386.5 332.389)"/><text font-family="DengXian,DengXian_MSFontService,sans-serif" font-weight="400" font-size="24" transform="translate(789.948 212)">+</text><text font-family="DengXian,DengXian_MSFontService,sans-serif" font-weight="400" font-size="24" transform="translate(772.939 228)">-</text><path d="M989.5 219.5 1070.59 219.5" stroke="#000000" stroke-width="0.666667" stroke-miterlimit="8" fill="none" fill-rule="evenodd"/></g></svg>