<svg width="979" height="342" xmlns="http://www.w3.org/2000/svg" xmlns:xlink="http://www.w3.org/1999/xlink" overflow="hidden"><defs><clipPath id="clip0"><rect x="100" y="129" width="979" height="342"/></clipPath></defs><g clip-path="url(#clip0)" transform="translate(-100 -129)"><path d="M349.14 198.287 390.86 240.713M390.86 198.287 349.14 240.713" stroke="#000000" stroke-width="1.33333" stroke-miterlimit="8" fill="none" fill-rule="evenodd"/><path d="M340.5 219.5C340.5 202.932 353.708 189.5 370 189.5 386.292 189.5 399.5 202.932 399.5 219.5 399.5 236.069 386.292 249.5 370 249.5 353.708 249.5 340.5 236.069 340.5 219.5Z" stroke="#000000" stroke-width="1.33333" stroke-miterlimit="8" fill="none" fill-rule="evenodd"/><rect x="444.5" y="189.5" width="113" height="60" stroke="#000000" stroke-width="1.33333" stroke-miterlimit="8" fill="none"/><text font-family="Times New Roman,Times New Roman_MSFontService,sans-serif" font-weight="400" font-size="24" transform="translate(492.505 228)">C</text><path d="M399.5 219.167 437.571 219.167 437.571 219.833 399.5 219.833ZM436.238 215.5 444.238 219.5 436.238 223.5Z"/><rect x="602.5" y="189.5" width="114" height="60" stroke="#000000" stroke-width="1.33333" stroke-miterlimit="8" fill="none"/><text font-family="Times New Roman,Times New Roman_MSFontService,sans-serif" font-weight="400" font-size="24" transform="translate(646.284 228)">G</text><text font-family="Times New Roman,Times New Roman_MSFontService,sans-serif" font-weight="400" font-size="16" transform="translate(663.618 228)">1</text><path d="M557.5 219.167 595.571 219.167 595.571 219.833 557.5 219.833ZM594.238 215.5 602.238 219.5 594.238 223.5Z"/><path d="M777.14 198.287 818.86 240.713M818.86 198.287 777.14 240.713" stroke="#000000" stroke-width="1.33333" stroke-miterlimit="8" fill="none" fill-rule="evenodd"/><path d="M768.5 219.5C768.5 202.932 781.708 189.5 798 189.5 814.292 189.5 827.5 202.932 827.5 219.5 827.5 236.069 814.292 249.5 798 249.5 781.708 249.5 768.5 236.069 768.5 219.5Z" stroke="#000000" stroke-width="1.33333" stroke-miterlimit="8" fill="none" fill-rule="evenodd"/><path d="M716.5 219.167 762.027 219.167 762.027 219.833 716.5 219.833ZM760.694 215.5 768.694 219.5 760.694 223.5Z"/><path d="M797.833 130.5 797.833 183.484 797.167 183.484 797.167 130.5ZM801.5 182.151 797.5 190.151 793.5 182.151Z"/><path d="M827.5 219.167 869.3 219.167 869.3 219.833 827.5 219.833ZM867.967 215.5 875.966 219.5 867.966 223.5Z"/><rect x="875.5" y="189.5" width="114" height="60" stroke="#000000" stroke-width="1.33333" stroke-miterlimit="8" fill="none"/><text font-family="Times New Roman,Times New Roman_MSFontService,sans-serif" font-weight="400" font-size="24" transform="translate(919.372 228)">G</text><text font-family="Times New Roman,Times New Roman_MSFontService,sans-serif" font-weight="400" font-size="16" transform="translate(936.706 228)">2</text><rect x="602.5" y="300.5" width="114" height="60" stroke="#000000" stroke-width="1.33333" stroke-miterlimit="8" fill="none"/><text font-family="Times New Roman,Times New Roman_MSFontService,sans-serif" font-weight="400" font-size="24" transform="translate(650.951 339)">R</text><rect x="174.5" y="189.5" width="114" height="60" stroke="#000000" stroke-width="1.33333" stroke-miterlimit="8" fill="none"/><text font-family="Times New Roman,Times New Roman_MSFontService,sans-serif" font-weight="400" font-size="24" transform="translate(222.48 228)">A</text><path d="M288.5 219.167 334.027 219.167 334.027 219.833 288.5 219.833ZM332.694 215.5 340.694 219.5 332.694 223.5Z"/><path d="M1070.68 330.834 893.254 330.834 893.254 330.5 893.588 330.833 723.167 330.833 723.167 330.167 893.921 330.167 893.921 330.5 893.588 330.167 1070.68 330.167ZM724.5 334.5 716.5 330.5 724.5 326.5Z"/><path d="M603.043 331.154 370.167 331.154 370.167 256.167 370.833 256.167 370.833 330.82 370.5 330.487 603.043 330.487ZM366.5 257.5 370.5 249.5 374.5 257.5Z"/><path d="M101.5 219.167 168.465 219.167 168.465 219.833 101.5 219.833ZM167.132 215.5 175.132 219.5 167.132 223.5Z"/><text font-family="Times New Roman,Times New Roman_MSFontService,sans-serif" font-weight="400" font-size="24" transform="translate(120.048 247)">E(t)</text><text font-family="Times New Roman,Times New Roman_MSFontService,sans-serif" font-weight="400" font-size="24" transform="translate(808.59 168)">P(t)</text><path d="M0 0 0.000104987 109.652" stroke="#000000" stroke-width="0.666667" stroke-miterlimit="8" fill="none" fill-rule="evenodd" transform="matrix(1 0 0 -1 1070.5 331.152)"/><text font-family="Times New Roman,Times New Roman_MSFontService,sans-serif" font-weight="400" font-size="24" transform="translate(459.075 320)">u</text><text font-family="Times New Roman,Times New Roman_MSFontService,sans-serif" font-weight="400" font-size="15" transform="translate(471.075 320)">r</text><text font-family="Times New Roman,Times New Roman_MSFontService,sans-serif" font-weight="400" font-size="24" transform="translate(475.908 320)">(t)</text><text font-family="Times New Roman,Times New Roman_MSFontService,sans-serif" font-weight="400" font-size="24" transform="translate(297.6 207)">u</text><text font-family="Times New Roman,Times New Roman_MSFontService,sans-serif" font-weight="400" font-size="15" transform="translate(309.6 207)">a</text><text font-family="Times New Roman,Times New Roman_MSFontService,sans-serif" font-weight="400" font-size="24" transform="translate(316.1 207)">(t)</text><text font-family="Times New Roman,Times New Roman_MSFontService,sans-serif" font-weight="400" font-size="24" transform="translate(405.483 203)">ε</text><text font-family="Times New Roman,Times New Roman_MSFontService,sans-serif" font-weight="400" font-size="24" transform="translate(415.483 203)">(t)</text><path d="M989.5 219.5 1070.59 220.994" stroke="#000000" stroke-width="0.666667" stroke-miterlimit="8" fill="none" fill-rule="evenodd"/><rect x="602.5" y="410.5" width="114" height="60" stroke="#000000" stroke-width="1.33333" stroke-miterlimit="8" fill="none"/><text font-family="Times New Roman,Times New Roman_MSFontService,sans-serif" font-weight="400" font-size="24" transform="translate(641.618 448)">1/R</text><path d="M370.5 440.167 596.377 440.167 596.377 440.833 370.5 440.833ZM595.043 436.5 603.043 440.5 595.043 444.5Z"/><path d="M370.5 330.5 370.5 440.152" stroke="#000000" stroke-width="0.666667" stroke-miterlimit="8" fill="none" fill-rule="evenodd"/><path d="M716.5 440.167 1064.01 440.167 1064.01 440.833 716.5 440.833ZM1062.68 436.5 1070.68 440.5 1062.68 444.5Z"/><text font-family="Times New Roman,Times New Roman_MSFontService,sans-serif" font-weight="400" font-size="24" transform="translate(882.765 429)">S(t)</text></g></svg>