<svg width="705" height="175" xmlns="http://www.w3.org/2000/svg" xmlns:xlink="http://www.w3.org/1999/xlink" overflow="hidden"><defs><clipPath id="clip0"><rect x="263" y="363" width="705" height="175"/></clipPath></defs><g clip-path="url(#clip0)" transform="translate(-263 -363)"><path d="M355.14 373.287 396.86 415.713M396.86 373.287 355.14 415.713" stroke="#000000" stroke-width="1.33333" stroke-miterlimit="8" fill="none" fill-rule="evenodd"/><path d="M346.5 394.5C346.5 377.932 359.708 364.5 376 364.5 392.292 364.5 405.5 377.932 405.5 394.5 405.5 411.069 392.292 424.5 376 424.5 359.708 424.5 346.5 411.069 346.5 394.5Z" stroke="#000000" stroke-width="1.33333" stroke-miterlimit="8" fill="none" fill-rule="evenodd"/><rect x="572.5" y="365.5" width="114" height="60" stroke="#000000" stroke-width="1.33333" stroke-miterlimit="8" fill="none"/><text font-family="Times New Roman,Times New Roman_MSFontService,sans-serif" font-weight="400" font-size="24" transform="translate(616.459 404)">H</text><text font-family="Times New Roman,Times New Roman_MSFontService,sans-serif" font-weight="400" font-size="16" transform="translate(633.792 404)">3</text><path d="M405.503 394.167 566.602 395.509 566.597 396.176 405.497 394.833ZM565.3 391.832 573.266 395.898 565.233 399.831Z"/><path d="M686.5 395.167 952.921 395.167 952.921 395.833 686.5 395.833ZM951.588 391.5 959.588 395.5 951.588 399.5Z"/><rect x="432.5" y="477.5" width="113" height="59" stroke="#000000" stroke-width="1.33333" stroke-miterlimit="8" fill="none"/><text font-family="Times New Roman,Times New Roman_MSFontService,sans-serif" font-weight="400" font-size="24" transform="translate(476.055 515)">H</text><text font-family="Times New Roman,Times New Roman_MSFontService,sans-serif" font-weight="400" font-size="15" transform="translate(493.388 515)">2</text><path d="M264.5 394.167 339.853 394.167 339.853 394.833 264.5 394.833ZM338.519 390.5 346.519 394.5 338.519 398.5Z"/><path d="M431.888 507.552 375.167 507.552 375.167 431.167 375.833 431.167 375.833 507.218 375.5 506.885 431.888 506.885ZM371.5 432.5 375.5 424.5 379.5 432.5Z"/><text font-family="Times New Roman,Times New Roman_MSFontService,sans-serif" font-weight="400" font-size="24" transform="translate(288.745 422)">P</text><text font-family="Times New Roman,Times New Roman_MSFontService,sans-serif" font-weight="400" font-size="24" transform="translate(302.079 422)">(t</text><text font-family="Times New Roman,Times New Roman_MSFontService,sans-serif" font-weight="400" font-size="24" transform="translate(316.745 422)">)</text><text font-family="Times New Roman,Times New Roman_MSFontService,sans-serif" font-weight="400" font-size="24" transform="translate(786.765 423)">S</text><text font-family="Times New Roman,Times New Roman_MSFontService,sans-serif" font-weight="400" font-size="24" transform="translate(800.098 423)">(t</text><text font-family="Times New Roman,Times New Roman_MSFontService,sans-serif" font-weight="400" font-size="24" transform="translate(814.765 423)">)</text><rect x="572.5" y="477.5" width="114" height="59" stroke="#000000" stroke-width="1.33333" stroke-miterlimit="8" fill="none"/><text font-family="Times New Roman,Times New Roman_MSFontService,sans-serif" font-weight="400" font-size="24" transform="translate(616.792 515)">H</text><text font-family="Times New Roman,Times New Roman_MSFontService,sans-serif" font-weight="400" font-size="15" transform="translate(634.126 515)">1</text><rect x="713.5" y="477.5" width="114" height="59" stroke="#000000" stroke-width="1.33333" stroke-miterlimit="8" fill="none"/><text font-family="Times New Roman,Times New Roman_MSFontService,sans-serif" font-weight="400" font-size="24" transform="translate(757.53 515)">H</text><text font-family="Times New Roman,Times New Roman_MSFontService,sans-serif" font-weight="400" font-size="15" transform="translate(774.863 515)">4</text><path d="M887.485 395.5 887.485 506.979 834.167 506.979 834.167 506.312 887.151 506.312 886.818 506.645 886.818 395.5ZM835.5 510.645 827.5 506.645 835.5 502.645Z"/><path d="M1.29475e-06-0.333333 20.3622-0.333254 20.3622 0.333412-1.29475e-06 0.333333ZM19.0289-3.99993 27.0289 0.000104987 19.0289 4.00007Z" transform="matrix(-1 0 0 1 572.529 506.5)"/><path d="M1.29475e-06-0.333333 20.3622-0.333254 20.3622 0.333412-1.29475e-06 0.333333ZM19.0289-3.99993 27.0289 0.000104987 19.0289 4.00007Z" transform="matrix(-1 0 0 1 713.529 506.5)"/></g></svg>