<svg width="887" height="174" xmlns="http://www.w3.org/2000/svg" xmlns:xlink="http://www.w3.org/1999/xlink" overflow="hidden"><defs><clipPath id="clip0"><rect x="106" y="140" width="887" height="174"/></clipPath></defs><g clip-path="url(#clip0)" transform="translate(-106 -140)"><path d="M355.14 151.14 396.86 192.86M396.86 151.14 355.14 192.86" stroke="#000000" stroke-width="1.33333" stroke-miterlimit="8" fill="none" fill-rule="evenodd"/><path d="M346.5 172C346.5 155.708 359.708 142.5 376 142.5 392.292 142.5 405.5 155.708 405.5 172 405.5 188.292 392.292 201.5 376 201.5 359.708 201.5 346.5 188.292 346.5 172Z" stroke="#000000" stroke-width="1.33333" stroke-miterlimit="8" fill="none" fill-rule="evenodd"/><rect x="449.5" y="142.5" width="114" height="59" stroke="#000000" stroke-width="1.33333" stroke-miterlimit="8" fill="none"/><text font-family="Times New Roman,Times New Roman_MSFontService,sans-serif" font-weight="400" font-size="24" transform="translate(493.43 180)">H</text><text font-family="Times New Roman,Times New Roman_MSFontService,sans-serif" font-weight="400" font-size="16" transform="translate(510.764 180)">1</text><path d="M405.5 171.167 443.571 171.167 443.571 171.833 405.5 171.833ZM442.238 167.5 450.238 171.5 442.238 175.5Z"/><rect x="608.5" y="142.5" width="113" height="59" stroke="#000000" stroke-width="1.33333" stroke-miterlimit="8" fill="none"/><text font-family="Times New Roman,Times New Roman_MSFontService,sans-serif" font-weight="400" font-size="24" transform="translate(651.877 180)">H</text><text font-family="Times New Roman,Times New Roman_MSFontService,sans-serif" font-weight="400" font-size="16" transform="translate(669.21 180)">2</text><path d="M563.5 171.167 601.571 171.167 601.571 171.833 563.5 171.833ZM600.238 167.5 608.238 171.5 600.238 175.5Z"/><path d="M721.5 171.167 766.096 171.167 766.096 171.833 721.5 171.833ZM764.763 167.5 772.763 171.5 764.763 175.5Z"/><rect x="773.5" y="142.5" width="113" height="59" stroke="#000000" stroke-width="1.33333" stroke-miterlimit="8" fill="none"/><text font-family="Times New Roman,Times New Roman_MSFontService,sans-serif" font-weight="400" font-size="24" transform="translate(816.848 180)">H</text><text font-family="Times New Roman,Times New Roman_MSFontService,sans-serif" font-weight="400" font-size="16" transform="translate(834.181 180)">3</text><rect x="608.5" y="253.5" width="113" height="59" stroke="#000000" stroke-width="1.33333" stroke-miterlimit="8" fill="none"/><text font-family="Times New Roman,Times New Roman_MSFontService,sans-serif" font-weight="400" font-size="24" transform="translate(652.21 291)">H</text><text font-family="Times New Roman,Times New Roman_MSFontService,sans-serif" font-weight="400" font-size="15" transform="translate(669.543 291)">4</text><rect x="180.5" y="142.5" width="114" height="59" stroke="#000000" stroke-width="1.33333" stroke-miterlimit="8" fill="none"/><text font-family="Times New Roman,Times New Roman_MSFontService,sans-serif" font-weight="400" font-size="24" transform="translate(228.072 180)">A</text><path d="M886.5 171.167 977.697 171.167 977.697 171.833 886.5 171.833ZM976.364 167.5 984.364 171.5 976.364 175.5Z"/><path d="M294.5 171.167 340.027 171.167 340.027 171.833 294.5 171.833ZM338.694 167.5 346.694 171.5 338.694 175.5Z"/><path d="M829.95 201.5 829.95 283.154 728.167 283.154 728.167 282.487 829.617 282.487 829.284 282.82 829.284 201.5ZM729.5 286.82 721.5 282.82 729.5 278.82Z"/><path d="M608.043 283.154 375.167 283.154 375.167 208.167 375.833 208.167 375.833 282.82 375.5 282.487 608.043 282.487ZM371.5 209.5 375.5 201.5 379.5 209.5Z"/><path d="M106.5 171.167 173.465 171.167 173.465 171.833 106.5 171.833ZM172.132 167.5 180.132 171.5 172.132 175.5Z"/><text font-family="Times New Roman,Times New Roman_MSFontService,sans-serif" font-weight="400" font-size="24" transform="translate(125.64 199)">E(t</text><text font-family="Times New Roman,Times New Roman_MSFontService,sans-serif" font-weight="400" font-size="24" transform="translate(154.973 199)">)</text><text font-family="Times New Roman,Times New Roman_MSFontService,sans-serif" font-weight="400" font-size="24" transform="translate(909.95 199)">S</text><text font-family="Times New Roman,Times New Roman_MSFontService,sans-serif" font-weight="400" font-size="24" transform="translate(923.283 199)">(t</text><text font-family="Times New Roman,Times New Roman_MSFontService,sans-serif" font-weight="400" font-size="24" transform="translate(937.95 199)">)</text></g></svg>