<svg width="438" height="187" xmlns="http://www.w3.org/2000/svg" xmlns:xlink="http://www.w3.org/1999/xlink" overflow="hidden"><defs><clipPath id="clip0"><rect x="269" y="425" width="438" height="187"/></clipPath></defs><g clip-path="url(#clip0)" transform="translate(-269 -425)"><path d="M349.14 450.287 390.86 492.713M390.86 450.287 349.14 492.713" stroke="#000000" stroke-width="1.33333" stroke-miterlimit="8" fill="none" fill-rule="evenodd"/><path d="M340.5 471.5C340.5 454.932 353.708 441.5 370 441.5 386.292 441.5 399.5 454.932 399.5 471.5 399.5 488.069 386.292 501.5 370 501.5 353.708 501.5 340.5 488.069 340.5 471.5Z" stroke="#000000" stroke-width="1.33333" stroke-miterlimit="8" fill="none" fill-rule="evenodd"/><rect x="444.5" y="441.5" width="113" height="60" stroke="#000000" stroke-width="1.33333" stroke-miterlimit="8" fill="none"/><text font-family="Times New Roman,Times New Roman_MSFontService,sans-serif" font-weight="400" font-size="24" transform="translate(491.838 480)">A</text><path d="M399.5 471.167 437.571 471.167 437.571 471.833 399.5 471.833ZM436.238 467.5 444.238 471.5 436.238 475.5Z"/><rect x="444.5" y="551.5" width="113" height="60" stroke="#000000" stroke-width="1.33333" stroke-miterlimit="8" fill="none"/><text font-family="Times New Roman,Times New Roman_MSFontService,sans-serif" font-weight="400" font-size="24" transform="translate(492.505 590)">B</text><path d="M557.504 471.167 691.575 472.59 691.568 473.256 557.497 471.833ZM690.281 468.909 698.238 472.994 690.196 476.909Z"/><path d="M269.5 471.167 333.668 471.167 333.668 471.833 269.5 471.833ZM332.335 467.5 340.335 471.5 332.335 475.5Z"/><path d="M640.474 473.5 640.474 582.32 564.167 582.32 564.167 581.653 640.141 581.653 639.808 581.986 639.808 473.5ZM565.5 585.986 557.5 581.986 565.5 577.986Z"/><path d="M444.597 581.988 370.167 581.988 370.167 508.167 370.833 508.167 370.833 581.655 370.5 581.322 444.597 581.322ZM366.5 509.5 370.5 501.5 374.5 509.5Z"/><text font-family="Times New Roman,Times New Roman_MSFontService,sans-serif" font-weight="400" font-size="24" transform="translate(393.6 568)">u</text><text font-family="Times New Roman,Times New Roman_MSFontService,sans-serif" font-weight="400" font-size="15" transform="translate(405.6 568)">m</text><text font-family="Times New Roman,Times New Roman_MSFontService,sans-serif" font-weight="400" font-size="24" transform="translate(416.933 568)">(t</text><text font-family="Times New Roman,Times New Roman_MSFontService,sans-serif" font-weight="400" font-size="24" transform="translate(431.6 568)">)</text><text font-family="Times New Roman,Times New Roman_MSFontService,sans-serif" font-weight="400" font-size="24" transform="translate(621.949 460)">S</text><text font-family="Times New Roman,Times New Roman_MSFontService,sans-serif" font-weight="400" font-size="24" transform="translate(635.283 460)">(t</text><text font-family="Times New Roman,Times New Roman_MSFontService,sans-serif" font-weight="400" font-size="24" transform="translate(649.949 460)">)</text><text font-family="Times New Roman,Times New Roman_MSFontService,sans-serif" font-weight="400" font-size="24" transform="translate(403.385 456)">ε</text><text font-family="Times New Roman,Times New Roman_MSFontService,sans-serif" font-weight="400" font-size="24" transform="translate(413.385 456)">(t</text><text font-family="Times New Roman,Times New Roman_MSFontService,sans-serif" font-weight="400" font-size="24" transform="translate(428.052 456)">)</text><text font-family="Times New Roman,Times New Roman_MSFontService,sans-serif" font-weight="400" font-size="24" transform="translate(285.017 460)">E(t</text><text font-family="Times New Roman,Times New Roman_MSFontService,sans-serif" font-weight="400" font-size="24" transform="translate(314.351 460)">)</text></g></svg>