<svg width="996" height="232" xmlns="http://www.w3.org/2000/svg" xmlns:xlink="http://www.w3.org/1999/xlink" overflow="hidden"><defs><clipPath id="clip0"><rect x="100" y="129" width="996" height="232"/></clipPath></defs><g clip-path="url(#clip0)" transform="translate(-100 -129)"><path d="M349.14 198.287 390.86 240.713M390.86 198.287 349.14 240.713" stroke="#000000" stroke-width="1.33333" stroke-miterlimit="8" fill="none" fill-rule="evenodd"/><path d="M340.5 219.5C340.5 202.932 353.708 189.5 370 189.5 386.292 189.5 399.5 202.932 399.5 219.5 399.5 236.069 386.292 249.5 370 249.5 353.708 249.5 340.5 236.069 340.5 219.5Z" stroke="#000000" stroke-width="1.33333" stroke-miterlimit="8" fill="none" fill-rule="evenodd"/><rect x="444.5" y="189.5" width="113" height="60" stroke="#000000" stroke-width="1.33333" stroke-miterlimit="8" fill="none"/><text font-family="Times New Roman,Times New Roman_MSFontService,sans-serif" font-weight="400" font-size="24" transform="translate(487.838 228)">H</text><text font-family="Times New Roman,Times New Roman_MSFontService,sans-serif" font-weight="400" font-size="16" transform="translate(505.171 228)">1</text><path d="M399.5 219.167 437.571 219.167 437.571 219.833 399.5 219.833ZM436.238 215.5 444.238 219.5 436.238 223.5Z"/><rect x="602.5" y="189.5" width="114" height="60" stroke="#000000" stroke-width="1.33333" stroke-miterlimit="8" fill="none"/><text font-family="Times New Roman,Times New Roman_MSFontService,sans-serif" font-weight="400" font-size="24" transform="translate(646.284 228)">H</text><text font-family="Times New Roman,Times New Roman_MSFontService,sans-serif" font-weight="400" font-size="16" transform="translate(663.618 228)">2</text><path d="M557.5 219.167 595.571 219.167 595.571 219.833 557.5 219.833ZM594.238 215.5 602.238 219.5 594.238 223.5Z"/><path d="M777.14 198.287 818.86 240.713M818.86 198.287 777.14 240.713" stroke="#000000" stroke-width="1.33333" stroke-miterlimit="8" fill="none" fill-rule="evenodd"/><path d="M768.5 219.5C768.5 202.932 781.708 189.5 798 189.5 814.292 189.5 827.5 202.932 827.5 219.5 827.5 236.069 814.292 249.5 798 249.5 781.708 249.5 768.5 236.069 768.5 219.5Z" stroke="#000000" stroke-width="1.33333" stroke-miterlimit="8" fill="none" fill-rule="evenodd"/><path d="M716.5 219.167 762.027 219.167 762.027 219.833 716.5 219.833ZM760.694 215.5 768.694 219.5 760.694 223.5Z"/><path d="M797.833 130.5 797.833 183.484 797.167 183.484 797.167 130.5ZM801.5 182.151 797.5 190.151 793.5 182.151Z"/><path d="M827.5 219.167 869.3 219.167 869.3 219.833 827.5 219.833ZM867.967 215.5 875.966 219.5 867.966 223.5Z"/><rect x="875.5" y="189.5" width="114" height="60" stroke="#000000" stroke-width="1.33333" stroke-miterlimit="8" fill="none"/><text font-family="Times New Roman,Times New Roman_MSFontService,sans-serif" font-weight="400" font-size="24" transform="translate(919.372 228)">H</text><text font-family="Times New Roman,Times New Roman_MSFontService,sans-serif" font-weight="400" font-size="16" transform="translate(936.706 228)">3</text><rect x="602.5" y="300.5" width="114" height="60" stroke="#000000" stroke-width="1.33333" stroke-miterlimit="8" fill="none"/><text font-family="Times New Roman,Times New Roman_MSFontService,sans-serif" font-weight="400" font-size="24" transform="translate(646.618 339)">H</text><text font-family="Times New Roman,Times New Roman_MSFontService,sans-serif" font-weight="400" font-size="15" transform="translate(663.951 339)">4</text><rect x="174.5" y="189.5" width="114" height="60" stroke="#000000" stroke-width="1.33333" stroke-miterlimit="8" fill="none"/><text font-family="Times New Roman,Times New Roman_MSFontService,sans-serif" font-weight="400" font-size="24" transform="translate(222.48 228)">A</text><path d="M989.5 219.167 1080.7 219.167 1080.7 219.833 989.5 219.833ZM1079.36 215.5 1087.36 219.5 1079.36 223.5Z"/><path d="M288.5 219.167 334.027 219.167 334.027 219.833 288.5 219.833ZM332.694 215.5 340.694 219.5 332.694 223.5Z"/><path d="M933.067 249.5 933.067 331.154 723.166 331.154 723.166 330.487 932.733 330.487 932.4 330.82 932.4 249.5ZM724.5 334.82 716.5 330.82 724.5 326.82Z"/><path d="M603.043 331.154 370.167 331.154 370.167 256.167 370.833 256.167 370.833 330.82 370.5 330.487 603.043 330.487ZM366.5 257.5 370.5 249.5 374.5 257.5Z"/><path d="M101.5 219.167 168.465 219.167 168.465 219.833 101.5 219.833ZM167.132 215.5 175.132 219.5 167.132 223.5Z"/><text font-family="Times New Roman,Times New Roman_MSFontService,sans-serif" font-weight="400" font-size="24" transform="translate(120.048 247)">E(t</text><text font-family="Times New Roman,Times New Roman_MSFontService,sans-serif" font-weight="400" font-size="24" transform="translate(149.381 247)">)</text><text font-family="Times New Roman,Times New Roman_MSFontService,sans-serif" font-weight="400" font-size="24" transform="translate(1018.07 248)">S</text><text font-family="Times New Roman,Times New Roman_MSFontService,sans-serif" font-weight="400" font-size="24" transform="translate(1031.4 248)">(t</text><text font-family="Times New Roman,Times New Roman_MSFontService,sans-serif" font-weight="400" font-size="24" transform="translate(1046.07 248)">)</text><text font-family="Times New Roman,Times New Roman_MSFontService,sans-serif" font-weight="400" font-size="24" transform="translate(808.59 168)">P(t</text><text font-family="Times New Roman,Times New Roman_MSFontService,sans-serif" font-weight="400" font-size="24" transform="translate(836.59 168)">)</text></g></svg>