<?xml version='1.0' encoding='UTF-8' standalone='no'?>
<svg viewBox="0 0 284 211" xmlns:xlink="http://www.w3.org/1999/xlink" width="284pt" height="211pt" xmlns="http://www.w3.org/2000/svg">
 <title>gl2ps_renderer figure</title>
 <desc>
Creator: GL2PS 1.4.2, (C) 1999-2020 C. Geuzaine
For: Octave
CreationDate: Thu Mar 23 22:44:18 2023
</desc>
 <defs/>
 <polygon points="0,0 284,0 284,211 0,211" fill="#ffffff"/>
 <g>
  <polygon points="0,211 284,211 284,0 0,0" shape-rendering="crispEdges" fill="#ffffff"/>
  <clipPath id="cp00284211">
   <polygon points="0,211 284,211 284,0 0,0"/>
  </clipPath>
  <g clip-path="url(#cp00284211)">
   <polygon points="37.0209,181.54 257.723,181.54 257.723,22 37.0209,22" shape-rendering="crispEdges" fill="#ffffff"/>
   <polyline stroke-linecap="butt" stroke-opacity="0.15" stroke-width="0.5" points="82.1683,181.54 82.1683,22" stroke="#262626" stroke-linejoin="miter" stroke-dasharray="16,0" fill="none"/>
   <polyline stroke-linecap="butt" stroke-opacity="0.15" stroke-width="0.5" points="137.35,181.54 137.35,22" stroke="#262626" stroke-linejoin="miter" stroke-dasharray="16,0" fill="none"/>
   <polyline stroke-linecap="butt" stroke-opacity="0.15" stroke-width="0.5" points="192.531,181.54 192.531,22" stroke="#262626" stroke-linejoin="miter" stroke-dasharray="16,0" fill="none"/>
   <polyline stroke-linecap="butt" stroke-opacity="0.15" stroke-width="0.5" points="247.713,181.54 247.713,22" stroke="#262626" stroke-linejoin="miter" stroke-dasharray="16,0" fill="none"/>
   <polyline stroke-linecap="butt" stroke-width="0.5" points="82.1683,181.54 82.1683,179.339" stroke="#262626" stroke-linejoin="miter" fill="none"/>
   <polyline stroke-linecap="butt" stroke-width="0.5" points="82.1683,22 82.1683,24.2007" stroke="#262626" stroke-linejoin="miter" fill="none"/>
   <polyline stroke-linecap="butt" stroke-width="0.5" points="137.35,181.54 137.35,179.339" stroke="#262626" stroke-linejoin="miter" fill="none"/>
   <polyline stroke-linecap="butt" stroke-width="0.5" points="137.35,22 137.35,24.2007" stroke="#262626" stroke-linejoin="miter" fill="none"/>
   <polyline stroke-linecap="butt" stroke-width="0.5" points="192.531,181.54 192.531,179.339" stroke="#262626" stroke-linejoin="miter" fill="none"/>
   <polyline stroke-linecap="butt" stroke-width="0.5" points="192.531,22 192.531,24.2007" stroke="#262626" stroke-linejoin="miter" fill="none"/>
   <polyline stroke-linecap="butt" stroke-width="0.5" points="247.713,181.54 247.713,179.339" stroke="#262626" stroke-linejoin="miter" fill="none"/>
   <polyline stroke-linecap="butt" stroke-width="0.5" points="247.713,22 247.713,24.2007" stroke="#262626" stroke-linejoin="miter" fill="none"/>
   <text transform="translate(77.6683,197.018) rotate(-0,4.5,-8)" font-size="10" font-family="FreeSans" font-weight="normal" font-style="normal" xml:space="preserve">
    <tspan x="0 3 " y="-0" fill="rgb(38,38,38)">-3</tspan>
   </text>
   <text transform="translate(132.85,197.018) rotate(-0,4.5,-8)" font-size="10" font-family="FreeSans" font-weight="normal" font-style="normal" xml:space="preserve">
    <tspan x="0 3 " y="-0" fill="rgb(38,38,38)">-2</tspan>
   </text>
   <text transform="translate(188.031,197.018) rotate(-0,4.5,-8)" font-size="10" font-family="FreeSans" font-weight="normal" font-style="normal" xml:space="preserve">
    <tspan x="0 3 " y="-0" fill="rgb(38,38,38)">-1</tspan>
   </text>
   <text transform="translate(244.713,197.018) rotate(-0,3,-8)" font-size="10" font-family="FreeSans" font-weight="normal" font-style="normal" xml:space="preserve">
    <tspan x="0 " y="-0" fill="rgb(38,38,38)">0</tspan>
   </text>
   <polyline stroke-linecap="butt" stroke-opacity="0.15" stroke-width="0.5" points="37.0209,157.826 257.723,157.826" stroke="#262626" stroke-linejoin="miter" stroke-dasharray="16,0" fill="none"/>
   <polyline stroke-linecap="butt" stroke-opacity="0.15" stroke-width="0.5" points="37.0209,129.798 257.723,129.798" stroke="#262626" stroke-linejoin="miter" stroke-dasharray="16,0" fill="none"/>
   <polyline stroke-linecap="butt" stroke-opacity="0.15" stroke-width="0.5" points="37.0209,101.77 257.723,101.77" stroke="#262626" stroke-linejoin="miter" stroke-dasharray="16,0" fill="none"/>
   <polyline stroke-linecap="butt" stroke-opacity="0.15" stroke-width="0.5" points="37.0209,73.7416 257.723,73.7416" stroke="#262626" stroke-linejoin="miter" stroke-dasharray="16,0" fill="none"/>
   <polyline stroke-linecap="butt" stroke-opacity="0.15" stroke-width="0.5" points="37.0209,45.7133 257.723,45.7133" stroke="#262626" stroke-linejoin="miter" stroke-dasharray="16,0" fill="none"/>
   <polyline stroke-linecap="butt" stroke-width="0.5" points="37.0209,157.826 39.225,157.826" stroke="#262626" stroke-linejoin="miter" fill="none"/>
   <polyline stroke-linecap="butt" stroke-width="0.5" points="257.723,157.826 255.519,157.826" stroke="#262626" stroke-linejoin="miter" fill="none"/>
   <polyline stroke-linecap="butt" stroke-width="0.5" points="37.0209,129.798 39.225,129.798" stroke="#262626" stroke-linejoin="miter" fill="none"/>
   <polyline stroke-linecap="butt" stroke-width="0.5" points="257.723,129.798 255.519,129.798" stroke="#262626" stroke-linejoin="miter" fill="none"/>
   <polyline stroke-linecap="butt" stroke-width="0.5" points="37.0209,101.77 39.225,101.77" stroke="#262626" stroke-linejoin="miter" fill="none"/>
   <polyline stroke-linecap="butt" stroke-width="0.5" points="257.723,101.77 255.519,101.77" stroke="#262626" stroke-linejoin="miter" fill="none"/>
   <polyline stroke-linecap="butt" stroke-width="0.5" points="37.0209,73.7416 39.225,73.7416" stroke="#262626" stroke-linejoin="miter" fill="none"/>
   <polyline stroke-linecap="butt" stroke-width="0.5" points="257.723,73.7416 255.519,73.7416" stroke="#262626" stroke-linejoin="miter" fill="none"/>
   <polyline stroke-linecap="butt" stroke-width="0.5" points="37.0209,45.7133 39.225,45.7133" stroke="#262626" stroke-linejoin="miter" fill="none"/>
   <polyline stroke-linecap="butt" stroke-width="0.5" points="257.723,45.7133 255.519,45.7133" stroke="#262626" stroke-linejoin="miter" fill="none"/>
   <text transform="translate(23.0277,161.826) rotate(-0,9,-4)" font-size="10" font-family="FreeSans" font-weight="normal" font-style="normal" xml:space="preserve">
    <tspan x="0 3 " y="-0" fill="rgb(38,38,38)">-4</tspan>
   </text>
   <text transform="translate(23.0277,133.798) rotate(-0,9,-4)" font-size="10" font-family="FreeSans" font-weight="normal" font-style="normal" xml:space="preserve">
    <tspan x="0 3 " y="-0" fill="rgb(38,38,38)">-2</tspan>
   </text>
   <text transform="translate(26.0277,105.77) rotate(-0,6,-4)" font-size="10" font-family="FreeSans" font-weight="normal" font-style="normal" xml:space="preserve">
    <tspan x="0 " y="-0" fill="rgb(38,38,38)">0</tspan>
   </text>
   <text transform="translate(26.0277,77.7416) rotate(-0,6,-4)" font-size="10" font-family="FreeSans" font-weight="normal" font-style="normal" xml:space="preserve">
    <tspan x="0 " y="-0" fill="rgb(38,38,38)">2</tspan>
   </text>
   <text transform="translate(26.0277,49.7133) rotate(-0,6,-4)" font-size="10" font-family="FreeSans" font-weight="normal" font-style="normal" xml:space="preserve">
    <tspan x="0 " y="-0" fill="rgb(38,38,38)">4</tspan>
   </text>
   <polyline stroke-linecap="square" stroke-width="0.5" points="37.0209,181.54 257.723,181.54" stroke="#262626" stroke-linejoin="miter" stroke-dasharray="16,0" fill="none"/>
   <polyline stroke-linecap="square" stroke-width="0.5" points="37.0209,22 257.723,22" stroke="#262626" stroke-linejoin="miter" stroke-dasharray="16,0" fill="none"/>
   <polyline stroke-linecap="square" stroke-width="0.5" points="37.0209,181.54 37.0209,22" stroke="#262626" stroke-linejoin="miter" stroke-dasharray="16,0" fill="none"/>
   <polyline stroke-linecap="square" stroke-width="0.5" points="257.723,181.54 257.723,22" stroke="#262626" stroke-linejoin="miter" stroke-dasharray="16,0" fill="none"/>
   <text transform="translate(103.372,12) rotate(-0,44,0)" font-size="11" font-family="FreeSans" font-weight="bold" font-style="normal" xml:space="preserve">
    <tspan x="0 8 14 21 28 31 37 41 44 52 55 61 68 72 78 " y="-3" fill="rgb(0,0,0)">Nyquist Diagram</tspan>
   </text>
   <text transform="translate(-16.4723,101.77) rotate(-90,34.5,0)" font-size="11" font-family="FreeSans" font-weight="normal" font-style="normal" xml:space="preserve">
    <tspan x="0 3 12 18 24 26 32 38 42 47 50 57 62 64 " y="-2" fill="rgb(38,38,38)">Imaginary Axis</tspan>
   </text>
   <text transform="translate(125.372,211.018) rotate(-0,22,-9)" font-size="11" font-family="FreeSans" font-weight="normal" font-style="normal" xml:space="preserve">
    <tspan x="0 8 14 20 22 25 32 37 39 " y="-0" fill="rgb(38,38,38)">Real Axis</tspan>
   </text>
   <polyline stroke-linecap="butt" stroke-width="0.5" points="47.0528,29.2518 47.4777,30.4209 47.9106,31.579 48.3517,32.7262 48.8011,33.8628 49.2588,34.9887 49.7251,36.1041 50.2,37.209 50.6837,38.3037 51.1761,39.3882 51.6776,40.4625 52.1881,41.5268 52.7077,42.5811 53.2367,43.6257 53.775,44.6604 54.3228,45.6855 54.8802,46.701 55.4473,47.7069 56.0242,48.7034 56.6109,49.6906 57.2077,50.6684 57.8146,51.6371 58.4316,52.5965 59.0589,53.5469 59.6965,54.4883 60.3446,55.4206 61.0032,56.3441 61.6724,57.2587 62.3522,58.1645 63.0428,59.0616 63.7442,59.95 64.4565,60.8297 65.1797,61.7008 65.9139,62.5633 66.6592,63.4174 67.4156,64.2629 68.1831,65.1 68.9618,65.9287 69.7516,66.749 70.5528,67.561 71.3652,68.3646 72.1889,69.16 73.0238,69.9471 73.8701,70.7259 74.7277,71.4966 75.5966,72.259 76.4768,73.0133 77.3682,73.7594 78.2709,74.4974 79.1848,75.2273 80.1099,75.949 81.0462,76.6627 81.9935,77.3682 82.9518,78.0657 83.9211,78.7551 84.9013,79.4365 85.8923,80.1098 86.894,80.775 87.9063,81.4323 88.9292,82.0814 89.9625,82.7226 91.006,83.3557 92.0597,83.9808 93.1235,84.5978 94.1971,85.2068 95.2804,85.8079 96.3733,86.4009 97.4756,86.9858 98.5872,87.5628 99.7077,88.1318 100.837,88.6927 101.975,89.2456 103.122,89.7905 104.277,90.3275 105.439,90.8564 106.61,91.3773 107.788,91.8902 108.973,92.3952 110.166,92.8921 111.365,93.3811 112.571,93.8621 113.783,94.3352 115.001,94.8003 116.225,95.2575 117.454,95.7068 118.688,96.1482 119.927,96.5816 121.171,97.0072 122.419,97.425 123.671,97.8349 124.926,98.237 126.184,98.6313 127.446,99.0179 128.71,99.3967 129.977,99.7678 131.245,100.131 132.515,100.487 133.786,100.835 135.058,101.176 136.331,101.509 137.35,101.77 137.604,101.834 138.878,102.153 140.15,102.463 141.422,102.767 142.693,103.063 143.962,103.351 145.23,103.633 146.495,103.907 147.759,104.175 149.019,104.435 150.276,104.688 151.53,104.935 152.78,105.174 154.027,105.407 155.269,105.633 156.506,105.852 157.738,106.065 158.965,106.271 160.187,106.471 161.402,106.665 162.612,106.852 163.815,107.033 165.012,107.208 166.201,107.377 167.384,107.539 168.559,107.696 169.726,107.848 170.886,107.993 172.037,108.133 173.181,108.267 174.315,108.396 175.441,108.52 176.558,108.638 177.666,108.751 178.765,108.859 179.854,108.962 180.933,109.06 182.003,109.153 183.063,109.242 184.112,109.326 185.152,109.405 186.181,109.48 187.199,109.55 188.208,109.617 189.205,109.679 190.192,109.737 191.168,109.791 192.132,109.841 193.086,109.888 194.029,109.93 194.961,109.969 195.882,110.005 196.791,110.037 197.689,110.065 198.576,110.091 199.452,110.113 200.316,110.132 201.169,110.148 202.011,110.161 202.842,110.172 203.661,110.179 204.469,110.184 205.265,110.186 206.051,110.186 206.825,110.183 207.588,110.178 208.34,110.17 209.081,110.161 209.811,110.149 210.529,110.135 211.237,110.119 211.934,110.101 212.621,110.081 213.296,110.06 213.961,110.036 214.616,110.011 215.259,109.985 215.893,109.957 216.516,109.927 217.129,109.896 217.732,109.863 218.325,109.829 218.907,109.794 219.48,109.758 220.044,109.721 220.597,109.682 221.141,109.642 221.676,109.602 222.201,109.56 222.717,109.518 223.224,109.474 223.722,109.43 224.21,109.385 224.691,109.339 225.162,109.293 225.625,109.246 226.079,109.198 226.525,109.15 226.963,109.101 227.393,109.052 227.815,109.002 228.228,108.951 228.634,108.901 229.033,108.85 229.423,108.798 229.807,108.747 230.183,108.695 230.551,108.643 230.913,108.59 231.268,108.537 231.615,108.485 231.956,108.432 232.291,108.378 232.618,108.325 232.939,108.272 233.254,108.218 233.563,108.165 233.865,108.111 234.162,108.058 234.452,108.005 234.737,107.951 235.016,107.898 235.289,107.844 235.557,107.791 235.819,107.738 236.076,107.685 236.328,107.632 236.575,107.579 236.816,107.526 237.053,107.474 237.284,107.422 237.511,107.37 237.733,107.318 237.951,107.266 238.164,107.214 238.372,107.163 238.577,107.112 238.777,107.061 238.972,107.01 239.164,106.96 239.352,106.91 239.535,106.86 239.715,106.811 239.891,106.761 240.063,106.712 240.232,106.664 240.397,106.615 240.558,106.567 240.716,106.52 240.871,106.472 241.022,106.425 241.17,106.378 241.315,106.332 241.457,106.286 241.596,106.24 241.731,106.194 241.864,106.149 241.994,106.104 242.121,106.06 242.246,106.015 242.367,105.972 242.486,105.928 242.603,105.885 242.717,105.842 242.828,105.8 242.937,105.758 243.044,105.716 243.148,105.674 243.25,105.633 243.35,105.593 243.447,105.552 243.543,105.512 243.636,105.473 243.727,105.433 243.817,105.394 243.904,105.356 243.989,105.317 244.073,105.279 244.155,105.242 244.235,105.205 244.313,105.168 244.389,105.131 244.464,105.095 244.537,105.059 244.608,105.023 244.678,104.988 244.746,104.953 244.813,104.919 244.878,104.885 244.942,104.851 245.005,104.817 245.066,104.784 245.125,104.751 245.184,104.718 245.241,104.686 245.296,104.654 245.351,104.622 245.404,104.591 245.456,104.56 245.507,104.529 245.557,104.499 245.606,104.469 245.653,104.439 245.7,104.41 245.746,104.38 245.79,104.352 245.833,104.323 245.876,104.295 245.918,104.267 245.958,104.239 245.998,104.212 246.037,104.184 246.075,104.158 246.112,104.131 246.148,104.105 246.183,104.079 246.218,104.053 246.252,104.027 246.285,104.002 246.317,103.977 246.349,103.953 246.38,103.928 246.41,103.904 246.44,103.88 246.469,103.856 246.497,103.833 246.524,103.81 246.551,103.787 246.578,103.764 246.603,103.742 246.629,103.72 246.653,103.698 246.677,103.676 246.701,103.655 246.724,103.633 246.746,103.612 246.768,103.592 246.79,103.571 246.811,103.551 246.831,103.531 246.851,103.511 246.871,103.491 246.89,103.472 246.909,103.453 246.927,103.433 246.945,103.415 246.962,103.396 246.979,103.378 246.996,103.359 247.012,103.341 247.028,103.324 247.044,103.306 247.059,103.289 247.074,103.271 247.088,103.254 247.103,103.238 247.116,103.221 247.13,103.204 247.143,103.188 247.156,103.172 247.169,103.156 247.181,103.14 247.193,103.125 247.205,103.109 247.217,103.094 247.228,103.079 247.239,103.064 247.25,103.05 247.26,103.035 247.271,103.021 247.281,103.006 247.291,102.992 247.3,102.978 247.31,102.965 247.319,102.951 247.328,102.938 247.337,102.924 247.345,102.911 247.353,102.898 247.362,102.885 247.37,102.873 247.377,102.86 247.385,102.848 247.393,102.835 247.4,102.823 247.407,102.811 247.414,102.799 247.421,102.787 247.427,102.776 247.434,102.764 247.44,102.753 247.446,102.742 247.453,102.731 247.458,102.72 247.464,102.709 247.47,102.698 247.475,102.688 247.481,102.677 247.486,102.667 247.491,102.656 247.496,102.646 247.501,102.636 247.506,102.626 247.511,102.617 247.515,102.607 247.52,102.597 247.524,102.588 247.529,102.579 247.533,102.569 247.537,102.56 247.541,102.551 247.545,102.542 247.549,102.533 247.552,102.525 247.556,102.516 247.56,102.508 247.563,102.499 247.567,102.491 247.57,102.482 247.573,102.474 247.576,102.466 247.579,102.458 247.582,102.45 247.585,102.443 247.588,102.435 247.591,102.427 247.594,102.42 247.597,102.412 247.599,102.405 247.602,102.398 247.604,102.391 247.607,102.383 247.609,102.376 247.612,102.369 247.614,102.363 247.616,102.356 247.618,102.349 247.621,102.343 247.623,102.336 247.625,102.329 247.627,102.323 247.629,102.317 247.631,102.31 247.633,102.304 247.634,102.298 247.636,102.292 247.638,102.286 247.64,102.28 247.641,102.274 247.643,102.269 247.644,102.263 247.646,102.257 247.648,102.252 247.649,102.246 247.651,102.241 247.652,102.235 247.653,102.23 247.655,102.225 247.656,102.219 247.657,102.214 247.659,102.209 247.66,102.204 247.661,102.199 247.662,102.194 247.663,102.189 247.664,102.185 247.666,102.18 247.667,102.175 247.668,102.171 247.669,102.166 247.67,102.161 247.671,102.157 247.672,102.152 247.673,102.148 247.674,102.144 247.674,102.139 247.675,102.135 247.676,102.131 247.677,102.127 247.678,102.123 247.679,102.119 247.679,102.115 247.68,102.111 247.681,102.107 247.682,102.103 247.682,102.099 247.683,102.095 247.684,102.092 247.684,102.088 247.685,102.084 247.686,102.081 247.686,102.077 247.687,102.074 247.687,102.07 247.688,102.067 247.689,102.063 247.689,102.06 247.69,102.057 247.69,102.053 247.691,102.05" stroke="#0071bc" stroke-linejoin="round" fill="none"/>
   <polyline stroke-linecap="butt" stroke-width="0.5" points="47.0528,174.288 47.4777,173.119 47.9106,171.961 48.3517,170.814 48.8011,169.677 49.2588,168.551 49.7251,167.436 50.2,166.331 50.6837,165.236 51.1761,164.152 51.6776,163.077 52.1881,162.013 52.7077,160.959 53.2367,159.914 53.775,158.879 54.3228,157.854 54.8802,156.839 55.4473,155.833 56.0242,154.836 56.6109,153.849 57.2077,152.871 57.8146,151.903 58.4316,150.943 59.0589,149.993 59.6965,149.052 60.3446,148.119 61.0032,147.196 61.6724,146.281 62.3522,145.375 63.0428,144.478 63.7442,143.59 64.4565,142.71 65.1797,141.839 65.9139,140.976 66.6592,140.122 67.4156,139.277 68.1831,138.44 68.9618,137.611 69.7516,136.791 70.5528,135.979 71.3652,135.175 72.1889,134.38 73.0238,133.593 73.8701,132.814 74.7277,132.043 75.5966,131.281 76.4768,130.526 77.3682,129.78 78.2709,129.042 79.1848,128.313 80.1099,127.591 81.0462,126.877 81.9935,126.172 82.9518,125.474 83.9211,124.785 84.9013,124.103 85.8923,123.43 86.894,122.765 87.9063,122.108 88.9292,121.458 89.9625,120.817 91.006,120.184 92.0597,119.559 93.1235,118.942 94.1971,118.333 95.2804,117.732 96.3733,117.139 97.4756,116.554 98.5872,115.977 99.7077,115.408 100.837,114.847 101.975,114.294 103.122,113.749 104.277,113.212 105.439,112.683 106.61,112.162 107.788,111.65 108.973,111.145 110.166,110.648 111.365,110.159 112.571,109.678 113.783,109.205 115.001,108.739 116.225,108.282 117.454,107.833 118.688,107.392 119.927,106.958 121.171,106.533 122.419,106.115 123.671,105.705 124.926,105.303 126.184,104.908 127.446,104.522 128.71,104.143 129.977,103.772 131.245,103.409 132.515,103.053 133.786,102.705 135.058,102.364 136.331,102.031 137.35,101.77 137.604,101.705 138.878,101.387 140.15,101.077 141.422,100.773 142.693,100.477 143.962,100.188 145.23,99.9068 146.495,99.6324 147.759,99.365 149.019,99.1048 150.276,98.8515 151.53,98.6051 152.78,98.3655 154.027,98.1328 155.269,97.9068 156.506,97.6874 157.738,97.4746 158.965,97.2684 160.187,97.0685 161.402,96.8751 162.612,96.6879 163.815,96.5069 165.012,96.332 166.201,96.1632 167.384,96.0003 168.559,95.8434 169.726,95.6922 170.886,95.5467 172.037,95.4069 173.181,95.2725 174.315,95.1437 175.441,95.0202 176.558,94.9019 177.666,94.7889 178.765,94.6809 179.854,94.5779 180.933,94.4798 182.003,94.3866 183.063,94.298 184.112,94.2141 185.152,94.1348 186.181,94.0599 187.199,93.9893 188.208,93.923 189.205,93.8609 190.192,93.8028 191.168,93.7488 192.132,93.6986 193.086,93.6522 194.029,93.6096 194.961,93.5706 195.882,93.5351 196.791,93.5031 197.689,93.4744 198.576,93.449 199.452,93.4268 200.316,93.4077 201.169,93.3916 202.011,93.3785 202.842,93.3682 203.661,93.3607 204.469,93.3559 205.265,93.3537 206.051,93.354 206.825,93.3567 207.588,93.3619 208.34,93.3694 209.081,93.3791 209.811,93.3909 210.529,93.4048 211.237,93.4208 211.934,93.4387 212.621,93.4585 213.296,93.48 213.961,93.5034 214.616,93.5284 215.259,93.555 215.893,93.5832 216.516,93.6129 217.129,93.644 217.732,93.6766 218.325,93.7104 218.907,93.7455 219.48,93.7818 220.044,93.8193 220.597,93.8578 221.141,93.8975 221.676,93.9381 222.201,93.9797 222.717,94.0223 223.224,94.0657 223.722,94.1099 224.21,94.1549 224.691,94.2006 225.162,94.247 225.625,94.2941 226.079,94.3418 226.525,94.3901 226.963,94.4389 227.393,94.4883 227.815,94.5381 228.228,94.5883 228.634,94.639 229.033,94.69 229.423,94.7414 229.807,94.7931 230.183,94.845 230.551,94.8973 230.913,94.9498 231.268,95.0024 231.615,95.0553 231.956,95.1083 232.291,95.1614 232.618,95.2147 232.939,95.268 233.254,95.3214 233.563,95.3749 233.865,95.4283 234.162,95.4818 234.452,95.5353 234.737,95.5887 235.016,95.6421 235.289,95.6955 235.557,95.7487 235.819,95.8019 236.076,95.8549 236.328,95.9079 236.575,95.9607 236.816,96.0133 237.053,96.0658 237.284,96.1181 237.511,96.1703 237.733,96.2222 237.951,96.274 238.164,96.3255 238.372,96.3768 238.577,96.4279 238.777,96.4787 238.972,96.5293 239.164,96.5797 239.352,96.6298 239.535,96.6796 239.715,96.7291 239.891,96.7783 240.063,96.8273 240.232,96.876 240.397,96.9244 240.558,96.9724 240.716,97.0202 240.871,97.0676 241.022,97.1148 241.17,97.1616 241.315,97.2081 241.457,97.2543 241.596,97.3001 241.731,97.3456 241.864,97.3908 241.994,97.4357 242.121,97.4802 242.246,97.5243 242.367,97.5682 242.486,97.6116 242.603,97.6548 242.717,97.6976 242.828,97.74 242.937,97.7821 243.044,97.8239 243.148,97.8653 243.25,97.9064 243.35,97.9471 243.447,97.9874 243.543,98.0275 243.636,98.0671 243.727,98.1065 243.817,98.1454 243.904,98.1841 243.989,98.2224 244.073,98.2603 244.155,98.2979 244.235,98.3352 244.313,98.3721 244.389,98.4087 244.464,98.4449 244.537,98.4808 244.608,98.5163 244.678,98.5516 244.746,98.5865 244.813,98.621 244.878,98.6552 244.942,98.6891 245.005,98.7227 245.066,98.7559 245.125,98.7889 245.184,98.8215 245.241,98.8537 245.296,98.8857 245.351,98.9173 245.404,98.9487 245.456,98.9797 245.507,99.0104 245.557,99.0408 245.606,99.0709 245.653,99.1006 245.7,99.1301 245.746,99.1593 245.79,99.1882 245.833,99.2168 245.876,99.2451 245.918,99.2731 245.958,99.3008 245.998,99.3282 246.037,99.3554 246.075,99.3822 246.112,99.4088 246.148,99.4351 246.183,99.4611 246.218,99.4869 246.252,99.5124 246.285,99.5376 246.317,99.5625 246.349,99.5872 246.38,99.6116 246.41,99.6358 246.44,99.6597 246.469,99.6834 246.497,99.7068 246.524,99.7299 246.551,99.7528 246.578,99.7755 246.603,99.7979 246.629,99.82 246.653,99.842 246.677,99.8637 246.701,99.8851 246.724,99.9063 246.746,99.9273 246.768,99.9481 246.79,99.9687 246.811,99.989 246.831,100.009 246.851,100.029 246.871,100.049 246.89,100.068 246.909,100.087 246.927,100.106 246.945,100.125 246.962,100.144 246.979,100.162 246.996,100.18 247.012,100.198 247.028,100.216 247.044,100.234 247.059,100.251 247.074,100.268 247.088,100.285 247.103,100.302 247.116,100.319 247.13,100.335 247.143,100.352 247.156,100.368 247.169,100.384 247.181,100.399 247.193,100.415 247.205,100.43 247.217,100.446 247.228,100.461 247.239,100.476 247.25,100.49 247.26,100.505 247.271,100.519 247.281,100.533 247.291,100.548 247.3,100.561 247.31,100.575 247.319,100.589 247.328,100.602 247.337,100.616 247.345,100.629 247.353,100.642 247.362,100.655 247.37,100.667 247.377,100.68 247.385,100.692 247.393,100.705 247.4,100.717 247.407,100.729 247.414,100.741 247.421,100.752 247.427,100.764 247.434,100.775 247.44,100.787 247.446,100.798 247.453,100.809 247.458,100.82 247.464,100.831 247.47,100.842 247.475,100.852 247.481,100.863 247.486,100.873 247.491,100.883 247.496,100.893 247.501,100.903 247.506,100.913 247.511,100.923 247.515,100.933 247.52,100.942 247.524,100.952 247.529,100.961 247.533,100.97 247.537,100.98 247.541,100.989 247.545,100.998 247.549,101.006 247.552,101.015 247.556,101.024 247.56,101.032 247.563,101.041 247.567,101.049 247.57,101.057 247.573,101.065 247.576,101.074 247.579,101.081 247.582,101.089 247.585,101.097 247.588,101.105 247.591,101.112 247.594,101.12 247.597,101.127 247.599,101.135 247.602,101.142 247.604,101.149 247.607,101.156 247.609,101.163 247.612,101.17 247.614,101.177 247.616,101.184 247.618,101.191 247.621,101.197 247.623,101.204 247.625,101.21 247.627,101.217 247.629,101.223 247.631,101.229 247.633,101.236 247.634,101.242 247.636,101.248 247.638,101.254 247.64,101.26 247.641,101.265 247.643,101.271 247.644,101.277 247.646,101.283 247.648,101.288 247.649,101.294 247.651,101.299 247.652,101.305 247.653,101.31 247.655,101.315 247.656,101.32 247.657,101.325 247.659,101.331 247.66,101.336 247.661,101.341 247.662,101.346 247.663,101.35 247.664,101.355 247.666,101.36 247.667,101.365 247.668,101.369 247.669,101.374 247.67,101.378 247.671,101.383 247.672,101.387 247.673,101.392 247.674,101.396 247.674,101.4 247.675,101.405 247.676,101.409 247.677,101.413 247.678,101.417 247.679,101.421 247.679,101.425 247.68,101.429 247.681,101.433 247.682,101.437 247.682,101.441 247.683,101.444 247.684,101.448 247.684,101.452 247.685,101.455 247.686,101.459 247.686,101.463 247.687,101.466 247.687,101.47 247.688,101.473 247.689,101.476 247.689,101.48 247.69,101.483 247.69,101.486 247.691,101.49" stroke="#0071bc" stroke-linejoin="round" stroke-dasharray="8,3,2,3" fill="none"/>
   <polyline stroke-linecap="square" stroke-width="0.5" points="189.531,101.77 195.531,101.77" stroke="#ff0000" stroke-linejoin="miter" fill="none"/>
   <polyline stroke-linecap="square" stroke-width="0.5" points="192.531,98.7699 192.531,104.77" stroke="#ff0000" stroke-linejoin="miter" fill="none"/>
  </g>
  <clipPath id="cp00284211">
   <polygon points="0,211 284,211 284,0 0,0"/>
  </clipPath>
  <g clip-path="url(#cp00284211)">
   <polygon points="192.729,57.9861 245.924,57.9861 245.924,33.7987 192.729,33.7987" shape-rendering="crispEdges" fill="#ffffff"/>
   <polyline stroke-linecap="square" stroke-width="0.5" points="192.729,57.9861 245.924,57.9861" stroke="#262626" stroke-linejoin="miter" stroke-dasharray="16,0" fill="none"/>
   <polyline stroke-linecap="square" stroke-width="0.5" points="192.729,33.7987 245.924,33.7987" stroke="#262626" stroke-linejoin="miter" stroke-dasharray="16,0" fill="none"/>
   <polyline stroke-linecap="square" stroke-width="0.5" points="192.729,57.9861 192.729,33.7987" stroke="#262626" stroke-linejoin="miter" stroke-dasharray="16,0" fill="none"/>
   <polyline stroke-linecap="square" stroke-width="0.5" points="245.924,57.9861 245.924,33.7987" stroke="#262626" stroke-linejoin="miter" stroke-dasharray="16,0" fill="none"/>
   <polyline stroke-linecap="butt" stroke-width="0.5" points="198.628,45.8924 228.125,45.8924" stroke="#0071bc" stroke-linejoin="round" fill="none"/>
   <text transform="translate(234.025,49.8924) rotate(-0,-0,-4)" font-size="9" font-family="FreeSans" font-weight="normal" font-style="normal" xml:space="preserve">
    <tspan x="0 " y="-0" fill="rgb(0,0,0)">H</tspan>
   </text>
  </g>
 </g>
</svg>
