<?xml version='1.0' encoding='UTF-8' standalone='no'?>
<svg viewBox="0 0 284 211" xmlns:xlink="http://www.w3.org/1999/xlink" width="284pt" xmlns="http://www.w3.org/2000/svg" height="211pt">
 <title>gl2ps_renderer figure</title>
 <desc>
Creator: GL2PS 1.4.2, (C) 1999-2020 C. Geuzaine
For: Octave
CreationDate: Thu Mar 23 22:43:14 2023
</desc>
 <defs/>
 <polygon fill="#ffffff" points="0,0 284,0 284,211 0,211"/>
 <g>
  <polygon shape-rendering="crispEdges" fill="#ffffff" points="0,211 284,211 284,0 0,0"/>
  <clipPath id="cp00284211">
   <polygon points="0,211 284,211 284,0 0,0"/>
  </clipPath>
  <g clip-path="url(#cp00284211)">
   <polygon shape-rendering="crispEdges" fill="#ffffff" points="37.0209,181.54 257.723,181.54 257.723,22 37.0209,22"/>
   <polyline stroke-linejoin="miter" stroke-width="0.5" stroke="#262626" fill="none" stroke-opacity="0.15" stroke-linecap="butt" stroke-dasharray="16,0" points="41.7025,181.54 41.7025,22"/>
   <polyline stroke-linejoin="miter" stroke-width="0.5" stroke="#262626" fill="none" stroke-opacity="0.15" stroke-linecap="butt" stroke-dasharray="16,0" points="71.1294,181.54 71.1294,22"/>
   <polyline stroke-linejoin="miter" stroke-width="0.5" stroke="#262626" fill="none" stroke-opacity="0.15" stroke-linecap="butt" stroke-dasharray="16,0" points="100.556,181.54 100.556,22"/>
   <polyline stroke-linejoin="miter" stroke-width="0.5" stroke="#262626" fill="none" stroke-opacity="0.15" stroke-linecap="butt" stroke-dasharray="16,0" points="129.983,181.54 129.983,22"/>
   <polyline stroke-linejoin="miter" stroke-width="0.5" stroke="#262626" fill="none" stroke-opacity="0.15" stroke-linecap="butt" stroke-dasharray="16,0" points="159.41,181.54 159.41,22"/>
   <polyline stroke-linejoin="miter" stroke-width="0.5" stroke="#262626" fill="none" stroke-opacity="0.15" stroke-linecap="butt" stroke-dasharray="16,0" points="188.837,181.54 188.837,22"/>
   <polyline stroke-linejoin="miter" stroke-width="0.5" stroke="#262626" fill="none" stroke-opacity="0.15" stroke-linecap="butt" stroke-dasharray="16,0" points="218.264,181.54 218.264,22"/>
   <polyline stroke-linejoin="miter" stroke-width="0.5" stroke="#262626" fill="none" stroke-opacity="0.15" stroke-linecap="butt" stroke-dasharray="16,0" points="247.691,181.54 247.691,22"/>
   <polyline stroke-linejoin="miter" stroke-width="0.5" stroke="#262626" fill="none" stroke-linecap="butt" points="41.7025,181.54 41.7025,179.339"/>
   <polyline stroke-linejoin="miter" stroke-width="0.5" stroke="#262626" fill="none" stroke-linecap="butt" points="41.7025,22 41.7025,24.2007"/>
   <polyline stroke-linejoin="miter" stroke-width="0.5" stroke="#262626" fill="none" stroke-linecap="butt" points="71.1294,181.54 71.1294,179.339"/>
   <polyline stroke-linejoin="miter" stroke-width="0.5" stroke="#262626" fill="none" stroke-linecap="butt" points="71.1294,22 71.1294,24.2007"/>
   <polyline stroke-linejoin="miter" stroke-width="0.5" stroke="#262626" fill="none" stroke-linecap="butt" points="100.556,181.54 100.556,179.339"/>
   <polyline stroke-linejoin="miter" stroke-width="0.5" stroke="#262626" fill="none" stroke-linecap="butt" points="100.556,22 100.556,24.2007"/>
   <polyline stroke-linejoin="miter" stroke-width="0.5" stroke="#262626" fill="none" stroke-linecap="butt" points="129.983,181.54 129.983,179.339"/>
   <polyline stroke-linejoin="miter" stroke-width="0.5" stroke="#262626" fill="none" stroke-linecap="butt" points="129.983,22 129.983,24.2007"/>
   <polyline stroke-linejoin="miter" stroke-width="0.5" stroke="#262626" fill="none" stroke-linecap="butt" points="159.41,181.54 159.41,179.339"/>
   <polyline stroke-linejoin="miter" stroke-width="0.5" stroke="#262626" fill="none" stroke-linecap="butt" points="159.41,22 159.41,24.2007"/>
   <polyline stroke-linejoin="miter" stroke-width="0.5" stroke="#262626" fill="none" stroke-linecap="butt" points="188.837,181.54 188.837,179.339"/>
   <polyline stroke-linejoin="miter" stroke-width="0.5" stroke="#262626" fill="none" stroke-linecap="butt" points="188.837,22 188.837,24.2007"/>
   <polyline stroke-linejoin="miter" stroke-width="0.5" stroke="#262626" fill="none" stroke-linecap="butt" points="218.264,181.54 218.264,179.339"/>
   <polyline stroke-linejoin="miter" stroke-width="0.5" stroke="#262626" fill="none" stroke-linecap="butt" points="218.264,22 218.264,24.2007"/>
   <polyline stroke-linejoin="miter" stroke-width="0.5" stroke="#262626" fill="none" stroke-linecap="butt" points="247.691,181.54 247.691,179.339"/>
   <polyline stroke-linejoin="miter" stroke-width="0.5" stroke="#262626" fill="none" stroke-linecap="butt" points="247.691,22 247.691,24.2007"/>
   <text xml:space="preserve" font-weight="normal" font-size="10" font-family="FreeSans" transform="translate(32.7025,197.018) rotate(-0,9,-8)" font-style="normal">
    <tspan y="-0" fill="rgb(38,38,38)" x="0 3 9 12 ">-1.4</tspan>
   </text>
   <text xml:space="preserve" font-weight="normal" font-size="10" font-family="FreeSans" transform="translate(62.1294,197.018) rotate(-0,9,-8)" font-style="normal">
    <tspan y="-0" fill="rgb(38,38,38)" x="0 3 9 12 ">-1.2</tspan>
   </text>
   <text xml:space="preserve" font-weight="normal" font-size="10" font-family="FreeSans" transform="translate(96.0563,197.018) rotate(-0,4.5,-8)" font-style="normal">
    <tspan y="-0" fill="rgb(38,38,38)" x="0 3 ">-1</tspan>
   </text>
   <text xml:space="preserve" font-weight="normal" font-size="10" font-family="FreeSans" transform="translate(120.983,197.018) rotate(-0,9,-8)" font-style="normal">
    <tspan y="-0" fill="rgb(38,38,38)" x="0 3 9 12 ">-0.8</tspan>
   </text>
   <text xml:space="preserve" font-weight="normal" font-size="10" font-family="FreeSans" transform="translate(150.41,197.018) rotate(-0,9,-8)" font-style="normal">
    <tspan y="-0" fill="rgb(38,38,38)" x="0 3 9 12 ">-0.6</tspan>
   </text>
   <text xml:space="preserve" font-weight="normal" font-size="10" font-family="FreeSans" transform="translate(179.837,197.018) rotate(-0,9,-8)" font-style="normal">
    <tspan y="-0" fill="rgb(38,38,38)" x="0 3 9 12 ">-0.4</tspan>
   </text>
   <text xml:space="preserve" font-weight="normal" font-size="10" font-family="FreeSans" transform="translate(209.264,197.018) rotate(-0,9,-8)" font-style="normal">
    <tspan y="-0" fill="rgb(38,38,38)" x="0 3 9 12 ">-0.2</tspan>
   </text>
   <text xml:space="preserve" font-weight="normal" font-size="10" font-family="FreeSans" transform="translate(244.691,197.018) rotate(-0,3,-8)" font-style="normal">
    <tspan y="-0" fill="rgb(38,38,38)" x="0 ">0</tspan>
   </text>
   <polyline stroke-linejoin="miter" stroke-width="0.5" stroke="#262626" fill="none" stroke-opacity="0.15" stroke-linecap="butt" stroke-dasharray="16,0" points="37.0209,181.429 257.723,181.429"/>
   <polyline stroke-linejoin="miter" stroke-width="0.5" stroke="#262626" fill="none" stroke-opacity="0.15" stroke-linecap="butt" stroke-dasharray="16,0" points="37.0209,154.876 257.723,154.876"/>
   <polyline stroke-linejoin="miter" stroke-width="0.5" stroke="#262626" fill="none" stroke-opacity="0.15" stroke-linecap="butt" stroke-dasharray="16,0" points="37.0209,128.323 257.723,128.323"/>
   <polyline stroke-linejoin="miter" stroke-width="0.5" stroke="#262626" fill="none" stroke-opacity="0.15" stroke-linecap="butt" stroke-dasharray="16,0" points="37.0209,101.77 257.723,101.77"/>
   <polyline stroke-linejoin="miter" stroke-width="0.5" stroke="#262626" fill="none" stroke-opacity="0.15" stroke-linecap="butt" stroke-dasharray="16,0" points="37.0209,75.2168 257.723,75.2168"/>
   <polyline stroke-linejoin="miter" stroke-width="0.5" stroke="#262626" fill="none" stroke-opacity="0.15" stroke-linecap="butt" stroke-dasharray="16,0" points="37.0209,48.6637 257.723,48.6637"/>
   <polyline stroke-linejoin="miter" stroke-width="0.5" stroke="#262626" fill="none" stroke-opacity="0.15" stroke-linecap="butt" stroke-dasharray="16,0" points="37.0209,22.1106 257.723,22.1106"/>
   <polyline stroke-linejoin="miter" stroke-width="0.5" stroke="#262626" fill="none" stroke-linecap="butt" points="37.0209,181.429 39.225,181.429"/>
   <polyline stroke-linejoin="miter" stroke-width="0.5" stroke="#262626" fill="none" stroke-linecap="butt" points="257.723,181.429 255.519,181.429"/>
   <polyline stroke-linejoin="miter" stroke-width="0.5" stroke="#262626" fill="none" stroke-linecap="butt" points="37.0209,154.876 39.225,154.876"/>
   <polyline stroke-linejoin="miter" stroke-width="0.5" stroke="#262626" fill="none" stroke-linecap="butt" points="257.723,154.876 255.519,154.876"/>
   <polyline stroke-linejoin="miter" stroke-width="0.5" stroke="#262626" fill="none" stroke-linecap="butt" points="37.0209,128.323 39.225,128.323"/>
   <polyline stroke-linejoin="miter" stroke-width="0.5" stroke="#262626" fill="none" stroke-linecap="butt" points="257.723,128.323 255.519,128.323"/>
   <polyline stroke-linejoin="miter" stroke-width="0.5" stroke="#262626" fill="none" stroke-linecap="butt" points="37.0209,101.77 39.225,101.77"/>
   <polyline stroke-linejoin="miter" stroke-width="0.5" stroke="#262626" fill="none" stroke-linecap="butt" points="257.723,101.77 255.519,101.77"/>
   <polyline stroke-linejoin="miter" stroke-width="0.5" stroke="#262626" fill="none" stroke-linecap="butt" points="37.0209,75.2168 39.225,75.2168"/>
   <polyline stroke-linejoin="miter" stroke-width="0.5" stroke="#262626" fill="none" stroke-linecap="butt" points="257.723,75.2168 255.519,75.2168"/>
   <polyline stroke-linejoin="miter" stroke-width="0.5" stroke="#262626" fill="none" stroke-linecap="butt" points="37.0209,48.6637 39.225,48.6637"/>
   <polyline stroke-linejoin="miter" stroke-width="0.5" stroke="#262626" fill="none" stroke-linecap="butt" points="257.723,48.6637 255.519,48.6637"/>
   <polyline stroke-linejoin="miter" stroke-width="0.5" stroke="#262626" fill="none" stroke-linecap="butt" points="37.0209,22.1106 39.225,22.1106"/>
   <polyline stroke-linejoin="miter" stroke-width="0.5" stroke="#262626" fill="none" stroke-linecap="butt" points="257.723,22.1106 255.519,22.1106"/>
   <text xml:space="preserve" font-weight="normal" font-size="10" font-family="FreeSans" transform="translate(23.0277,185.429) rotate(-0,9,-4)" font-style="normal">
    <tspan y="-0" fill="rgb(38,38,38)" x="0 3 ">-3</tspan>
   </text>
   <text xml:space="preserve" font-weight="normal" font-size="10" font-family="FreeSans" transform="translate(23.0277,158.876) rotate(-0,9,-4)" font-style="normal">
    <tspan y="-0" fill="rgb(38,38,38)" x="0 3 ">-2</tspan>
   </text>
   <text xml:space="preserve" font-weight="normal" font-size="10" font-family="FreeSans" transform="translate(23.0277,132.323) rotate(-0,9,-4)" font-style="normal">
    <tspan y="-0" fill="rgb(38,38,38)" x="0 3 ">-1</tspan>
   </text>
   <text xml:space="preserve" font-weight="normal" font-size="10" font-family="FreeSans" transform="translate(26.0277,105.77) rotate(-0,6,-4)" font-style="normal">
    <tspan y="-0" fill="rgb(38,38,38)" x="0 ">0</tspan>
   </text>
   <text xml:space="preserve" font-weight="normal" font-size="10" font-family="FreeSans" transform="translate(26.0277,79.2168) rotate(-0,6,-4)" font-style="normal">
    <tspan y="-0" fill="rgb(38,38,38)" x="0 ">1</tspan>
   </text>
   <text xml:space="preserve" font-weight="normal" font-size="10" font-family="FreeSans" transform="translate(26.0277,52.6637) rotate(-0,6,-4)" font-style="normal">
    <tspan y="-0" fill="rgb(38,38,38)" x="0 ">2</tspan>
   </text>
   <text xml:space="preserve" font-weight="normal" font-size="10" font-family="FreeSans" transform="translate(26.0277,26.1106) rotate(-0,6,-4)" font-style="normal">
    <tspan y="-0" fill="rgb(38,38,38)" x="0 ">3</tspan>
   </text>
   <polyline stroke-linejoin="miter" stroke-width="0.5" stroke="#262626" fill="none" stroke-linecap="square" stroke-dasharray="16,0" points="37.0209,181.54 257.723,181.54"/>
   <polyline stroke-linejoin="miter" stroke-width="0.5" stroke="#262626" fill="none" stroke-linecap="square" stroke-dasharray="16,0" points="37.0209,22 257.723,22"/>
   <polyline stroke-linejoin="miter" stroke-width="0.5" stroke="#262626" fill="none" stroke-linecap="square" stroke-dasharray="16,0" points="37.0209,181.54 37.0209,22"/>
   <polyline stroke-linejoin="miter" stroke-width="0.5" stroke="#262626" fill="none" stroke-linecap="square" stroke-dasharray="16,0" points="257.723,181.54 257.723,22"/>
   <text xml:space="preserve" font-weight="bold" font-size="11" font-family="FreeSans" transform="translate(103.372,12) rotate(-0,44,0)" font-style="normal">
    <tspan y="-3" fill="rgb(0,0,0)" x="0 8 14 21 28 31 37 41 44 52 55 61 68 72 78 ">Nyquist Diagram</tspan>
   </text>
   <text xml:space="preserve" font-weight="normal" font-size="11" font-family="FreeSans" transform="translate(-16.4723,101.77) rotate(-90,34.5,0)" font-style="normal">
    <tspan y="-2" fill="rgb(38,38,38)" x="0 3 12 18 24 26 32 38 42 47 50 57 62 64 ">Imaginary Axis</tspan>
   </text>
   <text xml:space="preserve" font-weight="normal" font-size="11" font-family="FreeSans" transform="translate(125.372,211.018) rotate(-0,22,-9)" font-style="normal">
    <tspan y="-0" fill="rgb(38,38,38)" x="0 8 14 20 22 25 32 37 39 ">Real Axis</tspan>
   </text>
   <polyline stroke-linejoin="round" stroke-width="0.5" stroke="#0071bc" fill="none" stroke-linecap="butt" points="47.0528,29.2518 47.6498,30.7488 48.2627,32.2253 48.8918,33.6815 49.5373,35.1177 50.1997,36.5342 50.8792,37.9312 51.5761,39.3092 52.2907,40.6682 53.0233,42.0087 53.7743,43.3307 54.5438,44.6346 55.3322,45.9206 56.1397,47.189 56.9667,48.4398 57.8134,49.6734 58.68,50.89 59.5668,52.0897 60.474,53.2728 61.4018,54.4393 62.3506,55.5896 63.3203,56.7236 64.3113,57.8417 65.3237,58.944 66.3577,60.0306 67.4134,61.1016 68.4909,62.1572 69.5903,63.1975 70.7118,64.2227 71.8553,65.2327 73.021,66.2279 74.2088,67.2082 75.4188,68.1737 76.6509,69.1246 77.9051,70.0609 79.1813,70.9828 80.4794,71.8902 81.7994,72.7833 83.1409,73.6621 84.5039,74.5267 85.8881,75.3772 87.2933,76.2137 88.7193,77.0361 90.1657,77.8445 91.6322,78.639 93.1184,79.4197 94.6241,80.1865 96.1486,80.9395 97.6917,81.6789 99.2528,82.4045 100.831,83.1165 102.427,83.8149 104.039,84.4998 105.666,85.1711 107.309,85.829 108.967,86.4735 110.638,87.1046 112.322,87.7224 114.019,88.3269 115.727,88.9182 117.446,89.4964 119.175,90.0615 120.914,90.6135 122.661,91.1526 124.415,91.6789 126.176,92.1923 127.943,92.693 129.714,93.181 131.49,93.6565 133.268,94.1195 135.049,94.5702 136.831,95.0086 137.34,95.1316 138.613,95.4349 140.394,95.8491 142.174,96.2514 143.952,96.6419 145.726,97.0207 147.495,97.388 149.26,97.7439 151.018,98.0885 152.769,98.422 154.512,98.7446 156.247,99.0563 157.972,99.3574 159.686,99.6481 161.39,99.9284 163.081,100.199 164.76,100.459 166.425,100.709 168.077,100.95 169.713,101.182 171.334,101.404 172.939,101.617 174.527,101.821 176.098,102.017 177.652,102.204 179.187,102.383 180.704,102.554 182.201,102.717 183.679,102.872 185.137,103.02 186.574,103.16 187.991,103.294 189.388,103.42 190.763,103.54 192.117,103.654 193.449,103.761 194.76,103.862 196.048,103.957 197.315,104.046 198.56,104.13 199.782,104.208 200.983,104.281 202.161,104.35 203.317,104.413 203.551,104.425 204.452,104.472 205.564,104.526 206.654,104.576 207.722,104.621 208.768,104.663 209.793,104.701 210.796,104.735 211.778,104.766 212.739,104.793 213.678,104.817 214.597,104.838 215.496,104.856 216.374,104.871 217.232,104.883 218.07,104.892 218.889,104.9 219.688,104.905 220.468,104.907 221.23,104.908 221.973,104.906 222.698,104.903 223.405,104.897 224.094,104.89 224.766,104.881 225.421,104.871 226.06,104.86 226.682,104.846 227.288,104.832 227.878,104.816 228.453,104.8 229.013,104.782 229.558,104.763 230.088,104.743 230.604,104.723 231.107,104.701 231.595,104.679 232.071,104.656 232.533,104.632 232.983,104.608 233.42,104.584 233.845,104.558 234.258,104.533 234.66,104.507 235.051,104.48 235.43,104.453 235.799,104.426 236.157,104.399 236.505,104.371 236.843,104.343 237.171,104.315 237.49,104.287 237.8,104.259 238.101,104.231 238.393,104.202 238.676,104.174 238.951,104.146 239.219,104.117 239.478,104.089 239.729,104.06 239.974,104.032 240.211,104.004 240.441,103.976 240.664,103.948 240.88,103.92 241.09,103.892 241.294,103.864 241.492,103.837 241.683,103.809 241.869,103.782 242.049,103.755 242.224,103.729 242.394,103.702 242.558,103.676 242.718,103.649 242.872,103.623 243.022,103.598 243.168,103.572 243.309,103.547 243.445,103.522 243.578,103.497 243.706,103.473 243.83,103.448 243.951,103.424 244.068,103.401 244.181,103.377 244.291,103.354 244.398,103.331 244.501,103.308 244.601,103.286 244.698,103.263 244.792,103.241 244.883,103.22 244.971,103.198 245.056,103.177 245.139,103.156 245.219,103.135 245.297,103.115 245.372,103.095 245.445,103.075 245.516,103.055 245.584,103.036 245.651,103.017 245.715,102.998 245.777,102.979 245.837,102.961 245.896,102.943 245.952,102.925 246.007,102.907 246.06,102.89 246.112,102.873 246.162,102.856 246.21,102.839 246.257,102.823 246.302,102.806 246.346,102.791 246.388,102.775 246.43,102.759 246.469,102.744 246.508,102.729 246.546,102.714 246.582,102.699 246.617,102.685 246.651,102.671 246.684,102.657 246.716,102.643 246.746,102.629 246.776,102.616 246.805,102.602 246.833,102.589 246.861,102.577 246.887,102.564 246.912,102.552 246.937,102.539 246.961,102.527 246.984,102.515 247.006,102.504 247.028,102.492 247.049,102.481 247.069,102.47 247.089,102.458 247.108,102.448 247.127,102.437 247.145,102.426 247.162,102.416 247.179,102.406 247.195,102.396 247.211,102.386 247.226,102.376 247.241,102.367 247.255,102.357 247.269,102.348 247.282,102.339 247.295,102.33 247.308,102.321 247.32,102.312 247.332,102.303 247.343,102.295 247.354,102.287 247.365,102.278 247.375,102.27 247.385,102.262 247.395,102.255 247.404,102.247 247.413,102.239 247.422,102.232 247.431,102.224 247.439,102.217 247.447,102.21 247.455,102.203 247.462,102.196 247.469,102.189 247.477,102.183 247.483,102.176 247.49,102.17 247.496,102.163 247.502,102.157 247.508,102.151 247.514,102.145 247.52,102.139 247.525,102.133 247.531,102.127 247.536,102.121 247.541,102.116 247.545,102.11 247.55,102.105 247.554,102.1 247.559,102.094 247.563,102.089 247.567,102.084 247.571,102.079 247.575,102.074 247.579,102.069 247.582,102.064 247.586,102.06 247.589,102.055 247.592,102.051 247.595,102.046 247.598,102.042 247.601,102.037 247.604,102.033 247.607,102.029 247.61,102.025 247.612,102.021 247.615,102.017 247.617,102.013 247.619,102.009 247.622,102.005 247.624,102.001 247.626,101.997 247.628,101.994 247.63,101.99 247.632,101.987 247.634,101.983 247.636,101.98 247.637,101.977 247.639,101.973 247.641,101.97 247.642,101.967 247.644,101.964 247.645,101.961 247.647,101.957 247.648,101.954 247.65,101.951 247.651,101.949 247.652,101.946 247.653,101.943 247.655,101.94 247.656,101.937 247.657,101.935 247.658,101.932 247.659,101.93 247.66,101.927 247.661,101.924 247.662,101.922 247.663,101.92 247.664,101.917 247.665,101.915 247.666,101.912 247.666,101.91 247.667,101.908 247.668,101.906 247.669,101.904 247.669,101.901 247.67,101.899 247.671,101.897 247.671,101.895 247.672,101.893 247.673,101.891 247.673,101.889 247.674,101.887 247.674,101.885 247.675,101.884 247.675,101.882 247.676,101.88 247.676,101.878 247.677,101.877 247.677,101.875 247.678,101.873 247.678,101.871 247.678,101.87 247.679,101.868 247.679,101.867 247.68,101.865 247.68,101.864 247.68,101.862 247.681,101.861 247.681,101.859 247.681,101.858 247.682,101.856 247.682,101.855 247.682,101.854 247.682,101.852 247.683,101.851 247.683,101.85 247.683,101.848 247.684,101.847 247.684,101.846 247.684,101.845 247.684,101.843 247.684,101.842 247.685,101.841 247.685,101.84 247.685,101.839 247.685,101.838 247.685,101.837 247.686,101.836 247.686,101.835 247.686,101.833 247.686,101.832 247.686,101.831 247.686,101.83 247.687,101.83 247.687,101.829 247.687,101.828 247.687,101.827 247.687,101.826 247.687,101.825 247.687,101.824 247.687,101.823 247.688,101.822 247.688,101.821 247.688,101.821 247.688,101.82 247.688,101.819 247.688,101.818 247.688,101.817 247.688,101.817 247.688,101.816 247.688,101.815 247.688,101.814 247.689,101.814 247.689,101.813 247.689,101.812 247.689,101.812 247.689,101.811 247.689,101.81 247.689,101.81 247.689,101.809 247.689,101.808 247.689,101.808 247.689,101.807 247.689,101.807 247.689,101.806 247.689,101.805 247.689,101.805 247.689,101.804 247.69,101.804 247.69,101.803 247.69,101.803 247.69,101.802 247.69,101.802 247.69,101.801 247.69,101.801 247.69,101.8 247.69,101.8 247.69,101.799 247.69,101.799 247.69,101.798 247.69,101.798 247.69,101.797 247.69,101.797 247.69,101.796 247.69,101.796 247.69,101.796 247.69,101.795 247.69,101.795 247.69,101.794 247.69,101.794 247.69,101.794 247.69,101.793 247.69,101.793 247.69,101.793 247.69,101.792 247.69,101.792 247.69,101.791 247.69,101.791 247.69,101.791 247.69,101.79 247.69,101.79 247.69,101.79 247.691,101.789 247.691,101.789 247.691,101.789 247.691,101.789 247.691,101.788 247.691,101.788 247.691,101.788 247.691,101.787 247.691,101.787 247.691,101.787 247.691,101.787 247.691,101.786 247.691,101.786 247.691,101.786 247.691,101.785 247.691,101.785 247.691,101.785 247.691,101.785 247.691,101.785 247.691,101.784 247.691,101.784 247.691,101.784 247.691,101.784 247.691,101.783 247.691,101.783"/>
   <polyline stroke-linejoin="round" stroke-width="0.5" stroke="#0071bc" fill="none" stroke-linecap="butt" stroke-dasharray="8,3,2,3" points="47.0528,174.288 47.6498,172.791 48.2627,171.315 48.8918,169.858 49.5373,168.422 50.1997,167.006 50.8792,165.609 51.5761,164.231 52.2907,162.872 53.0233,161.531 53.7743,160.209 54.5438,158.905 55.3322,157.619 56.1397,156.351 56.9667,155.1 57.8134,153.866 58.68,152.65 59.5668,151.45 60.474,150.267 61.4018,149.1 62.3506,147.95 63.3203,146.816 64.3113,145.698 65.3237,144.596 66.3577,143.509 67.4134,142.438 68.4909,141.383 69.5903,140.342 70.7118,139.317 71.8553,138.307 73.021,137.312 74.2088,136.332 75.4188,135.366 76.6509,134.415 77.9051,133.479 79.1813,132.557 80.4794,131.65 81.7994,130.757 83.1409,129.878 84.5039,129.013 85.8881,128.163 87.2933,127.326 88.7193,126.504 90.1657,125.695 91.6322,124.901 93.1184,124.12 94.6241,123.353 96.1486,122.6 97.6917,121.861 99.2528,121.135 100.831,120.423 102.427,119.725 104.039,119.04 105.666,118.369 107.309,117.711 108.967,117.066 110.638,116.435 112.322,115.817 114.019,115.213 115.727,114.622 117.446,114.043 119.175,113.478 120.914,112.926 122.661,112.387 124.415,111.861 126.176,111.348 127.943,110.847 129.714,110.359 131.49,109.883 133.268,109.42 135.049,108.97 136.831,108.531 137.34,108.408 138.613,108.105 140.394,107.691 142.174,107.288 143.952,106.898 145.726,106.519 147.495,106.152 149.26,105.796 151.018,105.451 152.769,105.118 154.512,104.795 156.247,104.483 157.972,104.182 159.686,103.892 161.39,103.611 163.081,103.341 164.76,103.081 166.425,102.831 168.077,102.59 169.713,102.358 171.334,102.136 172.939,101.923 174.527,101.719 176.098,101.523 177.652,101.336 179.187,101.157 180.704,100.986 182.201,100.823 183.679,100.668 185.137,100.52 186.574,100.379 187.991,100.246 189.388,100.119 190.763,99.9995 192.117,99.8861 193.449,99.779 194.76,99.6781 196.048,99.5831 197.315,99.4938 198.56,99.41 199.782,99.3316 200.983,99.2585 202.161,99.1903 203.317,99.1269 203.551,99.1146 204.452,99.0683 205.564,99.0141 206.654,98.9642 207.722,98.9185 208.768,98.8768 209.793,98.8389 210.796,98.8048 211.778,98.7742 212.739,98.747 213.678,98.723 214.597,98.7022 215.496,98.6843 216.374,98.6693 217.232,98.657 218.07,98.6473 218.889,98.6401 219.688,98.6353 220.468,98.6327 221.23,98.6322 221.973,98.6338 222.698,98.6373 223.405,98.6426 224.094,98.6496 224.766,98.6583 225.421,98.6686 226.06,98.6803 226.682,98.6934 227.288,98.7077 227.878,98.7233 228.453,98.7401 229.013,98.7579 229.558,98.7767 230.088,98.7965 230.604,98.8172 231.107,98.8386 231.595,98.8609 232.071,98.8838 232.533,98.9074 232.983,98.9315 233.42,98.9563 233.845,98.9815 234.258,99.0072 234.66,99.0333 235.051,99.0597 235.43,99.0866 235.799,99.1137 236.157,99.141 236.505,99.1686 236.843,99.1964 237.171,99.2244 237.49,99.2525 237.8,99.2808 238.101,99.3091 238.393,99.3374 238.676,99.3659 238.951,99.3943 239.219,99.4227 239.478,99.4511 239.729,99.4795 239.974,99.5078 240.211,99.536 240.441,99.5641 240.664,99.5922 240.88,99.6201 241.09,99.6479 241.294,99.6755 241.492,99.703 241.683,99.7304 241.869,99.7575 242.049,99.7845 242.224,99.8112 242.394,99.8378 242.558,99.8642 242.718,99.8904 242.872,99.9163 243.022,99.942 243.168,99.9675 243.309,99.9928 243.445,100.018 243.578,100.043 243.706,100.067 243.83,100.091 243.951,100.115 244.068,100.139 244.181,100.163 244.291,100.186 244.398,100.209 244.501,100.232 244.601,100.254 244.698,100.276 244.792,100.298 244.883,100.32 244.971,100.342 245.056,100.363 245.139,100.384 245.219,100.404 245.297,100.425 245.372,100.445 245.445,100.465 245.516,100.484 245.584,100.504 245.651,100.523 245.715,100.542 245.777,100.56 245.837,100.579 245.896,100.597 245.952,100.615 246.007,100.632 246.06,100.65 246.112,100.667 246.162,100.684 246.21,100.701 246.257,100.717 246.302,100.733 246.346,100.749 246.388,100.765 246.43,100.781 246.469,100.796 246.508,100.811 246.546,100.826 246.582,100.841 246.617,100.855 246.651,100.869 246.684,100.883 246.716,100.897 246.746,100.911 246.776,100.924 246.805,100.937 246.833,100.95 246.861,100.963 246.887,100.976 246.912,100.988 246.937,101.001 246.961,101.013 246.984,101.024 247.006,101.036 247.028,101.048 247.049,101.059 247.069,101.07 247.089,101.081 247.108,101.092 247.127,101.103 247.145,101.113 247.162,101.124 247.179,101.134 247.195,101.144 247.211,101.154 247.226,101.164 247.241,101.173 247.255,101.183 247.269,101.192 247.282,101.201 247.295,101.21 247.308,101.219 247.32,101.228 247.332,101.236 247.343,101.245 247.354,101.253 247.365,101.261 247.375,101.269 247.385,101.277 247.395,101.285 247.404,101.293 247.413,101.3 247.422,101.308 247.431,101.315 247.439,101.323 247.447,101.33 247.455,101.337 247.462,101.344 247.469,101.35 247.477,101.357 247.483,101.364 247.49,101.37 247.496,101.376 247.502,101.383 247.508,101.389 247.514,101.395 247.52,101.401 247.525,101.407 247.531,101.413 247.536,101.418 247.541,101.424 247.545,101.429 247.55,101.435 247.554,101.44 247.559,101.445 247.563,101.451 247.567,101.456 247.571,101.461 247.575,101.466 247.579,101.471 247.582,101.475 247.586,101.48 247.589,101.485 247.592,101.489 247.595,101.494 247.598,101.498 247.601,101.502 247.604,101.507 247.607,101.511 247.61,101.515 247.612,101.519 247.615,101.523 247.617,101.527 247.619,101.531 247.622,101.535 247.624,101.539 247.626,101.542 247.628,101.546 247.63,101.55 247.632,101.553 247.634,101.557 247.636,101.56 247.637,101.563 247.639,101.567 247.641,101.57 247.642,101.573 247.644,101.576 247.645,101.579 247.647,101.582 247.648,101.585 247.65,101.588 247.651,101.591 247.652,101.594 247.653,101.597 247.655,101.6 247.656,101.602 247.657,101.605 247.658,101.608 247.659,101.61 247.66,101.613 247.661,101.615 247.662,101.618 247.663,101.62 247.664,101.623 247.665,101.625 247.666,101.627 247.666,101.63 247.667,101.632 247.668,101.634 247.669,101.636 247.669,101.638 247.67,101.64 247.671,101.643 247.671,101.645 247.672,101.647 247.673,101.649 247.673,101.651 247.674,101.652 247.674,101.654 247.675,101.656 247.675,101.658 247.676,101.66 247.676,101.662 247.677,101.663 247.677,101.665 247.678,101.667 247.678,101.668 247.678,101.67 247.679,101.672 247.679,101.673 247.68,101.675 247.68,101.676 247.68,101.678 247.681,101.679 247.681,101.681 247.681,101.682 247.682,101.683 247.682,101.685 247.682,101.686 247.682,101.688 247.683,101.689 247.683,101.69 247.683,101.691 247.684,101.693 247.684,101.694 247.684,101.695 247.684,101.696 247.684,101.698 247.685,101.699 247.685,101.7 247.685,101.701 247.685,101.702 247.685,101.703 247.686,101.704 247.686,101.705 247.686,101.706 247.686,101.707 247.686,101.708 247.686,101.709 247.687,101.71 247.687,101.711 247.687,101.712 247.687,101.713 247.687,101.714 247.687,101.715 247.687,101.716 247.687,101.717 247.688,101.718 247.688,101.718 247.688,101.719 247.688,101.72 247.688,101.721 247.688,101.722 247.688,101.722 247.688,101.723 247.688,101.724 247.688,101.725 247.688,101.725 247.689,101.726 247.689,101.727 247.689,101.727 247.689,101.728 247.689,101.729 247.689,101.729 247.689,101.73 247.689,101.731 247.689,101.731 247.689,101.732 247.689,101.733 247.689,101.733 247.689,101.734 247.689,101.734 247.689,101.735 247.689,101.735 247.69,101.736 247.69,101.737 247.69,101.737 247.69,101.738 247.69,101.738 247.69,101.739 247.69,101.739 247.69,101.74 247.69,101.74 247.69,101.741 247.69,101.741 247.69,101.742 247.69,101.742 247.69,101.742 247.69,101.743 247.69,101.743 247.69,101.744 247.69,101.744 247.69,101.745 247.69,101.745 247.69,101.745 247.69,101.746 247.69,101.746 247.69,101.747 247.69,101.747 247.69,101.747 247.69,101.748 247.69,101.748 247.69,101.748 247.69,101.749 247.69,101.749 247.69,101.749 247.69,101.75 247.69,101.75 247.691,101.75 247.691,101.751 247.691,101.751 247.691,101.751 247.691,101.752 247.691,101.752 247.691,101.752 247.691,101.752 247.691,101.753 247.691,101.753 247.691,101.753 247.691,101.754 247.691,101.754 247.691,101.754 247.691,101.754 247.691,101.755 247.691,101.755 247.691,101.755 247.691,101.755 247.691,101.756 247.691,101.756 247.691,101.756 247.691,101.756 247.691,101.756 247.691,101.757"/>
   <polyline stroke-linejoin="miter" stroke-width="0.5" stroke="#ff0000" fill="none" stroke-linecap="square" points="97.5563,101.77 103.556,101.77"/>
   <polyline stroke-linejoin="miter" stroke-width="0.5" stroke="#ff0000" fill="none" stroke-linecap="square" points="100.556,98.7699 100.556,104.77"/>
  </g>
  <clipPath id="cp00284211">
   <polygon points="0,211 284,211 284,0 0,0"/>
  </clipPath>
  <g clip-path="url(#cp00284211)">
   <polygon shape-rendering="crispEdges" fill="#ffffff" points="192.729,57.9861 245.924,57.9861 245.924,33.7987 192.729,33.7987"/>
   <polyline stroke-linejoin="miter" stroke-width="0.5" stroke="#262626" fill="none" stroke-linecap="square" stroke-dasharray="16,0" points="192.729,57.9861 245.924,57.9861"/>
   <polyline stroke-linejoin="miter" stroke-width="0.5" stroke="#262626" fill="none" stroke-linecap="square" stroke-dasharray="16,0" points="192.729,33.7987 245.924,33.7987"/>
   <polyline stroke-linejoin="miter" stroke-width="0.5" stroke="#262626" fill="none" stroke-linecap="square" stroke-dasharray="16,0" points="192.729,57.9861 192.729,33.7987"/>
   <polyline stroke-linejoin="miter" stroke-width="0.5" stroke="#262626" fill="none" stroke-linecap="square" stroke-dasharray="16,0" points="245.924,57.9861 245.924,33.7987"/>
   <polyline stroke-linejoin="round" stroke-width="0.5" stroke="#0071bc" fill="none" stroke-linecap="butt" points="198.628,45.8924 228.125,45.8924"/>
   <text xml:space="preserve" font-weight="normal" font-size="9" font-family="FreeSans" transform="translate(234.025,49.8924) rotate(-0,-0,-4)" font-style="normal">
    <tspan y="-0" fill="rgb(0,0,0)" x="0 ">H</tspan>
   </text>
  </g>
 </g>
</svg>
